<svg width="238" height="17" viewBox="0 0 238 17" fill="none" xmlns="http://www.w3.org/2000/svg">
<path d="M22.1513 8.05V5.712H24.2093C24.4053 5.712 24.592 5.73067 24.7693 5.768C24.956 5.796 25.1193 5.852 25.2593 5.936C25.3993 6.02 25.5113 6.13667 25.5953 6.286C25.6793 6.43533 25.7213 6.62667 25.7213 6.86C25.7213 7.28 25.5953 7.58333 25.3433 7.77C25.0913 7.95667 24.7693 8.05 24.3773 8.05H22.1513ZM19.9533 4.004V14H24.7973C25.2453 14 25.6793 13.944 26.0993 13.832C26.5286 13.72 26.9066 13.5473 27.2333 13.314C27.5693 13.0807 27.8353 12.782 28.0313 12.418C28.2273 12.0447 28.3253 11.606 28.3253 11.102C28.3253 10.4767 28.1713 9.94467 27.8633 9.506C27.5646 9.058 27.1073 8.74533 26.4913 8.568C26.9393 8.35333 27.2753 8.078 27.4993 7.742C27.7326 7.406 27.8493 6.986 27.8493 6.482C27.8493 6.01533 27.77 5.62333 27.6113 5.306C27.462 4.98867 27.2473 4.73667 26.9673 4.55C26.6873 4.354 26.3513 4.214 25.9593 4.13C25.5673 4.046 25.1333 4.004 24.6573 4.004H19.9533ZM22.1513 12.292V9.548H24.5453C25.0213 9.548 25.404 9.66 25.6933 9.884C25.9826 10.0987 26.1273 10.4627 26.1273 10.976C26.1273 11.2373 26.0806 11.452 25.9873 11.62C25.9033 11.788 25.7866 11.9233 25.6373 12.026C25.488 12.1193 25.3153 12.1893 25.1193 12.236C24.9233 12.2733 24.718 12.292 24.5033 12.292H22.1513ZM32.1347 9.044C32.1347 8.60533 32.1814 8.18067 32.2747 7.77C32.3774 7.35933 32.5361 6.99533 32.7507 6.678C32.9654 6.35133 33.2454 6.09467 33.5907 5.908C33.9361 5.712 34.3561 5.614 34.8507 5.614C35.3454 5.614 35.7654 5.712 36.1107 5.908C36.4561 6.09467 36.7361 6.35133 36.9507 6.678C37.1654 6.99533 37.3194 7.35933 37.4127 7.77C37.5154 8.18067 37.5667 8.60533 37.5667 9.044C37.5667 9.464 37.5154 9.87467 37.4127 10.276C37.3194 10.668 37.1654 11.0227 36.9507 11.34C36.7361 11.6573 36.4561 11.914 36.1107 12.11C35.7654 12.2967 35.3454 12.39 34.8507 12.39C34.3561 12.39 33.9361 12.2967 33.5907 12.11C33.2454 11.914 32.9654 11.6573 32.7507 11.34C32.5361 11.0227 32.3774 10.668 32.2747 10.276C32.1814 9.87467 32.1347 9.464 32.1347 9.044ZM29.9367 9.044C29.9367 9.772 30.0487 10.4533 30.2727 11.088C30.4967 11.7133 30.8187 12.2593 31.2387 12.726C31.6587 13.1927 32.1721 13.5613 32.7787 13.832C33.3947 14.0933 34.0854 14.224 34.8507 14.224C35.6254 14.224 36.3161 14.0933 36.9227 13.832C37.5294 13.5613 38.0427 13.1927 38.4627 12.726C38.8827 12.2593 39.2047 11.7133 39.4287 11.088C39.6527 10.4533 39.7647 9.772 39.7647 9.044C39.7647 8.29733 39.6527 7.60667 39.4287 6.972C39.2047 6.328 38.8827 5.768 38.4627 5.292C38.0427 4.816 37.5294 4.44267 36.9227 4.172C36.3161 3.90133 35.6254 3.766 34.8507 3.766C34.0854 3.766 33.3947 3.90133 32.7787 4.172C32.1721 4.44267 31.6587 4.816 31.2387 5.292C30.8187 5.768 30.4967 6.328 30.2727 6.972C30.0487 7.60667 29.9367 8.29733 29.9367 9.044ZM41.8272 4.004V14H43.8852V7.308H43.9132L48.0712 14H50.2692V4.004H48.2112V10.71H48.1832L44.0112 4.004H41.8272ZM61.2482 10.22V4.004H59.0502V10.22C59.0502 10.9667 58.9008 11.5173 58.6022 11.872C58.3035 12.2173 57.7622 12.39 56.9782 12.39C56.5302 12.39 56.1708 12.3293 55.9002 12.208C55.6388 12.0773 55.4335 11.914 55.2842 11.718C55.1348 11.5127 55.0368 11.2793 54.9902 11.018C54.9435 10.7567 54.9202 10.4907 54.9202 10.22V4.004H52.7222V10.22C52.7222 11.5827 53.0908 12.5907 53.8282 13.244C54.5748 13.8973 55.6248 14.224 56.9782 14.224C58.3128 14.224 59.3582 13.8973 60.1142 13.244C60.8702 12.5813 61.2482 11.5733 61.2482 10.22ZM65.1991 10.682H63.0711C63.0618 11.298 63.1738 11.83 63.4071 12.278C63.6405 12.726 63.9531 13.0947 64.3451 13.384C64.7465 13.6733 65.2038 13.8833 65.7171 14.014C66.2398 14.154 66.7765 14.224 67.3271 14.224C68.0085 14.224 68.6058 14.1447 69.1191 13.986C69.6418 13.8273 70.0758 13.608 70.4211 13.328C70.7758 13.0387 71.0418 12.698 71.2191 12.306C71.3965 11.914 71.4851 11.4893 71.4851 11.032C71.4851 10.472 71.3638 10.0147 71.1211 9.66C70.8878 9.296 70.6078 9.00667 70.2811 8.792C69.9545 8.57733 69.6231 8.42333 69.2871 8.33C68.9605 8.22733 68.7038 8.15733 68.5171 8.12C67.8918 7.96133 67.3831 7.83067 66.9911 7.728C66.6085 7.62533 66.3051 7.52267 66.0811 7.42C65.8665 7.31733 65.7218 7.20533 65.6471 7.084C65.5725 6.96267 65.5351 6.804 65.5351 6.608C65.5351 6.39333 65.5818 6.216 65.6751 6.076C65.7685 5.936 65.8851 5.81933 66.0251 5.726C66.1745 5.63267 66.3378 5.56733 66.5151 5.53C66.6925 5.49267 66.8698 5.474 67.0471 5.474C67.3178 5.474 67.5651 5.49733 67.7891 5.544C68.0225 5.59067 68.2278 5.67 68.4051 5.782C68.5825 5.894 68.7225 6.048 68.8251 6.244C68.9371 6.44 69.0025 6.68733 69.0211 6.986H71.1491C71.1491 6.40733 71.0371 5.91733 70.8131 5.516C70.5985 5.10533 70.3045 4.76933 69.9311 4.508C69.5578 4.24667 69.1285 4.06 68.6431 3.948C68.1671 3.82667 67.6678 3.766 67.1451 3.766C66.6971 3.766 66.2491 3.82667 65.8011 3.948C65.3531 4.06933 64.9518 4.256 64.5971 4.508C64.2425 4.76 63.9531 5.07733 63.7291 5.46C63.5145 5.83333 63.4071 6.27667 63.4071 6.79C63.4071 7.24733 63.4911 7.63933 63.6591 7.966C63.8365 8.28333 64.0651 8.54933 64.3451 8.764C64.6251 8.97867 64.9425 9.156 65.2971 9.296C65.6518 9.42667 66.0158 9.53867 66.3891 9.632C66.7531 9.73467 67.1125 9.828 67.4671 9.912C67.8218 9.996 68.1391 10.094 68.4191 10.206C68.6991 10.318 68.9231 10.458 69.0911 10.626C69.2685 10.794 69.3571 11.0133 69.3571 11.284C69.3571 11.536 69.2918 11.746 69.1611 11.914C69.0305 12.0727 68.8671 12.1987 68.6711 12.292C68.4751 12.3853 68.2651 12.4507 68.0411 12.488C67.8171 12.516 67.6071 12.53 67.4111 12.53C67.1218 12.53 66.8418 12.4973 66.5711 12.432C66.3005 12.3573 66.0625 12.25 65.8571 12.11C65.6611 11.9607 65.5025 11.7693 65.3811 11.536C65.2598 11.3027 65.1991 11.018 65.1991 10.682ZM84.3894 11.34C84.5761 11.088 84.7254 10.7753 84.8374 10.402C84.9494 10.0287 85.0054 9.576 85.0054 9.044C85.0054 8.60533 84.9541 8.18067 84.8514 7.77C84.7581 7.35933 84.6041 6.99533 84.3894 6.678C84.1747 6.35133 83.8947 6.09467 83.5494 5.908C83.2041 5.712 82.7841 5.614 82.2894 5.614C81.7947 5.614 81.3747 5.712 81.0294 5.908C80.6841 6.09467 80.4041 6.35133 80.1894 6.678C79.9747 6.99533 79.8161 7.35933 79.7134 7.77C79.6201 8.18067 79.5734 8.60533 79.5734 9.044C79.5734 9.464 79.6201 9.87467 79.7134 10.276C79.8161 10.668 79.9747 11.0227 80.1894 11.34C80.4041 11.6573 80.6841 11.914 81.0294 12.11C81.3747 12.2967 81.7947 12.39 82.2894 12.39C82.5227 12.39 82.7001 12.3807 82.8214 12.362C82.9427 12.3433 83.0594 12.306 83.1714 12.25L82.2334 11.396L83.2554 10.304L84.3894 11.34ZM84.7114 13.65C84.0487 14.0327 83.2414 14.224 82.2894 14.224C81.5241 14.224 80.8334 14.0933 80.2174 13.832C79.6107 13.5613 79.0974 13.1927 78.6774 12.726C78.2574 12.2593 77.9354 11.7133 77.7114 11.088C77.4874 10.4533 77.3754 9.772 77.3754 9.044C77.3754 8.29733 77.4874 7.60667 77.7114 6.972C77.9354 6.328 78.2574 5.768 78.6774 5.292C79.0974 4.816 79.6107 4.44267 80.2174 4.172C80.8334 3.90133 81.5241 3.766 82.2894 3.766C83.0641 3.766 83.7547 3.90133 84.3614 4.172C84.9681 4.44267 85.4814 4.816 85.9014 5.292C86.3214 5.768 86.6434 6.328 86.8674 6.972C87.0914 7.60667 87.2034 8.29733 87.2034 9.044C87.2034 9.772 87.0914 10.4487 86.8674 11.074C86.6434 11.6993 86.3214 12.25 85.9014 12.726L87.1474 13.86L86.1254 14.924L84.7114 13.65ZM95.8459 14V6.762H93.8579V10.556C93.8579 11.2933 93.7365 11.8253 93.4939 12.152C93.2512 12.4693 92.8592 12.628 92.3179 12.628C91.8419 12.628 91.5105 12.4833 91.3239 12.194C91.1372 11.8953 91.0439 11.4473 91.0439 10.85V6.762H89.0559V11.214C89.0559 11.662 89.0932 12.0727 89.1679 12.446C89.2519 12.81 89.3919 13.1227 89.5879 13.384C89.7839 13.636 90.0499 13.832 90.3859 13.972C90.7312 14.112 91.1699 14.182 91.7019 14.182C92.1219 14.182 92.5325 14.0887 92.9339 13.902C93.3352 13.7153 93.6619 13.412 93.9139 12.992H93.9559V14H95.8459ZM102.787 9.604H99.5527C99.562 9.464 99.59 9.30533 99.6367 9.128C99.6927 8.95067 99.7814 8.78267 99.9027 8.624C100.033 8.46533 100.201 8.33467 100.407 8.232C100.621 8.12 100.887 8.064 101.205 8.064C101.69 8.064 102.049 8.19467 102.283 8.456C102.525 8.71733 102.693 9.1 102.787 9.604ZM99.5527 10.864H104.775C104.812 10.304 104.765 9.76733 104.635 9.254C104.504 8.74067 104.289 8.28333 103.991 7.882C103.701 7.48067 103.328 7.16333 102.871 6.93C102.413 6.68733 101.877 6.566 101.261 6.566C100.71 6.566 100.206 6.664 99.7487 6.86C99.3007 7.056 98.9134 7.32667 98.5867 7.672C98.26 8.008 98.008 8.40933 97.8307 8.876C97.6534 9.34267 97.5647 9.84667 97.5647 10.388C97.5647 10.948 97.6487 11.4613 97.8167 11.928C97.994 12.3947 98.2414 12.796 98.5587 13.132C98.876 13.468 99.2634 13.7293 99.7207 13.916C100.178 14.0933 100.691 14.182 101.261 14.182C102.082 14.182 102.782 13.9953 103.361 13.622C103.939 13.2487 104.369 12.628 104.649 11.76H102.899C102.833 11.984 102.656 12.1987 102.367 12.404C102.077 12.6 101.732 12.698 101.331 12.698C100.771 12.698 100.341 12.5533 100.043 12.264C99.744 11.9747 99.5807 11.508 99.5527 10.864ZM108.054 11.648H106.164C106.182 12.1333 106.29 12.5393 106.486 12.866C106.691 13.1833 106.948 13.44 107.256 13.636C107.573 13.832 107.932 13.972 108.334 14.056C108.735 14.14 109.146 14.182 109.566 14.182C109.976 14.182 110.378 14.14 110.77 14.056C111.171 13.9813 111.526 13.846 111.834 13.65C112.142 13.454 112.389 13.1973 112.576 12.88C112.772 12.5533 112.87 12.152 112.87 11.676C112.87 11.34 112.804 11.06 112.674 10.836C112.543 10.6027 112.37 10.4113 112.156 10.262C111.941 10.1033 111.694 9.97733 111.414 9.884C111.143 9.79067 110.863 9.71133 110.574 9.646C110.294 9.58067 110.018 9.52 109.748 9.464C109.477 9.408 109.234 9.34733 109.02 9.282C108.814 9.20733 108.646 9.114 108.516 9.002C108.385 8.89 108.32 8.74533 108.32 8.568C108.32 8.41867 108.357 8.302 108.432 8.218C108.506 8.12467 108.595 8.05467 108.698 8.008C108.81 7.96133 108.931 7.93333 109.062 7.924C109.192 7.90533 109.314 7.896 109.426 7.896C109.78 7.896 110.088 7.966 110.35 8.106C110.611 8.23667 110.756 8.49333 110.784 8.876H112.674C112.636 8.428 112.52 8.05933 112.324 7.77C112.137 7.47133 111.899 7.23333 111.61 7.056C111.32 6.87867 110.989 6.75267 110.616 6.678C110.252 6.60333 109.874 6.566 109.482 6.566C109.09 6.566 108.707 6.60333 108.334 6.678C107.96 6.74333 107.624 6.86467 107.326 7.042C107.027 7.21 106.784 7.44333 106.598 7.742C106.42 8.04067 106.332 8.42333 106.332 8.89C106.332 9.20733 106.397 9.478 106.528 9.702C106.658 9.91667 106.831 10.0987 107.046 10.248C107.26 10.388 107.503 10.5047 107.774 10.598C108.054 10.682 108.338 10.7567 108.628 10.822C109.337 10.9713 109.888 11.1207 110.28 11.27C110.681 11.4193 110.882 11.6433 110.882 11.942C110.882 12.1193 110.84 12.2687 110.756 12.39C110.672 12.502 110.564 12.5953 110.434 12.67C110.312 12.7353 110.172 12.7867 110.014 12.824C109.864 12.852 109.72 12.866 109.58 12.866C109.384 12.866 109.192 12.8427 109.006 12.796C108.828 12.7493 108.67 12.6793 108.53 12.586C108.39 12.4833 108.273 12.3573 108.18 12.208C108.096 12.0493 108.054 11.8627 108.054 11.648ZM117.113 6.762V4.592H115.125V6.762H113.921V8.092H115.125V12.362C115.125 12.726 115.186 13.02 115.307 13.244C115.429 13.468 115.592 13.6407 115.797 13.762C116.012 13.8833 116.255 13.9627 116.525 14C116.805 14.0467 117.099 14.07 117.407 14.07C117.603 14.07 117.804 14.0653 118.009 14.056C118.215 14.0467 118.401 14.028 118.569 14V12.46C118.476 12.4787 118.378 12.4927 118.275 12.502C118.173 12.5113 118.065 12.516 117.953 12.516C117.617 12.516 117.393 12.46 117.281 12.348C117.169 12.236 117.113 12.012 117.113 11.676V8.092H118.569V6.762H117.113ZM122.119 5.642V4.004H120.131V5.642H122.119ZM120.131 6.762V14H122.119V6.762H120.131ZM126.009 10.388C126.009 10.0987 126.037 9.814 126.093 9.534C126.149 9.254 126.242 9.00667 126.373 8.792C126.513 8.57733 126.695 8.40467 126.919 8.274C127.143 8.134 127.423 8.064 127.759 8.064C128.095 8.064 128.375 8.134 128.599 8.274C128.832 8.40467 129.014 8.57733 129.145 8.792C129.285 9.00667 129.383 9.254 129.439 9.534C129.495 9.814 129.523 10.0987 129.523 10.388C129.523 10.6773 129.495 10.962 129.439 11.242C129.383 11.5127 129.285 11.76 129.145 11.984C129.014 12.1987 128.832 12.3713 128.599 12.502C128.375 12.6327 128.095 12.698 127.759 12.698C127.423 12.698 127.143 12.6327 126.919 12.502C126.695 12.3713 126.513 12.1987 126.373 11.984C126.242 11.76 126.149 11.5127 126.093 11.242C126.037 10.962 126.009 10.6773 126.009 10.388ZM124.021 10.388C124.021 10.9667 124.109 11.4893 124.287 11.956C124.464 12.4227 124.716 12.824 125.043 13.16C125.369 13.4867 125.761 13.7387 126.219 13.916C126.676 14.0933 127.189 14.182 127.759 14.182C128.328 14.182 128.841 14.0933 129.299 13.916C129.765 13.7387 130.162 13.4867 130.489 13.16C130.815 12.824 131.067 12.4227 131.245 11.956C131.422 11.4893 131.511 10.9667 131.511 10.388C131.511 9.80933 131.422 9.28667 131.245 8.82C131.067 8.344 130.815 7.94267 130.489 7.616C130.162 7.28 129.765 7.02333 129.299 6.846C128.841 6.65933 128.328 6.566 127.759 6.566C127.189 6.566 126.676 6.65933 126.219 6.846C125.761 7.02333 125.369 7.28 125.043 7.616C124.716 7.94267 124.464 8.344 124.287 8.82C124.109 9.28667 124.021 9.80933 124.021 10.388ZM133.363 6.762V14H135.351V10.206C135.351 9.46867 135.472 8.94133 135.715 8.624C135.958 8.29733 136.35 8.134 136.891 8.134C137.367 8.134 137.698 8.28333 137.885 8.582C138.072 8.87133 138.165 9.31467 138.165 9.912V14H140.153V9.548C140.153 9.1 140.111 8.694 140.027 8.33C139.952 7.95667 139.817 7.644 139.621 7.392C139.425 7.13067 139.154 6.93 138.809 6.79C138.473 6.64067 138.039 6.566 137.507 6.566C137.087 6.566 136.676 6.664 136.275 6.86C135.874 7.04667 135.547 7.35 135.295 7.77H135.253V6.762H133.363ZM142.32 11.844V14H144.518V11.844H142.32ZM144.448 6.692V4.004H142.376V6.692L142.908 11.004H143.902L144.448 6.692Z" fill="#0C3D76"/>
<path d="M1.78 2.12267C1.78807 1.89015 1.80423 1.64388 1.82981 1.37285L1.86481 1L12.1126 1L12.1476 1.37285C12.1731 1.637 12.1893 1.8819 12.1974 2.11854C13.6325 2.80507 14.3298 4.52898 13.8223 6.16896C13.2905 7.88048 11.6696 8.92886 10.0326 8.63444C9.53715 9.1545 8.99461 9.53835 8.41437 9.77637V11.2994H8.57323C8.91787 11.2994 9.23559 11.503 9.38906 11.8153H10.0205C10.524 11.8153 10.9346 12.235 10.9346 12.7495L10.9319 13.7043H3.14914V12.7481C3.14914 12.2336 3.55975 11.814 4.06325 11.814H4.69465C4.84813 11.5016 5.16584 11.298 5.51049 11.298H5.62761V9.80251C5.02583 9.56724 4.4604 9.17376 3.94748 8.63306C2.31312 8.92198 0.694911 7.87361 0.164484 6.16621C-0.341711 4.53449 0.35296 2.81195 1.78 2.12267ZM12.3253 5.70393C12.5016 5.13572 12.4047 4.53036 12.0816 4.08872C11.9281 5.12196 11.636 6.07403 11.2106 6.92566C11.7275 6.72479 12.1489 6.27077 12.3253 5.70393ZM1.66153 5.70531C1.83519 6.26664 2.25388 6.71929 2.76546 6.92429C2.34274 6.07541 2.0506 5.12746 1.89712 4.09835C1.5821 4.53861 1.48651 5.14122 1.66153 5.70531Z" fill="#A1C0ED"/>
<path d="M2.1802 2.39955C2.18154 2.06522 2.20174 1.7364 2.2327 1.41309L11.7467 1.41309C11.7777 1.73503 11.7979 2.06247 11.8006 2.3968C13.1872 2.90723 13.9182 4.49493 13.439 6.0441C12.9476 7.62767 11.3725 8.56874 9.89426 8.18213C9.34499 8.80676 8.70821 9.26078 8.01085 9.48641V11.7125H8.57358C8.85361 11.7125 9.07978 11.9436 9.08247 12.2284H10.0208C10.3035 12.2284 10.531 12.4609 10.531 12.7499H10.5284V13.2933L3.55338 13.2933V12.7499C3.55338 12.4609 3.7809 12.2284 4.06361 12.2284H5.00196C5.00465 11.9423 5.23082 11.7125 5.51084 11.7125L6.03185 11.7125V9.50843C5.3116 9.28967 4.65193 8.82464 4.0865 8.18351C2.611 8.56461 1.03992 7.6263 0.548532 6.0441C0.0706109 4.49768 0.79759 2.91411 2.1802 2.39955ZM12.7106 5.82947C13.0311 4.79761 12.6124 3.74098 11.7669 3.2787C11.6431 4.89117 11.1638 6.33853 10.4489 7.44607C11.425 7.52862 12.3862 6.87097 12.7106 5.82947ZM4.77848 4.81549L5.72221 5.75518L5.50008 7.08285C5.48527 7.16953 5.52027 7.2562 5.59027 7.30848C5.62931 7.33738 5.67644 7.35251 5.72356 7.35251C5.75856 7.35251 5.79625 7.34426 5.82856 7.32637L6.99442 6.70037L8.16163 7.32637C8.23837 7.36764 8.32991 7.36077 8.39992 7.30848C8.46992 7.2562 8.50358 7.16953 8.49012 7.08285L8.26664 5.75518L9.21037 4.81549C9.27229 4.75358 9.29383 4.66278 9.26826 4.57885C9.24133 4.49493 9.17133 4.43439 9.08517 4.42201L7.78198 4.22802L7.19771 3.02005C7.16001 2.94162 7.08193 2.8921 6.99577 2.8921C6.90961 2.8921 6.83152 2.94162 6.79383 3.02005L6.2109 4.22802L4.90637 4.42201C4.82156 4.43439 4.75021 4.49493 4.72328 4.57885C4.69501 4.66278 4.7179 4.75496 4.77848 4.81549ZM1.27686 5.82947C1.59862 6.86822 2.5585 7.52587 3.5305 7.44882C2.81698 6.34128 2.33771 4.89392 2.21251 3.28283C1.3711 3.74648 0.957796 4.80036 1.27686 5.82947Z" fill="#0C3D76"/>
<path d="M11.9338 3.38326C11.8907 3.35299 11.845 3.32548 11.7992 3.29934C11.7965 2.97464 11.7763 2.65545 11.7467 2.34176L2.23266 2.34176C2.20304 2.65683 2.18285 2.97602 2.18016 3.30209C2.13438 3.32823 2.08996 3.35574 2.04822 3.38464C1.17315 3.76574 0.58349 4.58573 0.438094 5.54055C0.238848 4.1661 0.946981 2.8577 2.18016 2.39955C2.1815 2.06522 2.20169 1.7364 2.23266 1.41309L11.7467 1.41309C11.7776 1.73503 11.7978 2.06247 11.8005 2.3968C13.0364 2.85219 13.7486 4.16335 13.5493 5.54055C13.4026 4.58435 12.8116 3.76298 11.9338 3.38326Z" fill="#213664"/>
</svg>
