<svg xmlns="http://www.w3.org/2000/svg" width="719" height="733" viewBox="0 0 719 733" fill="none">
<path d="M10.5987 115.191C12.6428 91.5369 32.0226 73.2103 55.7292 71.9072C261.822 60.5792 440.831 41.6292 655.188 69.4063C675.115 71.9885 691.148 87.0902 694.676 106.871C738.115 350.445 705.256 600.618 689.742 693.985C686.02 716.39 666.541 732.142 643.83 732.142H63.3894C39.5445 732.142 19.4182 714.649 16.8139 690.947C6.97474 601.398 -11.9358 375.964 10.5987 115.191Z" fill="#213664"/>
<path d="M32.388 140.931C34.4363 117.295 53.8213 99.0071 77.5104 97.7198C268.765 87.3272 435.311 70.2565 634.24 95.2967C654.158 97.8038 670.229 112.843 673.77 132.603C713.29 353.182 683.834 579.081 669.177 666.795C665.444 689.129 646.001 704.827 623.357 704.827H84.6388C60.8423 704.827 40.7601 687.518 38.1516 663.865C28.8945 579.924 11.9877 376.332 32.388 140.931Z" fill="#73A6F3"/>
<path d="M519.3 129.578C519.577 128.83 519.895 128.045 520.271 127.19L520.788 126.013L554.162 137.075L553.873 138.327C553.671 139.215 553.46 140.03 553.23 140.81C557.163 144.595 557.573 150.962 554.15 155.755C550.571 160.755 544.16 162.419 539.147 159.693C536.972 160.852 534.791 161.517 532.644 161.666L531 166.626L531.517 166.797C532.64 167.169 533.455 168.175 533.617 169.358L535.674 170.04C537.313 170.583 538.198 172.393 537.642 174.069L536.603 177.175L511.257 168.774L512.289 165.66C512.844 163.984 514.634 163.061 516.274 163.605L518.33 164.286C519.167 163.435 520.422 163.114 521.544 163.487L521.926 163.613L523.54 158.742C521.834 157.327 520.418 155.435 519.331 153.12C513.696 152.297 509.558 147.136 509.673 141.003C509.786 135.142 513.908 130.283 519.3 129.578ZM549.777 152.624C550.964 150.964 551.302 148.888 550.727 147.101C549.111 150.3 547.132 153.086 544.828 155.4C546.728 155.304 548.59 154.28 549.777 152.624ZM515.046 141.118C515.006 143.133 515.881 145.06 517.326 146.279C516.865 143.059 516.937 139.656 517.548 136.139C516.047 137.233 515.085 139.092 515.046 141.118Z" fill="#A1C0ED"/>
<path d="M520.304 130.91C520.669 129.823 521.09 128.774 521.539 127.754L552.524 138.024C552.277 139.106 551.989 140.195 551.637 141.286C555.602 144.445 556.269 150.405 553.036 154.933C549.726 159.56 543.581 160.924 539.184 158.07C536.721 159.511 534.157 160.302 531.642 160.284L529.239 167.534L531.072 168.141C531.984 168.444 532.471 169.441 532.173 170.371L535.228 171.384C536.149 171.689 536.639 172.692 536.327 173.633L536.318 173.63L535.732 175.4L513.016 167.871L513.603 166.101C513.915 165.16 514.907 164.648 515.828 164.953L518.883 165.966C519.201 165.037 520.186 164.533 521.098 164.835L522.794 165.398L525.174 158.22C523.064 156.73 521.418 154.503 520.268 151.805C515.052 151.453 510.948 146.702 511.056 141.018C511.168 135.466 515.245 131.094 520.304 130.91ZM550.896 153.448C553.053 150.433 552.83 146.54 550.576 144.122C548.432 149.24 545.309 153.436 541.785 156.271C544.875 157.594 548.715 156.489 550.896 153.448ZM526.158 141.583L528.217 145.662L526.06 149.746C525.918 150.013 525.939 150.333 526.11 150.578C526.206 150.715 526.343 150.815 526.497 150.866C526.611 150.903 526.742 150.917 526.867 150.894L531.34 150.114L534.465 153.412C534.67 153.63 534.976 153.706 535.26 153.611C535.545 153.517 535.748 153.271 535.798 152.974L536.503 148.409L540.591 146.367C540.859 146.232 541.028 145.96 541.035 145.659C541.038 145.357 540.875 145.084 540.608 144.951L536.573 142.912L535.974 138.347C535.936 138.051 535.735 137.806 535.455 137.713C535.174 137.62 534.867 137.697 534.659 137.911L531.457 141.216L526.999 140.44C526.709 140.389 526.412 140.509 526.233 140.753C526.051 140.996 526.026 141.321 526.158 141.583ZM513.659 141.106C513.586 144.836 516.002 148.014 519.251 148.812C518.123 144.435 518.124 139.204 519.455 133.822C516.215 134.424 513.731 137.41 513.659 141.106Z" fill="#0C3D76"/>
<path d="M551.006 144.643C550.899 144.498 550.779 144.359 550.659 144.224C551 143.164 551.279 142.103 551.521 141.049L520.537 130.779C520.1 131.773 519.69 132.791 519.329 133.85C519.152 133.886 518.977 133.927 518.81 133.976C515.549 134.273 512.744 136.307 511.239 139.26C512.074 134.568 515.793 131.072 520.303 130.911C520.669 129.823 521.089 128.774 521.539 127.755L552.524 138.025C552.277 139.107 551.989 140.195 551.637 141.286C555.17 144.104 556.074 149.142 553.939 153.412C554.493 150.14 553.455 146.827 551.006 144.643Z" fill="#213664"/>
<g filter="url(#filter0_d)">
<path d="M256.302 150.28V136.36H260.462C261.849 136.36 263.075 136.947 264.142 138.12C265.209 139.293 265.742 141 265.742 143.24C265.742 145.64 265.209 147.427 264.142 148.6C263.075 149.72 261.849 150.28 260.462 150.28H256.302ZM256.302 126.28V114.6H259.902C261.449 114.6 262.622 115.187 263.422 116.36C264.222 117.533 264.622 118.92 264.622 120.52C264.622 122.067 264.222 123.427 263.422 124.6C262.622 125.72 261.449 126.28 259.902 126.28H256.302ZM241.422 103.88V161H263.902C266.995 161 269.635 160.6 271.822 159.8C274.009 158.947 275.769 157.773 277.102 156.28C278.489 154.787 279.502 153 280.142 150.92C280.782 148.84 281.102 146.573 281.102 144.12C281.102 142.627 280.889 141.16 280.462 139.72C280.089 138.227 279.475 136.867 278.622 135.64C277.769 134.413 276.675 133.4 275.342 132.6C274.009 131.747 272.409 131.24 270.542 131.08V130.92C272.142 130.6 273.502 130.04 274.622 129.24C275.742 128.44 276.649 127.48 277.342 126.36C278.089 125.187 278.622 123.907 278.942 122.52C279.315 121.08 279.502 119.613 279.502 118.12C279.502 113.8 278.222 110.36 275.662 107.8C273.155 105.187 269.235 103.88 263.902 103.88H241.422ZM308.559 132.44C308.559 128.6 308.613 125.427 308.719 122.92C308.826 120.36 309.039 118.333 309.359 116.84C309.733 115.347 310.239 114.307 310.879 113.72C311.573 113.133 312.479 112.84 313.599 112.84C314.719 112.84 315.599 113.133 316.239 113.72C316.933 114.307 317.439 115.347 317.759 116.84C318.133 118.333 318.373 120.36 318.479 122.92C318.586 125.427 318.639 128.6 318.639 132.44C318.639 136.28 318.586 139.48 318.479 142.04C318.373 144.547 318.133 146.547 317.759 148.04C317.439 149.533 316.933 150.573 316.239 151.16C315.599 151.747 314.719 152.04 313.599 152.04C312.479 152.04 311.573 151.747 310.879 151.16C310.239 150.573 309.733 149.533 309.359 148.04C309.039 146.547 308.826 144.547 308.719 142.04C308.613 139.48 308.559 136.28 308.559 132.44ZM293.199 132.44C293.199 137.773 293.546 142.333 294.239 146.12C294.933 149.853 296.079 152.92 297.679 155.32C299.279 157.667 301.386 159.347 303.999 160.36C306.613 161.373 309.813 161.88 313.599 161.88C317.386 161.88 320.586 161.373 323.199 160.36C325.813 159.347 327.919 157.667 329.519 155.32C331.119 152.92 332.266 149.853 332.959 146.12C333.653 142.333 333.999 137.773 333.999 132.44C333.999 127.107 333.653 122.573 332.959 118.84C332.266 115.053 331.119 111.987 329.519 109.64C327.919 107.24 325.813 105.507 323.199 104.44C320.586 103.32 317.386 102.76 313.599 102.76C309.813 102.76 306.613 103.32 303.999 104.44C301.386 105.507 299.279 107.24 297.679 109.64C296.079 111.987 294.933 115.053 294.239 118.84C293.546 122.573 293.199 127.107 293.199 132.44ZM347.333 103.88V161H361.253V125.72H361.413L371.333 161H387.653V103.88H373.733V139.08H373.573L363.973 103.88H347.333ZM416.916 103.88H402.036V141.32C402.036 145.32 402.463 148.653 403.316 151.32C404.17 153.987 405.396 156.12 406.996 157.72C408.65 159.32 410.676 160.413 413.076 161C415.53 161.587 418.303 161.88 421.396 161.88C424.543 161.88 427.316 161.587 429.716 161C432.116 160.413 434.116 159.32 435.716 157.72C437.37 156.12 438.623 153.987 439.476 151.32C440.33 148.653 440.756 145.32 440.756 141.32V103.88H425.876V145.08C425.876 147.853 425.476 149.72 424.676 150.68C423.876 151.587 422.783 152.04 421.396 152.04C420.01 152.04 418.916 151.587 418.116 150.68C417.316 149.72 416.916 147.853 416.916 145.08V103.88ZM477.369 120.36H491.289C491.289 114.227 489.823 109.773 486.889 107C484.009 104.173 479.316 102.76 472.809 102.76C466.516 102.76 461.823 104.28 458.729 107.32C455.636 110.36 454.089 114.787 454.089 120.6C454.089 123.96 454.649 126.68 455.769 128.76C456.943 130.84 458.383 132.52 460.089 133.8C461.849 135.08 463.743 136.12 465.769 136.92C467.796 137.72 469.663 138.52 471.369 139.32C473.129 140.067 474.569 141 475.689 142.12C476.863 143.187 477.449 144.653 477.449 146.52C477.449 148.067 477.023 149.373 476.169 150.44C475.369 151.507 474.196 152.04 472.649 152.04C471.209 152.04 470.036 151.56 469.129 150.6C468.223 149.587 467.769 147.853 467.769 145.4V144.04H453.369V146.04C453.369 149.027 453.796 151.533 454.649 153.56C455.503 155.587 456.729 157.24 458.329 158.52C459.983 159.747 461.983 160.6 464.329 161.08C466.729 161.613 469.476 161.88 472.569 161.88C479.129 161.88 484.143 160.52 487.609 157.8C491.076 155.027 492.809 150.6 492.809 144.52C492.809 141.053 492.196 138.253 490.969 136.12C489.796 133.933 488.303 132.173 486.489 130.84C484.676 129.507 482.729 128.44 480.649 127.64C478.569 126.787 476.623 125.96 474.809 125.16C472.996 124.36 471.476 123.427 470.249 122.36C469.076 121.24 468.489 119.747 468.489 117.88C468.489 116.6 468.863 115.453 469.609 114.44C470.356 113.373 471.529 112.84 473.129 112.84C474.569 112.84 475.636 113.453 476.329 114.68C477.023 115.853 477.369 117.293 477.369 119V120.36Z" fill="url(#paint0_linear)"/>
<path d="M256.302 150.28H252.302C252.302 152.489 254.093 154.28 256.302 154.28V150.28ZM256.302 136.36V132.36C254.093 132.36 252.302 134.151 252.302 136.36H256.302ZM264.142 138.12L267.102 135.429H267.102L264.142 138.12ZM264.142 148.6L267.038 151.359C267.06 151.336 267.081 151.314 267.102 151.291L264.142 148.6ZM256.302 126.28H252.302C252.302 128.489 254.093 130.28 256.302 130.28V126.28ZM256.302 114.6V110.6C254.093 110.6 252.302 112.391 252.302 114.6H256.302ZM263.422 116.36L266.727 114.107H266.727L263.422 116.36ZM263.422 124.6L266.677 126.925C266.694 126.901 266.71 126.877 266.727 126.853L263.422 124.6ZM241.422 103.88V99.88C239.213 99.88 237.422 101.671 237.422 103.88H241.422ZM241.422 161H237.422C237.422 163.209 239.213 165 241.422 165V161ZM271.822 159.8L273.196 163.556C273.223 163.547 273.25 163.537 273.276 163.526L271.822 159.8ZM277.102 156.28L274.171 153.558C274.153 153.577 274.135 153.597 274.118 153.616L277.102 156.28ZM280.142 150.92L283.965 152.096L283.965 152.096L280.142 150.92ZM280.462 139.72L276.581 140.69C276.595 140.746 276.61 140.801 276.627 140.856L280.462 139.72ZM278.622 135.64L281.906 133.356L281.905 133.356L278.622 135.64ZM275.342 132.6L273.186 135.969C273.218 135.99 273.251 136.01 273.284 136.03L275.342 132.6ZM270.542 131.08H266.542C266.542 133.157 268.131 134.888 270.2 135.065L270.542 131.08ZM270.542 130.92L269.757 126.998C267.888 127.372 266.542 129.013 266.542 130.92H270.542ZM274.622 129.24L276.947 132.495V132.495L274.622 129.24ZM277.342 126.36L273.967 124.212C273.958 124.226 273.95 124.24 273.941 124.255L277.342 126.36ZM278.942 122.52L275.07 121.516C275.061 121.551 275.052 121.586 275.044 121.621L278.942 122.52ZM275.662 107.8L272.775 110.569C272.794 110.589 272.814 110.609 272.833 110.628L275.662 107.8ZM260.302 150.28V136.36H252.302V150.28H260.302ZM256.302 140.36H260.462V132.36H256.302V140.36ZM260.462 140.36C260.555 140.36 260.753 140.339 261.182 140.811L267.102 135.429C265.397 133.554 263.142 132.36 260.462 132.36V140.36ZM261.182 140.811C261.347 140.992 261.742 141.586 261.742 143.24H269.742C269.742 140.414 269.07 137.594 267.102 135.429L261.182 140.811ZM261.742 143.24C261.742 145.141 261.307 145.771 261.182 145.909L267.102 151.291C269.11 149.082 269.742 146.139 269.742 143.24H261.742ZM261.245 145.841C260.838 146.27 260.622 146.28 260.462 146.28V154.28C263.075 154.28 265.313 153.17 267.038 151.359L261.245 145.841ZM260.462 146.28H256.302V154.28H260.462V146.28ZM260.302 126.28V114.6H252.302V126.28H260.302ZM256.302 118.6H259.902V110.6H256.302V118.6ZM259.902 118.6C260.036 118.6 260.114 118.613 260.149 118.62C260.18 118.627 260.177 118.63 260.153 118.618C260.128 118.605 260.104 118.589 260.089 118.575C260.076 118.563 260.087 118.569 260.117 118.613L266.727 114.107C265.107 111.731 262.632 110.6 259.902 110.6V118.6ZM260.117 118.613C260.408 119.04 260.622 119.618 260.622 120.52H268.622C268.622 118.222 268.036 116.026 266.727 114.107L260.117 118.613ZM260.622 120.52C260.622 121.338 260.424 121.897 260.117 122.347L266.727 126.853C268.02 124.956 268.622 122.796 268.622 120.52H260.622ZM260.167 122.275C260.145 122.305 260.141 122.304 260.159 122.289C260.177 122.273 260.2 122.259 260.219 122.25C260.263 122.229 260.191 122.28 259.902 122.28V130.28C262.555 130.28 265.025 129.238 266.677 126.925L260.167 122.275ZM259.902 122.28H256.302V130.28H259.902V122.28ZM237.422 103.88V161H245.422V103.88H237.422ZM241.422 165H263.902V157H241.422V165ZM263.902 165C267.319 165 270.451 164.561 273.196 163.556L270.448 156.044C268.819 156.639 266.671 157 263.902 157V165ZM273.276 163.526C275.948 162.484 278.266 160.982 280.086 158.944L274.118 153.616C273.271 154.565 272.069 155.41 270.368 156.074L273.276 163.526ZM280.033 159.002C281.857 157.037 283.16 154.712 283.965 152.096L276.319 149.744C275.844 151.288 275.12 152.536 274.171 153.558L280.033 159.002ZM283.965 152.096C284.736 149.59 285.102 146.922 285.102 144.12H277.102C277.102 146.225 276.828 148.09 276.319 149.744L283.965 152.096ZM285.102 144.12C285.102 142.24 284.832 140.39 284.297 138.584L276.627 140.856C276.945 141.93 277.102 143.014 277.102 144.12H285.102ZM284.342 138.75C283.855 136.8 283.044 134.993 281.906 133.356L275.338 137.924C275.906 138.741 276.322 139.653 276.581 140.69L284.342 138.75ZM281.905 133.356C280.716 131.646 279.198 130.249 277.4 129.17L273.284 136.03C274.152 136.551 274.821 137.181 275.338 137.924L281.905 133.356ZM277.498 129.231C275.527 127.969 273.278 127.3 270.883 127.095L270.2 135.065C271.539 135.18 272.49 135.524 273.186 135.969L277.498 129.231ZM274.542 131.08V130.92H266.542V131.08H274.542ZM271.326 134.842C273.38 134.432 275.289 133.679 276.947 132.495L272.297 125.985C271.715 126.401 270.904 126.768 269.757 126.998L271.326 134.842ZM276.947 132.495C278.478 131.401 279.758 130.056 280.743 128.465L273.941 124.255C273.539 124.904 273.005 125.479 272.297 125.985L276.947 132.495ZM280.717 128.507C281.713 126.942 282.42 125.238 282.839 123.419L275.044 121.621C274.824 122.575 274.464 123.431 273.967 124.212L280.717 128.507ZM282.814 123.524C283.273 121.755 283.502 119.951 283.502 118.12H275.502C275.502 119.276 275.358 120.405 275.07 121.516L282.814 123.524ZM283.502 118.12C283.502 112.959 281.943 108.424 278.49 104.972L272.833 110.628C274.501 112.296 275.502 114.641 275.502 118.12H283.502ZM278.549 105.031C274.993 101.324 269.809 99.88 263.902 99.88V107.88C268.662 107.88 271.318 109.05 272.775 110.569L278.549 105.031ZM263.902 99.88H241.422V107.88H263.902V99.88ZM308.719 122.92L312.716 123.09L312.716 123.087L308.719 122.92ZM309.359 116.84L305.479 115.87C305.468 115.914 305.458 115.958 305.448 116.002L309.359 116.84ZM310.879 113.72L308.296 110.666C308.255 110.701 308.215 110.736 308.176 110.771L310.879 113.72ZM316.239 113.72L313.536 116.669C313.575 116.704 313.615 116.739 313.656 116.774L316.239 113.72ZM317.759 116.84L313.848 117.678C313.858 117.722 313.868 117.766 313.879 117.81L317.759 116.84ZM318.479 122.92L314.483 123.087L314.483 123.09L318.479 122.92ZM318.479 142.04L322.476 142.21L322.476 142.207L318.479 142.04ZM317.759 148.04L313.879 147.07C313.868 147.114 313.858 147.158 313.848 147.202L317.759 148.04ZM316.239 151.16L313.656 148.106C313.615 148.141 313.575 148.176 313.536 148.211L316.239 151.16ZM310.879 151.16L308.176 154.109C308.215 154.144 308.255 154.179 308.296 154.214L310.879 151.16ZM309.359 148.04L305.448 148.878C305.458 148.922 305.468 148.966 305.479 149.01L309.359 148.04ZM308.719 142.04L304.723 142.207L304.723 142.21L308.719 142.04ZM294.239 146.12L290.305 146.84L290.307 146.85L294.239 146.12ZM297.679 155.32L294.351 157.539C294.359 157.55 294.367 157.562 294.374 157.573L297.679 155.32ZM303.999 160.36L302.553 164.089L303.999 160.36ZM323.199 160.36L324.645 164.089H324.645L323.199 160.36ZM329.519 155.32L332.824 157.573C332.832 157.562 332.84 157.55 332.848 157.539L329.519 155.32ZM332.959 146.12L336.892 146.85L336.894 146.84L332.959 146.12ZM332.959 118.84L329.025 119.56L329.027 119.57L332.959 118.84ZM329.519 109.64L326.191 111.859C326.199 111.87 326.207 111.882 326.214 111.893L329.519 109.64ZM323.199 104.44L321.624 108.117C321.645 108.126 321.666 108.135 321.688 108.143L323.199 104.44ZM303.999 104.44L305.511 108.143C305.532 108.135 305.554 108.126 305.575 108.117L303.999 104.44ZM297.679 109.64L300.984 111.893C300.992 111.882 301 111.87 301.008 111.859L297.679 109.64ZM294.239 118.84L298.172 119.57L298.174 119.56L294.239 118.84ZM312.559 132.44C312.559 128.63 312.612 125.519 312.716 123.09L304.723 122.75C304.613 125.335 304.559 128.57 304.559 132.44H312.559ZM312.716 123.087C312.819 120.623 313.019 118.852 313.271 117.678L305.448 116.002C305.06 117.815 304.834 120.097 304.723 122.753L312.716 123.087ZM313.24 117.81C313.38 117.251 313.516 116.895 313.615 116.692C313.718 116.482 313.733 116.53 313.582 116.669L308.176 110.771C306.663 112.158 305.914 114.13 305.479 115.87L313.24 117.81ZM313.463 116.774C313.432 116.8 313.399 116.822 313.367 116.84C313.336 116.857 313.315 116.864 313.311 116.866C313.304 116.868 313.386 116.84 313.599 116.84V108.84C311.762 108.84 309.868 109.336 308.296 110.666L313.463 116.774ZM313.599 116.84C313.816 116.84 313.877 116.869 313.834 116.855C313.812 116.847 313.767 116.83 313.71 116.797C313.652 116.763 313.593 116.72 313.536 116.669L318.942 110.771C317.37 109.33 315.421 108.84 313.599 108.84V116.84ZM313.656 116.774C313.479 116.624 313.469 116.54 313.543 116.692C313.618 116.846 313.736 117.153 313.848 117.678L321.671 116.002C321.28 114.18 320.516 112.099 318.823 110.666L313.656 116.774ZM313.879 117.81C314.157 118.924 314.381 120.644 314.483 123.087L322.476 122.753C322.364 120.076 322.108 117.742 321.64 115.87L313.879 117.81ZM314.483 123.09C314.586 125.519 314.639 128.63 314.639 132.44H322.639C322.639 128.57 322.586 125.335 322.476 122.75L314.483 123.09ZM314.639 132.44C314.639 136.249 314.586 139.389 314.483 141.873L322.476 142.207C322.586 139.571 322.639 136.311 322.639 132.44H314.639ZM314.483 141.87C314.382 144.253 314.159 145.95 313.879 147.07L321.64 149.01C322.107 147.143 322.364 144.841 322.476 142.21L314.483 141.87ZM313.848 147.202C313.736 147.727 313.618 148.034 313.543 148.188C313.469 148.34 313.479 148.256 313.656 148.106L318.823 154.214C320.516 152.781 321.28 150.7 321.671 148.878L313.848 147.202ZM313.536 148.211C313.593 148.16 313.652 148.117 313.71 148.083C313.767 148.05 313.812 148.033 313.834 148.025C313.877 148.011 313.816 148.04 313.599 148.04V156.04C315.421 156.04 317.37 155.55 318.942 154.109L313.536 148.211ZM313.599 148.04C313.386 148.04 313.304 148.012 313.311 148.014C313.315 148.016 313.336 148.023 313.367 148.04C313.399 148.058 313.432 148.08 313.463 148.106L308.296 154.214C309.868 155.544 311.762 156.04 313.599 156.04V148.04ZM313.582 148.211C313.733 148.35 313.718 148.398 313.615 148.188C313.516 147.985 313.38 147.629 313.24 147.07L305.479 149.01C305.914 150.75 306.663 152.722 308.176 154.109L313.582 148.211ZM313.271 147.202C313.018 146.023 312.818 144.275 312.716 141.87L304.723 142.21C304.834 144.818 305.061 147.07 305.448 148.878L313.271 147.202ZM312.716 141.873C312.612 139.389 312.559 136.249 312.559 132.44H304.559C304.559 136.311 304.613 139.571 304.723 142.207L312.716 141.873ZM289.199 132.44C289.199 137.93 289.555 142.745 290.305 146.84L298.174 145.4C297.537 141.922 297.199 137.617 297.199 132.44H289.199ZM290.307 146.85C291.069 150.956 292.372 154.571 294.351 157.539L301.008 153.101C299.786 151.269 298.796 148.751 298.172 145.39L290.307 146.85ZM294.374 157.573C296.424 160.579 299.175 162.779 302.553 164.089L305.445 156.631C303.597 155.914 302.135 154.754 300.984 153.067L294.374 157.573ZM302.553 164.089C305.758 165.332 309.481 165.88 313.599 165.88V157.88C310.145 157.88 307.467 157.414 305.445 156.631L302.553 164.089ZM313.599 165.88C317.718 165.88 321.44 165.332 324.645 164.089L321.753 156.631C319.732 157.414 317.054 157.88 313.599 157.88V165.88ZM324.645 164.089C328.024 162.779 330.775 160.579 332.824 157.573L326.214 153.067C325.064 154.754 323.601 155.914 321.753 156.631L324.645 164.089ZM332.848 157.539C334.826 154.571 336.13 150.956 336.892 146.85L329.027 145.39C328.402 148.751 327.412 151.269 326.191 153.101L332.848 157.539ZM336.894 146.84C337.644 142.745 337.999 137.93 337.999 132.44H329.999C329.999 137.617 329.662 141.922 329.025 145.4L336.894 146.84ZM337.999 132.44C337.999 126.952 337.644 122.159 336.892 118.11L329.027 119.57C329.661 122.988 329.999 127.262 329.999 132.44H337.999ZM336.894 118.12C336.134 113.968 334.83 110.328 332.824 107.387L326.214 111.893C327.409 113.646 328.398 116.139 329.025 119.56L336.894 118.12ZM332.848 107.421C330.814 104.371 328.082 102.112 324.711 100.737L321.688 108.143C323.544 108.901 325.024 110.109 326.191 111.859L332.848 107.421ZM324.775 100.763C321.528 99.3719 317.757 98.76 313.599 98.76V106.76C317.015 106.76 319.644 107.268 321.624 108.117L324.775 100.763ZM313.599 98.76C309.441 98.76 305.671 99.3719 302.424 100.763L305.575 108.117C307.555 107.268 310.184 106.76 313.599 106.76V98.76ZM302.488 100.737C299.117 102.112 296.384 104.371 294.351 107.421L301.008 111.859C302.174 110.109 303.655 108.901 305.511 108.143L302.488 100.737ZM294.374 107.387C292.369 110.328 291.065 113.968 290.305 118.12L298.174 119.56C298.8 116.139 299.79 113.646 300.984 111.893L294.374 107.387ZM290.307 118.11C289.555 122.159 289.199 126.952 289.199 132.44H297.199C297.199 127.262 297.537 122.988 298.172 119.57L290.307 118.11ZM347.332 103.88V99.88C345.123 99.88 343.332 101.671 343.332 103.88H347.332ZM347.332 161H343.332C343.332 163.209 345.123 165 347.332 165V161ZM361.253 161V165C363.462 165 365.253 163.209 365.253 161H361.253ZM361.253 125.72V121.72C359.043 121.72 357.253 123.511 357.253 125.72H361.253ZM361.412 125.72L365.263 124.637C364.778 122.912 363.205 121.72 361.412 121.72V125.72ZM371.333 161L367.482 162.083C367.967 163.808 369.54 165 371.333 165V161ZM387.652 161V165C389.862 165 391.652 163.209 391.652 161H387.652ZM387.652 103.88H391.652C391.652 101.671 389.862 99.88 387.652 99.88V103.88ZM373.732 103.88V99.88C371.523 99.88 369.732 101.671 369.732 103.88H373.732ZM373.732 139.08V143.08C375.942 143.08 377.732 141.289 377.732 139.08H373.732ZM373.572 139.08L369.713 140.132C370.188 141.873 371.769 143.08 373.572 143.08V139.08ZM363.973 103.88L367.832 102.828C367.357 101.087 365.776 99.88 363.973 99.88V103.88ZM343.332 103.88V161H351.332V103.88H343.332ZM347.332 165H361.253V157H347.332V165ZM365.253 161V125.72H357.253V161H365.253ZM361.253 129.72H361.412V121.72H361.253V129.72ZM357.562 126.803L367.482 162.083L375.183 159.917L365.263 124.637L357.562 126.803ZM371.333 165H387.652V157H371.333V165ZM391.652 161V103.88H383.652V161H391.652ZM387.652 99.88H373.732V107.88H387.652V99.88ZM369.732 103.88V139.08H377.732V103.88H369.732ZM373.732 135.08H373.572V143.08H373.732V135.08ZM377.432 138.028L367.832 102.828L360.113 104.932L369.713 140.132L377.432 138.028ZM363.973 99.88H347.332V107.88H363.973V99.88ZM416.916 103.88H420.916C420.916 101.671 419.125 99.88 416.916 99.88V103.88ZM402.036 103.88V99.88C399.827 99.88 398.036 101.671 398.036 103.88H402.036ZM403.316 151.32L399.507 152.539L403.316 151.32ZM406.996 157.72L404.168 160.548C404.183 160.564 404.199 160.579 404.215 160.594L406.996 157.72ZM413.076 161L412.126 164.886C412.133 164.887 412.139 164.889 412.146 164.89L413.076 161ZM429.716 161L430.666 164.886L429.716 161ZM435.716 157.72L432.935 154.846C432.919 154.861 432.903 154.876 432.888 154.892L435.716 157.72ZM439.476 151.32L435.667 150.101V150.101L439.476 151.32ZM440.756 103.88H444.756C444.756 101.671 442.965 99.88 440.756 99.88V103.88ZM425.876 103.88V99.88C423.667 99.88 421.876 101.671 421.876 103.88H425.876ZM424.676 150.68L427.676 153.326C427.701 153.298 427.725 153.27 427.749 153.241L424.676 150.68ZM418.116 150.68L415.043 153.241C415.067 153.27 415.092 153.298 415.117 153.326L418.116 150.68ZM416.916 99.88H402.036V107.88H416.916V99.88ZM398.036 103.88V141.32H406.036V103.88H398.036ZM398.036 141.32C398.036 145.572 398.486 149.349 399.507 152.539L407.126 150.101C406.44 147.957 406.036 145.068 406.036 141.32H398.036ZM399.507 152.539C400.509 155.671 402.023 158.403 404.168 160.548L409.825 154.892C408.77 153.837 407.83 152.302 407.126 150.101L399.507 152.539ZM404.215 160.594C406.416 162.724 409.09 164.143 412.126 164.886L414.026 157.114C412.263 156.683 410.884 155.916 409.778 154.846L404.215 160.594ZM412.146 164.89C414.963 165.564 418.057 165.88 421.396 165.88V157.88C418.549 157.88 416.096 157.609 414.007 157.11L412.146 164.89ZM421.396 165.88C424.78 165.88 427.884 165.566 430.666 164.886L428.766 157.114C426.748 157.608 424.305 157.88 421.396 157.88V165.88ZM430.666 164.886C433.71 164.142 436.38 162.713 438.545 160.548L432.888 154.892C431.853 155.927 430.523 156.685 428.766 157.114L430.666 164.886ZM438.498 160.594C440.717 158.446 442.275 155.699 443.286 152.539L435.667 150.101C434.971 152.274 434.022 153.794 432.935 154.846L438.498 160.594ZM443.286 152.539C444.307 149.349 444.756 145.572 444.756 141.32H436.756C436.756 145.068 436.352 147.957 435.667 150.101L443.286 152.539ZM444.756 141.32V103.88H436.756V141.32H444.756ZM440.756 99.88H425.876V107.88H440.756V99.88ZM421.876 103.88V145.08H429.876V103.88H421.876ZM421.876 145.08C421.876 146.299 421.786 147.157 421.665 147.722C421.535 148.327 421.427 148.331 421.603 148.119L427.749 153.241C428.726 152.069 429.217 150.66 429.487 149.398C429.766 148.096 429.876 146.634 429.876 145.08H421.876ZM421.677 148.034C421.668 148.044 421.672 148.038 421.688 148.026C421.704 148.015 421.719 148.007 421.724 148.005C421.739 147.999 421.653 148.04 421.396 148.04V156.04C423.744 156.04 426.001 155.224 427.676 153.326L421.677 148.034ZM421.396 148.04C421.14 148.04 421.053 147.999 421.068 148.005C421.074 148.007 421.088 148.015 421.105 148.026C421.121 148.038 421.124 148.044 421.116 148.034L415.117 153.326C416.792 155.224 419.049 156.04 421.396 156.04V148.04ZM421.189 148.119C421.366 148.331 421.257 148.327 421.127 147.722C421.006 147.157 420.916 146.299 420.916 145.08H412.916C412.916 146.634 413.026 148.096 413.305 149.398C413.575 150.66 414.067 152.069 415.043 153.241L421.189 148.119ZM420.916 145.08V103.88H412.916V145.08H420.916ZM477.369 120.36H473.369C473.369 122.569 475.16 124.36 477.369 124.36V120.36ZM491.289 120.36V124.36C493.499 124.36 495.289 122.569 495.289 120.36H491.289ZM486.889 107L484.088 109.855C484.105 109.872 484.123 109.889 484.141 109.907L486.889 107ZM458.729 107.32L461.533 110.173V110.173L458.729 107.32ZM455.769 128.76L452.247 130.656C452.26 130.679 452.273 130.702 452.285 130.725L455.769 128.76ZM460.089 133.8L457.689 137C457.705 137.012 457.721 137.023 457.737 137.035L460.089 133.8ZM465.769 136.92L467.238 133.199V133.199L465.769 136.92ZM471.369 139.32L469.672 142.942C469.716 142.963 469.762 142.983 469.807 143.002L471.369 139.32ZM475.689 142.12L472.861 144.948C472.906 144.993 472.952 145.037 472.999 145.08L475.689 142.12ZM476.169 150.44L473.046 147.941C473.02 147.974 472.994 148.007 472.969 148.04L476.169 150.44ZM469.129 150.6L466.148 153.267C466.172 153.294 466.197 153.32 466.221 153.346L469.129 150.6ZM467.769 144.04H471.769C471.769 141.831 469.979 140.04 467.769 140.04V144.04ZM453.369 144.04V140.04C451.16 140.04 449.369 141.831 449.369 144.04H453.369ZM454.649 153.56L450.963 155.112L454.649 153.56ZM458.329 158.52L455.831 161.643C455.869 161.674 455.907 161.703 455.946 161.732L458.329 158.52ZM464.329 161.08L465.197 157.175C465.175 157.17 465.153 157.166 465.131 157.161L464.329 161.08ZM487.609 157.8L490.079 160.947C490.088 160.939 490.098 160.931 490.108 160.923L487.609 157.8ZM490.969 136.12L487.445 138.011C487.463 138.046 487.482 138.08 487.502 138.114L490.969 136.12ZM486.489 130.84L484.12 134.063V134.063L486.489 130.84ZM480.649 127.64L479.131 131.341C479.158 131.352 479.186 131.363 479.213 131.373L480.649 127.64ZM474.809 125.16L473.195 128.82V128.82L474.809 125.16ZM470.249 122.36L467.487 125.253C467.532 125.296 467.578 125.338 467.625 125.378L470.249 122.36ZM469.609 114.44L472.83 116.813C472.849 116.787 472.868 116.76 472.886 116.734L469.609 114.44ZM476.329 114.68L472.847 116.648C472.86 116.671 472.873 116.693 472.886 116.715L476.329 114.68ZM477.369 124.36H491.289V116.36H477.369V124.36ZM495.289 120.36C495.289 113.693 493.705 107.939 489.637 104.093L484.141 109.907C485.941 111.608 487.289 114.76 487.289 120.36H495.289ZM489.691 104.145C485.717 100.245 479.75 98.76 472.809 98.76V106.76C478.882 106.76 482.302 108.102 484.088 109.855L489.691 104.145ZM472.809 98.76C465.94 98.76 460.047 100.417 455.926 104.467L461.533 110.173C463.598 108.143 467.092 106.76 472.809 106.76V98.76ZM455.926 104.467C451.834 108.488 450.089 114.091 450.089 120.6H458.089C458.089 115.482 459.438 112.232 461.533 110.173L455.926 104.467ZM450.089 120.6C450.089 124.359 450.709 127.799 452.247 130.656L459.291 126.864C458.59 125.561 458.089 123.561 458.089 120.6H450.089ZM452.285 130.725C453.698 133.23 455.49 135.35 457.689 137L462.489 130.6C461.276 129.69 460.187 128.45 459.253 126.795L452.285 130.725ZM457.737 137.035C459.77 138.514 461.96 139.717 464.301 140.641L467.238 133.199C465.525 132.523 463.929 131.646 462.442 130.565L457.737 137.035ZM464.301 140.641C466.262 141.415 468.051 142.182 469.672 142.942L473.067 135.698C471.275 134.858 469.33 134.025 467.238 133.199L464.301 140.641ZM469.807 143.002C471.19 143.589 472.171 144.259 472.861 144.948L478.518 139.292C476.968 137.741 475.069 136.544 472.932 135.638L469.807 143.002ZM472.999 145.08C473.189 145.253 473.449 145.562 473.449 146.52H481.449C481.449 143.745 480.536 141.12 478.38 139.16L472.999 145.08ZM473.449 146.52C473.449 147.285 473.257 147.677 473.046 147.941L479.293 152.939C480.788 151.07 481.449 148.848 481.449 146.52H473.449ZM472.969 148.04C472.957 148.057 472.959 148.05 472.98 148.033C473.001 148.016 473.023 148.004 473.034 147.999C473.061 147.986 472.964 148.04 472.649 148.04V156.04C475.226 156.04 477.686 155.084 479.369 152.84L472.969 148.04ZM472.649 148.04C472.199 148.04 472.116 147.936 472.037 147.854L466.221 153.346C467.956 155.184 470.22 156.04 472.649 156.04V148.04ZM472.11 147.933C472.193 148.025 472.094 147.968 471.979 147.528C471.864 147.088 471.769 146.401 471.769 145.4H463.769C463.769 148.127 464.23 151.123 466.148 153.267L472.11 147.933ZM471.769 145.4V144.04H463.769V145.4H471.769ZM467.769 140.04H453.369V148.04H467.769V140.04ZM449.369 144.04V146.04H457.369V144.04H449.369ZM449.369 146.04C449.369 149.38 449.843 152.452 450.963 155.112L458.336 152.008C457.749 150.615 457.369 148.673 457.369 146.04H449.369ZM450.963 155.112C452.055 157.707 453.672 159.917 455.831 161.643L460.828 155.397C459.787 154.563 458.95 153.466 458.336 152.008L450.963 155.112ZM455.946 161.732C458.139 163.36 460.702 164.421 463.528 164.999L465.131 157.161C463.264 156.779 461.826 156.134 460.713 155.308L455.946 161.732ZM463.462 164.985C466.209 165.595 469.255 165.88 472.569 165.88V157.88C469.697 157.88 467.25 157.632 465.197 157.175L463.462 164.985ZM472.569 165.88C479.605 165.88 485.636 164.432 490.079 160.947L485.14 154.653C482.649 156.608 478.653 157.88 472.569 157.88V165.88ZM490.108 160.923C494.842 157.136 496.809 151.338 496.809 144.52H488.809C488.809 149.862 487.31 152.917 485.111 154.677L490.108 160.923ZM496.809 144.52C496.809 140.625 496.126 137.064 494.437 134.126L487.502 138.114C488.266 139.442 488.809 141.482 488.809 144.52H496.809ZM494.494 134.229C493.069 131.572 491.199 129.338 488.859 127.617L484.12 134.063C485.407 135.009 486.523 136.294 487.445 138.011L494.494 134.229ZM488.859 127.617C486.761 126.075 484.501 124.836 482.085 123.907L479.213 131.373C480.958 132.044 482.591 132.938 484.12 134.063L488.859 127.617ZM482.168 123.939C480.116 123.098 478.201 122.285 476.424 121.5L473.195 128.82C475.044 129.635 477.023 130.476 479.131 131.341L482.168 123.939ZM476.424 121.5C474.9 120.828 473.74 120.095 472.874 119.342L467.625 125.378C469.212 126.759 471.092 127.892 473.195 128.82L476.424 121.5ZM473.011 119.467C472.75 119.217 472.489 118.834 472.489 117.88H464.489C464.489 120.66 465.402 123.263 467.487 125.253L473.011 119.467ZM472.489 117.88C472.489 117.438 472.599 117.126 472.83 116.813L466.389 112.067C465.127 113.78 464.489 115.762 464.489 117.88H472.489ZM472.886 116.734C472.878 116.745 472.854 116.777 472.81 116.813C472.767 116.849 472.727 116.871 472.705 116.881C472.662 116.901 472.766 116.84 473.129 116.84V108.84C470.562 108.84 468.002 109.761 466.332 112.146L472.886 116.734ZM473.129 116.84C473.206 116.84 473.22 116.848 473.189 116.84C473.154 116.832 473.091 116.811 473.015 116.768C472.94 116.724 472.883 116.676 472.849 116.64C472.816 116.606 472.82 116.6 472.847 116.648L479.812 112.712C478.39 110.196 475.972 108.84 473.129 108.84V116.84ZM472.886 116.715C473.134 117.134 473.369 117.831 473.369 119H481.369C481.369 116.756 480.912 114.572 479.773 112.645L472.886 116.715ZM473.369 119V120.36H481.369V119H473.369Z" fill="#213664"/>
</g>
<path d="M205.473 126.327C205.158 125.478 204.797 124.588 204.371 123.618L203.785 122.284L165.926 134.832L166.253 136.253C166.482 137.26 166.722 138.184 166.982 139.068C162.521 143.362 162.056 150.585 165.939 156.022C169.999 161.694 177.271 163.582 182.959 160.49C185.426 161.804 187.9 162.558 190.335 162.727L192.2 168.354L191.613 168.548C190.34 168.97 189.416 170.111 189.231 171.453L186.899 172.226C185.038 172.843 184.035 174.896 184.665 176.797L185.845 180.321L214.597 170.791L213.426 167.258C212.796 165.357 210.765 164.31 208.905 164.927L206.572 165.7C205.623 164.734 204.2 164.371 202.927 164.793L202.494 164.936L200.663 159.411C202.598 157.805 204.205 155.659 205.438 153.033C211.829 152.099 216.524 146.245 216.393 139.288C216.265 132.64 211.589 127.126 205.473 126.327ZM170.9 152.471C169.553 150.588 169.17 148.232 169.823 146.205C171.655 149.834 173.9 152.994 176.514 155.619C174.359 155.51 172.246 154.349 170.9 152.471ZM210.298 139.418C210.343 141.704 209.351 143.889 207.712 145.273C208.234 141.619 208.153 137.76 207.46 133.77C209.163 135.01 210.254 137.12 210.298 139.418Z" fill="#A1C0ED"/>
<path d="M204.334 127.838C203.92 126.605 203.443 125.415 202.932 124.258L167.784 135.908C168.064 137.136 168.39 138.37 168.79 139.609C164.292 143.192 163.535 149.953 167.203 155.089C170.957 160.338 177.929 161.886 182.916 158.647C185.711 160.282 188.619 161.18 191.472 161.16L194.197 169.384L192.119 170.073C191.084 170.416 190.532 171.547 190.87 172.602L187.404 173.751C186.359 174.097 185.803 175.235 186.157 176.302L186.167 176.299L186.833 178.307L212.601 169.766L211.935 167.758C211.582 166.69 210.456 166.11 209.412 166.456L205.945 167.605C205.585 166.551 204.468 165.98 203.433 166.322L201.509 166.96L198.81 158.818C201.203 157.128 203.07 154.602 204.374 151.541C210.292 151.142 214.947 145.752 214.825 139.305C214.697 133.007 210.072 128.046 204.334 127.838ZM169.631 153.405C167.184 149.985 167.437 145.569 169.994 142.825C172.426 148.631 175.969 153.391 179.966 156.607C176.461 158.108 172.105 156.855 169.631 153.405ZM197.694 139.946L195.358 144.573L197.804 149.206C197.965 149.508 197.942 149.871 197.747 150.15C197.638 150.304 197.483 150.418 197.309 150.475C197.179 150.518 197.03 150.534 196.889 150.507L191.815 149.622L188.27 153.364C188.037 153.611 187.69 153.697 187.367 153.59C187.045 153.483 186.814 153.204 186.758 152.867L185.958 147.688L181.321 145.372C181.016 145.22 180.825 144.91 180.817 144.569C180.814 144.226 180.998 143.917 181.301 143.765L185.878 141.453L186.557 136.275C186.601 135.939 186.829 135.66 187.147 135.555C187.465 135.449 187.814 135.537 188.05 135.78L191.682 139.529L196.739 138.648C197.068 138.59 197.405 138.727 197.608 139.004C197.815 139.279 197.843 139.648 197.694 139.946ZM211.871 139.404C211.955 143.635 209.214 147.24 205.529 148.146C206.808 143.18 206.807 137.246 205.296 131.141C208.973 131.824 211.79 135.211 211.871 139.404Z" fill="#0C3D76"/>
<path d="M169.505 143.416C169.627 143.252 169.763 143.094 169.9 142.942C169.512 141.739 169.196 140.535 168.921 139.34L204.07 127.69C204.565 128.817 205.03 129.972 205.44 131.173C205.641 131.214 205.839 131.261 206.028 131.316C209.728 131.653 212.91 133.96 214.616 137.31C213.67 131.988 209.451 128.021 204.334 127.839C203.92 126.605 203.443 125.415 202.933 124.259L167.784 135.909C168.064 137.136 168.39 138.37 168.79 139.609C164.782 142.805 163.756 148.521 166.179 153.364C165.55 149.652 166.728 145.894 169.505 143.416Z" fill="#213664"/>














<defs>
<filter id="filter0_d" x="233.422" y="98.7598" width="267.388" height="75.12" filterUnits="userSpaceOnUse" color-interpolation-filters="sRGB">
<feFlood flood-opacity="0" result="BackgroundImageFix"/>
<feColorMatrix in="SourceAlpha" type="matrix" values="0 0 0 0 0 0 0 0 0 0 0 0 0 0 0 0 0 0 127 0"/>
<feOffset dy="4"/>
<feGaussianBlur stdDeviation="2"/>
<feColorMatrix type="matrix" values="0 0 0 0 0 0 0 0 0 0 0 0 0 0 0 0 0 0 0.25 0"/>
<feBlend mode="normal" in2="BackgroundImageFix" result="effect1_dropShadow"/>
<feBlend mode="normal" in="SourceGraphic" in2="effect1_dropShadow" result="shape"/>
</filter>
<linearGradient id="paint0_linear" x1="366" y1="82" x2="390.062" y2="194.606" gradientUnits="userSpaceOnUse">
<stop stop-color="#F2C94C"/>
<stop offset="0.645833" stop-color="#F2BD1B"/>
<stop offset="1" stop-color="#E1AC09"/>
</linearGradient>
<clipPath id="clip0">
<rect width="120" height="120" fill="white" transform="translate(288.761 562.839)"/>
</clipPath>
<clipPath id="clip1">
<rect width="548" height="316" fill="white" transform="translate(63 217)"/>
</clipPath>
</defs>
</svg>