<svg width="144" height="176" viewBox="0 0 144 176" fill="none" xmlns="http://www.w3.org/2000/svg">
<path d="M8.45533 150.395V143.715H14.3353C14.8953 143.715 15.4287 143.768 15.9353 143.875C16.4687 143.955 16.9353 144.115 17.3353 144.355C17.7353 144.595 18.0553 144.928 18.2953 145.355C18.5353 145.781 18.6553 146.328 18.6553 146.995C18.6553 148.195 18.2953 149.061 17.5753 149.595C16.8553 150.128 15.9353 150.395 14.8153 150.395H8.45533ZM2.17533 138.835V167.395H16.0153C17.2953 167.395 18.5353 167.235 19.7353 166.915C20.962 166.595 22.042 166.101 22.9753 165.435C23.9353 164.768 24.6953 163.915 25.2553 162.875C25.8153 161.808 26.0953 160.555 26.0953 159.115C26.0953 157.328 25.6553 155.808 24.7753 154.555C23.922 153.275 22.6153 152.381 20.8553 151.875C22.1353 151.261 23.0953 150.475 23.7353 149.515C24.402 148.555 24.7353 147.355 24.7353 145.915C24.7353 144.581 24.5087 143.461 24.0553 142.555C23.6287 141.648 23.0153 140.928 22.2153 140.395C21.4153 139.835 20.4553 139.435 19.3353 139.195C18.2153 138.955 16.9753 138.835 15.6153 138.835H2.17533ZM8.45533 162.515V154.675H15.2953C16.6553 154.675 17.7487 154.995 18.5753 155.635C19.402 156.248 19.8153 157.288 19.8153 158.755C19.8153 159.501 19.682 160.115 19.4153 160.595C19.1753 161.075 18.842 161.461 18.4153 161.755C17.9887 162.021 17.4953 162.221 16.9353 162.355C16.3753 162.461 15.7887 162.515 15.1753 162.515H8.45533ZM40.1794 157.075C40.1794 156.248 40.2594 155.435 40.4194 154.635C40.5794 153.835 40.8461 153.128 41.2194 152.515C41.6194 151.901 42.1394 151.408 42.7794 151.035C43.4194 150.635 44.2194 150.435 45.1794 150.435C46.1394 150.435 46.9394 150.635 47.5794 151.035C48.2461 151.408 48.7661 151.901 49.1394 152.515C49.5394 153.128 49.8194 153.835 49.9794 154.635C50.1394 155.435 50.2194 156.248 50.2194 157.075C50.2194 157.901 50.1394 158.715 49.9794 159.515C49.8194 160.288 49.5394 160.995 49.1394 161.635C48.7661 162.248 48.2461 162.741 47.5794 163.115C46.9394 163.488 46.1394 163.675 45.1794 163.675C44.2194 163.675 43.4194 163.488 42.7794 163.115C42.1394 162.741 41.6194 162.248 41.2194 161.635C40.8461 160.995 40.5794 160.288 40.4194 159.515C40.2594 158.715 40.1794 157.901 40.1794 157.075ZM34.4994 157.075C34.4994 158.728 34.7527 160.221 35.2594 161.555C35.7661 162.888 36.4861 164.035 37.4194 164.995C38.3527 165.928 39.4727 166.648 40.7794 167.155C42.0861 167.661 43.5527 167.915 45.1794 167.915C46.8061 167.915 48.2727 167.661 49.5794 167.155C50.9127 166.648 52.0461 165.928 52.9794 164.995C53.9127 164.035 54.6327 162.888 55.1394 161.555C55.6461 160.221 55.8994 158.728 55.8994 157.075C55.8994 155.421 55.6461 153.928 55.1394 152.595C54.6327 151.235 53.9127 150.088 52.9794 149.155C52.0461 148.195 50.9127 147.461 49.5794 146.955C48.2727 146.421 46.8061 146.155 45.1794 146.155C43.5527 146.155 42.0861 146.421 40.7794 146.955C39.4727 147.461 38.3527 148.195 37.4194 149.155C36.4861 150.088 35.7661 151.235 35.2594 152.595C34.7527 153.928 34.4994 155.421 34.4994 157.075ZM64.9925 146.715V167.395H70.6725V156.555C70.6725 154.448 71.0192 152.941 71.7125 152.035C72.4058 151.101 73.5258 150.635 75.0725 150.635C76.4325 150.635 77.3792 151.061 77.9125 151.915C78.4458 152.741 78.7125 154.008 78.7125 155.715V167.395H84.3925V154.675C84.3925 153.395 84.2725 152.235 84.0325 151.195C83.8192 150.128 83.4325 149.235 82.8725 148.515C82.3125 147.768 81.5392 147.195 80.5525 146.795C79.5925 146.368 78.3525 146.155 76.8325 146.155C75.6325 146.155 74.4592 146.435 73.3125 146.995C72.1658 147.528 71.2325 148.395 70.5125 149.595H70.3925V146.715H64.9925ZM113.503 167.395V146.715H107.823V157.555C107.823 159.661 107.477 161.181 106.783 162.115C106.09 163.021 104.97 163.475 103.423 163.475C102.063 163.475 101.117 163.061 100.583 162.235C100.05 161.381 99.7835 160.101 99.7835 158.395V146.715H94.1035V159.435C94.1035 160.715 94.2101 161.888 94.4235 162.955C94.6635 163.995 95.0635 164.888 95.6235 165.635C96.1835 166.355 96.9435 166.915 97.9035 167.315C98.8901 167.715 100.143 167.915 101.663 167.915C102.863 167.915 104.037 167.648 105.183 167.115C106.33 166.581 107.263 165.715 107.983 164.515H108.103V167.395H113.503ZM127.614 160.675H122.214C122.268 162.061 122.574 163.221 123.134 164.155C123.721 165.061 124.454 165.795 125.334 166.355C126.241 166.915 127.268 167.315 128.414 167.555C129.561 167.795 130.734 167.915 131.934 167.915C133.108 167.915 134.254 167.795 135.374 167.555C136.521 167.341 137.534 166.955 138.414 166.395C139.294 165.835 140.001 165.101 140.534 164.195C141.094 163.261 141.374 162.115 141.374 160.755C141.374 159.795 141.188 158.995 140.814 158.355C140.441 157.688 139.948 157.141 139.334 156.715C138.721 156.261 138.014 155.901 137.214 155.635C136.441 155.368 135.641 155.141 134.814 154.955C134.014 154.768 133.228 154.595 132.454 154.435C131.681 154.275 130.988 154.101 130.374 153.915C129.788 153.701 129.308 153.435 128.934 153.115C128.561 152.795 128.374 152.381 128.374 151.875C128.374 151.448 128.481 151.115 128.694 150.875C128.908 150.608 129.161 150.408 129.454 150.275C129.774 150.141 130.121 150.061 130.494 150.035C130.868 149.981 131.214 149.955 131.534 149.955C132.548 149.955 133.428 150.155 134.174 150.555C134.921 150.928 135.334 151.661 135.414 152.755H140.814C140.708 151.475 140.374 150.421 139.814 149.595C139.281 148.741 138.601 148.061 137.774 147.555C136.948 147.048 136.001 146.688 134.934 146.475C133.894 146.261 132.814 146.155 131.694 146.155C130.574 146.155 129.481 146.261 128.414 146.475C127.348 146.661 126.388 147.008 125.534 147.515C124.681 147.995 123.988 148.661 123.454 149.515C122.948 150.368 122.694 151.461 122.694 152.795C122.694 153.701 122.881 154.475 123.254 155.115C123.628 155.728 124.121 156.248 124.734 156.675C125.348 157.075 126.041 157.408 126.814 157.675C127.614 157.915 128.428 158.128 129.254 158.315C131.281 158.741 132.854 159.168 133.974 159.595C135.121 160.021 135.694 160.661 135.694 161.515C135.694 162.021 135.574 162.448 135.334 162.795C135.094 163.115 134.788 163.381 134.414 163.595C134.068 163.781 133.668 163.928 133.214 164.035C132.788 164.115 132.374 164.155 131.974 164.155C131.414 164.155 130.868 164.088 130.334 163.955C129.828 163.821 129.374 163.621 128.974 163.355C128.574 163.061 128.241 162.701 127.974 162.275C127.734 161.821 127.614 161.288 127.614 160.675Z" fill="white"/>
<path d="M8.45533 150.395H6.45533V152.395H8.45533V150.395ZM8.45533 143.715V141.715H6.45533V143.715H8.45533ZM15.9353 143.875L15.5233 145.832L15.5807 145.844L15.6387 145.852L15.9353 143.875ZM17.3353 144.355L16.3063 146.07H16.3063L17.3353 144.355ZM18.2953 145.355L16.5522 146.335V146.335L18.2953 145.355ZM2.17533 138.835V136.835H0.175329V138.835H2.17533ZM2.17533 167.395H0.175329V169.395H2.17533V167.395ZM19.7353 166.915L19.2305 164.979L19.22 164.982L19.7353 166.915ZM22.9753 165.435L21.8345 163.792L21.8236 163.799L21.8129 163.807L22.9753 165.435ZM25.2553 162.875L27.0163 163.823L27.0212 163.813L27.0261 163.804L25.2553 162.875ZM24.7753 154.555L23.1112 155.664L23.1246 155.684L23.1385 155.704L24.7753 154.555ZM20.8553 151.875L19.9911 150.071L15.2507 152.342L20.302 153.796L20.8553 151.875ZM23.7353 149.515L22.0926 148.374L22.0818 148.389L22.0712 148.405L23.7353 149.515ZM24.0553 142.555L22.2457 143.406L22.2558 143.428L22.2665 143.449L24.0553 142.555ZM22.2153 140.395L21.0684 142.033L21.087 142.046L21.1059 142.059L22.2153 140.395ZM8.45533 162.515H6.45533V164.515H8.45533V162.515ZM8.45533 154.675V152.675H6.45533V154.675H8.45533ZM18.5753 155.635L17.351 157.216L17.3672 157.229L17.3836 157.241L18.5753 155.635ZM19.4153 160.595L17.667 159.623L17.6459 159.661L17.6265 159.7L19.4153 160.595ZM18.4153 161.755L19.4753 163.451L19.5124 163.427L19.5484 163.403L18.4153 161.755ZM16.9353 162.355L17.3096 164.319L17.3543 164.311L17.3986 164.3L16.9353 162.355ZM10.4553 150.395V143.715H6.45533V150.395H10.4553ZM8.45533 145.715H14.3353V141.715H8.45533V145.715ZM14.3353 145.715C14.768 145.715 15.1626 145.756 15.5233 145.832L16.3474 141.917C15.6947 141.78 15.0226 141.715 14.3353 141.715V145.715ZM15.6387 145.852C15.953 145.9 16.1631 145.984 16.3063 146.07L18.3643 142.64C17.7075 142.245 16.9843 142.01 16.232 141.897L15.6387 145.852ZM16.3063 146.07C16.3936 146.122 16.4737 146.196 16.5522 146.335L20.0385 144.374C19.637 143.66 19.077 143.067 18.3643 142.64L16.3063 146.07ZM16.5522 146.335C16.5737 146.373 16.6553 146.552 16.6553 146.995H20.6553C20.6553 146.103 20.4969 145.189 20.0385 144.374L16.5522 146.335ZM16.6553 146.995C16.6553 147.794 16.4335 147.951 16.3849 147.987L18.7658 151.202C20.1572 150.171 20.6553 148.595 20.6553 146.995H16.6553ZM16.3849 147.987C16.0874 148.208 15.6153 148.395 14.8153 148.395V152.395C16.2554 152.395 17.6232 152.048 18.7658 151.202L16.3849 147.987ZM14.8153 148.395H8.45533V152.395H14.8153V148.395ZM0.175329 138.835V167.395H4.17533V138.835H0.175329ZM2.17533 169.395H16.0153V165.395H2.17533V169.395ZM16.0153 169.395C17.464 169.395 18.8774 169.213 20.2507 168.847L19.22 164.982C18.1932 165.256 17.1267 165.395 16.0153 165.395V169.395ZM20.2402 168.85C21.6782 168.475 22.986 167.885 24.1378 167.062L21.8129 163.807C21.098 164.318 20.2458 164.714 19.2305 164.979L20.2402 168.85ZM24.1161 167.077C25.3374 166.229 26.3087 165.137 27.0163 163.823L23.4944 161.926C23.0819 162.692 22.5332 163.307 21.8345 163.792L24.1161 167.077ZM27.0261 163.804C27.7634 162.4 28.0953 160.816 28.0953 159.115H24.0953C24.0953 160.294 23.8672 161.216 23.4845 161.945L27.0261 163.804ZM28.0953 159.115C28.0953 156.987 27.5661 155.049 26.4122 153.405L23.1385 155.704C23.7446 156.567 24.0953 157.669 24.0953 159.115H28.0953ZM26.4394 153.445C25.2756 151.699 23.5326 150.564 21.4086 149.953L20.302 153.796C21.698 154.198 22.5684 154.85 23.1112 155.664L26.4394 153.445ZM21.7196 153.678C23.2494 152.945 24.5188 151.945 25.3994 150.624L22.0712 148.405C21.6718 149.004 21.0212 149.577 19.9911 150.071L21.7196 153.678ZM25.3781 150.655C26.3265 149.29 26.7353 147.667 26.7353 145.915H22.7353C22.7353 147.042 22.4775 147.819 22.0926 148.374L25.3781 150.655ZM26.7353 145.915C26.7353 144.365 26.4731 142.918 25.8442 141.66L22.2665 143.449C22.5443 144.005 22.7353 144.798 22.7353 145.915H26.7353ZM25.865 141.703C25.2901 140.481 24.4409 139.475 23.3247 138.73L21.1059 142.059C21.5898 142.381 21.9673 142.814 22.2457 143.406L25.865 141.703ZM23.3623 138.756C22.3088 138.019 21.0912 137.525 19.7544 137.239L18.9163 141.15C19.8195 141.344 20.5219 141.65 21.0684 142.033L23.3623 138.756ZM19.7544 137.239C18.4739 136.965 17.0908 136.835 15.6153 136.835V140.835C16.8598 140.835 17.9568 140.945 18.9163 141.15L19.7544 137.239ZM15.6153 136.835H2.17533V140.835H15.6153V136.835ZM10.4553 162.515V154.675H6.45533V162.515H10.4553ZM8.45533 156.675H15.2953V152.675H8.45533V156.675ZM15.2953 156.675C16.3462 156.675 16.9678 156.919 17.351 157.216L19.7997 154.053C18.5295 153.07 16.9645 152.675 15.2953 152.675V156.675ZM17.3836 157.241C17.5096 157.334 17.8153 157.636 17.8153 158.755H21.8153C21.8153 156.94 21.2943 155.162 19.767 154.028L17.3836 157.241ZM17.8153 158.755C17.8153 159.278 17.7198 159.528 17.667 159.623L21.1636 161.566C21.6442 160.701 21.8153 159.724 21.8153 158.755H17.8153ZM17.6265 159.7C17.5321 159.889 17.4197 160.012 17.2823 160.106L19.5484 163.403C20.2643 162.91 20.8186 162.26 21.2042 161.489L17.6265 159.7ZM17.3553 160.059C17.1371 160.195 16.8509 160.319 16.4721 160.409L17.3986 164.3C18.1398 164.124 18.8402 163.847 19.4753 163.451L17.3553 160.059ZM16.5611 160.39C16.1334 160.471 15.6725 160.515 15.1753 160.515V164.515C15.9048 164.515 16.6173 164.451 17.3096 164.319L16.5611 160.39ZM15.1753 160.515H8.45533V164.515H15.1753V160.515ZM41.2194 152.515L39.5442 151.422L39.5272 151.448L39.511 151.475L41.2194 152.515ZM42.7794 151.035L43.7871 152.762L43.8135 152.747L43.8394 152.731L42.7794 151.035ZM47.5794 151.035L46.5194 152.731L46.5602 152.756L46.6022 152.78L47.5794 151.035ZM49.1394 152.515L47.431 153.554L47.4472 153.581L47.4642 153.607L49.1394 152.515ZM49.9794 154.635L48.0182 155.027V155.027L49.9794 154.635ZM49.9794 159.515L51.938 159.92L51.9406 159.907L49.9794 159.515ZM49.1394 161.635L47.4434 160.575L47.4371 160.585L47.431 160.595L49.1394 161.635ZM47.5794 163.115L46.6022 161.37L46.5868 161.378L46.5717 161.387L47.5794 163.115ZM42.7794 163.115L41.7717 164.842V164.842L42.7794 163.115ZM41.2194 161.635L39.4918 162.642L39.5169 162.685L39.5442 162.727L41.2194 161.635ZM40.4194 159.515L38.4582 159.907L38.4609 159.92L40.4194 159.515ZM35.2594 161.555L37.129 160.844V160.844L35.2594 161.555ZM37.4194 164.995L35.9854 166.389L35.9952 166.399L36.0052 166.409L37.4194 164.995ZM40.7794 167.155L40.0563 169.019L40.7794 167.155ZM49.5794 167.155L48.8689 165.285L48.8563 165.29L49.5794 167.155ZM52.9794 164.995L54.3936 166.409L54.4036 166.399L54.4134 166.389L52.9794 164.995ZM55.1394 161.555L53.2698 160.844L55.1394 161.555ZM55.1394 152.595L53.2652 153.293L53.2698 153.305L55.1394 152.595ZM52.9794 149.155L51.5454 150.549L51.5552 150.559L51.5652 150.569L52.9794 149.155ZM49.5794 146.955L48.8236 148.806L48.8462 148.815L48.869 148.824L49.5794 146.955ZM40.7794 146.955L41.5024 148.819L41.5189 148.813L41.5352 148.806L40.7794 146.955ZM37.4194 149.155L38.8336 150.569L38.8436 150.559L38.8534 150.549L37.4194 149.155ZM35.2594 152.595L37.129 153.305L37.1336 153.293L35.2594 152.595ZM42.1794 157.075C42.1794 156.378 42.2467 155.696 42.3806 155.027L38.4582 154.242C38.2721 155.173 38.1794 156.118 38.1794 157.075H42.1794ZM42.3806 155.027C42.5009 154.425 42.6912 153.943 42.9278 153.554L39.511 151.475C39.0009 152.313 38.6579 153.244 38.4582 154.242L42.3806 155.027ZM42.8946 153.607C43.1225 153.258 43.4127 152.981 43.7871 152.762L41.7717 149.307C40.8661 149.835 40.1163 150.545 39.5442 151.422L42.8946 153.607ZM43.8394 152.731C44.0856 152.577 44.4933 152.435 45.1794 152.435V148.435C43.9454 148.435 42.7532 148.692 41.7194 149.339L43.8394 152.731ZM45.1794 152.435C45.8654 152.435 46.2732 152.577 46.5194 152.731L48.6394 149.339C47.6056 148.692 46.4133 148.435 45.1794 148.435V152.435ZM46.6022 152.78C46.9884 152.996 47.2482 153.254 47.431 153.554L50.8478 151.475C50.284 150.548 49.5037 149.82 48.5566 149.29L46.6022 152.78ZM47.4642 153.607C47.7102 153.984 47.9024 154.448 48.0182 155.027L51.9406 154.242C51.7363 153.221 51.3686 152.271 50.8146 151.422L47.4642 153.607ZM48.0182 155.027C48.1521 155.696 48.2194 156.378 48.2194 157.075H52.2194C52.2194 156.118 52.1267 155.173 51.9406 154.242L48.0182 155.027ZM48.2194 157.075C48.2194 157.771 48.1521 158.453 48.0182 159.122L51.9406 159.907C52.1267 158.976 52.2194 158.031 52.2194 157.075H48.2194ZM48.0209 159.109C47.9066 159.661 47.712 160.145 47.4434 160.575L50.8354 162.695C51.3668 161.844 51.7322 160.914 51.9379 159.92L48.0209 159.109ZM47.431 160.595C47.2482 160.895 46.9884 161.153 46.6022 161.37L48.5566 164.86C49.5037 164.329 50.284 163.601 50.8478 162.674L47.431 160.595ZM46.5717 161.387C46.3152 161.537 45.8876 161.675 45.1794 161.675V165.675C46.3912 165.675 47.5636 165.439 48.5871 164.842L46.5717 161.387ZM45.1794 161.675C44.4712 161.675 44.0436 161.537 43.7871 161.387L41.7717 164.842C42.7952 165.439 43.9676 165.675 45.1794 165.675V161.675ZM43.7871 161.387C43.4127 161.169 43.1225 160.891 42.8946 160.542L39.5442 162.727C40.1163 163.604 40.8661 164.314 41.7717 164.842L43.7871 161.387ZM42.947 160.627C42.6897 160.186 42.4969 159.685 42.3779 159.109L38.4609 159.92C38.6618 160.891 39.0024 161.803 39.4918 162.642L42.947 160.627ZM42.3806 159.122C42.2467 158.453 42.1794 157.771 42.1794 157.075H38.1794C38.1794 158.031 38.2721 158.976 38.4582 159.907L42.3806 159.122ZM32.4994 157.075C32.4994 158.933 32.7844 160.672 33.3898 162.265L37.129 160.844C36.7211 159.771 36.4994 158.523 36.4994 157.075H32.4994ZM33.3898 162.265C33.9871 163.837 34.8495 165.22 35.9854 166.389L38.8534 163.6C38.1226 162.849 37.5451 161.939 37.129 160.844L33.3898 162.265ZM36.0052 166.409C37.1471 167.551 38.5068 168.418 40.0563 169.019L41.5024 165.29C40.4387 164.877 39.5584 164.305 38.8336 163.58L36.0052 166.409ZM40.0563 169.019C41.6275 169.628 43.3446 169.915 45.1794 169.915V165.915C43.7609 165.915 42.5447 165.694 41.5024 165.29L40.0563 169.019ZM45.1794 169.915C47.0142 169.915 48.7313 169.628 50.3024 169.019L48.8563 165.29C47.8141 165.694 46.5979 165.915 45.1794 165.915V169.915ZM50.2898 169.024C51.8657 168.425 53.2448 167.558 54.3936 166.409L51.5652 163.58C50.8473 164.298 49.9598 164.87 48.869 165.285L50.2898 169.024ZM54.4134 166.389C55.5493 165.22 56.4117 163.837 57.009 162.265L53.2698 160.844C52.8537 161.939 52.2762 162.849 51.5454 163.6L54.4134 166.389ZM57.009 162.265C57.6144 160.672 57.8994 158.933 57.8994 157.075H53.8994C53.8994 158.523 53.6777 159.771 53.2698 160.844L57.009 162.265ZM57.8994 157.075C57.8994 155.216 57.6144 153.477 57.009 151.884L53.2698 153.305C53.6777 154.378 53.8994 155.626 53.8994 157.075H57.8994ZM57.0136 151.896C56.4168 150.294 55.5493 148.896 54.3936 147.74L51.5652 150.569C52.2762 151.28 52.8487 152.175 53.2652 153.293L57.0136 151.896ZM54.4134 147.76C53.2633 146.577 51.878 145.688 50.2898 145.085L48.869 148.824C49.9475 149.234 50.8288 149.812 51.5454 150.549L54.4134 147.76ZM50.3352 145.103C48.7548 144.458 47.0261 144.155 45.1794 144.155V148.155C46.586 148.155 47.7906 148.385 48.8236 148.806L50.3352 145.103ZM45.1794 144.155C43.3327 144.155 41.604 144.458 40.0236 145.103L41.5352 148.806C42.5682 148.385 43.7728 148.155 45.1794 148.155V144.155ZM40.0563 145.09C38.4944 145.695 37.1285 146.585 35.9854 147.76L38.8534 150.549C39.577 149.804 40.451 149.227 41.5024 148.819L40.0563 145.09ZM36.0052 147.74C34.8495 148.896 33.982 150.294 33.3852 151.896L37.1336 153.293C37.5501 152.175 38.1226 151.28 38.8336 150.569L36.0052 147.74ZM33.3898 151.884C32.7844 153.477 32.4994 155.216 32.4994 157.075H36.4994C36.4994 155.626 36.7211 154.378 37.129 153.305L33.3898 151.884ZM64.9925 146.715V144.715H62.9925V146.715H64.9925ZM64.9925 167.395H62.9925V169.395H64.9925V167.395ZM70.6725 167.395V169.395H72.6725V167.395H70.6725ZM71.7125 152.035L73.3012 153.249L73.3097 153.238L73.318 153.227L71.7125 152.035ZM77.9125 151.915L76.2165 152.975L76.2241 152.987L76.2319 152.999L77.9125 151.915ZM78.7125 167.395H76.7125V169.395H78.7125V167.395ZM84.3925 167.395V169.395H86.3925V167.395H84.3925ZM84.0325 151.195L82.0714 151.587L82.0771 151.616L82.0837 151.644L84.0325 151.195ZM82.8725 148.515L81.2725 149.715L81.283 149.729L81.2938 149.742L82.8725 148.515ZM80.5525 146.795L79.7402 148.622L79.7705 148.636L79.8011 148.648L80.5525 146.795ZM73.3125 146.995L74.156 148.808L74.1732 148.8L74.1902 148.792L73.3125 146.995ZM70.5125 149.595V151.595H71.6449L72.2275 150.624L70.5125 149.595ZM70.3925 149.595H68.3925V151.595H70.3925V149.595ZM70.3925 146.715H72.3925V144.715H70.3925V146.715ZM62.9925 146.715V167.395H66.9925V146.715H62.9925ZM64.9925 169.395H70.6725V165.395H64.9925V169.395ZM72.6725 167.395V156.555H68.6725V167.395H72.6725ZM72.6725 156.555C72.6725 154.563 73.0205 153.617 73.3012 153.249L70.1238 150.82C69.0179 152.266 68.6725 154.332 68.6725 156.555H72.6725ZM73.318 153.227C73.5164 152.96 73.9314 152.635 75.0725 152.635V148.635C73.1203 148.635 71.2953 149.242 70.107 150.842L73.318 153.227ZM75.0725 152.635C76.0135 152.635 76.1721 152.903 76.2165 152.975L79.6085 150.855C78.5862 149.219 76.8516 148.635 75.0725 148.635V152.635ZM76.2319 152.999C76.4538 153.343 76.7125 154.144 76.7125 155.715H80.7125C80.7125 153.872 80.4379 152.14 79.5931 150.83L76.2319 152.999ZM76.7125 155.715V167.395H80.7125V155.715H76.7125ZM78.7125 169.395H84.3925V165.395H78.7125V169.395ZM86.3925 167.395V154.675H82.3925V167.395H86.3925ZM86.3925 154.675C86.3925 153.272 86.2613 151.958 85.9813 150.745L82.0837 151.644C82.2838 152.511 82.3925 153.517 82.3925 154.675H86.3925ZM85.9937 150.802C85.7311 149.489 85.2352 148.295 84.4512 147.287L81.2938 149.742C81.6299 150.174 81.9073 150.766 82.0714 151.587L85.9937 150.802ZM84.4725 147.315C83.665 146.238 82.5792 145.458 81.3039 144.941L79.8011 148.648C80.4991 148.931 80.96 149.298 81.2725 149.715L84.4725 147.315ZM81.3648 144.967C80.0614 144.388 78.5171 144.155 76.8325 144.155V148.155C78.1879 148.155 79.1236 148.348 79.7402 148.622L81.3648 144.967ZM76.8325 144.155C75.3092 144.155 73.8371 144.513 72.4348 145.197L74.1902 148.792C75.0813 148.356 75.9558 148.155 76.8325 148.155V144.155ZM72.4691 145.181C70.9218 145.901 69.7003 147.061 68.7975 148.566L72.2275 150.624C72.7647 149.728 73.4099 149.155 74.156 148.808L72.4691 145.181ZM70.5125 147.595H70.3925V151.595H70.5125V147.595ZM72.3925 149.595V146.715H68.3925V149.595H72.3925ZM70.3925 144.715H64.9925V148.715H70.3925V144.715ZM113.503 167.395V169.395H115.503V167.395H113.503ZM113.503 146.715H115.503V144.715H113.503V146.715ZM107.823 146.715V144.715H105.823V146.715H107.823ZM106.783 162.115L108.372 163.329L108.381 163.318L108.389 163.307L106.783 162.115ZM100.583 162.235L98.8875 163.295L98.8951 163.307L98.9029 163.319L100.583 162.235ZM99.7835 146.715H101.783V144.715H99.7835V146.715ZM94.1035 146.715V144.715H92.1035V146.715H94.1035ZM94.4235 162.955L92.4623 163.347L92.4681 163.376L92.4747 163.404L94.4235 162.955ZM95.6235 165.635L94.0235 166.835L94.034 166.849L94.0447 166.862L95.6235 165.635ZM97.9035 167.315L97.1342 169.161L97.1431 169.164L97.152 169.168L97.9035 167.315ZM105.183 167.115L106.027 168.928L105.183 167.115ZM107.983 164.515V162.515H106.851L106.268 163.486L107.983 164.515ZM108.103 164.515H110.103V162.515H108.103V164.515ZM108.103 167.395H106.103V169.395H108.103V167.395ZM115.503 167.395V146.715H111.503V167.395H115.503ZM113.503 144.715H107.823V148.715H113.503V144.715ZM105.823 146.715V157.555H109.823V146.715H105.823ZM105.823 157.555C105.823 159.537 105.479 160.517 105.178 160.922L108.389 163.307C109.475 161.845 109.823 159.785 109.823 157.555H105.823ZM105.195 160.9C105.004 161.149 104.585 161.475 103.423 161.475V165.475C105.355 165.475 107.176 164.893 108.372 163.329L105.195 160.9ZM103.423 161.475C102.457 161.475 102.297 161.202 102.264 161.15L98.9029 163.319C99.9365 164.921 101.67 165.475 103.423 165.475V161.475ZM102.279 161.175C102.039 160.79 101.783 159.958 101.783 158.395H97.7835C97.7835 160.245 98.0609 161.972 98.8875 163.295L102.279 161.175ZM101.783 158.395V146.715H97.7835V158.395H101.783ZM99.7835 144.715H94.1035V148.715H99.7835V144.715ZM92.1035 146.715V159.435H96.1035V146.715H92.1035ZM92.1035 159.435C92.1035 160.824 92.2191 162.131 92.4623 163.347L96.3846 162.562C96.2012 161.645 96.1035 160.605 96.1035 159.435H92.1035ZM92.4747 163.404C92.7684 164.677 93.2738 165.835 94.0235 166.835L97.2234 164.435C96.8531 163.941 96.5585 163.312 96.3722 162.505L92.4747 163.404ZM94.0447 166.862C94.8449 167.891 95.9009 168.647 97.1342 169.161L98.6727 165.468C97.986 165.182 97.522 164.818 97.2022 164.407L94.0447 166.862ZM97.152 169.168C98.4562 169.697 99.9874 169.915 101.663 169.915V165.915C100.3 165.915 99.324 165.732 98.6549 165.461L97.152 169.168ZM101.663 169.915C103.17 169.915 104.631 169.577 106.027 168.928L104.34 165.301C103.443 165.718 102.556 165.915 101.663 165.915V169.915ZM106.027 168.928C107.574 168.208 108.796 167.048 109.698 165.544L106.268 163.486C105.731 164.381 105.086 164.954 104.34 165.301L106.027 168.928ZM107.983 166.515H108.103V162.515H107.983V166.515ZM106.103 164.515V167.395H110.103V164.515H106.103ZM108.103 169.395H113.503V165.395H108.103V169.395ZM127.614 160.675H129.614V158.675H127.614V160.675ZM122.214 160.675V158.675H120.136L120.216 160.751L122.214 160.675ZM123.134 164.155L121.419 165.184L121.437 165.213L121.455 165.241L123.134 164.155ZM125.334 166.355L124.261 168.042L124.272 168.049L124.283 168.056L125.334 166.355ZM128.414 167.555L128.824 165.597L128.414 167.555ZM135.374 167.555L135.009 165.588L134.982 165.593L134.955 165.599L135.374 167.555ZM138.414 166.395L139.488 168.082L138.414 166.395ZM140.534 164.195L138.819 163.166L138.815 163.173L138.811 163.18L140.534 164.195ZM140.814 158.355L139.069 159.332L139.078 159.347L139.087 159.362L140.814 158.355ZM139.334 156.715L138.146 158.323L138.169 158.34L138.192 158.356L139.334 156.715ZM137.214 155.635L136.562 157.525L136.572 157.529L136.582 157.532L137.214 155.635ZM134.814 154.955L134.36 156.902L134.367 156.904L134.374 156.905L134.814 154.955ZM132.454 154.435L132.049 156.393V156.393L132.454 154.435ZM130.374 153.915L129.691 155.794L129.741 155.812L129.792 155.828L130.374 153.915ZM128.694 150.875L130.189 152.203L130.224 152.164L130.256 152.124L128.694 150.875ZM129.454 150.275L128.685 148.428L128.656 148.441L128.627 148.454L129.454 150.275ZM130.494 150.035L130.637 152.029L130.707 152.024L130.777 152.014L130.494 150.035ZM134.174 150.555L133.23 152.317L133.255 152.331L133.28 152.343L134.174 150.555ZM135.414 152.755L133.42 152.9L133.555 154.755H135.414V152.755ZM140.814 152.755V154.755H142.988L142.807 152.588L140.814 152.755ZM139.814 149.595L138.118 150.655L138.138 150.686L138.159 150.716L139.814 149.595ZM137.774 147.555L136.729 149.26V149.26L137.774 147.555ZM134.934 146.475L134.533 148.434L134.542 148.436L134.934 146.475ZM128.414 146.475L128.759 148.445L128.783 148.44L128.807 148.436L128.414 146.475ZM125.534 147.515L126.515 149.258L126.535 149.246L126.555 149.234L125.534 147.515ZM123.454 149.515L121.758 148.455L121.746 148.474L121.735 148.493L123.454 149.515ZM123.254 155.115L121.527 156.122L121.536 156.138L121.546 156.154L123.254 155.115ZM124.734 156.675L123.592 158.316L123.617 158.333L123.642 158.35L124.734 156.675ZM126.814 157.675L126.162 159.565L126.201 159.579L126.24 159.59L126.814 157.675ZM129.254 158.315L128.814 160.265L128.828 160.269L128.842 160.272L129.254 158.315ZM133.974 159.595L133.262 161.464L133.27 161.466L133.277 161.469L133.974 159.595ZM135.334 162.795L136.934 163.995L136.957 163.964L136.979 163.933L135.334 162.795ZM134.414 163.595L135.363 165.355L135.385 165.344L135.407 165.331L134.414 163.595ZM133.214 164.035L133.583 166L133.628 165.992L133.672 165.981L133.214 164.035ZM130.334 163.955L129.825 165.889L129.837 165.892L129.849 165.895L130.334 163.955ZM128.974 163.355L127.792 164.967L127.828 164.994L127.865 165.019L128.974 163.355ZM127.974 162.275L126.207 163.21L126.24 163.274L126.278 163.335L127.974 162.275ZM127.614 158.675H122.214V162.675H127.614V158.675ZM120.216 160.751C120.279 162.384 120.645 163.893 121.419 165.184L124.849 163.126C124.504 162.549 124.257 161.739 124.213 160.598L120.216 160.751ZM121.455 165.241C122.192 166.38 123.129 167.322 124.261 168.042L126.408 164.667C125.779 164.267 125.25 163.742 124.814 163.068L121.455 165.241ZM124.283 168.056C125.406 168.75 126.654 169.229 128.005 169.512L128.824 165.597C127.882 165.4 127.076 165.08 126.385 164.653L124.283 168.056ZM128.005 169.512C129.289 169.781 130.6 169.915 131.934 169.915V165.915C130.869 165.915 129.833 165.808 128.824 165.597L128.005 169.512ZM131.934 169.915C133.245 169.915 134.532 169.78 135.793 169.51L134.955 165.599C133.976 165.809 132.97 165.915 131.934 165.915V169.915ZM135.74 169.521C137.109 169.266 138.368 168.795 139.488 168.082L137.341 164.707C136.701 165.114 135.933 165.416 135.009 165.588L135.74 169.521ZM139.488 168.082C140.637 167.351 141.566 166.386 142.258 165.209L138.811 163.18C138.436 163.817 137.951 164.319 137.341 164.707L139.488 168.082ZM142.249 165.224C143.037 163.911 143.374 162.387 143.374 160.755H139.374C139.374 161.842 139.152 162.612 138.819 163.166L142.249 165.224ZM143.374 160.755C143.374 159.543 143.139 158.37 142.542 157.347L139.087 159.362C139.236 159.619 139.374 160.046 139.374 160.755H143.374ZM142.559 157.377C142.042 156.453 141.344 155.676 140.477 155.073L138.192 158.356C138.551 158.606 138.841 158.923 139.069 159.332L142.559 157.377ZM140.523 155.106C139.724 154.515 138.825 154.063 137.847 153.737L136.582 157.532C137.203 157.739 137.718 158.007 138.146 158.323L140.523 155.106ZM137.866 153.744C137.021 153.452 136.151 153.206 135.255 153.004L134.374 156.905C135.132 157.077 135.861 157.283 136.562 157.525L137.866 153.744ZM135.269 153.007C134.453 152.817 133.65 152.64 132.86 152.476L132.049 156.393C132.805 156.55 133.576 156.719 134.36 156.902L135.269 153.007ZM132.86 152.476C132.133 152.326 131.5 152.167 130.957 152.001L129.792 155.828C130.475 156.036 131.229 156.223 132.049 156.393L132.86 152.476ZM131.058 152.035C130.639 151.883 130.385 151.724 130.236 151.596L127.633 154.633C128.231 155.145 128.936 155.52 129.691 155.794L131.058 152.035ZM130.236 151.596C130.253 151.61 130.3 151.659 130.337 151.741C130.374 151.822 130.374 151.877 130.374 151.875H126.374C126.374 152.945 126.801 153.92 127.633 154.633L130.236 151.596ZM130.374 151.875C130.374 151.824 130.381 151.846 130.359 151.914C130.335 151.989 130.284 152.097 130.189 152.203L127.2 149.546C126.566 150.258 126.374 151.122 126.374 151.875H130.374ZM130.256 152.124C130.273 152.102 130.283 152.095 130.284 152.094C130.284 152.094 130.284 152.094 130.283 152.095C130.282 152.095 130.282 152.095 130.282 152.095L128.627 148.454C128.03 148.725 127.53 149.128 127.133 149.625L130.256 152.124ZM130.224 152.121C130.329 152.077 130.462 152.042 130.637 152.029L130.352 148.04C129.78 148.08 129.22 148.206 128.685 148.428L130.224 152.121ZM130.777 152.014C131.073 151.972 131.324 151.955 131.534 151.955V147.955C131.105 147.955 130.663 147.99 130.212 148.055L130.777 152.014ZM131.534 151.955C132.283 151.955 132.826 152.101 133.23 152.317L135.119 148.792C134.03 148.208 132.813 147.955 131.534 147.955V151.955ZM133.28 152.343C133.296 152.351 133.296 152.354 133.291 152.349C133.286 152.344 133.291 152.347 133.302 152.367C133.327 152.411 133.395 152.562 133.42 152.9L137.409 152.609C137.296 151.063 136.643 149.553 135.069 148.766L133.28 152.343ZM135.414 154.755H140.814V150.755H135.414V154.755ZM142.807 152.588C142.68 151.062 142.27 149.654 141.47 148.473L138.159 150.716C138.478 151.188 138.735 151.887 138.821 152.921L142.807 152.588ZM141.51 148.535C140.819 147.429 139.92 146.524 138.82 145.849L136.729 149.26C137.282 149.598 137.743 150.053 138.118 150.655L141.51 148.535ZM138.82 145.849C137.769 145.205 136.596 144.767 135.327 144.513L134.542 148.436C135.406 148.608 136.126 148.89 136.729 149.26L138.82 145.849ZM135.336 144.515C134.157 144.273 132.942 144.155 131.694 144.155V148.155C132.687 148.155 133.632 148.249 134.533 148.434L135.336 144.515ZM131.694 144.155C130.447 144.155 129.222 144.273 128.022 144.513L128.807 148.436C129.74 148.249 130.702 148.155 131.694 148.155V144.155ZM128.07 144.504C126.786 144.729 125.593 145.154 124.513 145.795L126.555 149.234C127.182 148.862 127.909 148.593 128.759 148.445L128.07 144.504ZM124.554 145.771C123.4 146.42 122.464 147.325 121.758 148.455L125.15 150.575C125.511 149.997 125.962 149.569 126.515 149.258L124.554 145.771ZM121.735 148.493C120.992 149.744 120.694 151.221 120.694 152.795H124.694C124.694 151.701 124.904 150.991 125.174 150.536L121.735 148.493ZM120.694 152.795C120.694 153.976 120.939 155.115 121.527 156.122L124.982 154.107C124.823 153.834 124.694 153.426 124.694 152.795H120.694ZM121.546 156.154C122.07 157.015 122.76 157.737 123.592 158.316L125.877 155.033C125.482 154.758 125.185 154.44 124.963 154.075L121.546 156.154ZM123.642 158.35C124.408 158.849 125.252 159.251 126.162 159.565L127.466 155.784C126.83 155.564 126.288 155.3 125.827 154.999L123.642 158.35ZM126.24 159.59C127.085 159.844 127.943 160.069 128.814 160.265L129.695 156.364C128.913 156.187 128.144 155.985 127.389 155.759L126.24 159.59ZM128.842 160.272C130.829 160.69 132.285 161.091 133.262 161.464L134.686 157.726C133.424 157.244 131.733 156.793 129.666 156.357L128.842 160.272ZM133.277 161.469C133.464 161.539 133.591 161.604 133.673 161.654C133.754 161.704 133.779 161.733 133.775 161.729C133.768 161.721 133.742 161.688 133.72 161.631C133.698 161.574 133.694 161.53 133.694 161.515H137.694C137.694 160.592 137.367 159.744 136.754 159.06C136.179 158.418 135.428 158.002 134.672 157.72L133.277 161.469ZM133.694 161.515C133.694 161.61 133.683 161.659 133.679 161.673C133.676 161.684 133.678 161.674 133.69 161.656L136.979 163.933C137.494 163.189 137.694 162.344 137.694 161.515H133.694ZM133.734 161.595C133.67 161.68 133.576 161.77 133.422 161.858L135.407 165.331C135.999 164.993 136.519 164.549 136.934 163.995L133.734 161.595ZM133.466 161.834C133.299 161.924 133.069 162.014 132.756 162.088L133.672 165.981C134.266 165.842 134.836 165.639 135.363 165.355L133.466 161.834ZM132.846 162.069C132.53 162.128 132.241 162.155 131.974 162.155V166.155C132.508 166.155 133.045 166.101 133.583 166L132.846 162.069ZM131.974 162.155C131.575 162.155 131.191 162.107 130.819 162.014L129.849 165.895C130.544 166.069 131.254 166.155 131.974 166.155V162.155ZM130.843 162.02C130.531 161.938 130.284 161.824 130.084 161.69L127.865 165.019C128.465 165.418 129.124 165.704 129.825 165.889L130.843 162.02ZM130.157 161.742C129.965 161.601 129.805 161.429 129.67 161.215L126.278 163.335C126.678 163.973 127.184 164.522 127.792 164.967L130.157 161.742ZM129.742 161.339C129.682 161.225 129.614 161.025 129.614 160.675H125.614C125.614 161.551 125.787 162.417 126.207 163.21L129.742 161.339Z" fill="#0C3D76"/>
<g clip-path="url(#clip0)">
<path d="M118.691 21.4228C102.057 3.31611 75.5078 4.00805 71.9787 4.19175C68.4495 4.01418 41.8939 3.31611 25.2668 21.4228C14.3857 33.2715 10.1555 50.4536 12.69 72.4365C12.7379 72.9386 13.8764 84.8424 21.7616 96.7707C29.0536 107.799 43.7035 120.848 71.9427 120.382C72.44 120.388 72.9313 120.395 73.4167 120.395C100.775 120.395 115.03 107.609 122.196 96.7707C130.081 84.8424 131.225 72.9386 131.261 72.4977C133.802 50.4536 129.572 33.2715 118.691 21.4228Z" fill="#0C3D76"/>
<path d="M118.181 17.2651C101.704 -0.345621 75.316 0.285077 71.9725 0.438161C68.6231 0.285077 42.2413 -0.351745 25.764 17.2651C14.9188 28.8566 10.6946 45.5489 13.1932 66.8459C13.2352 67.3357 14.3856 79.0252 22.2228 90.6596C29.353 101.247 43.4936 113.738 70.4746 113.738C70.948 113.738 71.4333 113.732 71.9126 113.726C72.398 113.732 72.8833 113.738 73.3566 113.738C100.487 113.738 114.628 101.186 121.722 90.6596C129.578 78.9946 130.698 67.3847 130.74 66.9438C133.25 45.5672 129.026 28.8505 118.181 17.2651Z" fill="#213664"/>
<path d="M71.9726 4.18524C68.0061 3.97092 9.29863 1.88287 16.8782 66.5026C16.8782 66.5026 20.9167 110.817 71.9726 109.984C123.029 110.811 127.067 66.5026 127.067 66.5026C134.653 1.88287 75.9392 3.97092 71.9726 4.18524Z" fill="#F7F2E0"/>
<path d="M71.9727 23.3881C75.3161 23.2717 116.276 22.3103 127.085 45.6342C121.075 2.37884 75.4539 4.00153 71.9727 4.19136C68.4915 4.00153 22.8701 2.37884 16.8604 45.6342C27.6695 22.3103 68.6293 23.2656 71.9727 23.3881Z" fill="#FBF8F0"/>
<path d="M71.9728 95.0192C37.9455 95.3804 24.0985 83.0664 18.5562 74.2549C22.3729 86.918 34.5242 110.597 71.9728 109.991C109.421 110.597 121.573 86.918 125.39 74.2549C119.847 83.0664 106.006 95.3804 71.9728 95.0192Z" fill="#F1E0AD"/>
<path d="M96.4309 38.605C96.395 37.5702 96.3231 36.4741 96.2092 35.2678L96.0534 33.6084H50.444L50.2882 35.2678C50.1744 36.4435 50.1025 37.5334 50.0665 38.5867C43.6793 41.6422 40.5756 49.3148 42.8345 56.6138C45.2012 64.2312 52.4153 68.8972 59.7013 67.5868C61.9063 69.9015 64.321 71.6099 66.9034 72.6692V79.4478H66.1964C64.6625 79.4478 63.2485 80.354 62.5654 81.744H59.7553C57.5143 81.744 55.6868 83.6116 55.6868 85.9018L55.6988 90.1514H90.3373V85.8956C90.3373 83.6055 88.5098 81.7379 86.2689 81.7379H83.4587C82.7757 80.3479 81.3616 79.4416 79.8277 79.4416H79.3064V72.7855C81.9848 71.7385 84.5013 69.9872 86.7842 67.5807C94.0582 68.8666 101.26 64.2006 103.621 56.6016C105.874 49.3393 102.782 41.6728 96.4309 38.605ZM49.4973 54.5441C48.7124 52.0152 49.1438 49.3209 50.5818 47.3553C51.2649 51.9539 52.5651 56.1913 54.4585 59.9816C52.1577 59.0876 50.2823 57.0669 49.4973 54.5441ZM96.9582 54.5502C96.1853 57.0486 94.3218 59.0631 92.0449 59.9755C93.9264 56.1974 95.2266 51.9784 95.9096 47.3982C97.3117 49.3576 97.7371 52.0397 96.9582 54.5502Z" fill="#A1C0ED"/>
<path d="M94.6515 39.8357C94.6455 38.3478 94.5556 36.8843 94.4178 35.4453H52.074C51.9361 36.8782 51.8463 38.3355 51.8343 39.8235C45.6628 42.0953 42.4092 49.1616 44.5423 56.0565C46.7293 63.1045 53.7397 67.2928 60.3186 65.5722C62.7633 68.3522 65.5974 70.3729 68.7011 71.3771V81.2847H66.1966C64.9503 81.2847 63.9437 82.3134 63.9317 83.581H59.7554C58.4971 83.581 57.4845 84.6158 57.4845 85.9017H57.4965V88.3204H88.5399V85.9017C88.5399 84.6158 87.5273 83.581 86.269 83.581H82.0927C82.0808 82.3073 81.0741 81.2847 79.8279 81.2847H77.509V71.4751C80.7146 70.5015 83.6506 68.4318 86.1671 65.5783C92.7341 67.2745 99.7265 63.0983 101.914 56.0565C104.041 49.1738 100.805 42.1259 94.6515 39.8357ZM47.7838 55.1012C46.3578 50.5087 48.2213 45.806 51.9841 43.7486C52.5353 50.9251 54.6684 57.3669 57.85 62.2962C53.506 62.6636 49.2279 59.7366 47.7838 55.1012ZM83.0874 50.5883L78.8871 54.7706L79.8758 60.6796C79.9417 61.0654 79.7859 61.4512 79.4743 61.6838C79.3006 61.8124 79.0909 61.8798 78.8811 61.8798C78.7254 61.8798 78.5576 61.8431 78.4138 61.7635L73.2249 58.9773L68.0301 61.7635C67.6885 61.9472 67.2811 61.9165 66.9695 61.6838C66.6579 61.4512 66.5081 61.0654 66.5681 60.6796L67.5627 54.7706L63.3625 50.5883C63.0868 50.3128 62.991 49.9087 63.1048 49.5351C63.2247 49.1616 63.5362 48.8922 63.9197 48.8371L69.7197 47.9737L72.3202 42.5974C72.4879 42.2483 72.8355 42.0279 73.2189 42.0279C73.6024 42.0279 73.9499 42.2483 74.1177 42.5974L76.7121 47.9737L82.5182 48.8371C82.8956 48.8922 83.2132 49.1616 83.333 49.5351C83.4589 49.9087 83.357 50.3189 83.0874 50.5883ZM98.672 55.1012C97.2399 59.7244 92.9678 62.6514 88.6418 62.3084C91.8174 57.3791 93.9505 50.9374 94.5077 43.7669C98.2526 45.8305 100.092 50.521 98.672 55.1012Z" fill="#0C3D76"/>
<path d="M51.2407 44.2139C51.4324 44.0792 51.6362 43.9568 51.8399 43.8404C51.8519 42.3953 51.9417 40.9747 52.0735 39.5786H94.4175C94.5493 40.9808 94.6391 42.4014 94.6511 43.8526C94.8548 43.969 95.0526 44.0915 95.2383 44.2201C99.133 45.9162 101.757 49.5657 102.404 53.8153C103.291 47.6981 100.14 41.8748 94.6511 39.8357C94.6451 38.3478 94.5553 36.8843 94.4175 35.4453H52.0735C51.9357 36.8782 51.8459 38.3355 51.8339 39.8235C46.3334 41.8503 43.1638 47.6859 44.0506 53.8153C44.7037 49.5596 47.3341 45.904 51.2407 44.2139Z" fill="#213664"/>
</g>
<defs>
<clipPath id="clip0">
<rect width="120" height="120" fill="white" transform="translate(11.9771 0.394531)"/>
</clipPath>
</defs>
</svg>
