<svg xmlns="http://www.w3.org/2000/svg" width="719" height="733" viewBox="0 0 719 733" fill="none">
<path d="M10.5987 115.191C12.6428 91.5369 32.0226 73.2103 55.7292 71.9072C261.822 60.5792 440.831 41.6292 655.188 69.4063C675.115 71.9885 691.148 87.0902 694.676 106.871C738.115 350.445 705.256 600.618 689.742 693.985C686.02 716.39 666.541 732.142 643.83 732.142H63.3894C39.5445 732.142 19.4182 714.649 16.8139 690.947C6.97474 601.398 -11.9358 375.964 10.5987 115.191Z" fill="#213664"/>
<path d="M32.388 140.931C34.4363 117.295 53.8213 99.0071 77.5104 97.7198C268.765 87.3272 435.311 70.2565 634.24 95.2967C654.158 97.8038 670.229 112.843 673.77 132.603C713.29 353.182 683.834 579.081 669.177 666.795C665.444 689.129 646.001 704.827 623.357 704.827H84.6388C60.8423 704.827 40.7601 687.518 38.1516 663.865C28.8945 579.924 11.9877 376.332 32.388 140.931Z" fill="#73A6F3"/>
<path d="M519.3 129.578C519.577 128.83 519.895 128.045 520.271 127.19L520.788 126.013L554.162 137.075L553.873 138.327C553.671 139.215 553.46 140.03 553.23 140.81C557.163 144.595 557.573 150.962 554.15 155.755C550.571 160.755 544.16 162.419 539.147 159.693C536.972 160.852 534.791 161.517 532.644 161.666L531 166.626L531.517 166.797C532.64 167.169 533.455 168.175 533.617 169.358L535.674 170.04C537.313 170.583 538.198 172.393 537.642 174.069L536.603 177.175L511.257 168.774L512.289 165.66C512.844 163.984 514.634 163.061 516.274 163.605L518.33 164.286C519.167 163.435 520.422 163.114 521.544 163.487L521.926 163.613L523.54 158.742C521.834 157.327 520.418 155.435 519.331 153.12C513.696 152.297 509.558 147.136 509.673 141.003C509.786 135.142 513.908 130.283 519.3 129.578ZM549.777 152.624C550.964 150.964 551.302 148.888 550.727 147.101C549.111 150.3 547.132 153.086 544.828 155.4C546.728 155.304 548.59 154.28 549.777 152.624ZM515.046 141.118C515.006 143.133 515.881 145.06 517.326 146.279C516.865 143.059 516.937 139.656 517.548 136.139C516.047 137.233 515.085 139.092 515.046 141.118Z" fill="#A1C0ED"/>
<path d="M520.304 130.91C520.669 129.823 521.09 128.774 521.539 127.754L552.524 138.024C552.277 139.106 551.989 140.195 551.637 141.286C555.602 144.445 556.269 150.405 553.036 154.933C549.726 159.56 543.581 160.924 539.184 158.07C536.721 159.511 534.157 160.302 531.642 160.284L529.239 167.534L531.072 168.141C531.984 168.444 532.471 169.441 532.173 170.371L535.228 171.384C536.149 171.689 536.639 172.692 536.327 173.633L536.318 173.63L535.732 175.4L513.016 167.871L513.603 166.101C513.915 165.16 514.907 164.648 515.828 164.953L518.883 165.966C519.201 165.037 520.186 164.533 521.098 164.835L522.794 165.398L525.174 158.22C523.064 156.73 521.418 154.503 520.268 151.805C515.052 151.453 510.948 146.702 511.056 141.018C511.168 135.466 515.245 131.094 520.304 130.91ZM550.896 153.448C553.053 150.433 552.83 146.54 550.576 144.122C548.432 149.24 545.309 153.436 541.785 156.271C544.875 157.594 548.715 156.489 550.896 153.448ZM526.158 141.583L528.217 145.662L526.06 149.746C525.918 150.013 525.939 150.333 526.11 150.578C526.206 150.715 526.343 150.815 526.497 150.866C526.611 150.903 526.742 150.917 526.867 150.894L531.34 150.114L534.465 153.412C534.67 153.63 534.976 153.706 535.26 153.611C535.545 153.517 535.748 153.271 535.798 152.974L536.503 148.409L540.591 146.367C540.859 146.232 541.028 145.96 541.035 145.659C541.038 145.357 540.875 145.084 540.608 144.951L536.573 142.912L535.974 138.347C535.936 138.051 535.735 137.806 535.455 137.713C535.174 137.62 534.867 137.697 534.659 137.911L531.457 141.216L526.999 140.44C526.709 140.389 526.412 140.509 526.233 140.753C526.051 140.996 526.026 141.321 526.158 141.583ZM513.659 141.106C513.586 144.836 516.002 148.014 519.251 148.812C518.123 144.435 518.124 139.204 519.455 133.822C516.215 134.424 513.731 137.41 513.659 141.106Z" fill="#0C3D76"/>
<path d="M551.006 144.643C550.899 144.498 550.779 144.359 550.659 144.224C551 143.164 551.279 142.103 551.521 141.049L520.537 130.779C520.1 131.773 519.69 132.791 519.329 133.85C519.152 133.886 518.977 133.927 518.81 133.976C515.549 134.273 512.744 136.307 511.239 139.26C512.074 134.568 515.793 131.072 520.303 130.911C520.669 129.823 521.089 128.774 521.539 127.755L552.524 138.025C552.277 139.107 551.989 140.195 551.637 141.286C555.17 144.104 556.074 149.142 553.939 153.412C554.493 150.14 553.455 146.827 551.006 144.643Z" fill="#213664"/>
<path d="M257.598 159.806V143.972H262.33C263.908 143.972 265.303 144.639 266.516 145.974C267.73 147.309 268.336 149.25 268.336 151.798C268.336 154.528 267.73 156.56 266.516 157.895C265.303 159.169 263.908 159.806 262.33 159.806H257.598ZM257.598 132.506V119.22H261.693C263.453 119.22 264.787 119.887 265.697 121.222C266.607 122.557 267.062 124.134 267.062 125.954C267.062 127.713 266.607 129.26 265.697 130.595C264.787 131.869 263.453 132.506 261.693 132.506H257.598ZM240.672 107.026V172H266.243C269.762 172 272.765 171.545 275.252 170.635C277.74 169.664 279.742 168.33 281.258 166.631C282.836 164.932 283.988 162.9 284.716 160.534C285.444 158.168 285.808 155.59 285.808 152.799C285.808 151.1 285.566 149.432 285.08 147.794C284.656 146.095 283.958 144.548 282.987 143.153C282.017 141.758 280.773 140.605 279.256 139.695C277.74 138.724 275.92 138.148 273.796 137.966V137.784C275.616 137.42 277.163 136.783 278.437 135.873C279.711 134.963 280.743 133.871 281.531 132.597C282.381 131.262 282.987 129.806 283.351 128.229C283.776 126.591 283.988 124.923 283.988 123.224C283.988 118.31 282.532 114.397 279.62 111.485C276.769 108.512 272.31 107.026 266.243 107.026H240.672ZM308.851 139.513C308.851 135.145 308.912 131.535 309.033 128.684C309.155 125.772 309.397 123.467 309.761 121.768C310.186 120.069 310.762 118.886 311.49 118.219C312.279 117.552 313.31 117.218 314.584 117.218C315.858 117.218 316.859 117.552 317.587 118.219C318.376 118.886 318.952 120.069 319.316 121.768C319.741 123.467 320.014 125.772 320.135 128.684C320.257 131.535 320.317 135.145 320.317 139.513C320.317 143.881 320.257 147.521 320.135 150.433C320.014 153.284 319.741 155.559 319.316 157.258C318.952 158.957 318.376 160.14 317.587 160.807C316.859 161.474 315.858 161.808 314.584 161.808C313.31 161.808 312.279 161.474 311.49 160.807C310.762 160.14 310.186 158.957 309.761 157.258C309.397 155.559 309.155 153.284 309.033 150.433C308.912 147.521 308.851 143.881 308.851 139.513ZM291.379 139.513C291.379 145.58 291.774 150.767 292.562 155.074C293.351 159.321 294.655 162.809 296.475 165.539C298.295 168.208 300.692 170.119 303.664 171.272C306.637 172.425 310.277 173.001 314.584 173.001C318.892 173.001 322.532 172.425 325.504 171.272C328.477 170.119 330.873 168.208 332.693 165.539C334.513 162.809 335.818 159.321 336.606 155.074C337.395 150.767 337.789 145.58 337.789 139.513C337.789 133.446 337.395 128.29 336.606 124.043C335.818 119.736 334.513 116.247 332.693 113.578C330.873 110.848 328.477 108.876 325.504 107.663C322.532 106.389 318.892 105.752 314.584 105.752C310.277 105.752 306.637 106.389 303.664 107.663C300.692 108.876 298.295 110.848 296.475 113.578C294.655 116.247 293.351 119.736 292.562 124.043C291.774 128.29 291.379 133.446 291.379 139.513ZM344.766 107.026V172H360.6V131.869H360.782L372.066 172H390.63V107.026H374.796V147.066H374.614L363.694 107.026H344.766ZM415.727 107.026H398.801V149.614C398.801 154.164 399.287 157.956 400.257 160.989C401.228 164.022 402.623 166.449 404.443 168.269C406.324 170.089 408.629 171.333 411.359 172C414.15 172.667 417.305 173.001 420.823 173.001C424.403 173.001 427.557 172.667 430.287 172C433.017 171.333 435.292 170.089 437.112 168.269C438.993 166.449 440.419 164.022 441.389 160.989C442.36 157.956 442.845 154.164 442.845 149.614V107.026H425.919V153.891C425.919 157.046 425.464 159.169 424.554 160.261C423.644 161.292 422.401 161.808 420.823 161.808C419.246 161.808 418.002 161.292 417.092 160.261C416.182 159.169 415.727 157.046 415.727 153.891V107.026ZM476.303 125.772H492.137C492.137 118.795 490.468 113.73 487.132 110.575C483.856 107.36 478.517 105.752 471.116 105.752C463.957 105.752 458.618 107.481 455.1 110.939C451.581 114.397 449.822 119.432 449.822 126.045C449.822 129.867 450.459 132.961 451.733 135.327C453.067 137.693 454.705 139.604 456.647 141.06C458.649 142.516 460.802 143.699 463.108 144.609C465.413 145.519 467.536 146.429 469.478 147.339C471.48 148.188 473.118 149.25 474.392 150.524C475.726 151.737 476.394 153.406 476.394 155.529C476.394 157.288 475.908 158.775 474.938 159.988C474.028 161.201 472.693 161.808 470.934 161.808C469.296 161.808 467.961 161.262 466.93 160.17C465.898 159.017 465.383 157.046 465.383 154.255V152.708H449.003V154.983C449.003 158.38 449.488 161.232 450.459 163.537C451.429 165.842 452.825 167.723 454.645 169.179C456.525 170.574 458.8 171.545 461.47 172.091C464.2 172.698 467.324 173.001 470.843 173.001C478.305 173.001 484.007 171.454 487.951 168.36C491.894 165.205 493.866 160.17 493.866 153.254C493.866 149.311 493.168 146.126 491.773 143.699C490.438 141.212 488.739 139.21 486.677 137.693C484.614 136.176 482.4 134.963 480.034 134.053C477.668 133.082 475.453 132.142 473.391 131.232C471.328 130.322 469.599 129.26 468.204 128.047C466.869 126.773 466.202 125.074 466.202 122.951C466.202 121.495 466.626 120.191 467.476 119.038C468.325 117.825 469.66 117.218 471.48 117.218C473.118 117.218 474.331 117.916 475.12 119.311C475.908 120.646 476.303 122.284 476.303 124.225V125.772Z" fill="url(#paint0_linear)"/>
<path d="M205.473 126.327C205.158 125.478 204.797 124.588 204.371 123.618L203.785 122.284L165.926 134.832L166.253 136.253C166.482 137.26 166.722 138.184 166.982 139.068C162.521 143.362 162.056 150.585 165.939 156.022C169.999 161.694 177.271 163.582 182.959 160.49C185.426 161.804 187.9 162.558 190.335 162.727L192.2 168.354L191.613 168.548C190.34 168.97 189.416 170.111 189.231 171.453L186.899 172.226C185.038 172.843 184.035 174.896 184.665 176.797L185.845 180.321L214.597 170.791L213.426 167.258C212.796 165.357 210.765 164.31 208.905 164.927L206.572 165.7C205.623 164.734 204.2 164.371 202.927 164.793L202.494 164.936L200.663 159.411C202.598 157.805 204.205 155.659 205.438 153.033C211.829 152.099 216.524 146.245 216.393 139.288C216.265 132.64 211.589 127.126 205.473 126.327ZM170.9 152.471C169.553 150.588 169.17 148.232 169.823 146.205C171.655 149.834 173.9 152.994 176.514 155.619C174.359 155.51 172.246 154.349 170.9 152.471ZM210.298 139.418C210.343 141.704 209.351 143.889 207.712 145.273C208.234 141.619 208.153 137.76 207.46 133.77C209.163 135.01 210.254 137.12 210.298 139.418Z" fill="#A1C0ED"/>
<path d="M204.334 127.838C203.92 126.605 203.443 125.415 202.932 124.258L167.784 135.908C168.064 137.136 168.39 138.37 168.79 139.609C164.292 143.192 163.535 149.953 167.203 155.089C170.957 160.338 177.929 161.886 182.916 158.647C185.711 160.282 188.619 161.18 191.472 161.16L194.197 169.384L192.119 170.073C191.084 170.416 190.532 171.547 190.87 172.602L187.404 173.751C186.359 174.097 185.803 175.235 186.157 176.302L186.167 176.299L186.833 178.307L212.601 169.766L211.935 167.758C211.582 166.69 210.456 166.11 209.412 166.456L205.945 167.605C205.585 166.551 204.468 165.98 203.433 166.322L201.509 166.96L198.81 158.818C201.203 157.128 203.07 154.602 204.374 151.541C210.292 151.142 214.947 145.752 214.825 139.305C214.697 133.007 210.072 128.046 204.334 127.838ZM169.631 153.405C167.184 149.985 167.437 145.569 169.994 142.825C172.426 148.631 175.969 153.391 179.966 156.607C176.461 158.108 172.105 156.855 169.631 153.405ZM197.694 139.946L195.358 144.573L197.804 149.206C197.965 149.508 197.942 149.871 197.747 150.15C197.638 150.304 197.483 150.418 197.309 150.475C197.179 150.518 197.03 150.534 196.889 150.507L191.815 149.622L188.27 153.364C188.037 153.611 187.69 153.697 187.367 153.59C187.045 153.483 186.814 153.204 186.758 152.867L185.958 147.688L181.321 145.372C181.016 145.22 180.825 144.91 180.817 144.569C180.814 144.226 180.998 143.917 181.301 143.765L185.878 141.453L186.557 136.275C186.601 135.939 186.829 135.66 187.147 135.555C187.465 135.449 187.814 135.537 188.05 135.78L191.682 139.529L196.739 138.648C197.068 138.59 197.405 138.727 197.608 139.004C197.815 139.279 197.843 139.648 197.694 139.946ZM211.871 139.404C211.955 143.635 209.214 147.24 205.529 148.146C206.808 143.18 206.807 137.246 205.296 131.141C208.973 131.824 211.79 135.211 211.871 139.404Z" fill="#0C3D76"/>
<path d="M169.505 143.416C169.627 143.252 169.763 143.094 169.9 142.942C169.512 141.739 169.196 140.535 168.921 139.34L204.07 127.69C204.565 128.817 205.03 129.972 205.44 131.173C205.641 131.214 205.839 131.261 206.028 131.316C209.728 131.653 212.91 133.96 214.616 137.31C213.67 131.988 209.451 128.021 204.334 127.839C203.92 126.605 203.443 125.415 202.933 124.259L167.784 135.909C168.064 137.136 168.39 138.37 168.79 139.609C164.782 142.805 163.756 148.521 166.179 153.364C165.55 149.652 166.728 145.894 169.505 143.416Z" fill="#213664"/>














<defs>
<linearGradient id="paint0_linear" x1="301.217" y1="110.353" x2="347.441" y2="233.301" gradientUnits="userSpaceOnUse">
<stop offset="0.0430108" stop-color="#FFF466"/>
<stop offset="0.0752688" stop-color="#FFF466"/>
<stop offset="0.3152" stop-color="#FFEC5F"/>
<stop offset="0.6922" stop-color="#FFD54D"/>
<stop offset="0.8602" stop-color="#FFC943"/>
</linearGradient>
<clipPath id="clip0">
<rect width="120" height="120" fill="white" transform="translate(288.761 562.839)"/>
</clipPath>
<clipPath id="clip1">
<rect width="548" height="316" fill="white" transform="translate(63 217)"/>
</clipPath>
</defs>
</svg>