<svg width="207" height="224" viewBox="0 0 207 224" fill="none" xmlns="http://www.w3.org/2000/svg">
<g filter="url(#filter0_d)">
<path d="M10.6976 195.973V162.805H28.2656C33.8016 162.805 37.8176 163.605 40.3136 165.205C42.8096 166.805 44.0576 169.381 44.0576 172.933C44.0576 174.181 43.8976 175.333 43.5776 176.389C43.2576 177.445 42.9376 178.197 42.6176 178.645L42.1376 179.317C43.2256 179.861 43.9936 181.189 44.4416 183.301C44.6336 184.165 44.7296 185.157 44.7296 186.277C44.7296 189.285 43.8016 191.653 41.9456 193.381C40.1216 195.109 37.3696 195.973 33.6896 195.973H10.6976ZM29.9456 179.365V176.869C29.9456 176.453 29.8176 176.133 29.5616 175.909C29.3056 175.653 28.9856 175.525 28.6016 175.525H27.2096V179.365H29.9456ZM31.2896 181.717H27.2096V184.453H31.2896C31.6416 184.453 31.9456 184.325 32.2016 184.069C32.4896 183.781 32.6336 183.445 32.6336 183.061C32.6336 182.677 32.5056 182.357 32.2496 182.101C31.9936 181.845 31.6736 181.717 31.2896 181.717ZM69.1594 196.405H67.2394C62.5674 196.405 59.0634 195.253 56.7274 192.949C54.4234 190.645 53.2714 186.933 53.2714 181.813C53.2714 176.693 54.4234 172.965 56.7274 170.629C59.0634 168.293 62.5674 167.125 67.2394 167.125H69.1594C73.8314 167.125 77.3354 168.293 79.6714 170.629C82.0074 172.965 83.1754 176.693 83.1754 181.813C83.1754 186.933 82.0074 190.645 79.6714 192.949C77.3674 195.253 73.8634 196.405 69.1594 196.405ZM66.8554 181.429V185.461C66.8554 185.877 66.9674 186.213 67.1914 186.469C67.4474 186.725 67.7674 186.853 68.1514 186.853C68.5674 186.853 68.9034 186.725 69.1594 186.469C69.4474 186.213 69.5914 185.877 69.5914 185.461V181.429C69.5914 181.045 69.4474 180.725 69.1594 180.469C68.9034 180.181 68.5834 180.037 68.1994 180.037C67.8154 180.037 67.4954 180.181 67.2394 180.469C66.9834 180.725 66.8554 181.045 66.8554 181.429ZM106.007 180.757V195.973H92.4233V167.605H104.471L104.951 171.109C105.079 170.757 105.367 170.325 105.815 169.813C106.263 169.301 106.743 168.869 107.255 168.517C108.663 167.589 110.535 167.125 112.871 167.125C116.007 167.125 118.359 167.989 119.927 169.717C121.527 171.445 122.327 173.957 122.327 177.253V195.973H108.743V180.757C108.743 180.373 108.599 180.053 108.311 179.797C108.055 179.509 107.735 179.365 107.351 179.365C106.967 179.365 106.647 179.509 106.391 179.797C106.135 180.053 106.007 180.373 106.007 180.757ZM147.895 167.605H161.479V195.973H149.383L148.903 192.469C148.775 192.821 148.487 193.253 148.039 193.765C147.591 194.277 147.111 194.709 146.599 195.061C145.191 195.989 143.335 196.453 141.031 196.453C137.895 196.453 135.527 195.589 133.927 193.861C132.359 192.133 131.575 189.637 131.575 186.373V167.605H145.159V183.397C145.159 183.781 145.287 184.117 145.543 184.405C145.831 184.661 146.167 184.789 146.551 184.789C146.935 184.789 147.255 184.661 147.511 184.405C147.767 184.117 147.895 183.781 147.895 183.397V167.605ZM183.735 167.125C186.263 167.125 188.535 167.269 190.551 167.557C192.599 167.845 194.007 168.133 194.775 168.421L195.879 168.853V180.853C193.703 179.733 190.455 179.173 186.135 179.173V180.325C190.103 180.709 192.823 181.397 194.295 182.389C195.767 183.381 196.503 185.189 196.503 187.813C196.503 190.437 195.527 192.533 193.575 194.101C191.623 195.669 188.215 196.453 183.351 196.453C180.759 196.453 178.455 196.309 176.439 196.021C174.423 195.733 173.047 195.445 172.311 195.157L171.207 194.725V184.309C172.103 184.757 173.479 185.173 175.335 185.557C177.223 185.909 179.159 186.085 181.143 186.085V184.933C177.719 184.613 175.127 183.829 173.367 182.581C171.607 181.333 170.727 179.317 170.727 176.533C170.727 173.717 171.799 171.445 173.943 169.717C176.087 167.989 179.351 167.125 183.735 167.125Z" fill="white"/>
<path d="M10.6976 195.973H8.69763V197.973H10.6976V195.973ZM10.6976 162.805V160.805H8.69763V162.805H10.6976ZM42.6176 178.645L40.9902 177.482L40.9902 177.482L42.6176 178.645ZM42.1376 179.317L40.5102 178.154L39.1497 180.059L41.2432 181.106L42.1376 179.317ZM44.4416 183.301L42.4852 183.716L42.4872 183.725L42.4893 183.735L44.4416 183.301ZM41.9456 193.381L40.5828 191.917L40.5764 191.923L40.5701 191.929L41.9456 193.381ZM29.9456 179.365V181.365H31.9456V179.365H29.9456ZM29.5616 175.909L28.1474 177.323L28.1945 177.37L28.2446 177.414L29.5616 175.909ZM27.2096 175.525V173.525H25.2096V175.525H27.2096ZM27.2096 179.365H25.2096V181.365H27.2096V179.365ZM27.2096 181.717V179.717H25.2096V181.717H27.2096ZM27.2096 184.453H25.2096V186.453H27.2096V184.453ZM32.2016 184.069L33.6158 185.483L33.6158 185.483L32.2016 184.069ZM32.2496 182.101L30.8354 183.515L30.8354 183.515L32.2496 182.101ZM12.6976 195.973V162.805H8.69763V195.973H12.6976ZM10.6976 164.805H28.2656V160.805H10.6976V164.805ZM28.2656 164.805C33.7013 164.805 37.2358 165.607 39.2343 166.888L41.393 163.521C38.3995 161.602 33.9019 160.805 28.2656 160.805V164.805ZM39.2343 166.888C41.0364 168.044 42.0576 169.906 42.0576 172.933H46.0576C46.0576 168.856 44.5829 165.566 41.393 163.521L39.2343 166.888ZM42.0576 172.933C42.0576 174.009 41.9197 174.963 41.6636 175.809L45.4917 176.969C45.8756 175.702 46.0576 174.352 46.0576 172.933H42.0576ZM41.6636 175.809C41.3565 176.822 41.1117 177.312 40.9902 177.482L44.2451 179.807C44.7635 179.081 45.1587 178.067 45.4917 176.969L41.6636 175.809ZM40.9902 177.482L40.5102 178.154L43.7651 180.479L44.2451 179.807L40.9902 177.482ZM41.2432 181.106C41.4825 181.225 42.0702 181.76 42.4852 183.716L46.3981 182.886C45.917 180.618 44.9688 178.496 43.0321 177.528L41.2432 181.106ZM42.4893 183.735C42.6426 184.424 42.7296 185.266 42.7296 186.277H46.7296C46.7296 185.047 46.6247 183.905 46.394 182.867L42.4893 183.735ZM42.7296 186.277C42.7296 188.842 41.9569 190.637 40.5828 191.917L43.3085 194.844C45.6463 192.668 46.7296 189.728 46.7296 186.277H42.7296ZM40.5701 191.929C39.259 193.171 37.0932 193.973 33.6896 193.973V197.973C37.6461 197.973 40.9842 197.046 43.3211 194.833L40.5701 191.929ZM33.6896 193.973H10.6976V197.973H33.6896V193.973ZM31.9456 179.365V176.869H27.9456V179.365H31.9456ZM31.9456 176.869C31.9456 176.016 31.6638 175.091 30.8786 174.404L28.2446 177.414C28.1317 177.315 28.0443 177.189 27.9927 177.059C27.9448 176.94 27.9456 176.864 27.9456 176.869H31.9456ZM30.9758 174.494C30.3203 173.839 29.4804 173.525 28.6016 173.525V177.525C28.5682 177.525 28.4886 177.518 28.3868 177.478C28.2828 177.436 28.2011 177.377 28.1474 177.323L30.9758 174.494ZM28.6016 173.525H27.2096V177.525H28.6016V173.525ZM25.2096 175.525V179.365H29.2096V175.525H25.2096ZM27.2096 181.365H29.9456V177.365H27.2096V181.365ZM31.2896 179.717H27.2096V183.717H31.2896V179.717ZM25.2096 181.717V184.453H29.2096V181.717H25.2096ZM27.2096 186.453H31.2896V182.453H27.2096V186.453ZM31.2896 186.453C32.1888 186.453 32.9967 186.102 33.6158 185.483L30.7874 182.654C30.8244 182.617 30.8968 182.559 31.0055 182.513C31.1154 182.467 31.2172 182.453 31.2896 182.453V186.453ZM33.6158 185.483C34.2537 184.845 34.6336 184.01 34.6336 183.061H30.6336C30.6336 182.996 30.6473 182.906 30.6873 182.813C30.7264 182.722 30.772 182.67 30.7874 182.654L33.6158 185.483ZM34.6336 183.061C34.6336 182.182 34.3194 181.342 33.6638 180.686L30.8354 183.515C30.7817 183.461 30.7223 183.38 30.6807 183.275C30.64 183.174 30.6336 183.094 30.6336 183.061H34.6336ZM33.6638 180.686C33.0083 180.031 32.1684 179.717 31.2896 179.717V183.717C31.2562 183.717 31.1766 183.71 31.0748 183.67C30.9708 183.628 30.8891 183.569 30.8354 183.515L33.6638 180.686ZM56.7274 192.949L55.3131 194.363L55.3229 194.373L56.7274 192.949ZM56.7274 170.629L55.3131 169.214L55.3034 169.224L56.7274 170.629ZM79.6714 170.629L81.0856 169.214L81.0856 169.214L79.6714 170.629ZM79.6714 192.949L78.2669 191.525L78.2572 191.534L79.6714 192.949ZM67.1914 186.469L65.6862 187.786L65.7301 187.836L65.7772 187.883L67.1914 186.469ZM69.1594 186.469L67.8306 184.974L67.7867 185.013L67.7452 185.054L69.1594 186.469ZM69.1594 180.469L67.6646 181.797L67.7427 181.885L67.8307 181.963L69.1594 180.469ZM67.2394 180.469L68.6536 181.883L68.6951 181.841L68.7342 181.797L67.2394 180.469ZM69.1594 194.405H67.2394V198.405H69.1594V194.405ZM67.2394 194.405C62.8688 194.405 59.9595 193.327 58.1318 191.525L55.3229 194.373C58.1672 197.178 62.266 198.405 67.2394 198.405V194.405ZM58.1416 191.534C56.379 189.772 55.2714 186.696 55.2714 181.813H51.2714C51.2714 187.169 52.4678 191.517 55.3132 194.363L58.1416 191.534ZM55.2714 181.813C55.2714 176.932 56.3777 173.831 58.1513 172.033L55.3034 169.224C52.4691 172.098 51.2714 176.453 51.2714 181.813H55.2714ZM58.1416 172.043C59.9702 170.214 62.8757 169.125 67.2394 169.125V165.125C62.2591 165.125 58.1565 166.371 55.3132 169.214L58.1416 172.043ZM67.2394 169.125H69.1594V165.125H67.2394V169.125ZM69.1594 169.125C73.5231 169.125 76.4285 170.214 78.2572 172.043L81.0856 169.214C78.2422 166.371 74.1397 165.125 69.1594 165.125V169.125ZM78.2572 172.043C80.0561 173.842 81.1754 176.939 81.1754 181.813H85.1754C85.1754 176.447 83.9587 172.088 81.0856 169.214L78.2572 172.043ZM81.1754 181.813C81.1754 186.69 80.0548 189.761 78.267 191.525L81.0758 194.373C83.96 191.528 85.1754 187.176 85.1754 181.813H81.1754ZM78.2572 191.534C76.4674 193.324 73.569 194.405 69.1594 194.405V198.405C74.1577 198.405 78.2673 197.181 81.0856 194.363L78.2572 191.534ZM64.8554 181.429V185.461H68.8554V181.429H64.8554ZM64.8554 185.461C64.8554 186.248 65.0761 187.088 65.6862 187.786L68.6965 185.152C68.7666 185.232 68.8123 185.319 68.8367 185.392C68.8594 185.46 68.8554 185.49 68.8554 185.461H64.8554ZM65.7772 187.883C66.4328 188.538 67.2727 188.853 68.1514 188.853V184.853C68.1848 184.853 68.2644 184.859 68.3662 184.9C68.4702 184.941 68.5519 185.001 68.6056 185.054L65.7772 187.883ZM68.1514 188.853C69.012 188.853 69.8859 188.571 70.5736 187.883L67.7452 185.054C67.8151 184.984 67.906 184.925 68.0034 184.888C68.0955 184.853 68.1537 184.853 68.1514 184.853V188.853ZM70.4881 187.963C71.2399 187.295 71.5914 186.397 71.5914 185.461H67.5914C67.5914 185.435 67.5966 185.35 67.6451 185.237C67.6952 185.12 67.7671 185.03 67.8306 184.974L70.4881 187.963ZM71.5914 185.461V181.429H67.5914V185.461H71.5914ZM71.5914 181.429C71.5914 180.471 71.2014 179.608 70.4881 178.974L67.8307 181.963C67.7848 181.923 67.7141 181.843 67.6595 181.721C67.6048 181.6 67.5914 181.493 67.5914 181.429H71.5914ZM70.6542 179.14C70.0202 178.427 69.1569 178.037 68.1994 178.037V182.037C68.1354 182.037 68.0282 182.023 67.9066 181.968C67.7853 181.914 67.7053 181.843 67.6646 181.797L70.6542 179.14ZM68.1994 178.037C67.2418 178.037 66.3786 178.427 65.7446 179.14L68.7342 181.797C68.6934 181.843 68.6135 181.914 68.4921 181.968C68.3706 182.023 68.2634 182.037 68.1994 182.037V178.037ZM65.8252 179.054C65.1696 179.71 64.8554 180.55 64.8554 181.429H68.8554C68.8554 181.462 68.849 181.542 68.8083 181.643C68.7667 181.748 68.7073 181.829 68.6536 181.883L65.8252 179.054ZM106.007 195.973V197.973H108.007V195.973H106.007ZM92.4233 195.973H90.4233V197.973H92.4233V195.973ZM92.4233 167.605V165.605H90.4233V167.605H92.4233ZM104.471 167.605L106.453 167.333L106.216 165.605H104.471V167.605ZM104.951 171.109L102.97 171.38L106.831 171.792L104.951 171.109ZM105.815 169.813L107.32 171.13L107.32 171.13L105.815 169.813ZM107.255 168.517L106.155 166.847L106.138 166.857L106.122 166.869L107.255 168.517ZM119.927 169.717L118.446 171.061L118.453 171.068L118.46 171.075L119.927 169.717ZM122.327 195.973V197.973H124.327V195.973H122.327ZM108.743 195.973H106.743V197.973H108.743V195.973ZM108.311 179.797L106.816 181.125L106.895 181.213L106.983 181.291L108.311 179.797ZM106.391 179.797L107.805 181.211L107.847 181.169L107.886 181.125L106.391 179.797ZM104.007 180.757V195.973H108.007V180.757H104.007ZM106.007 193.973H92.4233V197.973H106.007V193.973ZM94.4233 195.973V167.605H90.4233V195.973H94.4233ZM92.4233 169.605H104.471V165.605H92.4233V169.605ZM102.49 167.876L102.97 171.38L106.933 170.837L106.453 167.333L102.49 167.876ZM106.831 171.792C106.824 171.811 106.841 171.76 106.927 171.63C107.011 171.505 107.137 171.339 107.32 171.13L104.31 168.496C103.81 169.067 103.327 169.723 103.072 170.425L106.831 171.792ZM107.32 171.13C107.669 170.731 108.026 170.414 108.388 170.165L106.122 166.869C105.461 167.323 104.858 167.87 104.31 168.496L107.32 171.13ZM108.356 170.187C109.334 169.542 110.781 169.125 112.871 169.125V165.125C110.29 165.125 107.993 165.635 106.155 166.847L108.356 170.187ZM112.871 169.125C115.646 169.125 117.375 169.88 118.446 171.061L121.408 168.373C119.343 166.097 116.368 165.125 112.871 165.125V169.125ZM118.46 171.075C119.601 172.308 120.327 174.258 120.327 177.253H124.327C124.327 173.655 123.453 170.581 121.395 168.358L118.46 171.075ZM120.327 177.253V195.973H124.327V177.253H120.327ZM122.327 193.973H108.743V197.973H122.327V193.973ZM110.743 195.973V180.757H106.743V195.973H110.743ZM110.743 180.757C110.743 179.799 110.353 178.936 109.64 178.302L106.983 181.291C106.937 181.251 106.866 181.171 106.811 181.049C106.757 180.928 106.743 180.821 106.743 180.757H110.743ZM109.806 178.468C109.172 177.755 108.309 177.365 107.351 177.365V181.365C107.287 181.365 107.18 181.351 107.059 181.296C106.937 181.242 106.857 181.171 106.816 181.125L109.806 178.468ZM107.351 177.365C106.394 177.365 105.53 177.755 104.896 178.468L107.886 181.125C107.845 181.171 107.765 181.242 107.644 181.296C107.522 181.351 107.415 181.365 107.351 181.365V177.365ZM104.977 178.382C104.321 179.038 104.007 179.878 104.007 180.757H108.007C108.007 180.79 108.001 180.87 107.96 180.971C107.919 181.076 107.859 181.157 107.805 181.211L104.977 178.382ZM147.895 167.605V165.605H145.895V167.605H147.895ZM161.479 167.605H163.479V165.605H161.479V167.605ZM161.479 195.973V197.973H163.479V195.973H161.479ZM149.383 195.973L147.402 196.244L147.638 197.973H149.383V195.973ZM148.903 192.469L150.885 192.197L147.024 191.785L148.903 192.469ZM148.039 193.765L146.534 192.448L146.534 192.448L148.039 193.765ZM146.599 195.061L147.7 196.731L147.716 196.72L147.732 196.709L146.599 195.061ZM133.927 193.861L132.446 195.205L132.453 195.212L132.46 195.219L133.927 193.861ZM131.575 167.605V165.605H129.575V167.605H131.575ZM145.159 167.605H147.159V165.605H145.159V167.605ZM145.543 184.405L144.048 185.733L144.126 185.821L144.214 185.899L145.543 184.405ZM147.511 184.405L148.925 185.819L148.967 185.777L149.006 185.733L147.511 184.405ZM147.895 169.605H161.479V165.605H147.895V169.605ZM159.479 167.605V195.973H163.479V167.605H159.479ZM161.479 193.973H149.383V197.973H161.479V193.973ZM151.365 195.701L150.885 192.197L146.922 192.74L147.402 196.244L151.365 195.701ZM147.024 191.785C147.031 191.766 147.014 191.817 146.927 191.947C146.844 192.072 146.717 192.238 146.534 192.448L149.544 195.082C150.044 194.51 150.527 193.855 150.783 193.152L147.024 191.785ZM146.534 192.448C146.185 192.846 145.828 193.163 145.466 193.413L147.732 196.709C148.394 196.254 148.997 195.707 149.544 195.082L146.534 192.448ZM145.499 193.391C144.517 194.038 143.083 194.453 141.031 194.453V198.453C143.587 198.453 145.866 197.939 147.7 196.731L145.499 193.391ZM141.031 194.453C138.259 194.453 136.502 193.698 135.395 192.502L132.46 195.219C134.552 197.479 137.531 198.453 141.031 198.453V194.453ZM135.408 192.517C134.287 191.281 133.575 189.338 133.575 186.373H129.575C129.575 189.935 130.431 192.984 132.446 195.205L135.408 192.517ZM133.575 186.373V167.605H129.575V186.373H133.575ZM131.575 169.605H145.159V165.605H131.575V169.605ZM143.159 167.605V183.397H147.159V167.605H143.159ZM143.159 183.397C143.159 184.272 143.468 185.081 144.048 185.733L147.038 183.076C147.059 183.1 147.096 183.15 147.124 183.225C147.152 183.299 147.159 183.362 147.159 183.397H143.159ZM144.214 185.899C144.867 186.48 145.675 186.789 146.551 186.789V182.789C146.586 182.789 146.649 182.795 146.723 182.824C146.797 182.852 146.848 182.888 146.872 182.91L144.214 185.899ZM146.551 186.789C147.43 186.789 148.27 186.474 148.925 185.819L146.097 182.99C146.151 182.937 146.232 182.877 146.336 182.836C146.438 182.795 146.518 182.789 146.551 182.789V186.789ZM149.006 185.733C149.586 185.081 149.895 184.272 149.895 183.397H145.895C145.895 183.362 145.902 183.299 145.93 183.225C145.958 183.15 145.995 183.1 146.016 183.076L149.006 185.733ZM149.895 183.397V167.605H145.895V183.397H149.895ZM190.551 167.557L190.268 169.537L190.272 169.537L190.551 167.557ZM194.775 168.421L195.504 166.558L195.491 166.553L195.477 166.548L194.775 168.421ZM195.879 168.853H197.879V167.488L196.608 166.99L195.879 168.853ZM195.879 180.853L194.964 182.631L197.879 184.131V180.853H195.879ZM186.135 179.173V177.173H184.135V179.173H186.135ZM186.135 180.325H184.135V182.14L185.942 182.315L186.135 180.325ZM194.295 182.389L195.413 180.73L195.413 180.73L194.295 182.389ZM193.575 194.101L192.322 192.541L192.322 192.541L193.575 194.101ZM176.439 196.021L176.156 198.001L176.439 196.021ZM172.311 195.157L173.04 193.294L173.04 193.294L172.311 195.157ZM171.207 194.725H169.207V196.09L170.478 196.587L171.207 194.725ZM171.207 184.309L172.101 182.52L169.207 181.073V184.309H171.207ZM175.335 185.557L174.93 187.515L174.949 187.519L174.968 187.523L175.335 185.557ZM181.143 186.085V188.085H183.143V186.085H181.143ZM181.143 184.933H183.143V183.111L181.329 182.941L181.143 184.933ZM173.367 182.581L172.21 184.212L172.21 184.212L173.367 182.581ZM173.943 169.717L172.688 168.159L172.688 168.159L173.943 169.717ZM183.735 169.125C186.19 169.125 188.365 169.265 190.268 169.537L190.834 165.577C188.705 165.273 186.336 165.125 183.735 165.125V169.125ZM190.272 169.537C192.329 169.826 193.535 170.092 194.073 170.293L195.477 166.548C194.479 166.174 192.869 165.863 190.83 165.576L190.272 169.537ZM194.046 170.283L195.15 170.715L196.608 166.99L195.504 166.558L194.046 170.283ZM193.879 168.853V180.853H197.879V168.853H193.879ZM196.794 179.074C194.195 177.736 190.565 177.173 186.135 177.173V181.173C190.345 181.173 193.211 181.729 194.964 182.631L196.794 179.074ZM184.135 179.173V180.325H188.135V179.173H184.135ZM185.942 182.315C189.895 182.698 192.16 183.362 193.177 184.047L195.413 180.73C193.486 179.432 190.311 178.719 186.328 178.334L185.942 182.315ZM193.177 184.047C193.867 184.512 194.503 185.516 194.503 187.813H198.503C198.503 184.862 197.667 182.25 195.413 180.73L193.177 184.047ZM194.503 187.813C194.503 189.864 193.776 191.374 192.322 192.541L194.827 195.66C197.278 193.692 198.503 191.009 198.503 187.813H194.503ZM192.322 192.541C190.933 193.657 188.127 194.453 183.351 194.453V198.453C188.303 198.453 192.313 197.68 194.827 195.66L192.322 192.541ZM183.351 194.453C180.829 194.453 178.623 194.312 176.722 194.041L176.156 198.001C178.287 198.305 180.689 198.453 183.351 198.453V194.453ZM176.722 194.041C174.693 193.751 173.533 193.487 173.04 193.294L171.582 197.019C172.561 197.402 174.153 197.714 176.156 198.001L176.722 194.041ZM173.04 193.294L171.936 192.862L170.478 196.587L171.582 197.019L173.04 193.294ZM173.207 194.725V184.309H169.207V194.725H173.207ZM170.313 186.098C171.445 186.664 173.026 187.121 174.93 187.515L175.74 183.598C173.932 183.224 172.761 182.849 172.101 182.52L170.313 186.098ZM174.968 187.523C176.981 187.898 179.04 188.085 181.143 188.085V184.085C179.278 184.085 177.465 183.919 175.702 183.591L174.968 187.523ZM183.143 186.085V184.933H179.143V186.085H183.143ZM181.329 182.941C178.067 182.636 175.875 181.908 174.524 180.949L172.21 184.212C174.379 185.75 177.371 186.589 180.957 186.924L181.329 182.941ZM174.524 180.949C173.443 180.183 172.727 178.877 172.727 176.533H168.727C168.727 179.756 169.771 182.483 172.21 184.212L174.524 180.949ZM172.727 176.533C172.727 174.306 173.537 172.612 175.198 171.274L172.688 168.159C170.061 170.277 168.727 173.128 168.727 176.533H172.727ZM175.198 171.274C176.83 169.959 179.555 169.125 183.735 169.125V165.125C179.147 165.125 175.344 166.019 172.688 168.159L175.198 171.274Z" fill="#0C3D76"/>
</g>
<g clip-path="url(#clip0)">
<path d="M156.499 24.5285C137.094 3.40804 106.119 4.21515 102.002 4.42943C97.8845 4.2223 66.903 3.40804 47.5047 24.5285C34.8101 38.3492 29.8748 58.3911 32.8318 84.0328C32.8877 84.6185 34.2159 98.5036 43.4153 112.417C51.9226 125.281 69.0141 140.502 101.96 139.959C102.54 139.966 103.113 139.973 103.68 139.973C135.598 139.973 152.228 125.059 160.588 112.417C169.788 98.5036 171.123 84.6185 171.165 84.1042C174.129 58.3912 169.194 38.3492 156.499 24.5285Z" fill="#0C3D76"/>
<path d="M155.905 19.6785C136.682 -0.863344 105.896 -0.127672 101.995 0.0508912C98.0875 -0.127672 67.3087 -0.870486 48.0851 19.6785C35.4325 33.1993 30.5043 52.6698 33.4193 77.5115C33.4682 78.0829 34.8103 91.718 43.9538 105.289C52.2724 117.638 68.7697 132.209 100.248 132.209C100.8 132.209 101.366 132.202 101.925 132.195C102.491 132.202 103.058 132.209 103.61 132.209C135.262 132.209 151.76 117.567 160.037 105.289C169.201 91.6823 170.508 78.14 170.557 77.6258C173.486 52.6912 168.558 33.1922 155.905 19.6785Z" fill="#213664"/>
<path d="M101.995 4.42216C97.3673 4.17217 28.8753 1.73658 37.7182 77.1116C37.7182 77.1116 42.4297 128.802 101.995 127.831C161.56 128.795 166.272 77.1116 166.272 77.1116C175.122 1.73658 106.623 4.17217 101.995 4.42216Z" fill="#6F9ACD"/>
<path d="M101.995 26.8211C105.896 26.6854 153.682 25.564 166.293 52.7699C159.281 2.3151 106.056 4.20788 101.995 4.42929C97.9336 4.20788 44.7086 2.3151 37.6973 52.7699C50.308 25.564 98.0944 26.6782 101.995 26.8211Z" fill="#A1C0ED"/>
<path d="M101.995 110.374C62.2963 110.796 46.1414 96.4319 39.6753 86.1538C44.1282 100.925 58.3047 128.545 101.995 127.838C145.685 128.545 159.861 100.925 164.314 86.1538C157.848 96.4319 141.7 110.796 101.995 110.374Z" fill="#3F76B7"/>
<path d="M121.519 114.552C121.589 119.338 129.586 120.024 136.094 117.545C142.595 115.067 148.153 110.767 146.517 106.281C144.881 101.796 140.456 108.146 132.788 110.51C126.14 112.553 121.463 110.738 121.519 114.552Z" fill="#73A6F3"/>
<path d="M130.53 44.5705C130.488 43.3634 130.404 42.0849 130.271 40.6778L130.089 38.7422H76.8781L76.6964 40.6778C76.5636 42.0492 76.4797 43.3205 76.4377 44.549C68.986 48.1132 65.3649 57.0627 68.0003 65.5766C70.7615 74.4619 79.178 79.9045 87.6783 78.376C90.2508 81.0759 93.0679 83.0686 96.0808 84.3043V92.2111H95.2559C93.4664 92.2111 91.8166 93.2682 91.0197 94.8895H87.7412C85.1268 94.8895 82.9947 97.068 82.9947 99.7393L83.0087 104.696H123.42V99.7321C123.42 97.0608 121.288 94.8824 118.674 94.8824H115.395C114.598 93.261 112.949 92.2039 111.159 92.2039H110.551V84.44C113.676 83.2186 116.612 81.1759 119.275 78.3689C127.761 79.8688 136.164 74.4262 138.918 65.5623C141.546 57.0913 137.939 48.1489 130.53 44.5705ZM75.7737 63.1624C74.8579 60.2126 75.3612 57.0699 77.0389 54.7771C77.8358 60.1412 79.3527 65.0838 81.5617 69.505C78.8774 68.4622 76.6894 66.1052 75.7737 63.1624ZM131.145 63.1696C130.243 66.0837 128.069 68.4336 125.413 69.4979C127.608 65.0909 129.124 60.1697 129.921 54.8271C131.557 57.1127 132.053 60.2412 131.145 63.1696Z" fill="#A1C0ED"/>
<path d="M128.453 46.0059C128.446 44.2703 128.342 42.5633 128.181 40.8848H78.7796C78.6188 42.5561 78.5139 44.256 78.5 45.9917C71.2998 48.6415 67.504 56.884 69.9926 64.9265C72.5441 73.1475 80.7229 78.033 88.3984 76.026C91.2505 79.2687 94.5569 81.6257 98.1779 82.7971V94.3537H95.2559C93.8019 94.3537 92.6276 95.5536 92.6136 97.0321H87.7413C86.2733 97.0321 85.0919 98.2392 85.0919 99.7391H85.1059V102.56H121.323V99.7391C121.323 98.2392 120.142 97.0321 118.674 97.0321H113.801C113.788 95.5465 112.613 94.3537 111.159 94.3537H108.454V82.9114C112.194 81.7757 115.619 79.3615 118.555 76.0331C126.216 78.0116 134.374 73.1404 136.926 64.9265C139.407 56.8983 135.633 48.6772 128.453 46.0059ZM73.7744 63.8122C72.1107 58.4554 74.2847 52.9699 78.6747 50.57C79.3178 58.9411 81.8064 66.455 85.5183 72.2047C80.4503 72.6333 75.4591 69.2191 73.7744 63.8122ZM114.962 58.5482L110.062 63.4266L111.215 70.3191C111.292 70.7691 111.11 71.219 110.747 71.4905C110.544 71.6404 110.299 71.719 110.055 71.719C109.873 71.719 109.677 71.6762 109.509 71.5833L103.456 68.3335L97.395 71.5833C96.9966 71.7976 96.5212 71.7619 96.1577 71.4905C95.7942 71.219 95.6194 70.7691 95.6894 70.3191L96.8498 63.4266L91.9495 58.5482C91.6279 58.2268 91.5161 57.7554 91.6489 57.3197C91.7887 56.884 92.1522 56.5697 92.5996 56.5055L99.3663 55.4984L102.4 49.2272C102.596 48.8201 103.001 48.563 103.449 48.563C103.896 48.563 104.302 48.8201 104.497 49.2272L107.524 55.4984L114.298 56.5055C114.738 56.5697 115.109 56.884 115.249 57.3197C115.395 57.7554 115.276 58.2339 114.962 58.5482ZM133.144 63.8122C131.473 69.2048 126.489 72.619 121.442 72.219C125.147 66.4693 127.635 58.9553 128.286 50.5915C132.655 52.9985 134.801 58.4696 133.144 63.8122Z" fill="#0C3D76"/>
<path d="M77.8079 51.1128C78.0316 50.9557 78.2693 50.8129 78.507 50.6771C78.5209 48.9915 78.6258 47.3345 78.7796 45.706H128.181C128.335 47.3416 128.439 48.9986 128.453 50.6914C128.691 50.8271 128.922 50.97 129.138 51.12C133.682 53.0985 136.744 57.3554 137.499 62.3123C138.534 55.1769 134.857 48.3844 128.453 46.0059C128.446 44.2703 128.342 42.5633 128.181 40.8848H78.7796C78.6188 42.5561 78.5139 44.256 78.5 45.9917C72.0828 48.3558 68.3848 55.1626 69.4194 62.3123C70.1814 57.3483 73.2502 53.0842 77.8079 51.1128Z" fill="#213664"/>
</g>
<defs>
<filter id="filter0_d" x="0.697754" y="158.805" width="205.805" height="53.648" filterUnits="userSpaceOnUse" color-interpolation-filters="sRGB">
<feFlood flood-opacity="0" result="BackgroundImageFix"/>
<feColorMatrix in="SourceAlpha" type="matrix" values="0 0 0 0 0 0 0 0 0 0 0 0 0 0 0 0 0 0 127 0"/>
<feOffset dy="6"/>
<feGaussianBlur stdDeviation="4"/>
<feColorMatrix type="matrix" values="0 0 0 0 0.678431 0 0 0 0 0.211765 0 0 0 0 0.211765 0 0 0 1 0"/>
<feBlend mode="normal" in2="BackgroundImageFix" result="effect1_dropShadow"/>
<feBlend mode="normal" in="SourceGraphic" in2="effect1_dropShadow" result="shape"/>
</filter>
<clipPath id="clip0">
<rect width="140" height="139.973" fill="white" transform="translate(32)"/>
</clipPath>
</defs>
</svg>
