<svg width="141" height="141" viewBox="0 0 141 141" fill="none" xmlns="http://www.w3.org/2000/svg">
<g clip-path="url(#clip0)">
<path d="M125.109 25.3439C105.704 4.21938 74.7291 5.02665 70.6117 5.24097C66.4944 5.03379 35.5129 4.21938 16.1145 25.3439C3.41994 39.1674 -1.5153 59.2132 1.44164 84.8598C1.49756 85.4456 2.82575 99.3334 12.0251 113.25C20.5325 126.116 37.624 141.34 70.5698 140.797C71.15 140.804 71.7232 140.811 72.2894 140.811C104.208 140.811 120.838 125.894 129.198 113.25C138.398 99.3334 139.733 85.4456 139.775 84.9312C142.739 59.2132 137.804 39.1674 125.109 25.3439Z" fill="#0C3D76"/>
<path d="M124.515 20.4934C105.291 -0.0524759 74.5054 0.683339 70.6048 0.861936C66.6971 0.683339 35.9184 -0.05962 16.6947 20.4934C4.0421 34.0168 -0.886122 53.4911 2.02888 78.3376C2.07781 78.9091 3.41995 92.5468 12.5634 106.12C20.882 118.472 37.3794 133.046 68.8572 133.046C69.4094 133.046 69.9756 133.038 70.5349 133.031C71.1011 133.038 71.6673 133.046 72.2196 133.046C103.872 133.046 120.369 118.401 128.646 106.12C137.811 92.5111 139.118 78.9662 139.167 78.4519C142.096 53.5125 137.167 34.0097 124.515 20.4934Z" fill="#213664"/>
<path d="M70.6046 5.23418C65.977 4.98414 -2.51504 2.54808 6.32782 77.9377C6.32782 77.9377 11.0393 129.638 70.6046 128.667C130.17 129.631 134.881 77.9377 134.881 77.9377C143.731 2.54808 75.2323 4.98414 70.6046 5.23418Z" fill="#6F9ACD"/>
<path d="M70.6047 27.6375C74.5053 27.5017 122.292 26.3801 134.902 53.5913C127.891 3.12672 74.6661 5.01986 70.6047 5.24132C66.5432 5.01986 13.3183 3.12672 6.30688 53.5913C18.9176 26.3801 66.704 27.4946 70.6047 27.6375Z" fill="#A1C0ED"/>
<path d="M70.6046 111.207C30.9061 111.628 14.7513 97.262 8.28516 86.9819C12.738 101.756 26.9146 129.381 70.6046 128.674C114.295 129.381 128.471 101.756 132.924 86.9819C126.458 97.262 110.31 111.628 70.6046 111.207Z" fill="#3F76B7"/>
<path d="M90.1289 115.386C90.1988 120.172 98.1958 120.858 104.704 118.379C111.205 115.9 116.762 111.6 115.127 107.113C113.491 102.627 109.066 108.978 101.397 111.342C94.7496 113.386 90.073 111.571 90.1289 115.386Z" fill="#73A6F3"/>
<path d="M99.1396 45.39C99.0977 44.1826 99.0138 42.9039 98.881 41.4965L98.6992 39.5605H45.4882L45.3065 41.4965C45.1737 42.8682 45.0898 44.1398 45.0478 45.3685C37.5961 48.9333 33.975 57.8846 36.6104 66.4002C39.3716 75.2872 47.7881 80.7309 56.2884 79.2021C58.8609 81.9025 61.678 83.8956 64.6909 85.1315V93.0398H63.866C62.0765 93.0398 60.4268 94.0971 59.6298 95.7188H56.3513C53.7369 95.7188 51.6048 97.8977 51.6048 100.569L51.6188 105.527H92.0304V100.562C92.0304 97.8905 89.8983 95.7116 87.2839 95.7116H84.0054C83.2085 94.09 81.5588 93.0327 79.7692 93.0327H79.161V85.2672C82.2858 84.0456 85.2217 82.0025 87.8851 79.1949C96.3714 80.6951 104.774 75.2515 107.528 66.3859C110.157 57.9132 106.549 48.9691 99.1396 45.39ZM44.3838 63.9855C43.468 61.0351 43.9713 57.8918 45.649 55.5986C46.4459 60.9637 47.9629 65.9072 50.1718 70.3293C47.4875 69.2863 45.2995 66.9288 44.3838 63.9855ZM99.7548 63.9927C98.853 66.9074 96.679 69.2578 94.0226 70.3222C96.2176 65.9144 97.7346 60.9923 98.5315 55.6486C100.167 57.9347 100.664 61.0637 99.7548 63.9927Z" fill="#A1C0ED"/>
<path d="M97.0635 46.8258C97.0565 45.0898 96.9516 43.3824 96.7909 41.7036H47.3897C47.2289 43.3753 47.124 45.0755 47.1101 46.8115C39.9099 49.4619 36.1141 57.7059 38.6027 65.75C41.1542 73.9726 49.333 78.8591 57.0085 76.8516C59.8606 80.095 63.167 82.4525 66.788 83.6241V95.1829H63.8661C62.4121 95.1829 61.2377 96.3831 61.2237 97.8619H56.3514C54.8834 97.8619 53.702 99.0692 53.702 100.569H53.716V103.391H89.9333V100.569C89.9333 99.0692 88.7519 97.8619 87.2839 97.8619H82.4116C82.3976 96.3759 81.2232 95.1829 79.7692 95.1829H77.0639V83.7384C80.8038 82.6025 84.2291 80.1878 87.1651 76.8588C94.8265 78.8376 102.984 73.9655 105.536 65.75C108.017 57.7202 104.243 49.4976 97.0635 46.8258ZM42.3845 64.6355C40.7208 59.2776 42.8948 53.7911 47.2848 51.3907C47.9279 59.7634 50.4165 67.2788 54.1284 73.0296C49.0604 73.4583 44.0692 70.0435 42.3845 64.6355ZM83.572 59.3705L78.6717 64.2498L79.8251 71.1437C79.902 71.5937 79.7203 72.0438 79.3568 72.3152C79.1541 72.4653 78.9094 72.5438 78.6647 72.5438C78.483 72.5438 78.2872 72.501 78.1195 72.4081L72.0658 69.1576L66.0051 72.4081C65.6067 72.6224 65.1313 72.5867 64.7678 72.3152C64.4043 72.0438 64.2296 71.5937 64.2995 71.1437L65.4599 64.2498L60.5596 59.3705C60.238 59.049 60.1262 58.5775 60.259 58.1417C60.3988 57.706 60.7623 57.3916 61.2097 57.3273L67.9764 56.32L71.0103 50.0477C71.206 49.6405 71.6114 49.3833 72.0588 49.3833C72.5062 49.3833 72.9116 49.6405 73.1074 50.0477L76.1342 56.32L82.9079 57.3273C83.3483 57.3916 83.7188 57.706 83.8586 58.1417C84.0054 58.5775 83.8866 59.0562 83.572 59.3705ZM101.754 64.6355C100.083 70.0292 95.0992 73.444 90.0521 73.0439C93.757 67.2931 96.2456 59.7777 96.8957 51.4122C101.265 53.8197 103.411 59.2919 101.754 64.6355Z" fill="#0C3D76"/>
<path d="M46.418 51.9337C46.6417 51.7765 46.8794 51.6336 47.1171 51.4979C47.131 49.8119 47.2359 48.1546 47.3897 46.5257H96.7909C96.9447 48.1617 97.0495 49.8191 97.0635 51.5122C97.3012 51.6479 97.5319 51.7908 97.7486 51.9408C102.292 53.9197 105.354 58.1774 106.109 63.1353C107.144 55.9986 103.467 49.2047 97.0635 46.8258C97.0565 45.0898 96.9517 43.3824 96.7909 41.7036H47.3897C47.2289 43.3753 47.124 45.0755 47.1101 46.8115C40.6929 49.1761 36.995 55.9843 38.0295 63.1353C38.7915 58.1703 41.8603 53.9054 46.418 51.9337Z" fill="#213664"/>
</g>
<defs>
<clipPath id="clip0">
<rect width="140" height="140" fill="white" transform="translate(0.609863 0.811035)"/>
</clipPath>
</defs>
</svg>
