<svg xmlns="http://www.w3.org/2000/svg" width="717" height="720" viewBox="0 0 717 720" fill="none">
<path d="M10.8375 60.3518C12.8815 36.6976 32.2613 18.3709 55.968 17.0679C262.061 5.73981 441.07 -13.2101 655.427 14.567C675.354 17.1491 691.387 32.2509 694.915 52.0319C738.354 295.606 705.495 545.779 689.981 639.146C686.258 661.55 666.78 677.303 644.068 677.303H63.6282C39.7832 677.303 19.6569 659.81 17.0527 636.108C7.21351 546.559 -11.6971 321.124 10.8375 60.3518Z" fill="#213664"/>
<path d="M32.6268 86.0914C34.6751 62.4559 54.0601 44.1677 77.7492 42.8805C269.003 32.4878 435.55 15.4171 634.479 40.4573C654.397 42.9645 670.468 58.0034 674.008 77.7638C713.529 298.342 684.073 524.241 669.415 611.955C665.683 634.29 646.239 649.987 623.596 649.987H84.8776C61.081 649.987 40.9989 632.679 38.3904 609.026C29.1333 525.085 12.2264 321.493 32.6268 86.0914Z" fill="#73A6F3"/>
<g filter="url(#filter0_d)">
<path d="M252.593 146.348V104.888H274.553C281.473 104.888 286.493 105.888 289.613 107.888C292.733 109.888 294.293 113.108 294.293 117.548C294.293 119.108 294.093 120.548 293.693 121.868C293.293 123.188 292.893 124.128 292.493 124.688L291.893 125.528C293.253 126.208 294.213 127.868 294.773 130.508C295.013 131.588 295.133 132.828 295.133 134.228C295.133 137.988 293.973 140.948 291.653 143.108C289.373 145.268 285.933 146.348 281.333 146.348H252.593ZM276.653 125.588V122.468C276.653 121.948 276.493 121.548 276.173 121.268C275.853 120.948 275.453 120.788 274.973 120.788H273.233V125.588H276.653ZM278.333 128.528H273.233V131.948H278.333C278.773 131.948 279.153 131.788 279.473 131.468C279.833 131.108 280.013 130.688 280.013 130.208C280.013 129.728 279.853 129.328 279.533 129.008C279.213 128.688 278.813 128.528 278.333 128.528ZM320.87 146.888H318.47C312.63 146.888 308.25 145.448 305.33 142.568C302.45 139.688 301.01 135.048 301.01 128.648C301.01 122.248 302.45 117.588 305.33 114.668C308.25 111.748 312.63 110.288 318.47 110.288H320.87C326.71 110.288 331.09 111.748 334.01 114.668C336.93 117.588 338.39 122.248 338.39 128.648C338.39 135.048 336.93 139.688 334.01 142.568C331.13 145.448 326.75 146.888 320.87 146.888ZM317.99 128.168V133.208C317.99 133.728 318.13 134.148 318.41 134.468C318.73 134.788 319.13 134.948 319.61 134.948C320.13 134.948 320.55 134.788 320.87 134.468C321.23 134.148 321.41 133.728 321.41 133.208V128.168C321.41 127.688 321.23 127.288 320.87 126.968C320.55 126.608 320.15 126.428 319.67 126.428C319.19 126.428 318.79 126.608 318.47 126.968C318.15 127.288 317.99 127.688 317.99 128.168ZM362.13 127.328V146.348H345.15V110.888H360.21L360.81 115.268C360.97 114.828 361.33 114.288 361.89 113.648C362.45 113.008 363.05 112.468 363.69 112.028C365.45 110.868 367.79 110.288 370.71 110.288C374.63 110.288 377.57 111.368 379.53 113.528C381.53 115.688 382.53 118.828 382.53 122.948V146.348H365.55V127.328C365.55 126.848 365.37 126.448 365.01 126.128C364.69 125.768 364.29 125.588 363.81 125.588C363.33 125.588 362.93 125.768 362.61 126.128C362.29 126.448 362.13 126.848 362.13 127.328ZM409.69 110.888H426.67V146.348H411.55L410.95 141.968C410.79 142.408 410.43 142.948 409.87 143.588C409.31 144.228 408.71 144.768 408.07 145.208C406.31 146.368 403.99 146.948 401.11 146.948C397.19 146.948 394.23 145.868 392.23 143.708C390.27 141.548 389.29 138.428 389.29 134.348V110.888H406.27V130.628C406.27 131.108 406.43 131.528 406.75 131.888C407.11 132.208 407.53 132.368 408.01 132.368C408.49 132.368 408.89 132.208 409.21 131.888C409.53 131.528 409.69 131.108 409.69 130.628V110.888ZM449.69 110.288C452.85 110.288 455.69 110.468 458.21 110.828C460.77 111.188 462.53 111.548 463.49 111.908L464.87 112.448V127.448C462.15 126.048 458.09 125.348 452.69 125.348V126.788C457.65 127.268 461.05 128.128 462.89 129.368C464.73 130.608 465.65 132.868 465.65 136.148C465.65 139.428 464.43 142.048 461.99 144.008C459.55 145.968 455.29 146.948 449.21 146.948C445.97 146.948 443.09 146.768 440.57 146.408C438.05 146.048 436.33 145.688 435.41 145.328L434.03 144.788V131.768C435.15 132.328 436.87 132.848 439.19 133.328C441.55 133.768 443.97 133.988 446.45 133.988V132.548C442.17 132.148 438.93 131.168 436.73 129.608C434.53 128.048 433.43 125.528 433.43 122.048C433.43 118.528 434.77 115.688 437.45 113.528C440.13 111.368 444.21 110.288 449.69 110.288Z" fill="white"/>
<path d="M252.593 146.348H247.593V151.348H252.593V146.348ZM252.593 104.888V99.8881H247.593V104.888H252.593ZM292.493 124.688L288.424 121.782L288.424 121.782L292.493 124.688ZM291.893 125.528L287.824 122.622L284.423 127.383L289.657 130L291.893 125.528ZM294.773 130.508L289.882 131.546L289.887 131.569L289.892 131.593L294.773 130.508ZM291.653 143.108L288.246 139.449L288.23 139.463L288.214 139.478L291.653 143.108ZM276.653 125.588V130.588H281.653V125.588H276.653ZM276.173 121.268L272.638 124.804L272.755 124.921L272.881 125.031L276.173 121.268ZM273.233 120.788V115.788H268.233V120.788H273.233ZM273.233 125.588H268.233V130.588H273.233V125.588ZM273.233 128.528V123.528H268.233V128.528H273.233ZM273.233 131.948H268.233V136.948H273.233V131.948ZM279.473 131.468L283.009 135.004L279.473 131.468ZM279.533 129.008L275.998 132.544L275.998 132.544L279.533 129.008ZM257.593 146.348V104.888H247.593V146.348H257.593ZM252.593 109.888H274.553V99.8881H252.593V109.888ZM274.553 109.888C281.222 109.888 285.038 110.895 286.915 112.098L292.311 103.679C287.948 100.882 281.724 99.8881 274.553 99.8881V109.888ZM286.915 112.098C288.3 112.985 289.293 114.421 289.293 117.548H299.293C299.293 111.795 297.166 106.791 292.311 103.679L286.915 112.098ZM289.293 117.548C289.293 118.68 289.148 119.625 288.908 120.418L298.478 123.318C299.038 121.471 299.293 119.536 299.293 117.548H289.293ZM288.908 120.418C288.743 120.961 288.602 121.347 288.492 121.605C288.373 121.885 288.338 121.903 288.424 121.782L296.562 127.594C297.458 126.34 298.046 124.745 298.478 123.318L288.908 120.418ZM288.424 121.782L287.824 122.622L295.962 128.434L296.562 127.594L288.424 121.782ZM289.657 130C289.259 129.801 289.187 129.583 289.305 129.786C289.438 130.017 289.67 130.548 289.882 131.546L299.664 129.471C299.022 126.441 297.611 122.797 294.129 121.056L289.657 130ZM289.892 131.593C290.035 132.237 290.133 133.102 290.133 134.228H300.133C300.133 132.555 299.991 130.939 299.654 129.423L289.892 131.593ZM290.133 134.228C290.133 136.881 289.361 138.41 288.246 139.449L295.06 146.768C298.585 143.486 300.133 139.095 300.133 134.228H290.133ZM288.214 139.478C287.217 140.424 285.242 141.348 281.333 141.348V151.348C286.624 151.348 291.53 150.113 295.092 146.738L288.214 139.478ZM281.333 141.348H252.593V151.348H281.333V141.348ZM281.653 125.588V122.468H271.653V125.588H281.653ZM281.653 122.468C281.653 120.856 281.109 118.943 279.466 117.505L272.881 125.031C272.438 124.644 272.1 124.158 271.891 123.635C271.691 123.136 271.653 122.716 271.653 122.468H281.653ZM279.709 117.733C278.39 116.414 276.69 115.788 274.973 115.788V125.788C274.65 125.788 274.231 125.732 273.776 125.551C273.316 125.366 272.932 125.098 272.638 124.804L279.709 117.733ZM274.973 115.788H273.233V125.788H274.973V115.788ZM268.233 120.788V125.588H278.233V120.788H268.233ZM273.233 130.588H276.653V120.588H273.233V130.588ZM278.333 123.528H273.233V133.528H278.333V123.528ZM268.233 128.528V131.948H278.233V128.528H268.233ZM273.233 136.948H278.333V126.948H273.233V136.948ZM278.333 136.948C280.141 136.948 281.781 136.231 283.009 135.004L275.938 127.933C276.19 127.68 276.546 127.414 277.008 127.22C277.472 127.024 277.932 126.948 278.333 126.948V136.948ZM283.009 135.004C284.243 133.769 285.013 132.101 285.013 130.208H275.013C275.013 129.806 275.092 129.357 275.282 128.914C275.47 128.476 275.719 128.151 275.938 127.933L283.009 135.004ZM285.013 130.208C285.013 128.491 284.388 126.792 283.069 125.473L275.998 132.544C275.703 132.249 275.435 131.865 275.251 131.405C275.069 130.951 275.013 130.532 275.013 130.208H285.013ZM283.069 125.473C281.75 124.154 280.05 123.528 278.333 123.528V133.528C278.01 133.528 277.591 133.472 277.136 133.291C276.676 133.106 276.292 132.838 275.998 132.544L283.069 125.473ZM305.33 142.568L301.795 146.104L301.807 146.116L301.819 146.128L305.33 142.568ZM305.33 114.668L301.795 111.133L301.783 111.145L301.77 111.157L305.33 114.668ZM334.01 114.668L337.546 111.133L334.01 114.668ZM334.01 142.568L330.499 139.008L330.487 139.02L330.475 139.033L334.01 142.568ZM318.41 134.468L314.647 137.761L314.757 137.886L314.875 138.004L318.41 134.468ZM320.87 134.468L317.548 130.731L317.439 130.829L317.335 130.933L320.87 134.468ZM320.87 126.968L317.133 130.29L317.329 130.51L317.549 130.705L320.87 126.968ZM318.47 126.968L322.006 130.504L322.11 130.4L322.207 130.29L318.47 126.968ZM320.87 141.888H318.47V151.888H320.87V141.888ZM318.47 141.888C313.384 141.888 310.491 140.635 308.841 139.008L301.819 146.128C306.01 150.261 311.877 151.888 318.47 151.888V141.888ZM308.866 139.033C307.339 137.506 306.01 134.457 306.01 128.648H296.01C296.01 135.64 297.561 141.87 301.795 146.104L308.866 139.033ZM306.01 128.648C306.01 122.848 307.336 119.755 308.89 118.179L301.77 111.157C297.565 115.421 296.01 121.649 296.01 128.648H306.01ZM308.866 118.204C310.517 116.552 313.401 115.288 318.47 115.288V105.288C311.86 105.288 305.983 106.944 301.795 111.133L308.866 118.204ZM318.47 115.288H320.87V105.288H318.47V115.288ZM320.87 115.288C325.94 115.288 328.823 116.552 330.475 118.204L337.546 111.133C333.357 106.944 327.481 105.288 320.87 105.288V115.288ZM330.475 118.204C332.052 119.781 333.39 122.863 333.39 128.648H343.39C343.39 121.633 341.809 115.395 337.546 111.133L330.475 118.204ZM333.39 128.648C333.39 134.441 332.049 137.48 330.499 139.008L337.521 146.128C341.812 141.896 343.39 135.655 343.39 128.648H333.39ZM330.475 139.033C328.88 140.627 326.014 141.888 320.87 141.888V151.888C327.486 151.888 333.38 150.269 337.546 146.104L330.475 139.033ZM312.99 128.168V133.208H322.99V128.168H312.99ZM312.99 133.208C312.99 134.658 313.402 136.338 314.647 137.761L322.173 131.176C322.858 131.959 322.99 132.799 322.99 133.208H312.99ZM314.875 138.004C316.194 139.323 317.894 139.948 319.61 139.948V129.948C319.934 129.948 320.353 130.004 320.807 130.186C321.267 130.37 321.652 130.638 321.946 130.933L314.875 138.004ZM319.61 139.948C321.242 139.948 323.007 139.403 324.406 138.004L317.335 130.933C317.67 130.598 318.082 130.328 318.535 130.156C318.976 129.988 319.356 129.948 319.61 129.948V139.948ZM324.192 138.205C325.712 136.855 326.41 135.028 326.41 133.208H316.41C316.41 132.884 316.468 132.436 316.68 131.944C316.895 131.441 317.21 131.032 317.548 130.731L324.192 138.205ZM326.41 133.208V128.168H316.41V133.208H326.41ZM326.41 128.168C326.41 126.254 325.615 124.496 324.192 123.231L317.549 130.705C317.254 130.443 316.942 130.063 316.716 129.56C316.489 129.056 316.41 128.568 316.41 128.168H326.41ZM324.607 123.646C323.342 122.223 321.584 121.428 319.67 121.428V131.428C319.27 131.428 318.782 131.349 318.278 131.123C317.775 130.896 317.395 130.585 317.133 130.29L324.607 123.646ZM319.67 121.428C317.756 121.428 315.998 122.223 314.733 123.646L322.207 130.29C321.945 130.585 321.566 130.896 321.062 131.123C320.558 131.349 320.07 131.428 319.67 131.428V121.428ZM314.935 123.433C313.616 124.752 312.99 126.451 312.99 128.168H322.99C322.99 128.492 322.934 128.911 322.753 129.365C322.569 129.825 322.3 130.209 322.006 130.504L314.935 123.433ZM362.13 146.348V151.348H367.13V146.348H362.13ZM345.15 146.348H340.15V151.348H345.15V146.348ZM345.15 110.888V105.888H340.15V110.888H345.15ZM360.21 110.888L365.164 110.21L364.572 105.888H360.21V110.888ZM360.81 115.268L355.856 115.947L365.509 116.977L360.81 115.268ZM361.89 113.648L365.653 116.941L365.653 116.941L361.89 113.648ZM363.69 112.028L360.939 107.853L360.898 107.88L360.858 107.908L363.69 112.028ZM379.53 113.528L375.827 116.888L375.844 116.907L375.861 116.925L379.53 113.528ZM382.53 146.348V151.348H387.53V146.348H382.53ZM365.55 146.348H360.55V151.348H365.55V146.348ZM365.01 126.128L361.273 129.45L361.469 129.67L361.688 129.865L365.01 126.128ZM362.61 126.128L366.146 129.664L366.25 129.56L366.347 129.45L362.61 126.128ZM357.13 127.328V146.348H367.13V127.328H357.13ZM362.13 141.348H345.15V151.348H362.13V141.348ZM350.15 146.348V110.888H340.15V146.348H350.15ZM345.15 115.888H360.21V105.888H345.15V115.888ZM355.256 111.567L355.856 115.947L365.764 114.59L365.164 110.21L355.256 111.567ZM365.509 116.977C365.457 117.12 365.409 117.217 365.384 117.263C365.359 117.31 365.348 117.325 365.36 117.307C365.372 117.289 365.401 117.248 365.451 117.184C365.501 117.12 365.567 117.039 365.653 116.941L358.127 110.356C357.437 111.145 356.59 112.243 356.111 113.559L365.509 116.977ZM365.653 116.941C365.964 116.585 366.257 116.331 366.523 116.148L360.858 107.908C359.843 108.605 358.936 109.431 358.127 110.356L365.653 116.941ZM366.442 116.203C367.127 115.752 368.404 115.288 370.71 115.288V105.288C367.176 105.288 363.774 105.985 360.939 107.853L366.442 116.203ZM370.71 115.288C373.727 115.288 375.11 116.097 375.827 116.888L383.233 110.168C380.031 106.639 375.533 105.288 370.71 105.288V115.288ZM375.861 116.925C376.715 117.847 377.53 119.583 377.53 122.948H387.53C387.53 118.074 386.345 113.529 383.199 110.131L375.861 116.925ZM377.53 122.948V146.348H387.53V122.948H377.53ZM382.53 141.348H365.55V151.348H382.53V141.348ZM370.55 146.348V127.328H360.55V146.348H370.55ZM370.55 127.328C370.55 125.414 369.755 123.656 368.332 122.391L361.688 129.865C361.394 129.603 361.082 129.223 360.856 128.72C360.629 128.216 360.55 127.728 360.55 127.328H370.55ZM368.747 122.806C367.482 121.383 365.724 120.588 363.81 120.588V130.588C363.41 130.588 362.922 130.509 362.418 130.283C361.915 130.056 361.535 129.745 361.273 129.45L368.747 122.806ZM363.81 120.588C361.896 120.588 360.138 121.383 358.873 122.806L366.347 129.45C366.085 129.745 365.705 130.056 365.202 130.283C364.698 130.509 364.21 130.588 363.81 130.588V120.588ZM359.075 122.593C357.756 123.912 357.13 125.611 357.13 127.328H367.13C367.13 127.652 367.074 128.071 366.893 128.525C366.708 128.985 366.44 129.369 366.146 129.664L359.075 122.593ZM409.69 110.888V105.888H404.69V110.888H409.69ZM426.67 110.888H431.67V105.888H426.67V110.888ZM426.67 146.348V151.348H431.67V146.348H426.67ZM411.55 146.348L406.596 147.027L407.188 151.348H411.55V146.348ZM410.95 141.968L415.904 141.29L406.251 140.259L410.95 141.968ZM409.87 143.588L406.107 140.296L409.87 143.588ZM408.07 145.208L410.822 149.383L410.862 149.356L410.903 149.328L408.07 145.208ZM392.23 143.708L388.527 147.068L388.544 147.087L388.561 147.105L392.23 143.708ZM389.29 110.888V105.888H384.29V110.888H389.29ZM406.27 110.888H411.27V105.888H406.27V110.888ZM406.75 131.888L403.013 135.21L403.208 135.43L403.428 135.625L406.75 131.888ZM409.21 131.888L412.746 135.424L412.849 135.32L412.947 135.21L409.21 131.888ZM409.69 115.888H426.67V105.888H409.69V115.888ZM421.67 110.888V146.348H431.67V110.888H421.67ZM426.67 141.348H411.55V151.348H426.67V141.348ZM416.504 145.67L415.904 141.29L405.996 142.647L406.596 147.027L416.504 145.67ZM406.251 140.259C406.303 140.116 406.351 140.019 406.376 139.973C406.401 139.926 406.412 139.911 406.4 139.93C406.388 139.948 406.359 139.988 406.309 140.053C406.26 140.116 406.193 140.197 406.107 140.296L413.633 146.881C414.323 146.092 415.17 144.993 415.649 143.677L406.251 140.259ZM406.107 140.296C405.796 140.651 405.503 140.905 405.237 141.088L410.903 149.328C411.917 148.631 412.824 147.805 413.633 146.881L406.107 140.296ZM405.318 141.033C404.624 141.491 403.36 141.948 401.11 141.948V151.948C404.62 151.948 407.996 151.245 410.822 149.383L405.318 141.033ZM401.11 141.948C398.1 141.948 396.668 141.142 395.899 140.311L388.561 147.105C391.792 150.595 396.28 151.948 401.11 151.948V141.948ZM395.933 140.348C395.09 139.419 394.29 137.682 394.29 134.348H384.29C384.29 139.175 385.45 143.677 388.527 147.068L395.933 140.348ZM394.29 134.348V110.888H384.29V134.348H394.29ZM389.29 115.888H406.27V105.888H389.29V115.888ZM401.27 110.888V130.628H411.27V110.888H401.27ZM401.27 130.628C401.27 132.337 401.883 133.938 403.013 135.21L410.487 128.566C410.701 128.807 410.912 129.127 411.062 129.523C411.213 129.919 411.27 130.302 411.27 130.628H401.27ZM403.428 135.625C404.7 136.756 406.301 137.368 408.01 137.368V127.368C408.337 127.368 408.719 127.425 409.115 127.576C409.511 127.727 409.831 127.937 410.072 128.151L403.428 135.625ZM408.01 137.368C409.727 137.368 411.427 136.743 412.746 135.424L405.674 128.353C405.969 128.058 406.353 127.79 406.813 127.606C407.267 127.424 407.686 127.368 408.01 127.368V137.368ZM412.947 135.21C414.077 133.938 414.69 132.337 414.69 130.628H404.69C404.69 130.302 404.747 129.919 404.898 129.523C405.048 129.127 405.259 128.807 405.473 128.566L412.947 135.21ZM414.69 130.628V110.888H404.69V130.628H414.69ZM458.21 110.828L457.503 115.778L457.514 115.779L458.21 110.828ZM463.49 111.908L465.312 107.252L465.279 107.239L465.245 107.226L463.49 111.908ZM464.87 112.448H469.87V109.035L466.692 107.792L464.87 112.448ZM464.87 127.448L462.582 131.894L469.87 135.645V127.448H464.87ZM452.69 125.348V120.348H447.69V125.348H452.69ZM452.69 126.788H447.69V131.328L452.208 131.765L452.69 126.788ZM462.89 129.368L465.684 125.222L465.684 125.222L462.89 129.368ZM461.99 144.008L458.859 140.11L461.99 144.008ZM440.57 146.408L439.863 151.358L440.57 146.408ZM435.41 145.328L437.232 140.672L435.41 145.328ZM434.03 144.788H429.03V148.201L432.208 149.444L434.03 144.788ZM434.03 131.768L436.266 127.296L429.03 123.678V131.768H434.03ZM439.19 133.328L438.177 138.224L438.225 138.234L438.273 138.243L439.19 133.328ZM446.45 133.988V138.988H451.45V133.988H446.45ZM446.45 132.548H451.45V127.994L446.915 127.57L446.45 132.548ZM436.73 129.608L433.838 133.687L436.73 129.608ZM437.45 113.528L434.312 109.635V109.635L437.45 113.528ZM449.69 115.288C452.667 115.288 455.265 115.458 457.503 115.778L458.917 105.878C456.115 105.478 453.033 105.288 449.69 105.288V115.288ZM457.514 115.779C460.095 116.142 461.35 116.446 461.734 116.59L465.245 107.226C463.71 106.651 461.445 106.234 458.906 105.877L457.514 115.779ZM461.668 116.564L463.048 117.104L466.692 107.792L465.312 107.252L461.668 116.564ZM459.87 112.448V127.448H469.87V112.448H459.87ZM467.158 123.002C463.379 121.057 458.364 120.348 452.69 120.348V130.348C457.816 130.348 460.921 131.039 462.582 131.894L467.158 123.002ZM447.69 125.348V126.788H457.69V125.348H447.69ZM452.208 131.765C457.13 132.241 459.392 133.04 460.096 133.514L465.684 125.222C462.708 123.216 458.17 122.295 453.171 121.811L452.208 131.765ZM460.096 133.514C460.111 133.525 460.204 133.572 460.329 133.878C460.477 134.242 460.65 134.945 460.65 136.148H470.65C470.65 132.051 469.481 127.781 465.684 125.222L460.096 133.514ZM460.65 136.148C460.65 137.997 460.053 139.151 458.859 140.11L465.121 147.906C468.807 144.946 470.65 140.86 470.65 136.148H460.65ZM458.859 140.11C457.825 140.94 455.069 141.948 449.21 141.948V151.948C455.511 151.948 461.275 150.996 465.121 147.906L458.859 140.11ZM449.21 141.948C446.146 141.948 443.51 141.777 441.277 141.458L439.863 151.358C442.67 151.759 445.794 151.948 449.21 151.948V141.948ZM441.277 141.458C438.724 141.094 437.544 140.794 437.232 140.672L433.588 149.984C435.116 150.582 437.375 151.003 439.863 151.358L441.277 141.458ZM437.232 140.672L435.852 140.132L432.208 149.444L433.588 149.984L437.232 140.672ZM439.03 144.788V131.768H429.03V144.788H439.03ZM431.794 136.24C433.506 137.096 435.738 137.72 438.177 138.224L440.203 128.432C438.001 127.976 436.794 127.56 436.266 127.296L431.794 136.24ZM438.273 138.243C440.945 138.742 443.673 138.988 446.45 138.988V128.988C444.267 128.988 442.154 128.795 440.106 128.413L438.273 138.243ZM451.45 133.988V132.548H441.45V133.988H451.45ZM446.915 127.57C443.04 127.208 440.801 126.365 439.622 125.529L433.838 133.687C437.059 135.971 441.3 137.089 445.985 137.526L446.915 127.57ZM439.622 125.529C439.119 125.173 438.43 124.429 438.43 122.048H428.43C428.43 126.627 429.941 130.923 433.838 133.687L439.622 125.529ZM438.43 122.048C438.43 120.001 439.116 118.607 440.587 117.421L434.312 109.635C430.424 112.769 428.43 117.055 428.43 122.048H438.43ZM440.587 117.421C441.987 116.293 444.719 115.288 449.69 115.288V105.288C443.701 105.288 438.273 106.443 434.312 109.635L440.587 117.421Z" fill="#AD3636"/>
</g>
<g filter="url(#filter1_d)">
<circle cx="195.397" cy="283.573" r="62.7238" fill="white"/>
<circle cx="195.397" cy="283.573" r="63.7238" stroke="#A1C0ED" stroke-width="2"/>
</g>
<g filter="url(#filter2_d)">
<circle cx="195.397" cy="447.061" r="62.7238" fill="white"/>
<circle cx="195.397" cy="447.061" r="63.7238" stroke="#A1C0ED" stroke-width="2"/>
</g>

<defs>
<filter id="filter0_d" x="239.593" y="97.8882" width="239.057" height="68.06" filterUnits="userSpaceOnUse" color-interpolation-filters="sRGB">
<feFlood flood-opacity="0" result="BackgroundImageFix"/>
<feColorMatrix in="SourceAlpha" type="matrix" values="0 0 0 0 0 0 0 0 0 0 0 0 0 0 0 0 0 0 127 0"/>
<feOffset dy="6"/>
<feGaussianBlur stdDeviation="4"/>
<feColorMatrix type="matrix" values="0 0 0 0 0.6 0 0 0 0 0.20625 0 0 0 0 0.0375 0 0 0 0.5 0"/>
<feBlend mode="normal" in2="BackgroundImageFix" result="effect1_dropShadow"/>
<feBlend mode="normal" in="SourceGraphic" in2="effect1_dropShadow" result="shape"/>
</filter>
<filter id="filter1_d" x="122.673" y="216.849" width="145.448" height="145.448" filterUnits="userSpaceOnUse" color-interpolation-filters="sRGB">
<feFlood flood-opacity="0" result="BackgroundImageFix"/>
<feColorMatrix in="SourceAlpha" type="matrix" values="0 0 0 0 0 0 0 0 0 0 0 0 0 0 0 0 0 0 127 0"/>
<feOffset dy="6"/>
<feGaussianBlur stdDeviation="4"/>
<feColorMatrix type="matrix" values="0 0 0 0 0.6 0 0 0 0 0.20625 0 0 0 0 0.0375 0 0 0 0.5 0"/>
<feBlend mode="normal" in2="BackgroundImageFix" result="effect1_dropShadow"/>
<feBlend mode="normal" in="SourceGraphic" in2="effect1_dropShadow" result="shape"/>
</filter>
<filter id="filter2_d" x="122.673" y="380.337" width="145.448" height="145.448" filterUnits="userSpaceOnUse" color-interpolation-filters="sRGB">
<feFlood flood-opacity="0" result="BackgroundImageFix"/>
<feColorMatrix in="SourceAlpha" type="matrix" values="0 0 0 0 0 0 0 0 0 0 0 0 0 0 0 0 0 0 127 0"/>
<feOffset dy="6"/>
<feGaussianBlur stdDeviation="4"/>
<feColorMatrix type="matrix" values="0 0 0 0 0.6 0 0 0 0 0.20625 0 0 0 0 0.0375 0 0 0 0.5 0"/>
<feBlend mode="normal" in2="BackgroundImageFix" result="effect1_dropShadow"/>
<feBlend mode="normal" in="SourceGraphic" in2="effect1_dropShadow" result="shape"/>
</filter>
<clipPath id="clip0">
<rect width="140" height="140" fill="white" transform="translate(306 579.987)"/>
</clipPath>
<clipPath id="clip1">
<rect width="60" height="72" fill="white" transform="translate(355 613.987)"/>
</clipPath>
</defs>
</svg>