<svg width="140" height="140" viewBox="0 0 140 140" fill="none" xmlns="http://www.w3.org/2000/svg">
<path d="M124.499 24.5332C105.094 3.40872 74.1192 4.22312 70.0019 4.4303C65.8845 4.22312 34.903 3.40872 15.5046 24.5332C2.81006 38.3567 -2.12516 58.4025 0.83178 84.0491C0.887703 84.6349 2.21587 98.5227 11.4152 112.439C19.9226 125.305 37.0141 140.529 69.9599 139.986C70.5401 139.993 71.1134 140 71.6796 140C103.598 140 120.228 125.084 128.588 112.439C137.788 98.5227 139.123 84.6349 139.165 84.1205C142.129 58.4025 137.194 38.3567 124.499 24.5332Z" fill="#0C3D76"/>
<path d="M123.905 19.6823C104.681 -0.863519 73.8956 -0.127696 69.9949 0.0509014C66.0873 -0.127696 35.3085 -0.870663 16.0849 19.6823C3.43226 33.2058 -1.49599 52.68 1.41901 77.5265C1.47494 78.0981 2.81011 91.7358 11.9536 105.309C20.2722 117.661 36.7695 132.235 68.2473 132.235C68.7996 132.235 69.3658 132.227 69.925 132.22C70.4912 132.227 71.0575 132.235 71.6097 132.235C103.255 132.235 119.76 117.59 128.036 105.309C137.201 91.7001 138.508 78.1552 138.557 77.6408C141.486 52.7015 136.558 33.2058 123.905 19.6823Z" fill="#213664"/>
<path d="M69.9948 4.42314C65.3671 4.17311 -3.1249 1.73704 5.71796 77.1267C5.71796 77.1267 10.4295 128.827 69.9948 127.856C129.56 128.82 134.272 77.1267 134.272 77.1267C143.121 1.73704 74.6224 4.17311 69.9948 4.42314Z" fill="#6F9ACD"/>
<path d="M69.9948 26.8262C73.8955 26.6905 121.682 25.5689 134.293 52.78C127.288 2.30836 74.0562 4.20864 69.9948 4.42296C65.9334 4.2015 12.7084 2.30836 5.69702 52.7729C18.3077 25.5689 66.0942 26.6834 69.9948 26.8262Z" fill="#A1C0ED"/>
<path d="M69.9948 110.396C30.2963 110.817 14.1414 96.451 7.67529 86.1709C12.1282 100.945 26.3047 128.57 69.9948 127.863C113.685 128.57 127.861 100.945 132.314 86.1709C125.848 96.451 109.693 110.817 69.9948 110.396Z" fill="#3F76B7"/>
<path d="M89.5191 114.575C89.589 119.361 97.586 120.047 104.094 117.568C110.595 115.089 116.153 110.789 114.517 106.302C112.881 101.816 108.456 108.167 100.788 110.531C94.1397 112.575 89.4631 110.76 89.5191 114.575Z" fill="#73A6F3"/>
<path d="M102.486 80.6847L92.3015 70.5L102.486 60.3153C105.83 56.9712 105.83 51.5322 102.486 48.1805L92.8195 38.5138C91.1969 36.8913 89.0412 36 86.7483 36C84.4554 36 82.2996 36.8913 80.6771 38.5138L70.5 48.6985L60.3153 38.5062C56.9636 35.1621 51.5246 35.1697 48.1805 38.5138L38.5138 48.1805C36.8913 49.803 36 51.9512 36 54.2441C36 56.537 36.8913 58.6928 38.5138 60.3077L48.6985 70.4924L38.5138 80.6847C36.8913 82.3072 36 84.463 36 86.7559C36 89.0488 36.8913 91.2046 38.5138 92.8195L48.1805 102.486C51.5246 105.83 56.9712 105.83 60.3153 102.486L70.5 92.3015L80.6847 102.486C82.3072 104.109 84.4554 105 86.7483 105C89.0412 105 91.197 104.109 92.8119 102.486L102.486 92.8195C104.109 91.1969 105 89.0412 105 86.7559C105 84.463 104.109 82.3072 102.486 80.6847Z" fill="#A1C0ED"/>
<path d="M100.597 82.4445L88.5309 70.3706L100.597 58.3044C102.905 55.9963 102.905 52.2484 100.597 49.9403L90.9304 40.2736C88.6223 37.9654 84.8744 37.9654 82.5663 40.2736L70.5001 52.3398L58.4338 40.2736C56.1257 37.9654 52.3778 37.9654 50.0697 40.2812L40.3954 49.9403C38.0873 52.2484 38.0873 55.9886 40.3954 58.2968L52.4693 70.3706L40.3954 82.4445C38.0873 84.7526 38.0873 88.5004 40.3954 90.8086L50.0621 100.475C52.3702 102.783 56.1181 102.783 58.4262 100.475L70.4924 88.4014L82.5663 100.475C84.8744 102.783 88.6223 102.783 90.9228 100.475L100.597 90.8086C102.905 88.5004 102.913 84.7526 100.597 82.4445Z" fill="#0C3D76"/>
<path d="M100.597 82.4445L88.5308 70.3706V76.975L100.597 89.0489C100.871 89.3231 101.115 89.6202 101.321 89.9249C102.875 87.6244 102.639 84.4784 100.597 82.4445Z" fill="#213664"/>
<path d="M40.3953 82.4448C38.3614 84.4786 38.1177 87.6247 39.6716 89.9252C39.8773 89.6129 40.1211 89.3158 40.3953 89.0416L52.4692 76.9677V70.3633L40.3953 82.4448Z" fill="#213664"/>
<path d="M100.597 56.5447C100.871 56.8189 101.107 57.116 101.321 57.4284C102.867 55.1278 102.631 51.9818 100.597 49.9479L90.9303 40.2736C88.6222 37.9654 84.8743 37.9654 82.5662 40.2736L70.5 52.3398L58.4337 40.2736C56.1256 37.9654 52.3778 37.9654 50.0696 40.2812L40.3953 49.9403C38.3614 51.9742 38.1177 55.1202 39.6716 57.4207C39.8773 57.1084 40.1211 56.8189 40.3953 56.5447L50.062 46.878C52.3701 44.5699 56.118 44.5623 58.4261 46.8704L70.4924 58.9443L82.5586 46.8704C84.8667 44.5623 88.6146 44.5623 90.9227 46.8704L100.597 56.5447Z" fill="#213664"/>
</svg>
