<svg width="100" height="100" viewBox="0 0 100 100" fill="none" xmlns="http://www.w3.org/2000/svg">
<g clip-path="url(#clip0)">
<path opacity="0.1" d="M50.5164 95.3668C67.7349 95.3668 81.6932 92.8854 81.6932 89.8243C81.6932 86.7632 67.7349 84.2817 50.5164 84.2817C33.2979 84.2817 19.3396 86.7632 19.3396 89.8243C19.3396 92.8854 33.2979 95.3668 50.5164 95.3668Z" fill="#0C3D76"/>
<path d="M50.5161 15C56.3891 15 64.4923 35.4395 65.3926 36.003C66.293 36.5528 88.0537 39.1645 89.8544 43.3706C91.6551 47.5767 74.9086 62.7654 74.493 63.7963C74.0775 64.8272 78.2607 86.435 74.8255 89.2666C71.3903 92.0982 51.7073 81.0331 50.5022 81.0331C49.2972 81.0331 30.4176 92.1531 26.179 89.2666C21.9404 86.3801 26.8162 64.9647 26.5114 63.7963C26.2067 62.6279 9.23862 48.9237 11.1501 43.3706C13.0616 37.8037 34.8362 36.5803 35.6119 36.003C36.4291 35.4257 44.6431 15 50.5161 15Z" fill="#213664"/>
<path d="M50.5164 17.543C56.0016 17.543 63.1766 37.3364 64.0216 37.845C64.8527 38.3673 85.5053 40.0717 87.1951 43.9754C88.8712 47.8929 72.9004 61.6933 72.5125 62.6555C72.1247 63.6177 76.391 84.1259 73.1913 86.765C69.9777 89.4041 51.6383 78.7239 50.5302 78.7239C49.4082 78.7239 31.8168 89.4591 27.8692 86.765C23.9215 84.0709 29.1989 64.1125 28.908 63.0266C28.6171 61.927 12.0646 49.1575 13.8514 43.9754C15.6383 38.7934 36.6649 38.3811 37.399 37.845C38.1193 37.3089 45.045 17.543 50.5164 17.543Z" fill="url(#paint0_linear)"/>
<path d="M19.1151 45.2812C18.7826 41.5837 30.9996 39.5768 31.4845 43.8929C31.9554 48.2227 19.5583 50.312 19.1151 45.2812Z" fill="white"/>
<path d="M34.6146 42.7379C34.5592 40.3599 38.2022 40.2637 38.3684 42.2155C38.5346 44.3873 34.67 44.9509 34.6146 42.7379Z" fill="white"/>
<path d="M30.7224 49.3639C29.5589 48.388 31.2904 44.0444 35.9306 44.0444C40.5709 44.0444 42.2053 48.333 41.2496 49.3639C40.4185 50.2711 39.3935 46.5736 36.0414 46.5736C32.6894 46.5598 31.7059 50.1886 30.7224 49.3639Z" fill="#0C3D76"/>
<path d="M59.2703 49.3639C58.1068 48.388 59.8382 44.0444 64.4785 44.0444C69.1187 44.0444 70.7532 48.333 69.7974 49.3639C68.9663 50.2711 67.9413 46.5736 64.5893 46.5736C61.2372 46.5598 60.2538 50.1886 59.2703 49.3639Z" fill="#0C3D76"/>
<g opacity="0.6">
<g opacity="0.6">
<g opacity="0.6">
<path opacity="0.6" d="M39.1583 56.7869C39.1583 59.1786 37.039 61.1305 34.4211 61.1305C31.8031 61.1305 29.6838 59.1924 29.6838 56.7869C29.6838 54.3952 31.8031 52.4434 34.4211 52.4434C37.039 52.4571 39.1583 54.3952 39.1583 56.7869Z" fill="#FF5F82"/>
</g>
<g opacity="0.6">
<path opacity="0.6" d="M70.5872 56.7864C70.5872 59.1781 68.4679 61.13 65.85 61.13C63.2321 61.13 61.1128 59.1919 61.1128 56.7864C61.1128 54.3947 63.2321 52.4429 65.85 52.4429C68.4679 52.4566 70.5872 54.3947 70.5872 56.7864Z" fill="#FF5F82"/>
</g>
</g>
</g>
<path d="M45.4051 55.6316C46.2362 54.9718 55.4474 54.9718 56.2923 55.6316C57.1234 56.2913 55.7106 64.2912 50.9734 64.2912C46.2223 64.3049 44.574 56.2913 45.4051 55.6316Z" fill="#213664"/>
<path d="M50.9874 60.2498C50.5857 60.291 48.882 58.6828 47.7877 59.4526C46.6934 60.2086 48.7434 63.535 51.0428 63.48C53.3421 63.425 54.8935 60.1536 53.9378 59.4526C52.9682 58.7515 51.7631 60.1811 50.9874 60.2498Z" fill="#F982B3"/>
</g>
<defs>
<linearGradient id="paint0_linear" x1="32.1985" y1="35.1784" x2="75.0509" y2="87.0515" gradientUnits="userSpaceOnUse">
<stop offset="0.0483871" stop-color="#FFF466"/>
<stop offset="0.2848" stop-color="#FFED60"/>
<stop offset="0.6222" stop-color="#FFDA51"/>
<stop offset="0.8602" stop-color="#FFC943"/>
</linearGradient>
<clipPath id="clip0">
<rect width="100" height="100" fill="white"/>
</clipPath>
</defs>
</svg>
