<svg width="60" height="60" viewBox="0 0 60 60" fill="none" xmlns="http://www.w3.org/2000/svg">
<path d="M16.7835 50.6041L6.36331 31.2703C5.62452 29.8987 5.8847 28.1866 6.99289 27.1106L7.71241 26.4135C8.91696 25.2475 10.7704 25.1704 12.0616 26.2336L19.9217 32.7125C20.9336 33.5477 22.4368 33.1879 22.9893 31.9802L33.7307 8.52514C35.1023 5.53143 38.6356 4.34937 41.4527 5.94259L50.2282 10.9085C53.0645 12.5114 53.9832 16.26 52.2294 19.0609L32.2595 50.9318C31.2317 52.5699 29.4714 53.5593 27.5795 53.5593H21.6531C19.6294 53.5593 17.7664 52.4286 16.7835 50.6041Z" fill="#FF1E1E"/>
<path d="M9.22534 29.2725L20.577 49.6375H28.5367L50.0612 15.2901L37.9739 8.44824L23.333 40.4154L9.22534 29.2725Z" fill="white"/>
</svg>
