<svg width="100" height="104" viewBox="0 0 100 104" fill="none" xmlns="http://www.w3.org/2000/svg">
<g filter="url(#filter0_d)">
<path d="M27.9726 84.34L10.6057 52.117C9.37436 49.831 9.808 46.9775 11.655 45.1841L12.8542 44.0224C14.8618 42.079 17.9508 41.9505 20.1029 43.7226L33.203 54.5207C34.8894 55.9126 37.3949 55.313 38.3157 53.3001L56.218 14.2084C58.504 9.2189 64.3929 7.24879 69.088 9.90415L83.7139 18.1808C88.4411 20.8522 89.9722 27.0998 87.0491 31.7681L53.7661 84.8861C52.0529 87.6164 49.1192 89.2653 45.9659 89.2653H36.0886C32.7159 89.2653 29.6108 87.3808 27.9726 84.34Z" fill="white"/>
<path d="M15.3757 48.7872L34.2952 82.7288H47.5613L83.4355 25.4832L63.2901 14.0801L38.8886 67.3587L15.3757 48.7872Z" fill="#213664"/>
</g>
<defs>
<filter id="filter0_d" x="-8" y="-2" width="116" height="116" filterUnits="userSpaceOnUse" color-interpolation-filters="sRGB">
<feFlood flood-opacity="0" result="BackgroundImageFix"/>
<feColorMatrix in="SourceAlpha" type="matrix" values="0 0 0 0 0 0 0 0 0 0 0 0 0 0 0 0 0 0 127 0"/>
<feOffset dy="6"/>
<feGaussianBlur stdDeviation="4"/>
<feColorMatrix type="matrix" values="0 0 0 0 0.678431 0 0 0 0 0.211765 0 0 0 0 0.211765 0 0 0 1 0"/>
<feBlend mode="normal" in2="BackgroundImageFix" result="effect1_dropShadow"/>
<feBlend mode="normal" in="SourceGraphic" in2="effect1_dropShadow" result="shape"/>
</filter>
</defs>
</svg>
