<svg xmlns="http://www.w3.org/2000/svg" width="717" height="862" viewBox="0 0 717 862" fill="none">
<path d="M10.8414 106.352C12.8855 82.6976 32.2652 64.3709 55.9719 63.0679C262.064 51.7398 441.074 32.7899 655.431 60.567C675.358 63.1491 691.391 78.2509 694.919 98.0319C738.358 341.606 705.499 591.779 689.985 685.146C686.262 707.55 666.784 723.303 644.072 723.303H63.6321C39.7871 723.303 19.6609 705.81 17.0566 682.108C7.21741 592.559 -11.6932 367.124 10.8414 106.352Z" fill="#213664"/>
<path d="M32.6307 132.091C34.679 108.456 54.064 90.1677 77.7531 88.8805C269.007 78.4878 435.554 61.4171 634.483 86.4573C654.401 88.9645 670.472 104.003 674.012 123.764C713.533 344.342 684.077 570.241 669.419 657.955C665.687 680.29 646.243 695.987 623.6 695.987H84.8815C61.0849 695.987 41.0028 678.679 38.3943 655.026C29.1372 571.085 12.2303 367.493 32.6307 132.091Z" fill="#73A6F3"/>






<path d="M102.294 37.1048C105.418 17.2546 123.849 4.54247 143.941 4.21922C291.248 1.84929 419.658 -1.99477 573.272 3.78027C587.966 4.33268 602.242 11.4322 608.14 24.902C624.434 62.1187 614.306 98.472 604.401 120.527C598.105 134.549 583.473 141.883 568.103 141.883H145.418C127.273 141.883 110.596 131.558 106.116 113.975C101.297 95.0635 97.4398 67.9544 102.294 37.1048Z" fill="#213664"/>
<path d="M118.19 42.2979C121.06 22.509 139.498 9.91992 159.492 9.60197C296.239 7.42735 415.744 3.96478 558.38 9.18336C572.94 9.71605 587.18 16.6641 592.895 30.0659C606.927 62.9711 598.359 94.9828 589.436 115.091C583.262 129.004 568.715 136.19 553.494 136.19H160.579C142.563 136.19 125.954 126.021 121.633 108.531C117.494 91.7749 114.377 68.586 118.19 42.2979Z" fill="white"/>
<g clip-path="url(#clip3)">
<path d="M155.401 88.959C151.909 88.959 149.145 88.322 147.117 87.0511C145.085 85.7802 143.651 83.9944 142.818 81.6966C141.979 79.3959 141.563 76.6903 141.563 73.574V56.9361C141.563 53.7454 141.979 51.0012 142.815 48.7034C143.651 46.4056 145.082 44.6287 147.114 43.3757C149.145 42.1256 151.906 41.4976 155.401 41.4976C158.816 41.4976 161.484 42.0571 163.4 43.1792C165.315 44.3013 166.675 45.8669 167.472 47.8789C168.269 49.8939 168.668 52.2096 168.668 54.8288V58.8171H158.703V54.2037C158.703 53.293 158.655 52.4179 158.56 51.5815C158.465 50.7452 158.191 50.0517 157.733 49.5011C157.278 48.9504 156.498 48.6736 155.398 48.6736C154.336 48.6736 153.548 48.9594 153.036 49.5278C152.524 50.0963 152.2 50.8107 152.069 51.6649C151.935 52.5191 151.87 53.421 151.87 54.3704V76.0772C151.87 77.104 151.956 78.0416 152.126 78.8988C152.295 79.753 152.637 80.4376 153.152 80.9495C153.664 81.4615 154.413 81.7174 155.401 81.7174C156.463 81.7174 157.224 81.4436 157.679 80.89C158.135 80.3394 158.42 79.628 158.533 78.753C158.646 77.8809 158.703 76.988 158.703 76.0742V71.2376H168.668V75.2259C168.668 77.8481 168.278 80.1935 167.502 82.2621C166.722 84.3337 165.375 85.9647 163.459 87.1612C161.54 88.3607 158.854 88.959 155.401 88.959Z" fill="black"/>
<path d="M187.458 88.959C184.004 88.959 181.271 88.3518 179.257 87.1345C177.243 85.9201 175.803 84.173 174.929 81.893C174.054 79.6131 173.62 76.8987 173.62 73.7467V56.5968C173.62 53.4061 174.057 50.6916 174.929 48.4504C175.801 46.2092 177.243 44.4918 179.257 43.2953C181.268 42.0958 184.001 41.4976 187.458 41.4976C190.95 41.4976 193.711 42.0958 195.742 43.2923C197.774 44.4888 199.226 46.2092 200.097 48.4474C200.969 50.6886 201.406 53.4031 201.406 56.5938V73.7437C201.406 76.8957 200.969 79.6131 200.097 81.8901C199.223 84.17 197.771 85.9171 195.742 87.1315C193.711 88.3518 190.95 88.959 187.458 88.959ZM187.458 81.7234C188.52 81.7234 189.299 81.4585 189.793 80.9257C190.287 80.3929 190.608 79.7114 190.76 78.875C190.911 78.0386 190.989 77.1844 190.989 76.3123V54.0906C190.989 53.1799 190.911 52.3167 190.76 51.4982C190.608 50.6827 190.284 50.007 189.793 49.4743C189.299 48.9415 188.52 48.6766 187.458 48.6766C186.47 48.6766 185.73 48.9415 185.236 49.4743C184.742 50.007 184.418 50.6797 184.269 51.4982C184.117 52.3167 184.04 53.1799 184.04 54.0906V76.3123C184.04 77.1874 184.106 78.0416 184.239 78.875C184.373 79.7114 184.677 80.3959 185.15 80.9257C185.626 81.4585 186.393 81.7234 187.458 81.7234Z" fill="black"/>
<path d="M207.614 88.2743V42.1255H214.789L224.242 64.3472V42.1255H232.669V88.2773H225.78L216.327 64.3472V88.2773H207.614V88.2743Z" fill="black"/>
<path d="M251.573 88.9589C248.384 88.9589 245.87 88.2952 244.029 86.9648C242.188 85.6343 240.879 83.7651 240.1 81.3513C239.32 78.9404 238.934 76.1575 238.934 73.0055V57.5075C238.934 54.2424 239.35 51.4118 240.186 49.0188C241.022 46.6258 242.453 44.7745 244.484 43.4649C246.516 42.1553 249.276 41.5005 252.768 41.5005C256.186 41.5005 258.869 42.069 260.827 43.2089C262.781 44.3489 264.176 45.9264 265.012 47.9384C265.845 49.9534 266.264 52.3077 266.264 55.0043V57.9658H256.299V54.2037C256.299 53.2155 256.234 52.3048 256.1 51.4684C255.966 50.632 255.663 49.9594 255.19 49.4445C254.714 48.9325 253.946 48.6765 252.884 48.6765C251.784 48.6765 250.987 48.9712 250.493 49.5605C249.999 50.1499 249.687 50.8821 249.553 51.7541C249.419 52.6292 249.354 53.54 249.354 54.4894V75.8539C249.354 76.8808 249.458 77.8392 249.666 78.7321C249.874 79.625 250.255 80.3483 250.805 80.8959C251.356 81.4465 252.144 81.7233 253.167 81.7233C254.229 81.7233 255.047 81.4376 255.615 80.8691C256.183 80.3006 256.582 79.5595 256.811 78.6458C257.04 77.732 257.153 76.7647 257.153 75.7408V70.3268H252.998V64.3442H266.321V88.2744H259.601L259.03 84.4557C258.423 85.7474 257.531 86.8189 256.353 87.6761C255.178 88.5303 253.584 88.9589 251.573 88.9589Z" fill="black"/>
<path d="M272.698 88.2743V42.1255H285.397C288.508 42.1255 291.206 42.4678 293.482 43.1523C295.76 43.8369 297.533 45.0602 298.806 46.8282C300.079 48.5932 300.713 51.0933 300.713 54.3197C300.713 56.2187 300.561 57.9093 300.258 59.3915C299.955 60.8737 299.395 62.1536 298.577 63.237C297.759 64.3204 296.593 65.2222 295.076 65.9425L301.397 88.2773H290.864L285.795 67.5944H282.892V88.2773H272.698V88.2743ZM282.889 61.725H285.736C287.179 61.725 288.297 61.469 289.094 60.9571C289.891 60.4451 290.451 59.704 290.775 58.7337C291.096 57.7664 291.26 56.5967 291.26 55.2305C291.26 53.2572 290.9 51.7184 290.177 50.6141C289.454 49.5129 288.128 48.9622 286.191 48.9622H282.889V61.725Z" fill="black"/>
<path d="M304.643 88.2743L313.352 42.1255H324.968L333.568 88.2773H324.171L322.633 78.5356H315.857L314.262 88.2773H304.643V88.2743ZM316.77 72.434H321.666L319.218 54.4299L316.77 72.434Z" fill="black"/>
<path d="M339.945 88.2743V49.7004H333V42.1255H357.085V49.7034H350.196V88.2773H339.945V88.2743Z" fill="black"/>
<path d="M374.45 88.9589C370.92 88.9589 368.159 88.3785 366.166 87.2207C364.173 86.0629 362.778 84.3723 361.981 82.1489C361.184 79.9256 360.785 77.2022 360.785 73.9728V42.1255H370.863V75.5146C370.863 76.464 370.937 77.4135 371.092 78.363C371.244 79.3124 371.577 80.0922 372.089 80.6994C372.6 81.3066 373.389 81.6102 374.453 81.6102C375.554 81.6102 376.351 81.3066 376.845 80.6994C377.339 80.0922 377.651 79.3124 377.785 78.363C377.919 77.4135 377.984 76.464 377.984 75.5146V42.1255H388.119V73.9758C388.119 77.2052 387.711 79.9285 386.893 82.1519C386.075 84.3753 384.68 86.0658 382.708 87.2237C380.733 88.3785 377.981 88.9589 374.45 88.9589Z" fill="black"/>
<path d="M394.609 88.2743V42.1255H404.803V81.381H415.396V88.2743H394.609Z" fill="black"/>
<path d="M417.612 88.2743L426.325 42.1255H437.941L446.54 88.2773H437.144L435.606 78.5356H428.83L427.235 88.2773H417.612V88.2743ZM429.74 72.434H434.636L432.188 54.4299L429.74 72.434Z" fill="black"/>
<path d="M452.915 88.2743V49.7004H445.969V42.1255H470.055V49.7034H463.165V88.2773H452.915V88.2743Z" fill="black"/>
<path d="M474.153 88.2743V42.1255H484.347V88.2773H474.153V88.2743Z" fill="black"/>
<path d="M504.447 88.9589C500.993 88.9589 498.26 88.3517 496.246 87.1344C494.232 85.92 492.792 84.1729 491.918 81.893C491.043 79.6131 490.609 76.8986 490.609 73.7466V56.5967C490.609 53.406 491.046 50.6916 491.918 48.4503C492.789 46.2091 494.232 44.4918 496.246 43.2952C498.257 42.0987 500.99 41.5005 504.447 41.5005C507.939 41.5005 510.699 42.0987 512.731 43.2952C514.763 44.4918 516.214 46.2121 517.086 48.4503C517.957 50.6916 518.395 53.406 518.395 56.5967V73.7466C518.395 76.8986 517.957 79.6161 517.086 81.893C516.211 84.1729 514.76 85.92 512.731 87.1344C510.702 88.3517 507.939 88.9589 504.447 88.9589ZM504.447 81.7233C505.509 81.7233 506.288 81.4584 506.782 80.9257C507.276 80.3929 507.597 79.7113 507.749 78.8749C507.9 78.0386 507.978 77.1844 507.978 76.3123V54.0906C507.978 53.1798 507.9 52.3167 507.749 51.4982C507.597 50.6826 507.273 50.007 506.782 49.4742C506.288 48.9414 505.509 48.6765 504.447 48.6765C503.459 48.6765 502.718 48.9414 502.225 49.4742C501.731 50.007 501.407 50.6797 501.258 51.4982C501.106 52.3167 501.029 53.1798 501.029 54.0906V76.3123C501.029 77.1873 501.094 78.0416 501.228 78.8749C501.362 79.7113 501.663 80.3959 502.138 80.9257C502.614 81.4584 503.385 81.7233 504.447 81.7233Z" fill="black"/>
<path d="M524.605 88.2743V42.1255H531.78L541.234 64.3472V42.1255H549.661V88.2773H542.771L533.318 64.3442V88.2743H524.605Z" fill="black"/>
<path d="M568.79 88.959C565.905 88.959 563.495 88.447 561.559 87.4202C559.622 86.3933 558.162 84.8099 557.174 82.6639C556.187 80.518 555.636 77.735 555.523 74.3181L564.236 73.0085C564.272 74.9849 564.453 76.5802 564.777 77.7946C565.099 79.0119 565.554 79.884 566.143 80.4168C566.732 80.9495 567.443 81.2144 568.279 81.2144C569.34 81.2144 570.034 80.8543 570.358 80.131C570.679 79.4107 570.843 78.6488 570.843 77.8511C570.843 75.9522 570.388 74.3479 569.477 73.0353C568.567 71.7227 567.333 70.4042 565.777 69.0767L561.791 65.6003C560.045 64.1181 558.572 62.4394 557.38 60.5583C556.184 58.6772 555.586 56.3527 555.586 53.5787C555.586 49.6677 556.743 46.6765 559.06 44.6049C561.369 42.5333 564.519 41.4976 568.505 41.4976C570.971 41.4976 572.955 41.9172 574.454 42.7506C575.953 43.587 577.092 44.6793 577.872 46.0276C578.648 47.3759 579.18 48.8016 579.466 50.3017C579.752 51.8018 579.912 53.2364 579.951 54.6026L571.182 55.686C571.143 54.3198 571.057 53.1322 570.926 52.1262C570.792 51.1202 570.518 50.3404 570.099 49.7898C569.68 49.2391 569.037 48.9623 568.163 48.9623C567.214 48.9623 566.521 49.3612 566.083 50.1588C565.646 50.9565 565.429 51.7542 565.429 52.5518C565.429 54.2603 565.836 55.6562 566.654 56.7396C567.469 57.823 568.543 58.9541 569.873 60.1297L573.689 63.4901C575.7 65.1985 577.399 67.1361 578.785 69.3029C580.171 71.4668 580.864 74.1455 580.864 77.3362C580.864 79.5 580.37 81.4674 579.383 83.2324C578.395 84.9974 577 86.3933 575.197 87.4202C573.392 88.4441 571.259 88.959 568.79 88.959Z" fill="black"/>
<path d="M155.401 91.8491C151.909 91.8491 149.145 91.2122 147.117 89.9412C145.085 88.6703 143.651 86.8845 142.818 84.5867C141.979 82.289 141.563 79.5805 141.563 76.4672V59.8292C141.563 56.6385 141.979 53.8943 142.815 51.5965C143.651 49.2987 145.082 47.5218 147.114 46.2688C149.145 45.0157 151.906 44.3877 155.398 44.3877C158.816 44.3877 161.481 44.9473 163.4 46.0694C165.315 47.1914 166.675 48.757 167.472 50.7691C168.269 52.7841 168.668 55.0997 168.668 57.7189V61.7073H158.703V57.0939C158.703 56.1831 158.655 55.308 158.56 54.4717C158.465 53.6353 158.191 52.9418 157.733 52.3912C157.278 51.8406 156.498 51.5638 155.398 51.5638C154.336 51.5638 153.548 51.8495 153.036 52.418C152.524 52.9865 152.2 53.7008 152.069 54.555C151.935 55.4092 151.87 56.3111 151.87 57.2606V78.9673C151.87 79.9942 151.956 80.9317 152.126 81.7889C152.295 82.6432 152.637 83.3277 153.152 83.8397C153.664 84.3516 154.413 84.6076 155.401 84.6076C156.463 84.6076 157.224 84.3337 157.679 83.7801C158.135 83.2295 158.42 82.5182 158.533 81.6431C158.646 80.771 158.703 79.8781 158.703 78.9643V74.1218H168.668V78.1101C168.668 80.7323 168.278 83.0777 167.502 85.1463C166.722 87.2179 165.375 88.8489 163.459 90.0454C161.54 91.2509 158.854 91.8491 155.401 91.8491Z" fill="#FD662E"/>
<path d="M187.458 91.8491C184.004 91.8491 181.271 91.2419 179.257 90.0245C177.243 88.8102 175.803 87.063 174.929 84.7831C174.054 82.5032 173.62 79.7888 173.62 76.6368V59.4868C173.62 56.2962 174.057 53.5817 174.929 51.3405C175.801 49.0993 177.243 47.3819 179.257 46.1854C181.268 44.9889 184.001 44.3906 187.458 44.3906C190.95 44.3906 193.711 44.9889 195.742 46.1854C197.774 47.3819 199.226 49.1022 200.097 51.3405C200.969 53.5817 201.406 56.2962 201.406 59.4868V76.6368C201.406 79.7888 200.969 82.5062 200.097 84.7831C199.223 87.063 197.771 88.8102 195.742 90.0245C193.711 91.2419 190.95 91.8491 187.458 91.8491ZM187.458 84.6135C188.52 84.6135 189.299 84.3486 189.793 83.8158C190.287 83.283 190.608 82.6014 190.76 81.7651C190.911 80.9287 190.989 80.0745 190.989 79.2024V56.9807C190.989 56.07 190.911 55.2068 190.76 54.3883C190.608 53.5728 190.284 52.8971 189.793 52.3644C189.299 51.8316 188.52 51.5667 187.458 51.5667C186.47 51.5667 185.73 51.8316 185.236 52.3644C184.742 52.8971 184.418 53.5698 184.269 54.3883C184.117 55.2068 184.04 56.07 184.04 56.9807V79.2024C184.04 80.0775 184.106 80.9317 184.239 81.7651C184.373 82.6014 184.677 83.286 185.15 83.8158C185.626 84.3486 186.393 84.6135 187.458 84.6135Z" fill="#FD662E"/>
<path d="M207.614 91.1674V45.0156H214.789L224.242 67.2373V45.0156H232.669V91.1674H225.78L216.327 67.2373V91.1674H207.614Z" fill="#FD662E"/>
<path d="M251.573 91.849C248.384 91.849 245.87 91.1853 244.029 89.8548C242.188 88.5244 240.879 86.6552 240.1 84.2414C239.32 81.8305 238.934 79.0476 238.934 75.8956V60.4005C238.934 57.1355 239.35 54.3049 240.186 51.9119C241.022 49.5189 242.453 47.6676 244.484 46.358C246.516 45.0484 249.276 44.3936 252.768 44.3936C256.186 44.3936 258.869 44.962 260.827 46.102C262.781 47.242 264.176 48.8194 265.012 50.8315C265.845 52.8465 266.264 55.2008 266.264 57.8974V60.8589H256.299V57.0938C256.299 56.1056 256.234 55.1948 256.1 54.3585C255.966 53.5221 255.663 52.8495 255.19 52.3345C254.714 51.8226 253.946 51.5666 252.884 51.5666C251.784 51.5666 250.987 51.8613 250.493 52.4506C249.999 53.0399 249.687 53.7721 249.553 54.6442C249.419 55.5193 249.354 56.43 249.354 57.3795V78.744C249.354 79.7708 249.458 80.7292 249.666 81.6222C249.874 82.5151 250.255 83.2383 250.805 83.786C251.356 84.3366 252.144 84.6134 253.167 84.6134C254.229 84.6134 255.047 84.3277 255.615 83.7592C256.183 83.1907 256.582 82.4496 256.811 81.5358C257.04 80.6221 257.153 79.6548 257.153 78.6309V73.2168H252.998V67.2343H266.321V91.1644H259.601L259.03 87.3457C258.423 88.6375 257.531 89.709 256.353 90.5662C255.178 91.4234 253.584 91.849 251.573 91.849Z" fill="#FD662E"/>
<path d="M272.698 91.1674V45.0156H285.397C288.508 45.0156 291.206 45.3579 293.482 46.0425C295.76 46.727 297.533 47.9503 298.806 49.7183C300.079 51.4833 300.713 53.9835 300.713 57.2099C300.713 59.1088 300.561 60.7994 300.258 62.2816C299.955 63.7639 299.395 65.0437 298.577 66.1271C297.759 67.2105 296.593 68.1124 295.076 68.8326L301.397 91.1674H290.864L285.795 70.4845H282.892V91.1674H272.698ZM282.889 64.6151H285.736C287.179 64.6151 288.297 64.3591 289.094 63.8472C289.891 63.3353 290.451 62.5941 290.775 61.6238C291.096 60.6565 291.26 59.4868 291.26 58.1206C291.26 56.1473 290.9 54.6085 290.177 53.5043C289.454 52.403 288.128 51.8524 286.191 51.8524H282.889V64.6151Z" fill="#FD662E"/>
<path d="M304.643 91.1674L313.355 45.0156H324.971L333.571 91.1674H324.174L322.636 81.4257H315.86L314.265 91.1674H304.643ZM316.77 75.3271H321.666L319.218 57.323L316.77 75.3271Z" fill="#FD662E"/>
<path d="M339.945 91.1674V52.5935H333V45.0156H357.085V52.5935H350.196V91.1674H339.945Z" fill="#FD662E"/>
<path d="M374.45 91.849C370.92 91.849 368.159 91.2686 366.166 90.1108C364.173 88.953 362.778 87.2624 361.981 85.0391C361.184 82.8157 360.785 80.0923 360.785 76.8629V45.0156H370.863V78.4047C370.863 79.3542 370.937 80.3036 371.092 81.2531C371.244 82.2026 371.577 82.9824 372.089 83.5896C372.6 84.1967 373.389 84.5003 374.453 84.5003C375.554 84.5003 376.351 84.1967 376.845 83.5896C377.339 82.9824 377.651 82.2026 377.785 81.2531C377.919 80.3036 377.984 79.3542 377.984 78.4047V45.0156H388.119V76.8659C388.119 80.0953 387.711 82.8187 386.893 85.042C386.075 87.2654 384.68 88.956 382.708 90.1138C380.733 91.2716 377.981 91.849 374.45 91.849Z" fill="#FD662E"/>
<path d="M394.609 91.1674V45.0156H404.803V84.2711H415.396V91.1644H394.609V91.1674Z" fill="#FD662E"/>
<path d="M417.612 91.1674L426.325 45.0156H437.941L446.54 91.1674H437.144L435.606 81.4257H428.83L427.235 91.1674H417.612ZM429.74 75.3271H434.636L432.188 57.323L429.74 75.3271Z" fill="#FD662E"/>
<path d="M452.915 91.1674V52.5935H445.969V45.0156H470.055V52.5935H463.165V91.1674H452.915Z" fill="#FD662E"/>
<path d="M474.153 91.1674V45.0156H484.347V91.1674H474.153Z" fill="#FD662E"/>
<path d="M504.447 91.8491C500.993 91.8491 498.26 91.2419 496.246 90.0245C494.232 88.8102 492.792 87.063 491.918 84.7831C491.043 82.5032 490.609 79.7888 490.609 76.6368V59.4868C490.609 56.2962 491.046 53.5817 491.918 51.3405C492.789 49.0993 494.232 47.3819 496.246 46.1854C498.257 44.9889 500.99 44.3906 504.447 44.3906C507.939 44.3906 510.699 44.9889 512.731 46.1854C514.763 47.3819 516.214 49.1022 517.086 51.3405C517.957 53.5817 518.395 56.2962 518.395 59.4868V76.6368C518.395 79.7888 517.957 82.5062 517.086 84.7831C516.211 87.063 514.76 88.8102 512.731 90.0245C510.702 91.2419 507.939 91.8491 504.447 91.8491ZM504.447 84.6135C505.509 84.6135 506.288 84.3486 506.782 83.8158C507.276 83.283 507.597 82.6014 507.749 81.7651C507.9 80.9287 507.978 80.0745 507.978 79.2024V56.9807C507.978 56.07 507.9 55.2068 507.749 54.3883C507.597 53.5728 507.273 52.8971 506.782 52.3644C506.288 51.8316 505.509 51.5667 504.447 51.5667C503.459 51.5667 502.718 51.8316 502.225 52.3644C501.731 52.8971 501.407 53.5698 501.258 54.3883C501.106 55.2068 501.029 56.07 501.029 56.9807V79.2024C501.029 80.0775 501.094 80.9317 501.228 81.7651C501.362 82.6014 501.663 83.286 502.138 83.8158C502.614 84.3486 503.385 84.6135 504.447 84.6135Z" fill="#FD662E"/>
<path d="M524.605 91.1674V45.0156H531.78L541.234 67.2373V45.0156H549.661V91.1674H542.771L533.318 67.2373V91.1674H524.605Z" fill="#FD662E"/>
<path d="M568.79 91.8491C565.905 91.8491 563.495 91.3371 561.559 90.3103C559.622 89.2834 558.162 87.7 557.174 85.554C556.187 83.408 555.636 80.6251 555.523 77.2082L564.236 75.8986C564.272 77.8749 564.453 79.4703 564.777 80.6847C565.099 81.902 565.554 82.7741 566.143 83.3068C566.732 83.8396 567.443 84.1045 568.279 84.1045C569.341 84.1045 570.034 83.7444 570.358 83.0211C570.679 82.3008 570.843 81.5389 570.843 80.7412C570.843 78.8423 570.388 77.238 569.477 75.9254C568.567 74.6128 567.333 73.2943 565.777 71.9668L561.791 68.4904C560.045 67.0082 558.572 65.3295 557.38 63.4484C556.184 61.5673 555.586 59.2428 555.586 56.4688C555.586 52.5578 556.743 49.5666 559.06 47.495C561.375 45.4264 564.528 44.3906 568.514 44.3906C570.98 44.3906 572.964 44.8103 574.463 45.6437C575.962 46.48 577.101 47.5724 577.881 48.9207C578.657 50.269 579.189 51.6947 579.475 53.1948C579.761 54.6949 579.921 56.1295 579.96 57.4956L571.191 58.579C571.152 57.2129 571.066 56.0253 570.935 55.0193C570.801 54.0133 570.527 53.2335 570.108 52.6828C569.689 52.1322 569.046 51.8554 568.171 51.8554C567.223 51.8554 566.53 52.2542 566.092 53.0519C565.655 53.8496 565.438 54.6472 565.438 55.4449C565.438 57.1534 565.845 58.5493 566.663 59.6327C567.478 60.7161 568.552 61.8471 569.882 63.0228L573.698 66.3831C575.709 68.0916 577.408 70.0292 578.794 72.196C580.18 74.3598 580.873 77.0386 580.873 80.2293C580.873 82.3931 580.379 84.3605 579.392 86.1255C578.404 87.8905 577.009 89.2864 575.206 90.3133C573.392 91.3371 571.259 91.8491 568.79 91.8491Z" fill="#FD662E"/>
<path d="M155.401 88.959C151.909 88.959 149.145 88.322 147.117 87.0511C145.085 85.7802 143.651 83.9944 142.818 81.6966C141.979 79.3959 141.563 76.6903 141.563 73.574V56.9361C141.563 53.7454 141.979 51.0012 142.815 48.7034C143.651 46.4056 145.082 44.6287 147.114 43.3757C149.145 42.1256 151.906 41.4976 155.401 41.4976C158.816 41.4976 161.484 42.0571 163.4 43.1792C165.315 44.3013 166.675 45.8669 167.472 47.8789C168.269 49.8939 168.668 52.2096 168.668 54.8288V58.8171H158.703V54.2037C158.703 53.293 158.655 52.4179 158.56 51.5815C158.465 50.7452 158.191 50.0517 157.733 49.5011C157.278 48.9504 156.498 48.6736 155.398 48.6736C154.336 48.6736 153.548 48.9594 153.036 49.5278C152.524 50.0963 152.2 50.8107 152.069 51.6649C151.935 52.5191 151.87 53.421 151.87 54.3704V76.0772C151.87 77.104 151.956 78.0416 152.126 78.8988C152.295 79.753 152.637 80.4376 153.152 80.9495C153.664 81.4615 154.413 81.7174 155.401 81.7174C156.463 81.7174 157.224 81.4436 157.679 80.89C158.135 80.3394 158.42 79.628 158.533 78.753C158.646 77.8809 158.703 76.988 158.703 76.0742V71.2376H168.668V75.2259C168.668 77.8481 168.278 80.1935 167.502 82.2621C166.722 84.3337 165.375 85.9647 163.459 87.1612C161.54 88.3607 158.854 88.959 155.401 88.959Z" fill="#AD3636"/>
<path d="M187.458 88.959C184.004 88.959 181.271 88.3518 179.257 87.1345C177.243 85.9201 175.803 84.173 174.929 81.893C174.054 79.6131 173.62 76.8987 173.62 73.7467V56.5968C173.62 53.4061 174.057 50.6916 174.929 48.4504C175.801 46.2092 177.243 44.4918 179.257 43.2953C181.268 42.0958 184.001 41.4976 187.458 41.4976C190.95 41.4976 193.711 42.0958 195.742 43.2923C197.774 44.4888 199.226 46.2092 200.097 48.4474C200.969 50.6886 201.406 53.4031 201.406 56.5938V73.7437C201.406 76.8957 200.969 79.6131 200.097 81.8901C199.223 84.17 197.771 85.9171 195.742 87.1315C193.711 88.3518 190.95 88.959 187.458 88.959ZM187.458 81.7234C188.52 81.7234 189.299 81.4585 189.793 80.9257C190.287 80.3929 190.608 79.7114 190.76 78.875C190.911 78.0386 190.989 77.1844 190.989 76.3123V54.0906C190.989 53.1799 190.911 52.3167 190.76 51.4982C190.608 50.6827 190.284 50.007 189.793 49.4743C189.299 48.9415 188.52 48.6766 187.458 48.6766C186.47 48.6766 185.73 48.9415 185.236 49.4743C184.742 50.007 184.418 50.6797 184.269 51.4982C184.117 52.3167 184.04 53.1799 184.04 54.0906V76.3123C184.04 77.1874 184.106 78.0416 184.239 78.875C184.373 79.7114 184.677 80.3959 185.15 80.9257C185.626 81.4585 186.393 81.7234 187.458 81.7234Z" fill="#AD3636"/>
<path d="M207.614 88.2743V42.1255H214.789L224.242 64.3472V42.1255H232.669V88.2773H225.78L216.327 64.3472V88.2773H207.614V88.2743Z" fill="#AD3636"/>
<path d="M251.573 88.9589C248.384 88.9589 245.87 88.2952 244.029 86.9648C242.188 85.6343 240.879 83.7651 240.1 81.3513C239.32 78.9404 238.934 76.1575 238.934 73.0055V57.5075C238.934 54.2424 239.35 51.4118 240.186 49.0188C241.022 46.6258 242.453 44.7745 244.484 43.4649C246.516 42.1553 249.276 41.5005 252.768 41.5005C256.186 41.5005 258.869 42.069 260.827 43.2089C262.781 44.3489 264.176 45.9264 265.012 47.9384C265.845 49.9534 266.264 52.3077 266.264 55.0043V57.9658H256.299V54.2037C256.299 53.2155 256.234 52.3048 256.1 51.4684C255.966 50.632 255.663 49.9594 255.19 49.4445C254.714 48.9325 253.946 48.6765 252.884 48.6765C251.784 48.6765 250.987 48.9712 250.493 49.5605C249.999 50.1499 249.687 50.8821 249.553 51.7541C249.419 52.6292 249.354 53.54 249.354 54.4894V75.8539C249.354 76.8808 249.458 77.8392 249.666 78.7321C249.874 79.625 250.255 80.3483 250.805 80.8959C251.356 81.4465 252.144 81.7233 253.167 81.7233C254.229 81.7233 255.047 81.4376 255.615 80.8691C256.183 80.3006 256.582 79.5595 256.811 78.6458C257.04 77.732 257.153 76.7647 257.153 75.7408V70.3268H252.998V64.3442H266.321V88.2744H259.601L259.03 84.4557C258.423 85.7474 257.531 86.8189 256.353 87.6761C255.178 88.5303 253.584 88.9589 251.573 88.9589Z" fill="#AD3636"/>
<path d="M272.698 88.2743V42.1255H285.397C288.508 42.1255 291.206 42.4678 293.482 43.1523C295.76 43.8369 297.533 45.0602 298.806 46.8282C300.079 48.5932 300.713 51.0933 300.713 54.3197C300.713 56.2187 300.561 57.9093 300.258 59.3915C299.955 60.8737 299.395 62.1536 298.577 63.237C297.759 64.3204 296.593 65.2222 295.076 65.9425L301.397 88.2773H290.864L285.795 67.5944H282.892V88.2773H272.698V88.2743ZM282.889 61.725H285.736C287.179 61.725 288.297 61.469 289.094 60.9571C289.891 60.4451 290.451 59.704 290.775 58.7337C291.096 57.7664 291.26 56.5967 291.26 55.2305C291.26 53.2572 290.9 51.7184 290.177 50.6141C289.454 49.5129 288.128 48.9622 286.191 48.9622H282.889V61.725Z" fill="#AD3636"/>
<path d="M304.643 88.2743L313.352 42.1255H324.968L333.568 88.2773H324.171L322.633 78.5356H315.857L314.262 88.2773H304.643V88.2743ZM316.77 72.434H321.666L319.218 54.4299L316.77 72.434Z" fill="#AD3636"/>
<path d="M339.945 88.2743V49.7004H333V42.1255H357.085V49.7034H350.196V88.2773H339.945V88.2743Z" fill="#AD3636"/>
<path d="M374.45 88.9589C370.92 88.9589 368.159 88.3785 366.166 87.2207C364.173 86.0629 362.778 84.3723 361.981 82.1489C361.184 79.9256 360.785 77.2022 360.785 73.9728V42.1255H370.863V75.5146C370.863 76.464 370.937 77.4135 371.092 78.363C371.244 79.3124 371.577 80.0922 372.089 80.6994C372.6 81.3066 373.389 81.6102 374.453 81.6102C375.554 81.6102 376.351 81.3066 376.845 80.6994C377.339 80.0922 377.651 79.3124 377.785 78.363C377.919 77.4135 377.984 76.464 377.984 75.5146V42.1255H388.119V73.9758C388.119 77.2052 387.711 79.9285 386.893 82.1519C386.075 84.3753 384.68 86.0658 382.708 87.2237C380.733 88.3785 377.981 88.9589 374.45 88.9589Z" fill="#AD3636"/>
<path d="M394.609 88.2743V42.1255H404.803V81.381H415.396V88.2743H394.609Z" fill="#AD3636"/>
<path d="M417.612 88.2743L426.325 42.1255H437.941L446.54 88.2773H437.144L435.606 78.5356H428.83L427.235 88.2773H417.612V88.2743ZM429.74 72.434H434.636L432.188 54.4299L429.74 72.434Z" fill="#AD3636"/>
<path d="M452.915 88.2743V49.7004H445.969V42.1255H470.055V49.7034H463.165V88.2773H452.915V88.2743Z" fill="#AD3636"/>
<path d="M474.153 88.2743V42.1255H484.347V88.2773H474.153V88.2743Z" fill="#AD3636"/>
<path d="M504.447 88.9589C500.993 88.9589 498.26 88.3517 496.246 87.1344C494.232 85.92 492.792 84.1729 491.918 81.893C491.043 79.6131 490.609 76.8986 490.609 73.7466V56.5967C490.609 53.406 491.046 50.6916 491.918 48.4503C492.789 46.2091 494.232 44.4918 496.246 43.2952C498.257 42.0987 500.99 41.5005 504.447 41.5005C507.939 41.5005 510.699 42.0987 512.731 43.2952C514.763 44.4918 516.214 46.2121 517.086 48.4503C517.957 50.6916 518.395 53.406 518.395 56.5967V73.7466C518.395 76.8986 517.957 79.6161 517.086 81.893C516.211 84.1729 514.76 85.92 512.731 87.1344C510.702 88.3517 507.939 88.9589 504.447 88.9589ZM504.447 81.7233C505.509 81.7233 506.288 81.4584 506.782 80.9257C507.276 80.3929 507.597 79.7113 507.749 78.8749C507.9 78.0386 507.978 77.1844 507.978 76.3123V54.0906C507.978 53.1798 507.9 52.3167 507.749 51.4982C507.597 50.6826 507.273 50.007 506.782 49.4742C506.288 48.9414 505.509 48.6765 504.447 48.6765C503.459 48.6765 502.718 48.9414 502.225 49.4742C501.731 50.007 501.407 50.6797 501.258 51.4982C501.106 52.3167 501.029 53.1798 501.029 54.0906V76.3123C501.029 77.1873 501.094 78.0416 501.228 78.8749C501.362 79.7113 501.663 80.3959 502.138 80.9257C502.614 81.4584 503.385 81.7233 504.447 81.7233Z" fill="#AD3636"/>
<path d="M524.605 88.2743V42.1255H531.78L541.234 64.3472V42.1255H549.661V88.2773H542.771L533.318 64.3442V88.2743H524.605Z" fill="#AD3636"/>
<path d="M568.79 88.959C565.905 88.959 563.495 88.447 561.559 87.4202C559.622 86.3933 558.162 84.8099 557.174 82.6639C556.187 80.518 555.636 77.735 555.523 74.3181L564.236 73.0085C564.272 74.9849 564.453 76.5802 564.777 77.7946C565.099 79.0119 565.554 79.884 566.143 80.4168C566.732 80.9495 567.443 81.2144 568.279 81.2144C569.34 81.2144 570.034 80.8543 570.358 80.131C570.679 79.4107 570.843 78.6488 570.843 77.8511C570.843 75.9522 570.388 74.3479 569.477 73.0353C568.567 71.7227 567.333 70.4042 565.777 69.0767L561.791 65.6003C560.045 64.1181 558.572 62.4394 557.38 60.5583C556.184 58.6772 555.586 56.3527 555.586 53.5787C555.586 49.6677 556.743 46.6765 559.06 44.6049C561.369 42.5333 564.519 41.4976 568.505 41.4976C570.971 41.4976 572.955 41.9172 574.454 42.7506C575.953 43.587 577.092 44.6793 577.872 46.0276C578.648 47.3759 579.18 48.8016 579.466 50.3017C579.752 51.8018 579.912 53.2364 579.951 54.6026L571.182 55.686C571.143 54.3198 571.057 53.1322 570.926 52.1262C570.792 51.1202 570.518 50.3404 570.099 49.7898C569.68 49.2391 569.037 48.9623 568.163 48.9623C567.214 48.9623 566.521 49.3612 566.083 50.1588C565.646 50.9565 565.429 51.7542 565.429 52.5518C565.429 54.2603 565.836 55.6562 566.654 56.7396C567.469 57.823 568.543 58.9541 569.873 60.1297L573.689 63.4901C575.7 65.1985 577.399 67.1361 578.785 69.3029C580.171 71.4668 580.864 74.1455 580.864 77.3362C580.864 79.5 580.37 81.4674 579.383 83.2324C578.395 84.9974 577 86.3933 575.197 87.4202C573.392 88.4441 571.259 88.959 568.79 88.959Z" fill="#AD3636"/>
</g>
<g filter="url(#filter3_d)">
<circle cx="370.134" cy="333.696" r="141.276" fill="white"/>
<circle cx="370.134" cy="333.696" r="149.276" stroke="#A1C0ED" stroke-width="16"/>
</g>
<g filter="url(#filter4_d)">
<path d="M155.123 562.832H132.623V553.052C131.503 552.572 130.723 552.232 130.283 552.032C129.843 551.832 129.123 551.412 128.123 550.772C127.163 550.132 126.443 549.472 125.963 548.792C124.643 546.992 123.803 544.772 123.443 542.132L120.863 521.372H142.103L143.603 541.892H144.923L146.183 521.372H166.883L164.303 542.132C163.943 544.772 163.103 546.992 161.783 548.792C161.303 549.472 160.563 550.132 159.563 550.772C158.603 551.412 157.903 551.832 157.463 552.032C157.023 552.232 156.243 552.572 155.123 553.052V562.832ZM191.329 563.372H188.929C183.089 563.372 178.709 561.932 175.789 559.052C172.909 556.172 171.469 551.532 171.469 545.132C171.469 538.732 172.909 534.072 175.789 531.152C178.709 528.232 183.089 526.772 188.929 526.772H191.329C197.169 526.772 201.549 528.232 204.469 531.152C207.389 534.072 208.849 538.732 208.849 545.132C208.849 551.532 207.389 556.172 204.469 559.052C201.589 561.932 197.209 563.372 191.329 563.372ZM188.449 544.652V549.692C188.449 550.212 188.589 550.632 188.869 550.952C189.189 551.272 189.589 551.432 190.069 551.432C190.589 551.432 191.009 551.272 191.329 550.952C191.689 550.632 191.869 550.212 191.869 549.692V544.652C191.869 544.172 191.689 543.772 191.329 543.452C191.009 543.092 190.609 542.912 190.129 542.912C189.649 542.912 189.249 543.092 188.929 543.452C188.609 543.772 188.449 544.172 188.449 544.652ZM236.009 527.372H252.989V562.832H237.869L237.269 558.452C237.109 558.892 236.749 559.432 236.189 560.072C235.629 560.712 235.029 561.252 234.389 561.692C232.629 562.852 230.309 563.432 227.429 563.432C223.509 563.432 220.549 562.352 218.549 560.192C216.589 558.032 215.609 554.912 215.609 550.832V527.372H232.589V547.112C232.589 547.592 232.749 548.012 233.069 548.372C233.429 548.692 233.849 548.852 234.329 548.852C234.809 548.852 235.209 548.692 235.529 548.372C235.849 548.012 236.009 547.592 236.009 547.112V527.372ZM281.057 528.152C281.057 520.832 285.297 517.172 293.777 517.172C296.017 517.172 297.997 517.312 299.717 517.592C301.477 517.832 302.677 518.072 303.317 518.312L304.217 518.672V530.672H297.857V533.312H304.217V549.512H299.897V562.832H282.077V549.512H279.737V534.692L282.437 533.312C281.517 531.992 281.057 530.272 281.057 528.152ZM330.857 563.372H328.457C322.617 563.372 318.237 561.932 315.317 559.052C312.437 556.172 310.997 551.532 310.997 545.132C310.997 538.732 312.437 534.072 315.317 531.152C318.237 528.232 322.617 526.772 328.457 526.772H330.857C336.697 526.772 341.077 528.232 343.997 531.152C346.917 534.072 348.377 538.732 348.377 545.132C348.377 551.532 346.917 556.172 343.997 559.052C341.117 561.932 336.737 563.372 330.857 563.372ZM327.977 544.652V549.692C327.977 550.212 328.117 550.632 328.397 550.952C328.717 551.272 329.117 551.432 329.597 551.432C330.117 551.432 330.537 551.272 330.857 550.952C331.217 550.632 331.397 550.212 331.397 549.692V544.652C331.397 544.172 331.217 543.772 330.857 543.452C330.537 543.092 330.137 542.912 329.657 542.912C329.177 542.912 328.777 543.092 328.457 543.452C328.137 543.772 327.977 544.172 327.977 544.652ZM375.537 527.372H392.517V562.832H377.397L376.797 558.452C376.637 558.892 376.277 559.432 375.717 560.072C375.157 560.712 374.557 561.252 373.917 561.692C372.157 562.852 369.837 563.432 366.957 563.432C363.037 563.432 360.077 562.352 358.077 560.192C356.117 558.032 355.137 554.912 355.137 550.832V527.372H372.117V547.112C372.117 547.592 372.277 548.012 372.597 548.372C372.957 548.692 373.377 548.852 373.857 548.852C374.337 548.852 374.737 548.692 375.057 548.372C375.377 548.012 375.537 547.592 375.537 547.112V527.372ZM416.257 543.812V562.832H399.277V527.372H414.337L414.937 531.752C415.097 531.312 415.457 530.772 416.017 530.132C416.577 529.492 417.177 528.952 417.817 528.512C419.577 527.352 421.917 526.772 424.837 526.772C428.757 526.772 431.697 527.852 433.657 530.012C435.657 532.172 436.657 535.312 436.657 539.432V562.832H419.677V543.812C419.677 543.332 419.497 542.932 419.137 542.612C418.817 542.252 418.417 542.072 417.937 542.072C417.457 542.072 417.057 542.252 416.737 542.612C416.417 542.932 416.257 543.332 416.257 543.812ZM480.797 562.832H465.677L465.077 558.452C464.917 558.892 464.577 559.432 464.057 560.072C463.577 560.712 463.057 561.252 462.497 561.692C461.017 562.852 459.117 563.432 456.797 563.432C452.597 563.432 449.317 561.832 446.957 558.632C444.597 555.432 443.417 550.972 443.417 545.252C443.417 539.492 444.617 534.972 447.017 531.692C449.417 528.412 452.697 526.772 456.857 526.772C458.137 526.772 459.277 526.932 460.277 527.252C461.277 527.532 461.957 527.812 462.317 528.092L462.857 528.512V518.132H480.797V562.832ZM460.397 544.652V549.692C460.397 550.212 460.537 550.632 460.817 550.952C461.137 551.272 461.537 551.432 462.017 551.432C462.537 551.432 462.957 551.272 463.277 550.952C463.637 550.632 463.817 550.212 463.817 549.692V544.652C463.817 544.172 463.637 543.772 463.277 543.452C462.957 543.092 462.557 542.912 462.077 542.912C461.597 542.912 461.197 543.092 460.877 543.452C460.557 543.772 460.397 544.172 460.397 544.652ZM487.557 545.192C487.557 539.072 488.937 534.472 491.697 531.392C494.497 528.312 499.057 526.772 505.377 526.772C511.697 526.772 516.097 528.052 518.577 530.612C521.057 533.172 522.297 537.372 522.297 543.212L521.997 547.832H505.437V549.872C506.437 550.112 507.897 550.232 509.817 550.232C513.897 550.232 517.197 550.052 519.717 549.692L520.977 549.512V560.792C520.657 560.992 520.137 561.252 519.417 561.572C518.737 561.852 517.077 562.232 514.437 562.712C511.797 563.192 508.857 563.432 505.617 563.432C499.217 563.432 494.597 561.912 491.757 558.872C488.957 555.832 487.557 551.272 487.557 545.192ZM504.537 542.492V544.832H507.957V542.492C507.957 541.972 507.777 541.552 507.417 541.232C507.097 540.912 506.677 540.752 506.157 540.752C505.677 540.752 505.277 540.912 504.957 541.232C504.677 541.552 504.537 541.972 504.537 542.492ZM566.381 562.832H551.261L550.661 558.452C550.501 558.892 550.161 559.432 549.641 560.072C549.161 560.712 548.641 561.252 548.081 561.692C546.601 562.852 544.701 563.432 542.381 563.432C538.181 563.432 534.901 561.832 532.541 558.632C530.181 555.432 529.001 550.972 529.001 545.252C529.001 539.492 530.201 534.972 532.601 531.692C535.001 528.412 538.281 526.772 542.441 526.772C543.721 526.772 544.861 526.932 545.861 527.252C546.861 527.532 547.541 527.812 547.901 528.092L548.441 528.512V518.132H566.381V562.832ZM545.981 544.652V549.692C545.981 550.212 546.121 550.632 546.401 550.952C546.721 551.272 547.121 551.432 547.601 551.432C548.121 551.432 548.541 551.272 548.861 550.952C549.221 550.632 549.401 550.212 549.401 549.692V544.652C549.401 544.172 549.221 543.772 548.861 543.452C548.541 543.092 548.141 542.912 547.661 542.912C547.181 542.912 546.781 543.092 546.461 543.452C546.141 543.772 545.981 544.172 545.981 544.652ZM591.741 548.252H576.921L573.561 521.912H594.981L591.741 548.252ZM580.341 550.112H588.141C590.341 550.112 592.021 550.712 593.181 551.912C594.341 553.072 594.921 554.712 594.921 556.832C594.921 558.912 594.341 560.532 593.181 561.692C592.021 562.852 590.341 563.432 588.141 563.432H580.341C578.101 563.432 576.401 562.852 575.241 561.692C574.121 560.532 573.561 558.912 573.561 556.832C573.561 554.712 574.141 553.072 575.301 551.912C576.461 550.712 578.141 550.112 580.341 550.112Z" fill="white"/>
<path d="M155.123 562.832V567.832H160.123V562.832H155.123ZM132.623 562.832H127.623V567.832H132.623V562.832ZM132.623 553.052H137.623V549.755L134.592 548.456L132.623 553.052ZM130.283 552.032L128.214 556.583L128.214 556.583L130.283 552.032ZM128.123 550.772L125.349 554.932L125.388 554.958L125.428 554.983L128.123 550.772ZM125.963 548.792L130.048 545.908L130.022 545.871L129.995 545.835L125.963 548.792ZM123.443 542.132L118.481 542.748L118.485 542.778L118.489 542.807L123.443 542.132ZM120.863 521.372V516.372H115.203L115.901 521.988L120.863 521.372ZM142.103 521.372L147.09 521.007L146.751 516.372H142.103V521.372ZM143.603 541.892L138.616 542.256L138.955 546.892H143.603V541.892ZM144.923 541.892V546.892H149.625L149.913 542.198L144.923 541.892ZM146.183 521.372V516.372H141.48L141.192 521.065L146.183 521.372ZM166.883 521.372L171.845 521.988L172.543 516.372H166.883V521.372ZM164.303 542.132L169.257 542.807L169.261 542.778L169.265 542.748L164.303 542.132ZM161.783 548.792L157.751 545.835L157.724 545.871L157.698 545.908L161.783 548.792ZM159.563 550.772L156.868 546.56L156.828 546.585L156.789 546.611L159.563 550.772ZM157.463 552.032L155.394 547.48L155.394 547.48L157.463 552.032ZM155.123 553.052L153.153 548.456L150.123 549.755V553.052H155.123ZM155.123 557.832H132.623V567.832H155.123V557.832ZM137.623 562.832V553.052H127.623V562.832H137.623ZM134.592 548.456C133.471 547.975 132.737 547.655 132.352 547.48L128.214 556.583C128.709 556.809 129.535 557.168 130.653 557.647L134.592 548.456ZM132.352 547.48C132.357 547.482 132.234 547.424 131.932 547.248C131.651 547.083 131.282 546.857 130.818 546.56L125.428 554.983C126.423 555.62 127.413 556.219 128.214 556.583L132.352 547.48ZM130.896 546.611C130.265 546.19 130.065 545.932 130.048 545.908L121.878 551.675C122.821 553.011 124.061 554.073 125.349 554.932L130.896 546.611ZM129.995 545.835C129.255 544.825 128.666 543.43 128.397 541.456L118.489 542.807C118.94 546.113 120.031 549.158 121.931 551.748L129.995 545.835ZM128.405 541.515L125.825 520.755L115.901 521.988L118.481 542.748L128.405 541.515ZM120.863 526.372H142.103V516.372H120.863V526.372ZM137.116 521.736L138.616 542.256L148.59 541.527L147.09 521.007L137.116 521.736ZM143.603 546.892H144.923V536.892H143.603V546.892ZM149.913 542.198L151.173 521.678L141.192 521.065L139.932 541.585L149.913 542.198ZM146.183 526.372H166.883V516.372H146.183V526.372ZM161.921 520.755L159.341 541.515L169.265 542.748L171.845 521.988L161.921 520.755ZM159.349 541.456C159.08 543.43 158.491 544.825 157.751 545.835L165.815 551.748C167.715 549.158 168.806 546.113 169.257 542.807L159.349 541.456ZM157.698 545.908C157.714 545.885 157.678 545.942 157.54 546.065C157.402 546.188 157.186 546.356 156.868 546.56L162.258 554.983C163.589 554.131 164.892 553.057 165.868 551.675L157.698 545.908ZM156.789 546.611C156.351 546.904 156.006 547.123 155.745 547.279C155.464 547.448 155.364 547.493 155.394 547.48L159.532 556.583C160.377 556.199 161.374 555.573 162.336 554.932L156.789 546.611ZM155.394 547.48C155.009 547.655 154.275 547.975 153.153 548.456L157.092 557.647C158.211 557.168 159.037 556.809 159.532 556.583L155.394 547.48ZM150.123 553.052V562.832H160.123V553.052H150.123ZM175.789 559.052L172.254 562.587L172.266 562.599L172.278 562.611L175.789 559.052ZM175.789 531.152L172.254 527.616L172.241 527.628L172.229 527.64L175.789 531.152ZM204.469 531.152L208.005 527.616L204.469 531.152ZM204.469 559.052L200.958 555.492L200.946 555.504L200.934 555.516L204.469 559.052ZM188.869 550.952L185.106 554.244L185.216 554.369L185.334 554.487L188.869 550.952ZM191.329 550.952L188.007 547.214L187.897 547.312L187.794 547.416L191.329 550.952ZM191.329 543.452L187.592 546.773L187.787 546.993L188.007 547.189L191.329 543.452ZM188.929 543.452L192.465 546.987L192.569 546.883L192.666 546.773L188.929 543.452ZM191.329 558.372H188.929V568.372H191.329V558.372ZM188.929 558.372C183.843 558.372 180.95 557.118 179.3 555.492L172.278 562.611C176.469 566.745 182.336 568.372 188.929 568.372V558.372ZM179.325 555.516C177.798 553.989 176.469 550.94 176.469 545.132H166.469C166.469 552.123 168.02 558.354 172.254 562.587L179.325 555.516ZM176.469 545.132C176.469 539.331 177.795 536.238 179.349 534.663L172.229 527.64C168.023 531.905 166.469 538.132 166.469 545.132H176.469ZM179.325 534.687C180.976 533.035 183.86 531.772 188.929 531.772V521.772C182.318 521.772 176.442 523.428 172.254 527.616L179.325 534.687ZM188.929 531.772H191.329V521.772H188.929V531.772ZM191.329 531.772C196.398 531.772 199.282 533.035 200.934 534.687L208.005 527.616C203.816 523.428 197.94 521.772 191.329 521.772V531.772ZM200.934 534.687C202.511 536.264 203.849 539.347 203.849 545.132H213.849C213.849 538.116 212.267 531.879 208.005 527.616L200.934 534.687ZM203.849 545.132C203.849 550.924 202.508 553.963 200.958 555.492L207.98 562.611C212.271 558.38 213.849 552.139 213.849 545.132H203.849ZM200.934 555.516C199.339 557.11 196.473 558.372 191.329 558.372V568.372C197.945 568.372 203.839 566.753 208.005 562.587L200.934 555.516ZM183.449 544.652V549.692H193.449V544.652H183.449ZM183.449 549.692C183.449 551.141 183.861 552.821 185.106 554.244L192.632 547.659C193.317 548.442 193.449 549.282 193.449 549.692H183.449ZM185.334 554.487C186.653 555.806 188.352 556.432 190.069 556.432V546.432C190.393 546.432 190.812 546.487 191.266 546.669C191.726 546.853 192.11 547.122 192.405 547.416L185.334 554.487ZM190.069 556.432C191.701 556.432 193.466 555.886 194.865 554.487L187.794 547.416C188.129 547.081 188.541 546.812 188.994 546.639C189.434 546.471 189.815 546.432 190.069 546.432V556.432ZM194.651 554.689C196.17 553.338 196.869 551.512 196.869 549.692H186.869C186.869 549.367 186.927 548.92 187.138 548.427C187.354 547.925 187.668 547.516 188.007 547.214L194.651 554.689ZM196.869 549.692V544.652H186.869V549.692H196.869ZM196.869 544.652C196.869 542.738 196.074 540.98 194.651 539.714L188.007 547.189C187.713 546.927 187.401 546.547 187.174 546.043C186.948 545.54 186.869 545.052 186.869 544.652H196.869ZM195.066 540.13C193.801 538.707 192.043 537.912 190.129 537.912V547.912C189.729 547.912 189.241 547.833 188.737 547.606C188.234 547.38 187.854 547.068 187.592 546.773L195.066 540.13ZM190.129 537.912C188.215 537.912 186.457 538.707 185.192 540.13L192.666 546.773C192.404 547.068 192.024 547.38 191.521 547.606C191.017 547.833 190.529 547.912 190.129 547.912V537.912ZM185.394 539.916C184.075 541.235 183.449 542.935 183.449 544.652H193.449C193.449 544.975 193.393 545.394 193.211 545.848C193.027 546.309 192.759 546.693 192.465 546.987L185.394 539.916ZM236.009 527.372V522.372H231.009V527.372H236.009ZM252.989 527.372H257.989V522.372H252.989V527.372ZM252.989 562.832V567.832H257.989V562.832H252.989ZM237.869 562.832L232.915 563.51L233.507 567.832H237.869V562.832ZM237.269 558.452L242.223 557.773L232.57 556.743L237.269 558.452ZM236.189 560.072L232.426 556.779L236.189 560.072ZM234.389 561.692L237.141 565.866L237.181 565.839L237.222 565.812L234.389 561.692ZM218.549 560.192L214.846 563.551L214.863 563.57L214.88 563.589L218.549 560.192ZM215.609 527.372V522.372H210.609V527.372H215.609ZM232.589 527.372H237.589V522.372H232.589V527.372ZM233.069 548.372L229.332 551.693L229.527 551.913L229.747 552.109L233.069 548.372ZM235.529 548.372L239.064 551.907L239.168 551.803L239.266 551.693L235.529 548.372ZM236.009 532.372H252.989V522.372H236.009V532.372ZM247.989 527.372V562.832H257.989V527.372H247.989ZM252.989 557.832H237.869V567.832H252.989V557.832ZM242.823 562.153L242.223 557.773L232.315 559.13L232.915 563.51L242.823 562.153ZM232.57 556.743C232.622 556.599 232.67 556.503 232.695 556.457C232.72 556.409 232.731 556.394 232.719 556.413C232.707 556.431 232.678 556.472 232.628 556.536C232.579 556.6 232.512 556.681 232.426 556.779L239.952 563.364C240.642 562.575 241.489 561.477 241.968 560.16L232.57 556.743ZM232.426 556.779C232.115 557.135 231.822 557.389 231.556 557.571L237.222 565.812C238.236 565.115 239.143 564.288 239.952 563.364L232.426 556.779ZM231.637 557.517C230.943 557.975 229.679 558.432 227.429 558.432V568.432C230.939 568.432 234.315 567.729 237.141 565.866L231.637 557.517ZM227.429 558.432C224.418 558.432 222.987 557.625 222.218 556.795L214.88 563.589C218.111 567.078 222.599 568.432 227.429 568.432V558.432ZM222.252 556.832C221.409 555.902 220.609 554.165 220.609 550.832H210.609C210.609 555.658 211.769 560.161 214.846 563.551L222.252 556.832ZM220.609 550.832V527.372H210.609V550.832H220.609ZM215.609 532.372H232.589V522.372H215.609V532.372ZM227.589 527.372V547.112H237.589V527.372H227.589ZM227.589 547.112C227.589 548.821 228.201 550.422 229.332 551.693L236.806 545.05C237.02 545.29 237.231 545.611 237.381 546.007C237.532 546.403 237.589 546.785 237.589 547.112H227.589ZM229.747 552.109C231.019 553.239 232.62 553.852 234.329 553.852V543.852C234.656 543.852 235.038 543.908 235.434 544.059C235.83 544.21 236.15 544.421 236.391 544.634L229.747 552.109ZM234.329 553.852C236.046 553.852 237.746 553.226 239.064 551.907L231.993 544.836C232.288 544.542 232.672 544.273 233.132 544.089C233.586 543.907 234.005 543.852 234.329 543.852V553.852ZM239.266 551.693C240.396 550.422 241.009 548.821 241.009 547.112H231.009C231.009 546.785 231.066 546.403 231.217 546.007C231.367 545.611 231.578 545.29 231.792 545.05L239.266 551.693ZM241.009 547.112V527.372H231.009V547.112H241.009ZM299.717 517.592L298.913 522.527L298.977 522.537L299.041 522.546L299.717 517.592ZM303.317 518.312L305.174 513.669L305.123 513.649L305.072 513.63L303.317 518.312ZM304.217 518.672H309.217V515.286L306.074 514.029L304.217 518.672ZM304.217 530.672V535.672H309.217V530.672H304.217ZM297.857 530.672V525.672H292.857V530.672H297.857ZM297.857 533.312H292.857V538.312H297.857V533.312ZM304.217 533.312H309.217V528.312H304.217V533.312ZM304.217 549.512V554.512H309.217V549.512H304.217ZM299.897 549.512V544.512H294.897V549.512H299.897ZM299.897 562.832V567.832H304.897V562.832H299.897ZM282.077 562.832H277.077V567.832H282.077V562.832ZM282.077 549.512H287.077V544.512H282.077V549.512ZM279.737 549.512H274.737V554.512H279.737V549.512ZM279.737 534.692L277.461 530.239L274.737 531.632V534.692H279.737ZM282.437 533.312L284.712 537.764L289.816 535.155L286.539 530.453L282.437 533.312ZM286.057 528.152C286.057 525.47 286.799 524.31 287.504 523.701C288.349 522.972 290.142 522.172 293.777 522.172V512.172C288.932 512.172 284.364 513.201 280.97 516.132C277.434 519.183 276.057 523.513 276.057 528.152H286.057ZM293.777 522.172C295.819 522.172 297.521 522.3 298.913 522.527L300.52 512.657C298.472 512.323 296.214 512.172 293.777 512.172V522.172ZM299.041 522.546C299.86 522.657 300.491 522.761 300.956 522.854C301.464 522.956 301.616 523.014 301.561 522.993L305.072 513.63C303.841 513.168 302.117 512.873 300.392 512.637L299.041 522.546ZM301.46 522.954L302.36 523.314L306.074 514.029L305.174 513.669L301.46 522.954ZM299.217 518.672V530.672H309.217V518.672H299.217ZM304.217 525.672H297.857V535.672H304.217V525.672ZM292.857 530.672V533.312H302.857V530.672H292.857ZM297.857 538.312H304.217V528.312H297.857V538.312ZM299.217 533.312V549.512H309.217V533.312H299.217ZM304.217 544.512H299.897V554.512H304.217V544.512ZM294.897 549.512V562.832H304.897V549.512H294.897ZM299.897 557.832H282.077V567.832H299.897V557.832ZM287.077 562.832V549.512H277.077V562.832H287.077ZM282.077 544.512H279.737V554.512H282.077V544.512ZM284.737 549.512V534.692H274.737V549.512H284.737ZM282.012 539.144L284.712 537.764L280.161 528.859L277.461 530.239L282.012 539.144ZM286.539 530.453C286.363 530.201 286.057 529.57 286.057 528.152H276.057C276.057 530.973 276.67 533.782 278.335 536.171L286.539 530.453ZM315.317 559.052L311.782 562.587L311.794 562.599L311.806 562.611L315.317 559.052ZM315.317 531.152L311.782 527.616L311.77 527.628L311.757 527.64L315.317 531.152ZM343.997 531.152L347.533 527.616L343.997 531.152ZM343.997 559.052L340.486 555.492L340.474 555.504L340.462 555.516L343.997 559.052ZM328.397 550.952L324.634 554.244L324.744 554.369L324.862 554.487L328.397 550.952ZM330.857 550.952L327.535 547.214L327.426 547.312L327.322 547.416L330.857 550.952ZM330.857 543.452L327.12 546.773L327.316 546.993L327.535 547.189L330.857 543.452ZM328.457 543.452L331.993 546.987L332.097 546.883L332.194 546.773L328.457 543.452ZM330.857 558.372H328.457V568.372H330.857V558.372ZM328.457 558.372C323.371 558.372 320.478 557.118 318.828 555.492L311.806 562.611C315.997 566.745 321.864 568.372 328.457 568.372V558.372ZM318.853 555.516C317.326 553.989 315.997 550.94 315.997 545.132H305.997C305.997 552.123 307.548 558.354 311.782 562.587L318.853 555.516ZM315.997 545.132C315.997 539.331 317.323 536.238 318.877 534.663L311.757 527.64C307.552 531.905 305.997 538.132 305.997 545.132H315.997ZM318.853 534.687C320.504 533.035 323.388 531.772 328.457 531.772V521.772C321.847 521.772 315.97 523.428 311.782 527.616L318.853 534.687ZM328.457 531.772H330.857V521.772H328.457V531.772ZM330.857 531.772C335.927 531.772 338.81 533.035 340.462 534.687L347.533 527.616C343.344 523.428 337.468 521.772 330.857 521.772V531.772ZM340.462 534.687C342.039 536.264 343.377 539.347 343.377 545.132H353.377C353.377 538.116 351.796 531.879 347.533 527.616L340.462 534.687ZM343.377 545.132C343.377 550.924 342.036 553.963 340.486 555.492L347.508 562.611C351.799 558.38 353.377 552.139 353.377 545.132H343.377ZM340.462 555.516C338.867 557.11 336.001 558.372 330.857 558.372V568.372C337.473 568.372 343.367 566.753 347.533 562.587L340.462 555.516ZM322.977 544.652V549.692H332.977V544.652H322.977ZM322.977 549.692C322.977 551.141 323.389 552.821 324.634 554.244L332.16 547.659C332.845 548.442 332.977 549.282 332.977 549.692H322.977ZM324.862 554.487C326.181 555.806 327.88 556.432 329.597 556.432V546.432C329.921 546.432 330.34 546.487 330.794 546.669C331.254 546.853 331.639 547.122 331.933 547.416L324.862 554.487ZM329.597 556.432C331.229 556.432 332.994 555.886 334.393 554.487L327.322 547.416C327.657 547.081 328.069 546.812 328.522 546.639C328.962 546.471 329.343 546.432 329.597 546.432V556.432ZM334.179 554.689C335.699 553.338 336.397 551.512 336.397 549.692H326.397C326.397 549.367 326.455 548.92 326.667 548.427C326.882 547.925 327.196 547.516 327.535 547.214L334.179 554.689ZM336.397 549.692V544.652H326.397V549.692H336.397ZM336.397 544.652C336.397 542.738 335.602 540.98 334.179 539.714L327.535 547.189C327.241 546.927 326.929 546.547 326.703 546.043C326.476 545.54 326.397 545.052 326.397 544.652H336.397ZM334.594 540.13C333.329 538.707 331.571 537.912 329.657 537.912V547.912C329.257 547.912 328.769 547.833 328.265 547.606C327.762 547.38 327.382 547.068 327.12 546.773L334.594 540.13ZM329.657 537.912C327.743 537.912 325.985 538.707 324.72 540.13L332.194 546.773C331.932 547.068 331.552 547.38 331.049 547.606C330.545 547.833 330.057 547.912 329.657 547.912V537.912ZM324.922 539.916C323.603 541.235 322.977 542.935 322.977 544.652H332.977C332.977 544.975 332.921 545.394 332.74 545.848C332.556 546.309 332.287 546.693 331.993 546.987L324.922 539.916ZM375.537 527.372V522.372H370.537V527.372H375.537ZM392.517 527.372H397.517V522.372H392.517V527.372ZM392.517 562.832V567.832H397.517V562.832H392.517ZM377.397 562.832L372.443 563.51L373.035 567.832H377.397V562.832ZM376.797 558.452L381.751 557.773L372.098 556.743L376.797 558.452ZM375.717 560.072L371.954 556.779L375.717 560.072ZM373.917 561.692L376.669 565.866L376.709 565.839L376.75 565.812L373.917 561.692ZM358.077 560.192L354.374 563.551L354.391 563.57L354.408 563.589L358.077 560.192ZM355.137 527.372V522.372H350.137V527.372H355.137ZM372.117 527.372H377.117V522.372H372.117V527.372ZM372.597 548.372L368.86 551.693L369.055 551.913L369.275 552.109L372.597 548.372ZM375.057 548.372L378.593 551.907L378.697 551.803L378.794 551.693L375.057 548.372ZM375.537 532.372H392.517V522.372H375.537V532.372ZM387.517 527.372V562.832H397.517V527.372H387.517ZM392.517 557.832H377.397V567.832H392.517V557.832ZM382.351 562.153L381.751 557.773L371.843 559.13L372.443 563.51L382.351 562.153ZM372.098 556.743C372.15 556.599 372.198 556.503 372.223 556.457C372.248 556.409 372.259 556.394 372.247 556.413C372.235 556.431 372.207 556.472 372.156 556.536C372.107 556.6 372.04 556.681 371.954 556.779L379.48 563.364C380.17 562.575 381.017 561.477 381.496 560.16L372.098 556.743ZM371.954 556.779C371.643 557.135 371.35 557.389 371.084 557.571L376.75 565.812C377.764 565.115 378.671 564.288 379.48 563.364L371.954 556.779ZM371.166 557.517C370.471 557.975 369.207 558.432 366.957 558.432V568.432C370.468 568.432 373.843 567.729 376.669 565.866L371.166 557.517ZM366.957 558.432C363.947 558.432 362.515 557.625 361.746 556.795L354.408 563.589C357.639 567.078 362.128 568.432 366.957 568.432V558.432ZM361.78 556.832C360.937 555.902 360.137 554.165 360.137 550.832H350.137C350.137 555.658 351.297 560.161 354.374 563.551L361.78 556.832ZM360.137 550.832V527.372H350.137V550.832H360.137ZM355.137 532.372H372.117V522.372H355.137V532.372ZM367.117 527.372V547.112H377.117V527.372H367.117ZM367.117 547.112C367.117 548.821 367.73 550.422 368.86 551.693L376.334 545.05C376.548 545.29 376.759 545.611 376.91 546.007C377.06 546.403 377.117 546.785 377.117 547.112H367.117ZM369.275 552.109C370.547 553.239 372.148 553.852 373.857 553.852V543.852C374.184 543.852 374.566 543.908 374.962 544.059C375.358 544.21 375.679 544.421 375.919 544.634L369.275 552.109ZM373.857 553.852C375.574 553.852 377.274 553.226 378.593 551.907L371.522 544.836C371.816 544.542 372.2 544.273 372.66 544.089C373.115 543.907 373.533 543.852 373.857 543.852V553.852ZM378.794 551.693C379.925 550.422 380.537 548.821 380.537 547.112H370.537C370.537 546.785 370.594 546.403 370.745 546.007C370.895 545.611 371.106 545.29 371.32 545.05L378.794 551.693ZM380.537 547.112V527.372H370.537V547.112H380.537ZM416.257 562.832V567.832H421.257V562.832H416.257ZM399.277 562.832H394.277V567.832H399.277V562.832ZM399.277 527.372V522.372H394.277V527.372H399.277ZM414.337 527.372L419.291 526.693L418.699 522.372H414.337V527.372ZM414.937 531.752L409.983 532.43L419.636 533.46L414.937 531.752ZM416.017 530.132L419.78 533.424V533.424L416.017 530.132ZM417.817 528.512L415.065 524.337L415.025 524.364L414.984 524.391L417.817 528.512ZM433.657 530.012L429.954 533.371L429.971 533.39L429.988 533.409L433.657 530.012ZM436.657 562.832V567.832H441.657V562.832H436.657ZM419.677 562.832H414.677V567.832H419.677V562.832ZM419.137 542.612L415.4 545.933L415.595 546.153L415.815 546.349L419.137 542.612ZM416.737 542.612L420.272 546.147L420.376 546.043L420.474 545.933L416.737 542.612ZM411.257 543.812V562.832H421.257V543.812H411.257ZM416.257 557.832H399.277V567.832H416.257V557.832ZM404.277 562.832V527.372H394.277V562.832H404.277ZM399.277 532.372H414.337V522.372H399.277V532.372ZM409.383 528.05L409.983 532.43L419.891 531.073L419.291 526.693L409.383 528.05ZM419.636 533.46C419.584 533.604 419.536 533.7 419.511 533.746C419.486 533.794 419.475 533.809 419.487 533.79C419.499 533.772 419.527 533.731 419.578 533.667C419.627 533.603 419.694 533.522 419.78 533.424L412.254 526.839C411.564 527.628 410.717 528.726 410.238 530.043L419.636 533.46ZM419.78 533.424C420.091 533.068 420.384 532.815 420.65 532.632L414.984 524.391C413.97 525.089 413.063 525.915 412.254 526.839L419.78 533.424ZM420.568 532.686C421.253 532.235 422.531 531.772 424.837 531.772V521.772C421.303 521.772 417.901 522.468 415.065 524.337L420.568 532.686ZM424.837 531.772C427.854 531.772 429.236 532.58 429.954 533.371L437.36 526.652C434.158 523.123 429.66 521.772 424.837 521.772V531.772ZM429.988 533.409C430.842 534.331 431.657 536.066 431.657 539.432H441.657C441.657 534.557 440.472 530.012 437.326 526.615L429.988 533.409ZM431.657 539.432V562.832H441.657V539.432H431.657ZM436.657 557.832H419.677V567.832H436.657V557.832ZM424.677 562.832V543.812H414.677V562.832H424.677ZM424.677 543.812C424.677 541.898 423.882 540.14 422.459 538.874L415.815 546.349C415.52 546.087 415.209 545.707 414.982 545.203C414.756 544.7 414.677 544.212 414.677 543.812H424.677ZM422.874 539.29C421.609 537.867 419.851 537.072 417.937 537.072V547.072C417.537 547.072 417.049 546.993 416.545 546.766C416.042 546.54 415.662 546.228 415.4 545.933L422.874 539.29ZM417.937 537.072C416.023 537.072 414.265 537.867 413 539.29L420.474 545.933C420.212 546.228 419.832 546.54 419.329 546.766C418.825 546.993 418.337 547.072 417.937 547.072V537.072ZM413.201 539.076C411.882 540.395 411.257 542.095 411.257 543.812H421.257C421.257 544.135 421.201 544.554 421.019 545.008C420.835 545.469 420.567 545.853 420.272 546.147L413.201 539.076ZM480.797 562.832V567.832H485.797V562.832H480.797ZM465.677 562.832L460.723 563.51L461.315 567.832H465.677V562.832ZM465.077 558.452L470.03 557.773L460.378 556.743L465.077 558.452ZM464.057 560.072L460.176 556.919L460.115 556.994L460.057 557.072L464.057 560.072ZM462.497 561.692L465.581 565.627L465.586 565.623L462.497 561.692ZM446.957 558.632L450.981 555.664L446.957 558.632ZM447.017 531.692L442.982 528.739V528.739L447.017 531.692ZM460.277 527.252L458.753 532.014L458.84 532.042L458.929 532.066L460.277 527.252ZM462.317 528.092L465.386 524.145L465.386 524.145L462.317 528.092ZM462.857 528.512L459.787 532.458L467.857 538.735V528.512H462.857ZM462.857 518.132V513.132H457.857V518.132H462.857ZM480.797 518.132H485.797V513.132H480.797V518.132ZM460.817 550.952L457.054 554.244L457.164 554.369L457.281 554.487L460.817 550.952ZM463.277 550.952L459.955 547.214L459.845 547.312L459.741 547.416L463.277 550.952ZM463.277 543.452L459.54 546.773L459.735 546.993L459.955 547.189L463.277 543.452ZM460.877 543.452L464.412 546.987L464.516 546.883L464.614 546.773L460.877 543.452ZM480.797 557.832H465.677V567.832H480.797V557.832ZM470.63 562.153L470.03 557.773L460.123 559.13L460.723 563.51L470.63 562.153ZM460.378 556.743C460.419 556.63 460.454 556.557 460.469 556.528C460.485 556.497 460.488 556.495 460.471 556.522C460.433 556.582 460.344 556.712 460.176 556.919L467.937 563.225C468.584 562.429 469.333 561.378 469.776 560.16L460.378 556.743ZM460.057 557.072C459.807 557.405 459.586 557.62 459.408 557.76L465.586 565.623C466.528 564.883 467.347 564.018 468.057 563.072L460.057 557.072ZM459.412 557.756C459.002 558.078 458.266 558.432 456.797 558.432V568.432C459.967 568.432 463.031 567.626 465.581 565.627L459.412 557.756ZM456.797 558.432C454.08 558.432 452.338 557.504 450.981 555.664L442.933 561.599C446.296 566.159 451.113 568.432 456.797 568.432V558.432ZM450.981 555.664C449.479 553.627 448.417 550.355 448.417 545.252H438.417C438.417 551.588 439.715 557.236 442.933 561.599L450.981 555.664ZM448.417 545.252C448.417 540.124 449.492 536.776 451.052 534.644L442.982 528.739C439.742 533.167 438.417 538.859 438.417 545.252H448.417ZM451.052 534.644C452.484 532.686 454.247 531.772 456.857 531.772V521.772C451.147 521.772 446.349 524.137 442.982 528.739L451.052 534.644ZM456.857 531.772C457.729 531.772 458.34 531.881 458.753 532.014L461.801 522.489C460.214 521.982 458.545 521.772 456.857 521.772V531.772ZM458.929 532.066C459.113 532.118 459.264 532.165 459.386 532.205C459.508 532.246 459.588 532.276 459.633 532.295C459.68 532.314 459.669 532.312 459.616 532.284C459.568 532.258 459.43 532.181 459.247 532.038L465.386 524.145C464.185 523.21 462.653 522.725 461.625 522.437L458.929 532.066ZM459.247 532.038L459.787 532.458L465.926 524.565L465.386 524.145L459.247 532.038ZM467.857 528.512V518.132H457.857V528.512H467.857ZM462.857 523.132H480.797V513.132H462.857V523.132ZM475.797 518.132V562.832H485.797V518.132H475.797ZM455.397 544.652V549.692H465.397V544.652H455.397ZM455.397 549.692C455.397 551.141 455.809 552.821 457.054 554.244L464.58 547.659C465.265 548.442 465.397 549.282 465.397 549.692H455.397ZM457.281 554.487C458.6 555.806 460.3 556.432 462.017 556.432V546.432C462.34 546.432 462.759 546.487 463.214 546.669C463.674 546.853 464.058 547.122 464.352 547.416L457.281 554.487ZM462.017 556.432C463.648 556.432 465.413 555.886 466.812 554.487L459.741 547.416C460.076 547.081 460.488 546.812 460.942 546.639C461.382 546.471 461.763 546.432 462.017 546.432V556.432ZM466.599 554.689C468.118 553.338 468.817 551.512 468.817 549.692H458.817C458.817 549.367 458.875 548.92 459.086 548.427C459.301 547.925 459.616 547.516 459.955 547.214L466.599 554.689ZM468.817 549.692V544.652H458.817V549.692H468.817ZM468.817 544.652C468.817 542.738 468.022 540.98 466.599 539.714L459.955 547.189C459.66 546.927 459.349 546.547 459.122 546.043C458.895 545.54 458.817 545.052 458.817 544.652H468.817ZM467.014 540.13C465.749 538.707 463.991 537.912 462.077 537.912V547.912C461.677 547.912 461.189 547.833 460.685 547.606C460.182 547.38 459.802 547.068 459.54 546.773L467.014 540.13ZM462.077 537.912C460.163 537.912 458.405 538.707 457.14 540.13L464.614 546.773C464.352 547.068 463.972 547.38 463.469 547.606C462.965 547.833 462.477 547.912 462.077 547.912V537.912ZM457.341 539.916C456.022 541.235 455.397 542.935 455.397 544.652H465.397C465.397 544.975 465.341 545.394 465.159 545.848C464.975 546.309 464.706 546.693 464.412 546.987L457.341 539.916ZM491.697 531.392L487.997 528.028L487.985 528.041L487.973 528.055L491.697 531.392ZM518.577 530.612L514.985 534.091L518.577 530.612ZM522.297 543.212L527.286 543.536L527.297 543.374V543.212H522.297ZM521.997 547.832V552.832H526.682L526.986 548.156L521.997 547.832ZM505.437 547.832V542.832H500.437V547.832H505.437ZM505.437 549.872H500.437V553.814L504.27 554.733L505.437 549.872ZM519.717 549.692L519.01 544.742L519.717 549.692ZM520.977 549.512H525.977V543.746L520.27 544.562L520.977 549.512ZM520.977 560.792L523.627 565.032L525.977 563.563V560.792H520.977ZM519.417 561.572L521.32 566.195L521.384 566.169L521.447 566.141L519.417 561.572ZM514.437 562.712L513.542 557.792L514.437 562.712ZM491.757 558.872L488.079 562.259L488.091 562.272L488.103 562.285L491.757 558.872ZM504.537 544.832H499.537V549.832H504.537V544.832ZM507.957 544.832V549.832H512.957V544.832H507.957ZM507.417 541.232L503.881 544.767L503.985 544.871L504.095 544.969L507.417 541.232ZM504.957 541.232L501.421 537.696L501.303 537.814L501.194 537.939L504.957 541.232ZM492.557 545.192C492.557 539.725 493.8 536.537 495.42 534.728L487.973 528.055C484.073 532.406 482.557 538.418 482.557 545.192H492.557ZM495.396 534.755C496.85 533.156 499.736 531.772 505.377 531.772V521.772C498.377 521.772 492.143 523.467 487.997 528.028L495.396 534.755ZM505.377 531.772C511.31 531.772 513.956 533.028 514.985 534.091L522.168 527.133C518.237 523.075 512.083 521.772 505.377 521.772V531.772ZM514.985 534.091C516.133 535.275 517.297 537.884 517.297 543.212H527.297C527.297 536.859 525.981 531.068 522.168 527.133L514.985 534.091ZM517.307 542.888L517.007 547.508L526.986 548.156L527.286 543.536L517.307 542.888ZM521.997 542.832H505.437V552.832H521.997V542.832ZM500.437 547.832V549.872H510.437V547.832H500.437ZM504.27 554.733C505.85 555.113 507.78 555.232 509.817 555.232V545.232C508.013 545.232 507.023 545.11 506.603 545.01L504.27 554.733ZM509.817 555.232C514.01 555.232 517.573 555.049 520.424 554.641L519.01 544.742C516.82 545.055 513.783 545.232 509.817 545.232V555.232ZM520.424 554.641L521.684 554.461L520.27 544.562L519.01 544.742L520.424 554.641ZM515.977 549.512V560.792H525.977V549.512H515.977ZM518.327 556.552C518.352 556.536 518.296 556.572 518.111 556.664C517.937 556.751 517.699 556.863 517.386 557.002L521.447 566.141C522.203 565.805 522.993 565.428 523.627 565.032L518.327 556.552ZM517.513 556.948C517.591 556.916 517.364 557.005 516.546 557.193C515.818 557.359 514.825 557.559 513.542 557.792L515.331 567.631C517.807 567.181 520.049 566.719 521.32 566.195L517.513 556.948ZM513.542 557.792C511.25 558.209 508.616 558.432 505.617 558.432V568.432C509.097 568.432 512.343 568.174 515.331 567.631L513.542 557.792ZM505.617 558.432C499.865 558.432 496.898 557.051 495.41 555.458L488.103 562.285C492.295 566.773 498.569 568.432 505.617 568.432V558.432ZM495.434 555.484C493.81 553.721 492.557 550.598 492.557 545.192H482.557C482.557 551.945 484.103 557.942 488.079 562.259L495.434 555.484ZM499.537 542.492V544.832H509.537V542.492H499.537ZM504.537 549.832H507.957V539.832H504.537V549.832ZM512.957 544.832V542.492H502.957V544.832H512.957ZM512.957 542.492C512.957 540.671 512.258 538.845 510.738 537.494L504.095 544.969C503.756 544.667 503.441 544.258 503.226 543.756C503.015 543.264 502.957 542.816 502.957 542.492H512.957ZM510.952 537.696C509.553 536.297 507.788 535.752 506.157 535.752V545.752C505.902 545.752 505.522 545.712 505.082 545.544C504.628 545.371 504.216 545.102 503.881 544.767L510.952 537.696ZM506.157 535.752C504.44 535.752 502.74 536.377 501.421 537.696L508.492 544.767C508.198 545.061 507.814 545.33 507.354 545.514C506.899 545.696 506.48 545.752 506.157 545.752V535.752ZM501.194 537.939C499.948 539.362 499.537 541.042 499.537 542.492H509.537C509.537 542.901 509.405 543.741 508.72 544.524L501.194 537.939ZM566.381 562.832V567.832H571.381V562.832H566.381ZM551.261 562.832L546.307 563.51L546.899 567.832H551.261V562.832ZM550.661 558.452L555.615 557.773L545.962 556.743L550.661 558.452ZM549.641 560.072L545.761 556.919L545.699 556.994L545.641 557.072L549.641 560.072ZM548.081 561.692L551.166 565.627L551.17 565.623L548.081 561.692ZM532.541 558.632L536.565 555.664L532.541 558.632ZM532.601 531.692L528.566 528.739V528.739L532.601 531.692ZM545.861 527.252L544.337 532.014L544.425 532.042L544.513 532.066L545.861 527.252ZM547.901 528.092L550.971 524.145L550.971 524.145L547.901 528.092ZM548.441 528.512L545.371 532.458L553.441 538.735V528.512H548.441ZM548.441 518.132V513.132H543.441V518.132H548.441ZM566.381 518.132H571.381V513.132H566.381V518.132ZM546.401 550.952L542.638 554.244L542.748 554.369L542.866 554.487L546.401 550.952ZM548.861 550.952L545.539 547.214L545.43 547.312L545.326 547.416L548.861 550.952ZM548.861 543.452L545.124 546.773L545.319 546.993L545.539 547.189L548.861 543.452ZM546.461 543.452L549.997 546.987L550.101 546.883L550.198 546.773L546.461 543.452ZM566.381 557.832H551.261V567.832H566.381V557.832ZM556.215 562.153L555.615 557.773L545.707 559.13L546.307 563.51L556.215 562.153ZM545.962 556.743C546.003 556.63 546.039 556.557 546.054 556.528C546.069 556.497 546.072 556.495 546.055 556.522C546.018 556.582 545.928 556.712 545.761 556.919L553.522 563.225C554.168 562.429 554.917 561.378 555.36 560.16L545.962 556.743ZM545.641 557.072C545.391 557.405 545.17 557.62 544.992 557.76L551.17 565.623C552.112 564.883 552.931 564.018 553.641 563.072L545.641 557.072ZM544.997 557.756C544.587 558.078 543.851 558.432 542.381 558.432V568.432C545.551 568.432 548.616 567.626 551.166 565.627L544.997 557.756ZM542.381 558.432C539.664 558.432 537.922 557.504 536.565 555.664L528.517 561.599C531.88 566.159 536.698 568.432 542.381 568.432V558.432ZM536.565 555.664C535.063 553.627 534.001 550.355 534.001 545.252H524.001C524.001 551.588 525.299 557.236 528.517 561.599L536.565 555.664ZM534.001 545.252C534.001 540.124 535.076 536.776 536.636 534.644L528.566 528.739C525.326 533.167 524.001 538.859 524.001 545.252H534.001ZM536.636 534.644C538.069 532.686 539.831 531.772 542.441 531.772V521.772C536.731 521.772 531.934 524.137 528.566 528.739L536.636 534.644ZM542.441 531.772C543.313 531.772 543.924 531.881 544.337 532.014L547.385 522.489C545.798 521.982 544.129 521.772 542.441 521.772V531.772ZM544.513 532.066C544.698 532.118 544.849 532.165 544.97 532.205C545.092 532.246 545.172 532.276 545.217 532.295C545.265 532.314 545.254 532.312 545.201 532.284C545.153 532.258 545.015 532.181 544.831 532.038L550.971 524.145C549.769 523.21 548.237 522.725 547.209 522.437L544.513 532.066ZM544.831 532.038L545.371 532.458L551.511 524.565L550.971 524.145L544.831 532.038ZM553.441 528.512V518.132H543.441V528.512H553.441ZM548.441 523.132H566.381V513.132H548.441V523.132ZM561.381 518.132V562.832H571.381V518.132H561.381ZM540.981 544.652V549.692H550.981V544.652H540.981ZM540.981 549.692C540.981 551.141 541.393 552.821 542.638 554.244L550.164 547.659C550.849 548.442 550.981 549.282 550.981 549.692H540.981ZM542.866 554.487C544.185 555.806 545.884 556.432 547.601 556.432V546.432C547.925 546.432 548.344 546.487 548.798 546.669C549.258 546.853 549.642 547.122 549.937 547.416L542.866 554.487ZM547.601 556.432C549.233 556.432 550.998 555.886 552.397 554.487L545.326 547.416C545.661 547.081 546.073 546.812 546.526 546.639C546.966 546.471 547.347 546.432 547.601 546.432V556.432ZM552.183 554.689C553.702 553.338 554.401 551.512 554.401 549.692H544.401C544.401 549.367 544.459 548.92 544.67 548.427C544.886 547.925 545.2 547.516 545.539 547.214L552.183 554.689ZM554.401 549.692V544.652H544.401V549.692H554.401ZM554.401 544.652C554.401 542.738 553.606 540.98 552.183 539.714L545.539 547.189C545.245 546.927 544.933 546.547 544.707 546.043C544.48 545.54 544.401 545.052 544.401 544.652H554.401ZM552.598 540.13C551.333 538.707 549.575 537.912 547.661 537.912V547.912C547.261 547.912 546.773 547.833 546.269 547.606C545.766 547.38 545.386 547.068 545.124 546.773L552.598 540.13ZM547.661 537.912C545.747 537.912 543.989 538.707 542.724 540.13L550.198 546.773C549.936 547.068 549.556 547.38 549.053 547.606C548.549 547.833 548.061 547.912 547.661 547.912V537.912ZM542.926 539.916C541.607 541.235 540.981 542.935 540.981 544.652H550.981C550.981 544.975 550.925 545.394 550.744 545.848C550.559 546.309 550.291 546.693 549.997 546.987L542.926 539.916ZM591.741 548.252V553.252H596.164L596.704 548.862L591.741 548.252ZM576.921 548.252L571.961 548.884L572.518 553.252H576.921V548.252ZM573.561 521.912V516.912H567.883L568.601 522.544L573.561 521.912ZM594.981 521.912L599.944 522.522L600.634 516.912H594.981V521.912ZM593.181 551.912L589.586 555.387L589.615 555.417L589.645 555.447L593.181 551.912ZM593.181 561.692L589.645 558.156V558.156L593.181 561.692ZM575.241 561.692L571.644 565.165L571.674 565.196L571.705 565.227L575.241 561.692ZM575.301 551.912L578.837 555.447L578.866 555.417L578.896 555.387L575.301 551.912ZM591.741 543.252H576.921V553.252H591.741V543.252ZM581.881 547.619L578.521 521.279L568.601 522.544L571.961 548.884L581.881 547.619ZM573.561 526.912H594.981V516.912H573.561V526.912ZM590.018 521.301L586.778 547.641L596.704 548.862L599.944 522.522L590.018 521.301ZM580.341 555.112H588.141V545.112H580.341V555.112ZM588.141 555.112C588.797 555.112 589.178 555.202 589.369 555.27C589.536 555.33 589.577 555.377 589.586 555.387L596.776 548.436C594.401 545.98 591.247 545.112 588.141 545.112V555.112ZM589.645 555.447C589.667 555.468 589.715 555.518 589.772 555.679C589.836 555.861 589.921 556.219 589.921 556.832H599.921C599.921 553.79 599.066 550.726 596.716 548.376L589.645 555.447ZM589.921 556.832C589.921 557.413 589.839 557.752 589.779 557.921C589.725 558.07 589.677 558.124 589.645 558.156L596.716 565.227C599.049 562.895 599.921 559.864 599.921 556.832H589.921ZM589.645 558.156C589.645 558.156 589.603 558.207 589.419 558.27C589.212 558.342 588.813 558.432 588.141 558.432V568.432C591.201 568.432 594.334 567.61 596.716 565.227L589.645 558.156ZM588.141 558.432H580.341V568.432H588.141V558.432ZM580.341 558.432C579.64 558.432 579.22 558.339 579 558.264C578.894 558.228 578.836 558.197 578.811 558.181C578.787 558.167 578.779 558.159 578.777 558.156L571.705 565.227C574.104 567.625 577.271 568.432 580.341 568.432V558.432ZM578.838 558.219C578.815 558.195 578.764 558.139 578.707 557.973C578.642 557.787 578.561 557.43 578.561 556.832H568.561C568.561 559.817 569.385 562.825 571.644 565.165L578.838 558.219ZM578.561 556.832C578.561 556.219 578.645 555.861 578.71 555.679C578.767 555.518 578.815 555.468 578.837 555.447L571.765 548.376C569.416 550.726 568.561 553.79 568.561 556.832H578.561ZM578.896 555.387C578.905 555.377 578.946 555.33 579.113 555.27C579.304 555.202 579.685 555.112 580.341 555.112V545.112C577.235 545.112 574.081 545.98 571.706 548.436L578.896 555.387Z" fill="#AD3636"/>
</g>
<defs>
<filter id="filter0_d" x="46.8213" y="795.954" width="183.857" height="53.648" filterUnits="userSpaceOnUse" color-interpolation-filters="sRGB">
<feFlood flood-opacity="0" result="BackgroundImageFix"/>
<feColorMatrix in="SourceAlpha" type="matrix" values="0 0 0 0 0 0 0 0 0 0 0 0 0 0 0 0 0 0 127 0"/>
<feOffset dy="6"/>
<feGaussianBlur stdDeviation="4"/>
<feColorMatrix type="matrix" values="0 0 0 0 0.678431 0 0 0 0 0.211765 0 0 0 0 0.211765 0 0 0 1 0"/>
<feBlend mode="normal" in2="BackgroundImageFix" result="effect1_dropShadow"/>
<feBlend mode="normal" in="SourceGraphic" in2="effect1_dropShadow" result="shape"/>
</filter>
<filter id="filter1_d" x="265.917" y="795.954" width="205.805" height="53.648" filterUnits="userSpaceOnUse" color-interpolation-filters="sRGB">
<feFlood flood-opacity="0" result="BackgroundImageFix"/>
<feColorMatrix in="SourceAlpha" type="matrix" values="0 0 0 0 0 0 0 0 0 0 0 0 0 0 0 0 0 0 127 0"/>
<feOffset dy="6"/>
<feGaussianBlur stdDeviation="4"/>
<feColorMatrix type="matrix" values="0 0 0 0 0.678431 0 0 0 0 0.211765 0 0 0 0 0.211765 0 0 0 1 0"/>
<feBlend mode="normal" in2="BackgroundImageFix" result="effect1_dropShadow"/>
<feBlend mode="normal" in="SourceGraphic" in2="effect1_dropShadow" result="shape"/>
</filter>
<filter id="filter2_d" x="518.978" y="795.474" width="158.49" height="54.128" filterUnits="userSpaceOnUse" color-interpolation-filters="sRGB">
<feFlood flood-opacity="0" result="BackgroundImageFix"/>
<feColorMatrix in="SourceAlpha" type="matrix" values="0 0 0 0 0 0 0 0 0 0 0 0 0 0 0 0 0 0 127 0"/>
<feOffset dy="6"/>
<feGaussianBlur stdDeviation="4"/>
<feColorMatrix type="matrix" values="0 0 0 0 0.678431 0 0 0 0 0.211765 0 0 0 0 0.211765 0 0 0 1 0"/>
<feBlend mode="normal" in2="BackgroundImageFix" result="effect1_dropShadow"/>
<feBlend mode="normal" in="SourceGraphic" in2="effect1_dropShadow" result="shape"/>
</filter>
<filter id="filter3_d" x="204.858" y="174.421" width="330.551" height="330.551" filterUnits="userSpaceOnUse" color-interpolation-filters="sRGB">
<feFlood flood-opacity="0" result="BackgroundImageFix"/>
<feColorMatrix in="SourceAlpha" type="matrix" values="0 0 0 0 0 0 0 0 0 0 0 0 0 0 0 0 0 0 127 0"/>
<feOffset dy="6"/>
<feGaussianBlur stdDeviation="4"/>
<feColorMatrix type="matrix" values="0 0 0 0 0.6 0 0 0 0 0.20625 0 0 0 0 0.0375 0 0 0 0.5 0"/>
<feBlend mode="normal" in2="BackgroundImageFix" result="effect1_dropShadow"/>
<feBlend mode="normal" in="SourceGraphic" in2="effect1_dropShadow" result="shape"/>
</filter>
<filter id="filter4_d" x="107.203" y="510.171" width="501.431" height="72.26" filterUnits="userSpaceOnUse" color-interpolation-filters="sRGB">
<feFlood flood-opacity="0" result="BackgroundImageFix"/>
<feColorMatrix in="SourceAlpha" type="matrix" values="0 0 0 0 0 0 0 0 0 0 0 0 0 0 0 0 0 0 127 0"/>
<feOffset dy="6"/>
<feGaussianBlur stdDeviation="4"/>
<feColorMatrix type="matrix" values="0 0 0 0 0.6 0 0 0 0 0.20625 0 0 0 0 0.0375 0 0 0 0.5 0"/>
<feBlend mode="normal" in2="BackgroundImageFix" result="effect1_dropShadow"/>
<feBlend mode="normal" in="SourceGraphic" in2="effect1_dropShadow" result="shape"/>
</filter>
<clipPath id="clip0">
<rect width="140" height="139.973" fill="white" transform="translate(67.2197 637.149)"/>
</clipPath>
<clipPath id="clip1">
<rect width="140" height="139.973" fill="white" transform="translate(297.22 637.149)"/>
</clipPath>
<clipPath id="clip2">
<rect width="140" height="139.973" fill="white" transform="translate(527.22 637.149)"/>
</clipPath>
<clipPath id="clip3">
<rect width="439.298" height="50.3515" fill="white" transform="translate(141.563 41.4976)"/>
</clipPath>
</defs>
</svg>