<svg xmlns="http://www.w3.org/2000/svg" width="717" height="862" viewBox="0 0 717 862" fill="none">
<g clip-path="url(#clip0)">
<path d="M11.5987 155.597C13.6428 131.943 33.0226 113.617 56.7292 112.313C262.822 100.985 441.831 82.0355 656.188 109.813C676.115 112.395 692.148 127.496 695.676 147.278C739.115 390.851 706.256 641.024 690.742 734.392C687.02 756.796 667.541 772.548 644.83 772.548H64.3894C40.5445 772.548 20.4182 755.056 17.8139 731.353C7.97474 641.805 -10.9358 416.37 11.5987 155.597Z" fill="#213664"/>
<path d="M33.388 181.337C35.4363 157.702 54.8213 139.413 78.5104 138.126C269.765 127.733 436.311 110.663 635.24 135.703C655.158 138.21 671.229 153.249 674.77 173.009C714.29 393.588 684.834 619.487 670.177 707.201C666.444 729.535 647.001 745.233 624.357 745.233H85.6388C61.8423 745.233 41.7601 727.925 39.1516 704.271C29.8945 620.331 12.9877 416.739 33.388 181.337Z" fill="#73A6F3"/>
<path d="M124.977 824.835V853.395H131.257V841.075H142.817V853.395H149.097V824.835H142.817V835.795H131.257V824.835H124.977ZM164.465 843.075C164.465 842.248 164.545 841.435 164.705 840.635C164.865 839.835 165.132 839.128 165.505 838.515C165.905 837.901 166.425 837.408 167.065 837.035C167.705 836.635 168.505 836.435 169.465 836.435C170.425 836.435 171.225 836.635 171.865 837.035C172.532 837.408 173.052 837.901 173.425 838.515C173.825 839.128 174.105 839.835 174.265 840.635C174.425 841.435 174.505 842.248 174.505 843.075C174.505 843.901 174.425 844.715 174.265 845.515C174.105 846.288 173.825 846.995 173.425 847.635C173.052 848.248 172.532 848.741 171.865 849.115C171.225 849.488 170.425 849.675 169.465 849.675C168.505 849.675 167.705 849.488 167.065 849.115C166.425 848.741 165.905 848.248 165.505 847.635C165.132 846.995 164.865 846.288 164.705 845.515C164.545 844.715 164.465 843.901 164.465 843.075ZM158.785 843.075C158.785 844.728 159.039 846.221 159.545 847.555C160.052 848.888 160.772 850.035 161.705 850.995C162.639 851.928 163.759 852.648 165.065 853.155C166.372 853.661 167.839 853.915 169.465 853.915C171.092 853.915 172.559 853.661 173.865 853.155C175.199 852.648 176.332 851.928 177.265 850.995C178.199 850.035 178.919 848.888 179.425 847.555C179.932 846.221 180.185 844.728 180.185 843.075C180.185 841.421 179.932 839.928 179.425 838.595C178.919 837.235 178.199 836.088 177.265 835.155C176.332 834.195 175.199 833.461 173.865 832.955C172.559 832.421 171.092 832.155 169.465 832.155C167.839 832.155 166.372 832.421 165.065 832.955C163.759 833.461 162.639 834.195 161.705 835.155C160.772 836.088 160.052 837.235 159.545 838.595C159.039 839.928 158.785 841.421 158.785 843.075ZM189.438 832.715V853.395H195.118V841.395C195.118 840.381 195.265 839.568 195.558 838.955C195.852 838.315 196.198 837.835 196.598 837.515C197.025 837.168 197.452 836.941 197.878 836.835C198.332 836.701 198.692 836.635 198.958 836.635C199.865 836.635 200.545 836.795 200.998 837.115C201.478 837.408 201.812 837.808 201.998 838.315C202.212 838.821 202.332 839.381 202.358 839.995C202.385 840.581 202.398 841.181 202.398 841.795V853.395H208.078V841.875C208.078 841.235 208.118 840.608 208.198 839.995C208.305 839.355 208.492 838.795 208.758 838.315C209.052 837.808 209.438 837.408 209.918 837.115C210.425 836.795 211.078 836.635 211.878 836.635C212.678 836.635 213.305 836.768 213.758 837.035C214.238 837.301 214.598 837.661 214.838 838.115C215.078 838.568 215.225 839.101 215.278 839.715C215.332 840.328 215.358 840.981 215.358 841.675V853.395H221.038V839.555C221.038 838.221 220.852 837.088 220.478 836.155C220.105 835.195 219.585 834.421 218.918 833.835C218.252 833.248 217.452 832.821 216.518 832.555C215.585 832.288 214.572 832.155 213.478 832.155C212.038 832.155 210.785 832.501 209.718 833.195C208.678 833.888 207.852 834.688 207.238 835.595C206.678 834.315 205.852 833.421 204.758 832.915C203.692 832.408 202.505 832.155 201.198 832.155C199.838 832.155 198.625 832.448 197.558 833.035C196.518 833.621 195.625 834.448 194.878 835.515H194.798V832.715H189.438ZM244.848 840.835H235.608C235.635 840.435 235.715 839.981 235.848 839.475C236.008 838.968 236.262 838.488 236.608 838.035C236.982 837.581 237.462 837.208 238.048 836.915C238.662 836.595 239.422 836.435 240.328 836.435C241.715 836.435 242.742 836.808 243.408 837.555C244.102 838.301 244.582 839.395 244.848 840.835ZM235.608 844.435H250.528C250.635 842.835 250.502 841.301 250.128 839.835C249.755 838.368 249.142 837.061 248.288 835.915C247.462 834.768 246.395 833.861 245.088 833.195C243.782 832.501 242.248 832.155 240.488 832.155C238.915 832.155 237.475 832.435 236.168 832.995C234.888 833.555 233.782 834.328 232.848 835.315C231.915 836.275 231.195 837.421 230.688 838.755C230.182 840.088 229.928 841.528 229.928 843.075C229.928 844.675 230.168 846.141 230.648 847.475C231.155 848.808 231.862 849.955 232.768 850.915C233.675 851.875 234.782 852.621 236.088 853.155C237.395 853.661 238.862 853.915 240.488 853.915C242.835 853.915 244.835 853.381 246.488 852.315C248.142 851.248 249.368 849.475 250.168 846.995H245.168C244.982 847.635 244.475 848.248 243.648 848.835C242.822 849.395 241.835 849.675 240.688 849.675C239.088 849.675 237.862 849.261 237.008 848.435C236.155 847.608 235.688 846.275 235.608 844.435Z" fill="white"/>

<path d="M304.455 836.395V829.715H310.335C310.895 829.715 311.429 829.768 311.935 829.875C312.469 829.955 312.935 830.115 313.335 830.355C313.735 830.595 314.055 830.928 314.295 831.355C314.535 831.781 314.655 832.328 314.655 832.995C314.655 834.195 314.295 835.061 313.575 835.595C312.855 836.128 311.935 836.395 310.815 836.395H304.455ZM298.175 824.835V853.395H312.015C313.295 853.395 314.535 853.235 315.735 852.915C316.962 852.595 318.042 852.101 318.975 851.435C319.935 850.768 320.695 849.915 321.255 848.875C321.815 847.808 322.095 846.555 322.095 845.115C322.095 843.328 321.655 841.808 320.775 840.555C319.922 839.275 318.615 838.381 316.855 837.875C318.135 837.261 319.095 836.475 319.735 835.515C320.402 834.555 320.735 833.355 320.735 831.915C320.735 830.581 320.509 829.461 320.055 828.555C319.629 827.648 319.015 826.928 318.215 826.395C317.415 825.835 316.455 825.435 315.335 825.195C314.215 824.955 312.975 824.835 311.615 824.835H298.175ZM304.455 848.515V840.675H311.295C312.655 840.675 313.749 840.995 314.575 841.635C315.402 842.248 315.815 843.288 315.815 844.755C315.815 845.501 315.682 846.115 315.415 846.595C315.175 847.075 314.842 847.461 314.415 847.755C313.989 848.021 313.495 848.221 312.935 848.355C312.375 848.461 311.789 848.515 311.175 848.515H304.455ZM336.179 843.075C336.179 842.248 336.259 841.435 336.419 840.635C336.579 839.835 336.846 839.128 337.219 838.515C337.619 837.901 338.139 837.408 338.779 837.035C339.419 836.635 340.219 836.435 341.179 836.435C342.139 836.435 342.939 836.635 343.579 837.035C344.246 837.408 344.766 837.901 345.139 838.515C345.539 839.128 345.819 839.835 345.979 840.635C346.139 841.435 346.219 842.248 346.219 843.075C346.219 843.901 346.139 844.715 345.979 845.515C345.819 846.288 345.539 846.995 345.139 847.635C344.766 848.248 344.246 848.741 343.579 849.115C342.939 849.488 342.139 849.675 341.179 849.675C340.219 849.675 339.419 849.488 338.779 849.115C338.139 848.741 337.619 848.248 337.219 847.635C336.846 846.995 336.579 846.288 336.419 845.515C336.259 844.715 336.179 843.901 336.179 843.075ZM330.499 843.075C330.499 844.728 330.753 846.221 331.259 847.555C331.766 848.888 332.486 850.035 333.419 850.995C334.353 851.928 335.473 852.648 336.779 853.155C338.086 853.661 339.553 853.915 341.179 853.915C342.806 853.915 344.273 853.661 345.579 853.155C346.913 852.648 348.046 851.928 348.979 850.995C349.913 850.035 350.633 848.888 351.139 847.555C351.646 846.221 351.899 844.728 351.899 843.075C351.899 841.421 351.646 839.928 351.139 838.595C350.633 837.235 349.913 836.088 348.979 835.155C348.046 834.195 346.913 833.461 345.579 832.955C344.273 832.421 342.806 832.155 341.179 832.155C339.553 832.155 338.086 832.421 336.779 832.955C335.473 833.461 334.353 834.195 333.419 835.155C332.486 836.088 331.766 837.235 331.259 838.595C330.753 839.928 330.499 841.421 330.499 843.075ZM360.993 832.715V853.395H366.673V842.555C366.673 840.448 367.019 838.941 367.713 838.035C368.406 837.101 369.526 836.635 371.073 836.635C372.433 836.635 373.379 837.061 373.913 837.915C374.446 838.741 374.713 840.008 374.713 841.715V853.395H380.393V840.675C380.393 839.395 380.273 838.235 380.033 837.195C379.819 836.128 379.433 835.235 378.873 834.515C378.313 833.768 377.539 833.195 376.553 832.795C375.593 832.368 374.353 832.155 372.833 832.155C371.633 832.155 370.459 832.435 369.313 832.995C368.166 833.528 367.233 834.395 366.513 835.595H366.393V832.715H360.993ZM409.503 853.395V832.715H403.823V843.555C403.823 845.661 403.477 847.181 402.783 848.115C402.09 849.021 400.97 849.475 399.423 849.475C398.063 849.475 397.117 849.061 396.583 848.235C396.05 847.381 395.783 846.101 395.783 844.395V832.715H390.103V845.435C390.103 846.715 390.21 847.888 390.423 848.955C390.663 849.995 391.063 850.888 391.623 851.635C392.183 852.355 392.943 852.915 393.903 853.315C394.89 853.715 396.143 853.915 397.663 853.915C398.863 853.915 400.037 853.648 401.183 853.115C402.33 852.581 403.263 851.715 403.983 850.515H404.103V853.395H409.503ZM423.614 846.675H418.214C418.268 848.061 418.574 849.221 419.134 850.155C419.721 851.061 420.454 851.795 421.334 852.355C422.241 852.915 423.268 853.315 424.414 853.555C425.561 853.795 426.734 853.915 427.934 853.915C429.108 853.915 430.254 853.795 431.374 853.555C432.521 853.341 433.534 852.955 434.414 852.395C435.294 851.835 436.001 851.101 436.534 850.195C437.094 849.261 437.374 848.115 437.374 846.755C437.374 845.795 437.188 844.995 436.814 844.355C436.441 843.688 435.948 843.141 435.334 842.715C434.721 842.261 434.014 841.901 433.214 841.635C432.441 841.368 431.641 841.141 430.814 840.955C430.014 840.768 429.228 840.595 428.454 840.435C427.681 840.275 426.988 840.101 426.374 839.915C425.788 839.701 425.308 839.435 424.934 839.115C424.561 838.795 424.374 838.381 424.374 837.875C424.374 837.448 424.481 837.115 424.694 836.875C424.908 836.608 425.161 836.408 425.454 836.275C425.774 836.141 426.121 836.061 426.494 836.035C426.868 835.981 427.214 835.955 427.534 835.955C428.548 835.955 429.428 836.155 430.174 836.555C430.921 836.928 431.334 837.661 431.414 838.755H436.814C436.708 837.475 436.374 836.421 435.814 835.595C435.281 834.741 434.601 834.061 433.774 833.555C432.948 833.048 432.001 832.688 430.934 832.475C429.894 832.261 428.814 832.155 427.694 832.155C426.574 832.155 425.481 832.261 424.414 832.475C423.348 832.661 422.388 833.008 421.534 833.515C420.681 833.995 419.988 834.661 419.454 835.515C418.948 836.368 418.694 837.461 418.694 838.795C418.694 839.701 418.881 840.475 419.254 841.115C419.628 841.728 420.121 842.248 420.734 842.675C421.348 843.075 422.041 843.408 422.814 843.675C423.614 843.915 424.428 844.128 425.254 844.315C427.281 844.741 428.854 845.168 429.974 845.595C431.121 846.021 431.694 846.661 431.694 847.515C431.694 848.021 431.574 848.448 431.334 848.795C431.094 849.115 430.788 849.381 430.414 849.595C430.068 849.781 429.668 849.928 429.214 850.035C428.788 850.115 428.374 850.155 427.974 850.155C427.414 850.155 426.868 850.088 426.334 849.955C425.828 849.821 425.374 849.621 424.974 849.355C424.574 849.061 424.241 848.701 423.974 848.275C423.734 847.821 423.614 847.288 423.614 846.675Z" fill="white"/>

<path d="M498.055 824.835V853.395H503.935V834.275H504.015L515.895 853.395H522.175V824.835H516.295V843.995H516.215L504.295 824.835H498.055ZM546.423 840.835H537.183C537.21 840.435 537.29 839.981 537.423 839.475C537.583 838.968 537.837 838.488 538.183 838.035C538.557 837.581 539.037 837.208 539.623 836.915C540.237 836.595 540.997 836.435 541.903 836.435C543.29 836.435 544.317 836.808 544.983 837.555C545.677 838.301 546.157 839.395 546.423 840.835ZM537.183 844.435H552.103C552.21 842.835 552.077 841.301 551.703 839.835C551.33 838.368 550.717 837.061 549.863 835.915C549.037 834.768 547.97 833.861 546.663 833.195C545.357 832.501 543.823 832.155 542.063 832.155C540.49 832.155 539.05 832.435 537.743 832.995C536.463 833.555 535.357 834.328 534.423 835.315C533.49 836.275 532.77 837.421 532.263 838.755C531.757 840.088 531.503 841.528 531.503 843.075C531.503 844.675 531.743 846.141 532.223 847.475C532.73 848.808 533.437 849.955 534.343 850.915C535.25 851.875 536.357 852.621 537.663 853.155C538.97 853.661 540.437 853.915 542.063 853.915C544.41 853.915 546.41 853.381 548.063 852.315C549.717 851.248 550.943 849.475 551.743 846.995H546.743C546.557 847.635 546.05 848.248 545.223 848.835C544.397 849.395 543.41 849.675 542.263 849.675C540.663 849.675 539.437 849.261 538.583 848.435C537.73 847.608 537.263 846.275 537.183 844.435ZM566.152 842.515L558.712 853.395H565.072L569.392 846.875L573.712 853.395H580.192L572.552 842.395L579.352 832.715H573.072L569.472 838.115L565.832 832.715H559.352L566.152 842.515ZM594.957 832.715V826.515H589.277V832.715H585.837V836.515H589.277V848.715C589.277 849.755 589.45 850.595 589.797 851.235C590.143 851.875 590.61 852.368 591.197 852.715C591.81 853.061 592.503 853.288 593.277 853.395C594.077 853.528 594.917 853.595 595.797 853.595C596.357 853.595 596.93 853.581 597.517 853.555C598.103 853.528 598.637 853.475 599.117 853.395V848.995C598.85 849.048 598.57 849.088 598.277 849.115C597.983 849.141 597.677 849.155 597.357 849.155C596.397 849.155 595.757 848.995 595.437 848.675C595.117 848.355 594.957 847.715 594.957 846.755V836.515H599.117V832.715H594.957Z" fill="white"/>











<path d="M44.0438 70.9448C48.0299 53.0296 65.5041 42.5168 83.8562 42.304C272.582 40.1156 435.159 36.2545 631.97 42.0347C644.439 42.4009 656.809 47.3473 663.605 57.8079C687.845 95.1205 671.974 131.963 658.829 152.247C651.789 163.109 639.208 168.246 626.264 168.246H85.8997C69.9453 168.246 54.8329 160.295 49.3742 145.303C42.948 127.655 37.3091 101.214 44.0438 70.9448Z" fill="#213664"/>
<path d="M63.5757 75.6477C67.2804 57.7963 84.7472 47.4404 102.978 47.2317C278.689 45.2204 430.33 41.7188 613.614 46.9747C625.94 47.3281 638.222 52.1122 644.876 62.4932C666.238 95.819 652.489 128.602 640.447 147.269C633.514 158.016 621.028 163.032 608.238 163.032H104.578C88.7698 163.032 73.7281 155.219 68.4293 140.325C62.8136 124.541 58.1675 101.708 63.5757 75.6477Z" fill="#F2C94C"/>
<path d="M63.5757 75.6477C67.2804 57.7963 84.7472 47.4404 102.978 47.2317C278.689 45.2204 430.33 41.7188 613.614 46.9747C625.94 47.3281 638.222 52.1122 644.876 62.4932C666.238 95.819 652.489 128.602 640.447 147.269C633.514 158.016 621.028 163.032 608.238 163.032H104.578C88.7698 163.032 73.7281 155.219 68.4293 140.325C62.8136 124.541 58.1675 101.708 63.5757 75.6477Z" fill="url(#paint0_linear)"/>
<g filter="url(#filter0_d)">
<path d="M105.475 89.9406V92.5406H117.175V89.6156C117.175 87.3623 116.893 85.3473 116.33 83.5706C115.81 81.7506 114.943 80.2123 113.73 78.9556C112.56 77.6556 111.022 76.6589 109.115 75.9656C107.208 75.2723 104.89 74.9256 102.16 74.9256C99.0398 74.9256 96.4182 75.3589 94.2948 76.2256C92.1715 77.0489 90.4598 78.4139 89.1598 80.3206C87.8598 82.2273 86.9282 84.7189 86.3648 87.7956C85.8448 90.8723 85.5848 94.6206 85.5848 99.0406C85.5848 103.374 85.8015 107.079 86.2348 110.156C86.7115 113.189 87.5565 115.681 88.7698 117.631C89.9832 119.537 91.6732 120.902 93.8398 121.726C96.0065 122.549 98.7798 122.961 102.16 122.961C104.11 122.961 105.995 122.744 107.815 122.311C109.678 121.921 111.325 121.141 112.755 119.971C114.185 118.757 115.333 117.111 116.2 115.031C117.067 112.951 117.5 110.286 117.5 107.036V103.591H105.8C105.8 105.801 105.735 107.642 105.605 109.116C105.518 110.546 105.345 111.694 105.085 112.561C104.825 113.427 104.457 114.056 103.98 114.446C103.503 114.792 102.897 114.966 102.16 114.966C101.25 114.966 100.513 114.727 99.9498 114.251C99.4298 113.774 99.0182 112.929 98.7148 111.716C98.4548 110.502 98.2815 108.877 98.1948 106.841C98.1082 104.761 98.0648 102.161 98.0648 99.0406C98.0648 95.9206 98.1082 93.3423 98.1948 91.3056C98.2815 89.2256 98.4548 87.5789 98.7148 86.3656C99.0182 85.1523 99.4298 84.3073 99.9498 83.8306C100.513 83.3539 101.25 83.1156 102.16 83.1156C103.33 83.1156 104.175 83.5923 104.695 84.5456C105.215 85.4989 105.475 87.2973 105.475 89.9406ZM134.927 99.0406C134.927 95.9206 134.97 93.3423 135.057 91.3056C135.144 89.2256 135.317 87.5789 135.577 86.3656C135.88 85.1523 136.292 84.3073 136.812 83.8306C137.375 83.3539 138.112 83.1156 139.022 83.1156C139.932 83.1156 140.647 83.3539 141.167 83.8306C141.73 84.3073 142.142 85.1523 142.402 86.3656C142.705 87.5789 142.9 89.2256 142.987 91.3056C143.074 93.3423 143.117 95.9206 143.117 99.0406C143.117 102.161 143.074 104.761 142.987 106.841C142.9 108.877 142.705 110.502 142.402 111.716C142.142 112.929 141.73 113.774 141.167 114.251C140.647 114.727 139.932 114.966 139.022 114.966C138.112 114.966 137.375 114.727 136.812 114.251C136.292 113.774 135.88 112.929 135.577 111.716C135.317 110.502 135.144 108.877 135.057 106.841C134.97 104.761 134.927 102.161 134.927 99.0406ZM122.447 99.0406C122.447 103.374 122.729 107.079 123.292 110.156C123.855 113.189 124.787 115.681 126.087 117.631C127.387 119.537 129.099 120.902 131.222 121.726C133.345 122.549 135.945 122.961 139.022 122.961C142.099 122.961 144.699 122.549 146.822 121.726C148.945 120.902 150.657 119.537 151.957 117.631C153.257 115.681 154.189 113.189 154.752 110.156C155.315 107.079 155.597 103.374 155.597 99.0406C155.597 94.7073 155.315 91.0239 154.752 87.9906C154.189 84.9139 153.257 82.4223 151.957 80.5156C150.657 78.5656 148.945 77.1573 146.822 76.2906C144.699 75.3806 142.099 74.9256 139.022 74.9256C135.945 74.9256 133.345 75.3806 131.222 76.2906C129.099 77.1573 127.387 78.5656 126.087 80.5156C124.787 82.4223 123.855 84.9139 123.292 87.9906C122.729 91.0239 122.447 94.7073 122.447 99.0406ZM161.88 75.8356V122.246H173.19V93.5806H173.32L181.38 122.246H194.64V75.8356H183.33V104.436H183.2L175.4 75.8356H161.88ZM217.897 97.0256V105.216H222.187C222.187 107.209 222.079 108.856 221.862 110.156C221.689 111.412 221.429 112.409 221.082 113.146C220.735 113.839 220.302 114.316 219.782 114.576C219.305 114.836 218.742 114.966 218.092 114.966C217.182 114.966 216.445 114.727 215.882 114.251C215.362 113.774 214.95 112.929 214.647 111.716C214.387 110.502 214.214 108.877 214.127 106.841C214.04 104.761 213.997 102.161 213.997 99.0406C213.997 95.9206 214.04 93.3423 214.127 91.3056C214.214 89.2256 214.387 87.5789 214.647 86.3656C214.95 85.1523 215.384 84.3073 215.947 83.8306C216.554 83.3539 217.355 83.1156 218.352 83.1156C219.782 83.1156 220.714 83.7873 221.147 85.1306C221.58 86.2573 221.797 88.0556 221.797 90.5256H233.497C233.497 87.7089 233.129 85.3256 232.392 83.3756C231.655 81.3823 230.637 79.7573 229.337 78.5006C228.037 77.2439 226.477 76.3339 224.657 75.7706C222.88 75.2073 220.93 74.9256 218.807 74.9256C215.254 74.9256 212.35 75.4673 210.097 76.5506C207.844 77.5906 206.067 79.1289 204.767 81.1656C203.51 83.2023 202.644 85.7156 202.167 88.7056C201.734 91.6956 201.517 95.1406 201.517 99.0406C201.517 102.897 201.625 106.321 201.842 109.311C202.102 112.301 202.687 114.814 203.597 116.851C204.507 118.887 205.85 120.426 207.627 121.466C209.404 122.462 211.83 122.961 214.907 122.961C215.947 122.961 216.965 122.896 217.962 122.766C219.002 122.636 219.955 122.419 220.822 122.116C221.732 121.769 222.534 121.271 223.227 120.621C223.964 119.971 224.527 119.147 224.917 118.151H225.047L225.307 122.246H233.497V97.0256H217.897ZM252.455 95.4656V84.5456H254.795C256.615 84.5456 257.915 84.9573 258.695 85.7806C259.518 86.6039 259.93 87.9906 259.93 89.9406C259.93 91.5873 259.518 92.9306 258.695 93.9706C257.872 94.9673 256.593 95.4656 254.86 95.4656H252.455ZM240.365 75.8356V122.246H252.455V103.656H255.64C256.377 103.656 256.983 103.764 257.46 103.981C257.98 104.154 258.392 104.501 258.695 105.021C259.042 105.497 259.28 106.169 259.41 107.036C259.54 107.902 259.605 108.986 259.605 110.286V113.406C259.605 113.882 259.605 114.511 259.605 115.291C259.648 116.027 259.692 116.807 259.735 117.631C259.822 118.454 259.93 119.277 260.06 120.101C260.233 120.924 260.472 121.639 260.775 122.246H273.645V121.596C273.255 121.379 272.973 121.162 272.8 120.946C272.627 120.686 272.453 120.426 272.28 120.166C272.15 119.906 272.042 119.537 271.955 119.061C271.868 118.584 271.803 118.064 271.76 117.501C271.717 116.894 271.695 116.266 271.695 115.616C271.695 114.966 271.695 114.337 271.695 113.731V109.766C271.695 106.646 271.153 104.197 270.07 102.421C268.987 100.644 266.993 99.6256 264.09 99.3656V99.2356C266.863 98.8023 268.878 97.6323 270.135 95.7256C271.392 93.8189 272.02 91.3056 272.02 88.1856C272.02 86.4089 271.782 84.7623 271.305 83.2456C270.872 81.7289 270.135 80.4289 269.095 79.3456C268.098 78.2189 266.777 77.3523 265.13 76.7456C263.527 76.1389 261.577 75.8356 259.28 75.8356H240.365ZM294.784 85.3256L291.469 105.021H298.229L294.914 85.3256H294.784ZM302.454 75.8356L313.764 122.246H300.894L299.659 114.121H290.039L288.804 122.246H276.129L287.244 75.8356H302.454ZM320.263 86.1056V122.246H332.353V86.1056H341.453V75.8356H311.293V86.1056H320.263ZM357.697 75.8356H345.607V106.256C345.607 109.506 345.954 112.214 346.647 114.381C347.341 116.547 348.337 118.281 349.637 119.581C350.981 120.881 352.627 121.769 354.577 122.246C356.571 122.722 358.824 122.961 361.337 122.961C363.894 122.961 366.147 122.722 368.097 122.246C370.047 121.769 371.672 120.881 372.972 119.581C374.316 118.281 375.334 116.547 376.027 114.381C376.721 112.214 377.067 109.506 377.067 106.256V75.8356H364.977V109.311C364.977 111.564 364.652 113.081 364.002 113.861C363.352 114.597 362.464 114.966 361.337 114.966C360.211 114.966 359.322 114.597 358.672 113.861C358.022 113.081 357.697 111.564 357.697 109.311V75.8356ZM384.195 75.8356V122.246H411.17V112.366H396.285V75.8356H384.195ZM431.378 85.3256L428.063 105.021H434.823L431.508 85.3256H431.378ZM439.048 75.8356L450.358 122.246H437.488L436.253 114.121H426.633L425.398 122.246H412.723L423.838 75.8356H439.048ZM456.857 86.1056V122.246H468.947V86.1056H478.047V75.8356H447.887V86.1056H456.857ZM482.266 75.8356V122.246H494.356V75.8356H482.266ZM512.671 99.0406C512.671 95.9206 512.714 93.3423 512.801 91.3056C512.888 89.2256 513.061 87.5789 513.321 86.3656C513.624 85.1523 514.036 84.3073 514.556 83.8306C515.119 83.3539 515.856 83.1156 516.766 83.1156C517.676 83.1156 518.391 83.3539 518.911 83.8306C519.474 84.3073 519.886 85.1523 520.146 86.3656C520.449 87.5789 520.644 89.2256 520.731 91.3056C520.818 93.3423 520.861 95.9206 520.861 99.0406C520.861 102.161 520.818 104.761 520.731 106.841C520.644 108.877 520.449 110.502 520.146 111.716C519.886 112.929 519.474 113.774 518.911 114.251C518.391 114.727 517.676 114.966 516.766 114.966C515.856 114.966 515.119 114.727 514.556 114.251C514.036 113.774 513.624 112.929 513.321 111.716C513.061 110.502 512.888 108.877 512.801 106.841C512.714 104.761 512.671 102.161 512.671 99.0406ZM500.191 99.0406C500.191 103.374 500.473 107.079 501.036 110.156C501.599 113.189 502.531 115.681 503.831 117.631C505.131 119.537 506.843 120.902 508.966 121.726C511.089 122.549 513.689 122.961 516.766 122.961C519.843 122.961 522.443 122.549 524.566 121.726C526.689 120.902 528.401 119.537 529.701 117.631C531.001 115.681 531.933 113.189 532.496 110.156C533.059 107.079 533.341 103.374 533.341 99.0406C533.341 94.7073 533.059 91.0239 532.496 87.9906C531.933 84.9139 531.001 82.4223 529.701 80.5156C528.401 78.5656 526.689 77.1573 524.566 76.2906C522.443 75.3806 519.843 74.9256 516.766 74.9256C513.689 74.9256 511.089 75.3806 508.966 76.2906C506.843 77.1573 505.131 78.5656 503.831 80.5156C502.531 82.4223 501.599 84.9139 501.036 87.9906C500.473 91.0239 500.191 94.7073 500.191 99.0406ZM539.624 75.8356V122.246H550.934V93.5806H551.064L559.124 122.246H572.384V75.8356H561.074V104.436H560.944L553.144 75.8356H539.624ZM598.111 89.2256H609.421C609.421 84.2423 608.229 80.6239 605.846 78.3706C603.506 76.0739 599.693 74.9256 594.406 74.9256C589.293 74.9256 585.479 76.1606 582.966 78.6306C580.453 81.1006 579.196 84.6973 579.196 89.4206C579.196 92.1506 579.651 94.3606 580.561 96.0506C581.514 97.7406 582.684 99.1056 584.071 100.146C585.501 101.186 587.039 102.031 588.686 102.681C590.333 103.331 591.849 103.981 593.236 104.631C594.666 105.237 595.836 105.996 596.746 106.906C597.699 107.772 598.176 108.964 598.176 110.481C598.176 111.737 597.829 112.799 597.136 113.666C596.486 114.532 595.533 114.966 594.276 114.966C593.106 114.966 592.153 114.576 591.416 113.796C590.679 112.972 590.311 111.564 590.311 109.571V108.466H578.611V110.091C578.611 112.517 578.958 114.554 579.651 116.201C580.344 117.847 581.341 119.191 582.641 120.231C583.984 121.227 585.609 121.921 587.516 122.311C589.466 122.744 591.698 122.961 594.211 122.961C599.541 122.961 603.614 121.856 606.431 119.646C609.248 117.392 610.656 113.796 610.656 108.856C610.656 106.039 610.158 103.764 609.161 102.031C608.208 100.254 606.994 98.8239 605.521 97.7406C604.048 96.6573 602.466 95.7906 600.776 95.1406C599.086 94.4473 597.504 93.7756 596.031 93.1256C594.558 92.4756 593.323 91.7173 592.326 90.8506C591.373 89.9406 590.896 88.7273 590.896 87.2106C590.896 86.1706 591.199 85.2389 591.806 84.4156C592.413 83.5489 593.366 83.1156 594.666 83.1156C595.836 83.1156 596.703 83.6139 597.266 84.6106C597.829 85.5639 598.111 86.7339 598.111 88.1206V89.2256ZM618.593 91.3706L619.828 108.791H628.538L629.903 91.3706V75.8356H618.593V91.3706ZM618.853 111.976V122.246H629.773V111.976H618.853Z" fill="url(#paint1_linear)"/>
<path d="M105.475 89.9406V92.5406H117.175V89.6156C117.175 87.3623 116.893 85.3473 116.33 83.5706C115.81 81.7506 114.943 80.2123 113.73 78.9556C112.56 77.6556 111.022 76.6589 109.115 75.9656C107.208 75.2723 104.89 74.9256 102.16 74.9256C99.0398 74.9256 96.4182 75.3589 94.2948 76.2256C92.1715 77.0489 90.4598 78.4139 89.1598 80.3206C87.8598 82.2273 86.9282 84.7189 86.3648 87.7956C85.8448 90.8723 85.5848 94.6206 85.5848 99.0406C85.5848 103.374 85.8015 107.079 86.2348 110.156C86.7115 113.189 87.5565 115.681 88.7698 117.631C89.9832 119.537 91.6732 120.902 93.8398 121.726C96.0065 122.549 98.7798 122.961 102.16 122.961C104.11 122.961 105.995 122.744 107.815 122.311C109.678 121.921 111.325 121.141 112.755 119.971C114.185 118.757 115.333 117.111 116.2 115.031C117.067 112.951 117.5 110.286 117.5 107.036V103.591H105.8C105.8 105.801 105.735 107.642 105.605 109.116C105.518 110.546 105.345 111.694 105.085 112.561C104.825 113.427 104.457 114.056 103.98 114.446C103.503 114.792 102.897 114.966 102.16 114.966C101.25 114.966 100.513 114.727 99.9498 114.251C99.4298 113.774 99.0182 112.929 98.7148 111.716C98.4548 110.502 98.2815 108.877 98.1948 106.841C98.1082 104.761 98.0648 102.161 98.0648 99.0406C98.0648 95.9206 98.1082 93.3423 98.1948 91.3056C98.2815 89.2256 98.4548 87.5789 98.7148 86.3656C99.0182 85.1523 99.4298 84.3073 99.9498 83.8306C100.513 83.3539 101.25 83.1156 102.16 83.1156C103.33 83.1156 104.175 83.5923 104.695 84.5456C105.215 85.4989 105.475 87.2973 105.475 89.9406ZM134.927 99.0406C134.927 95.9206 134.97 93.3423 135.057 91.3056C135.144 89.2256 135.317 87.5789 135.577 86.3656C135.88 85.1523 136.292 84.3073 136.812 83.8306C137.375 83.3539 138.112 83.1156 139.022 83.1156C139.932 83.1156 140.647 83.3539 141.167 83.8306C141.73 84.3073 142.142 85.1523 142.402 86.3656C142.705 87.5789 142.9 89.2256 142.987 91.3056C143.074 93.3423 143.117 95.9206 143.117 99.0406C143.117 102.161 143.074 104.761 142.987 106.841C142.9 108.877 142.705 110.502 142.402 111.716C142.142 112.929 141.73 113.774 141.167 114.251C140.647 114.727 139.932 114.966 139.022 114.966C138.112 114.966 137.375 114.727 136.812 114.251C136.292 113.774 135.88 112.929 135.577 111.716C135.317 110.502 135.144 108.877 135.057 106.841C134.97 104.761 134.927 102.161 134.927 99.0406ZM122.447 99.0406C122.447 103.374 122.729 107.079 123.292 110.156C123.855 113.189 124.787 115.681 126.087 117.631C127.387 119.537 129.099 120.902 131.222 121.726C133.345 122.549 135.945 122.961 139.022 122.961C142.099 122.961 144.699 122.549 146.822 121.726C148.945 120.902 150.657 119.537 151.957 117.631C153.257 115.681 154.189 113.189 154.752 110.156C155.315 107.079 155.597 103.374 155.597 99.0406C155.597 94.7073 155.315 91.0239 154.752 87.9906C154.189 84.9139 153.257 82.4223 151.957 80.5156C150.657 78.5656 148.945 77.1573 146.822 76.2906C144.699 75.3806 142.099 74.9256 139.022 74.9256C135.945 74.9256 133.345 75.3806 131.222 76.2906C129.099 77.1573 127.387 78.5656 126.087 80.5156C124.787 82.4223 123.855 84.9139 123.292 87.9906C122.729 91.0239 122.447 94.7073 122.447 99.0406ZM161.88 75.8356V122.246H173.19V93.5806H173.32L181.38 122.246H194.64V75.8356H183.33V104.436H183.2L175.4 75.8356H161.88ZM217.897 97.0256V105.216H222.187C222.187 107.209 222.079 108.856 221.862 110.156C221.689 111.412 221.429 112.409 221.082 113.146C220.735 113.839 220.302 114.316 219.782 114.576C219.305 114.836 218.742 114.966 218.092 114.966C217.182 114.966 216.445 114.727 215.882 114.251C215.362 113.774 214.95 112.929 214.647 111.716C214.387 110.502 214.214 108.877 214.127 106.841C214.04 104.761 213.997 102.161 213.997 99.0406C213.997 95.9206 214.04 93.3423 214.127 91.3056C214.214 89.2256 214.387 87.5789 214.647 86.3656C214.95 85.1523 215.384 84.3073 215.947 83.8306C216.554 83.3539 217.355 83.1156 218.352 83.1156C219.782 83.1156 220.714 83.7873 221.147 85.1306C221.58 86.2573 221.797 88.0556 221.797 90.5256H233.497C233.497 87.7089 233.129 85.3256 232.392 83.3756C231.655 81.3823 230.637 79.7573 229.337 78.5006C228.037 77.2439 226.477 76.3339 224.657 75.7706C222.88 75.2073 220.93 74.9256 218.807 74.9256C215.254 74.9256 212.35 75.4673 210.097 76.5506C207.844 77.5906 206.067 79.1289 204.767 81.1656C203.51 83.2023 202.644 85.7156 202.167 88.7056C201.734 91.6956 201.517 95.1406 201.517 99.0406C201.517 102.897 201.625 106.321 201.842 109.311C202.102 112.301 202.687 114.814 203.597 116.851C204.507 118.887 205.85 120.426 207.627 121.466C209.404 122.462 211.83 122.961 214.907 122.961C215.947 122.961 216.965 122.896 217.962 122.766C219.002 122.636 219.955 122.419 220.822 122.116C221.732 121.769 222.534 121.271 223.227 120.621C223.964 119.971 224.527 119.147 224.917 118.151H225.047L225.307 122.246H233.497V97.0256H217.897ZM252.455 95.4656V84.5456H254.795C256.615 84.5456 257.915 84.9573 258.695 85.7806C259.518 86.6039 259.93 87.9906 259.93 89.9406C259.93 91.5873 259.518 92.9306 258.695 93.9706C257.872 94.9673 256.593 95.4656 254.86 95.4656H252.455ZM240.365 75.8356V122.246H252.455V103.656H255.64C256.377 103.656 256.983 103.764 257.46 103.981C257.98 104.154 258.392 104.501 258.695 105.021C259.042 105.497 259.28 106.169 259.41 107.036C259.54 107.902 259.605 108.986 259.605 110.286V113.406C259.605 113.882 259.605 114.511 259.605 115.291C259.648 116.027 259.692 116.807 259.735 117.631C259.822 118.454 259.93 119.277 260.06 120.101C260.233 120.924 260.472 121.639 260.775 122.246H273.645V121.596C273.255 121.379 272.973 121.162 272.8 120.946C272.627 120.686 272.453 120.426 272.28 120.166C272.15 119.906 272.042 119.537 271.955 119.061C271.868 118.584 271.803 118.064 271.76 117.501C271.717 116.894 271.695 116.266 271.695 115.616C271.695 114.966 271.695 114.337 271.695 113.731V109.766C271.695 106.646 271.153 104.197 270.07 102.421C268.987 100.644 266.993 99.6256 264.09 99.3656V99.2356C266.863 98.8023 268.878 97.6323 270.135 95.7256C271.392 93.8189 272.02 91.3056 272.02 88.1856C272.02 86.4089 271.782 84.7623 271.305 83.2456C270.872 81.7289 270.135 80.4289 269.095 79.3456C268.098 78.2189 266.777 77.3523 265.13 76.7456C263.527 76.1389 261.577 75.8356 259.28 75.8356H240.365ZM294.784 85.3256L291.469 105.021H298.229L294.914 85.3256H294.784ZM302.454 75.8356L313.764 122.246H300.894L299.659 114.121H290.039L288.804 122.246H276.129L287.244 75.8356H302.454ZM320.263 86.1056V122.246H332.353V86.1056H341.453V75.8356H311.293V86.1056H320.263ZM357.697 75.8356H345.607V106.256C345.607 109.506 345.954 112.214 346.647 114.381C347.341 116.547 348.337 118.281 349.637 119.581C350.981 120.881 352.627 121.769 354.577 122.246C356.571 122.722 358.824 122.961 361.337 122.961C363.894 122.961 366.147 122.722 368.097 122.246C370.047 121.769 371.672 120.881 372.972 119.581C374.316 118.281 375.334 116.547 376.027 114.381C376.721 112.214 377.067 109.506 377.067 106.256V75.8356H364.977V109.311C364.977 111.564 364.652 113.081 364.002 113.861C363.352 114.597 362.464 114.966 361.337 114.966C360.211 114.966 359.322 114.597 358.672 113.861C358.022 113.081 357.697 111.564 357.697 109.311V75.8356ZM384.195 75.8356V122.246H411.17V112.366H396.285V75.8356H384.195ZM431.378 85.3256L428.063 105.021H434.823L431.508 85.3256H431.378ZM439.048 75.8356L450.358 122.246H437.488L436.253 114.121H426.633L425.398 122.246H412.723L423.838 75.8356H439.048ZM456.857 86.1056V122.246H468.947V86.1056H478.047V75.8356H447.887V86.1056H456.857ZM482.266 75.8356V122.246H494.356V75.8356H482.266ZM512.671 99.0406C512.671 95.9206 512.714 93.3423 512.801 91.3056C512.888 89.2256 513.061 87.5789 513.321 86.3656C513.624 85.1523 514.036 84.3073 514.556 83.8306C515.119 83.3539 515.856 83.1156 516.766 83.1156C517.676 83.1156 518.391 83.3539 518.911 83.8306C519.474 84.3073 519.886 85.1523 520.146 86.3656C520.449 87.5789 520.644 89.2256 520.731 91.3056C520.818 93.3423 520.861 95.9206 520.861 99.0406C520.861 102.161 520.818 104.761 520.731 106.841C520.644 108.877 520.449 110.502 520.146 111.716C519.886 112.929 519.474 113.774 518.911 114.251C518.391 114.727 517.676 114.966 516.766 114.966C515.856 114.966 515.119 114.727 514.556 114.251C514.036 113.774 513.624 112.929 513.321 111.716C513.061 110.502 512.888 108.877 512.801 106.841C512.714 104.761 512.671 102.161 512.671 99.0406ZM500.191 99.0406C500.191 103.374 500.473 107.079 501.036 110.156C501.599 113.189 502.531 115.681 503.831 117.631C505.131 119.537 506.843 120.902 508.966 121.726C511.089 122.549 513.689 122.961 516.766 122.961C519.843 122.961 522.443 122.549 524.566 121.726C526.689 120.902 528.401 119.537 529.701 117.631C531.001 115.681 531.933 113.189 532.496 110.156C533.059 107.079 533.341 103.374 533.341 99.0406C533.341 94.7073 533.059 91.0239 532.496 87.9906C531.933 84.9139 531.001 82.4223 529.701 80.5156C528.401 78.5656 526.689 77.1573 524.566 76.2906C522.443 75.3806 519.843 74.9256 516.766 74.9256C513.689 74.9256 511.089 75.3806 508.966 76.2906C506.843 77.1573 505.131 78.5656 503.831 80.5156C502.531 82.4223 501.599 84.9139 501.036 87.9906C500.473 91.0239 500.191 94.7073 500.191 99.0406ZM539.624 75.8356V122.246H550.934V93.5806H551.064L559.124 122.246H572.384V75.8356H561.074V104.436H560.944L553.144 75.8356H539.624ZM598.111 89.2256H609.421C609.421 84.2423 608.229 80.6239 605.846 78.3706C603.506 76.0739 599.693 74.9256 594.406 74.9256C589.293 74.9256 585.479 76.1606 582.966 78.6306C580.453 81.1006 579.196 84.6973 579.196 89.4206C579.196 92.1506 579.651 94.3606 580.561 96.0506C581.514 97.7406 582.684 99.1056 584.071 100.146C585.501 101.186 587.039 102.031 588.686 102.681C590.333 103.331 591.849 103.981 593.236 104.631C594.666 105.237 595.836 105.996 596.746 106.906C597.699 107.772 598.176 108.964 598.176 110.481C598.176 111.737 597.829 112.799 597.136 113.666C596.486 114.532 595.533 114.966 594.276 114.966C593.106 114.966 592.153 114.576 591.416 113.796C590.679 112.972 590.311 111.564 590.311 109.571V108.466H578.611V110.091C578.611 112.517 578.958 114.554 579.651 116.201C580.344 117.847 581.341 119.191 582.641 120.231C583.984 121.227 585.609 121.921 587.516 122.311C589.466 122.744 591.698 122.961 594.211 122.961C599.541 122.961 603.614 121.856 606.431 119.646C609.248 117.392 610.656 113.796 610.656 108.856C610.656 106.039 610.158 103.764 609.161 102.031C608.208 100.254 606.994 98.8239 605.521 97.7406C604.048 96.6573 602.466 95.7906 600.776 95.1406C599.086 94.4473 597.504 93.7756 596.031 93.1256C594.558 92.4756 593.323 91.7173 592.326 90.8506C591.373 89.9406 590.896 88.7273 590.896 87.2106C590.896 86.1706 591.199 85.2389 591.806 84.4156C592.413 83.5489 593.366 83.1156 594.666 83.1156C595.836 83.1156 596.703 83.6139 597.266 84.6106C597.829 85.5639 598.111 86.7339 598.111 88.1206V89.2256ZM618.593 91.3706L619.828 108.791H628.538L629.903 91.3706V75.8356H618.593V91.3706ZM618.853 111.976V122.246H629.773V111.976H618.853Z" fill="white"/>
</g>
<path d="M226.933 560.8L216.213 543.44H222.013L229.573 556.24L237.013 543.44H242.613L231.933 560.8V572H226.933V560.8ZM250.599 572.56C248.945 572.56 247.465 572.293 246.159 571.76C244.879 571.2 243.785 570.44 242.879 569.48C241.999 568.52 241.319 567.373 240.839 566.04C240.385 564.707 240.159 563.24 240.159 561.64C240.159 560.067 240.385 558.613 240.839 557.28C241.319 555.947 241.999 554.8 242.879 553.84C243.785 552.88 244.879 552.133 246.159 551.6C247.465 551.04 248.945 550.76 250.599 550.76C252.252 550.76 253.719 551.04 254.999 551.6C256.305 552.133 257.399 552.88 258.279 553.84C259.185 554.8 259.865 555.947 260.319 557.28C260.799 558.613 261.039 560.067 261.039 561.64C261.039 563.24 260.799 564.707 260.319 566.04C259.865 567.373 259.185 568.52 258.279 569.48C257.399 570.44 256.305 571.2 254.999 571.76C253.719 572.293 252.252 572.56 250.599 572.56ZM250.599 568.96C251.612 568.96 252.492 568.747 253.239 568.32C253.985 567.893 254.599 567.333 255.079 566.64C255.559 565.947 255.905 565.173 256.119 564.32C256.359 563.44 256.479 562.547 256.479 561.64C256.479 560.76 256.359 559.88 256.119 559C255.905 558.12 255.559 557.347 255.079 556.68C254.599 555.987 253.985 555.427 253.239 555C252.492 554.573 251.612 554.36 250.599 554.36C249.585 554.36 248.705 554.573 247.959 555C247.212 555.427 246.599 555.987 246.119 556.68C245.639 557.347 245.279 558.12 245.039 559C244.825 559.88 244.719 560.76 244.719 561.64C244.719 562.547 244.825 563.44 245.039 564.32C245.279 565.173 245.639 565.947 246.119 566.64C246.599 567.333 247.212 567.893 247.959 568.32C248.705 568.747 249.585 568.96 250.599 568.96ZM282.99 572H278.51V569.12H278.43C277.87 570.16 277.03 571 275.91 571.64C274.816 572.253 273.696 572.56 272.55 572.56C269.83 572.56 267.856 571.893 266.63 570.56C265.43 569.2 264.83 567.16 264.83 564.44V551.32H269.39V564C269.39 565.813 269.736 567.093 270.43 567.84C271.123 568.587 272.096 568.96 273.35 568.96C274.31 568.96 275.11 568.813 275.75 568.52C276.39 568.227 276.91 567.84 277.31 567.36C277.71 566.853 277.99 566.253 278.15 565.56C278.336 564.867 278.43 564.12 278.43 563.32V551.32H282.99V572ZM298.931 543.44H303.491V554.04H303.571C304.131 553.107 304.958 552.333 306.051 551.72C307.171 551.08 308.411 550.76 309.771 550.76C312.038 550.76 313.825 551.347 315.131 552.52C316.438 553.693 317.091 555.453 317.091 557.8V572H312.531V559C312.478 557.373 312.131 556.2 311.491 555.48C310.851 554.733 309.851 554.36 308.491 554.36C307.718 554.36 307.025 554.507 306.411 554.8C305.798 555.067 305.278 555.453 304.851 555.96C304.425 556.44 304.091 557.013 303.851 557.68C303.611 558.347 303.491 559.053 303.491 559.8V572H298.931V543.44ZM339.22 567.4C339.22 567.96 339.287 568.36 339.42 568.6C339.58 568.84 339.873 568.96 340.3 568.96C340.433 568.96 340.593 568.96 340.78 568.96C340.967 568.96 341.18 568.933 341.42 568.88V572.04C341.26 572.093 341.047 572.147 340.78 572.2C340.54 572.28 340.287 572.347 340.02 572.4C339.753 572.453 339.487 572.493 339.22 572.52C338.953 572.547 338.727 572.56 338.54 572.56C337.607 572.56 336.833 572.373 336.22 572C335.607 571.627 335.207 570.973 335.02 570.04C334.113 570.92 332.993 571.56 331.66 571.96C330.353 572.36 329.087 572.56 327.86 572.56C326.927 572.56 326.033 572.427 325.18 572.16C324.327 571.92 323.567 571.56 322.9 571.08C322.26 570.573 321.74 569.947 321.34 569.2C320.967 568.427 320.78 567.533 320.78 566.52C320.78 565.24 321.007 564.2 321.46 563.4C321.94 562.6 322.553 561.973 323.3 561.52C324.073 561.067 324.927 560.747 325.86 560.56C326.82 560.347 327.78 560.187 328.74 560.08C329.567 559.92 330.353 559.813 331.1 559.76C331.847 559.68 332.5 559.56 333.06 559.4C333.647 559.24 334.1 559 334.42 558.68C334.767 558.333 334.94 557.827 334.94 557.16C334.94 556.573 334.793 556.093 334.5 555.72C334.233 555.347 333.887 555.067 333.46 554.88C333.06 554.667 332.607 554.533 332.1 554.48C331.593 554.4 331.113 554.36 330.66 554.36C329.38 554.36 328.327 554.627 327.5 555.16C326.673 555.693 326.207 556.52 326.1 557.64H321.54C321.62 556.307 321.94 555.2 322.5 554.32C323.06 553.44 323.767 552.733 324.62 552.2C325.5 551.667 326.487 551.293 327.58 551.08C328.673 550.867 329.793 550.76 330.94 550.76C331.953 550.76 332.953 550.867 333.94 551.08C334.927 551.293 335.807 551.64 336.58 552.12C337.38 552.6 338.02 553.227 338.5 554C338.98 554.747 339.22 555.667 339.22 556.76V567.4ZM334.66 561.64C333.967 562.093 333.113 562.373 332.1 562.48C331.087 562.56 330.073 562.693 329.06 562.88C328.58 562.96 328.113 563.08 327.66 563.24C327.207 563.373 326.807 563.573 326.46 563.84C326.113 564.08 325.833 564.413 325.62 564.84C325.433 565.24 325.34 565.733 325.34 566.32C325.34 566.827 325.487 567.253 325.78 567.6C326.073 567.947 326.42 568.227 326.82 568.44C327.247 568.627 327.7 568.76 328.18 568.84C328.687 568.92 329.14 568.96 329.54 568.96C330.047 568.96 330.593 568.893 331.18 568.76C331.767 568.627 332.313 568.4 332.82 568.08C333.353 567.76 333.793 567.36 334.14 566.88C334.487 566.373 334.66 565.76 334.66 565.04V561.64ZM342.087 551.32H347.047L352.287 567.2H352.367L357.407 551.32H362.127L354.727 572H349.607L342.087 551.32ZM379.069 559.84C379.015 559.12 378.855 558.427 378.589 557.76C378.349 557.093 378.002 556.52 377.549 556.04C377.122 555.533 376.589 555.133 375.949 554.84C375.335 554.52 374.642 554.36 373.869 554.36C373.069 554.36 372.335 554.507 371.669 554.8C371.029 555.067 370.469 555.453 369.989 555.96C369.535 556.44 369.162 557.013 368.869 557.68C368.602 558.347 368.455 559.067 368.429 559.84H379.069ZM368.429 562.84C368.429 563.64 368.535 564.413 368.749 565.16C368.989 565.907 369.335 566.56 369.789 567.12C370.242 567.68 370.815 568.133 371.509 568.48C372.202 568.8 373.029 568.96 373.989 568.96C375.322 568.96 376.389 568.68 377.189 568.12C378.015 567.533 378.629 566.667 379.029 565.52H383.349C383.109 566.64 382.695 567.64 382.109 568.52C381.522 569.4 380.815 570.147 379.989 570.76C379.162 571.347 378.229 571.787 377.189 572.08C376.175 572.4 375.109 572.56 373.989 572.56C372.362 572.56 370.922 572.293 369.669 571.76C368.415 571.227 367.349 570.48 366.469 569.52C365.615 568.56 364.962 567.413 364.509 566.08C364.082 564.747 363.869 563.28 363.869 561.68C363.869 560.213 364.095 558.827 364.549 557.52C365.029 556.187 365.695 555.027 366.549 554.04C367.429 553.027 368.482 552.227 369.709 551.64C370.935 551.053 372.322 550.76 373.869 550.76C375.495 550.76 376.949 551.107 378.229 551.8C379.535 552.467 380.615 553.36 381.469 554.48C382.322 555.6 382.935 556.893 383.309 558.36C383.709 559.8 383.815 561.293 383.629 562.84H368.429ZM396.188 551.32H399.588V549.6C399.588 548.293 399.748 547.24 400.068 546.44C400.388 545.613 400.815 544.987 401.348 544.56C401.881 544.107 402.481 543.813 403.148 543.68C403.841 543.52 404.561 543.44 405.308 543.44C406.775 543.44 407.841 543.533 408.508 543.72V547.28C408.215 547.2 407.895 547.147 407.548 547.12C407.228 547.067 406.841 547.04 406.388 547.04C405.775 547.04 405.241 547.187 404.788 547.48C404.361 547.773 404.148 548.347 404.148 549.2V551.32H408.028V554.72H404.148V572H399.588V554.72H396.188V551.32ZM420.325 572.56C418.672 572.56 417.192 572.293 415.885 571.76C414.605 571.2 413.512 570.44 412.605 569.48C411.725 568.52 411.045 567.373 410.565 566.04C410.112 564.707 409.885 563.24 409.885 561.64C409.885 560.067 410.112 558.613 410.565 557.28C411.045 555.947 411.725 554.8 412.605 553.84C413.512 552.88 414.605 552.133 415.885 551.6C417.192 551.04 418.672 550.76 420.325 550.76C421.979 550.76 423.445 551.04 424.725 551.6C426.032 552.133 427.125 552.88 428.005 553.84C428.912 554.8 429.592 555.947 430.045 557.28C430.525 558.613 430.765 560.067 430.765 561.64C430.765 563.24 430.525 564.707 430.045 566.04C429.592 567.373 428.912 568.52 428.005 569.48C427.125 570.44 426.032 571.2 424.725 571.76C423.445 572.293 421.979 572.56 420.325 572.56ZM420.325 568.96C421.339 568.96 422.219 568.747 422.965 568.32C423.712 567.893 424.325 567.333 424.805 566.64C425.285 565.947 425.632 565.173 425.845 564.32C426.085 563.44 426.205 562.547 426.205 561.64C426.205 560.76 426.085 559.88 425.845 559C425.632 558.12 425.285 557.347 424.805 556.68C424.325 555.987 423.712 555.427 422.965 555C422.219 554.573 421.339 554.36 420.325 554.36C419.312 554.36 418.432 554.573 417.685 555C416.939 555.427 416.325 555.987 415.845 556.68C415.365 557.347 415.005 558.12 414.765 559C414.552 559.88 414.445 560.76 414.445 561.64C414.445 562.547 414.552 563.44 414.765 564.32C415.005 565.173 415.365 565.947 415.845 566.64C416.325 567.333 416.939 567.893 417.685 568.32C418.432 568.747 419.312 568.96 420.325 568.96ZM452.716 572H448.236V569.12H448.156C447.596 570.16 446.756 571 445.636 571.64C444.543 572.253 443.423 572.56 442.276 572.56C439.556 572.56 437.583 571.893 436.356 570.56C435.156 569.2 434.556 567.16 434.556 564.44V551.32H439.116V564C439.116 565.813 439.463 567.093 440.156 567.84C440.85 568.587 441.823 568.96 443.076 568.96C444.036 568.96 444.836 568.813 445.476 568.52C446.116 568.227 446.636 567.84 447.036 567.36C447.436 566.853 447.716 566.253 447.876 565.56C448.063 564.867 448.156 564.12 448.156 563.32V551.32H452.716V572ZM457.525 551.32H461.845V554.36L461.925 554.44C462.618 553.293 463.525 552.4 464.645 551.76C465.765 551.093 467.005 550.76 468.365 550.76C470.632 550.76 472.418 551.347 473.725 552.52C475.032 553.693 475.685 555.453 475.685 557.8V572H471.125V559C471.072 557.373 470.725 556.2 470.085 555.48C469.445 554.733 468.445 554.36 467.085 554.36C466.312 554.36 465.618 554.507 465.005 554.8C464.392 555.067 463.872 555.453 463.445 555.96C463.018 556.44 462.685 557.013 462.445 557.68C462.205 558.347 462.085 559.053 462.085 559.8V572H457.525V551.32ZM499.974 572H495.654V569.2H495.574C494.96 570.4 494.067 571.267 492.894 571.8C491.72 572.307 490.48 572.56 489.174 572.56C487.547 572.56 486.12 572.28 484.894 571.72C483.694 571.133 482.694 570.347 481.894 569.36C481.094 568.373 480.494 567.213 480.094 565.88C479.694 564.52 479.494 563.067 479.494 561.52C479.494 559.653 479.747 558.04 480.254 556.68C480.76 555.32 481.427 554.2 482.254 553.32C483.107 552.44 484.067 551.8 485.134 551.4C486.227 550.973 487.334 550.76 488.454 550.76C489.094 550.76 489.747 550.827 490.414 550.96C491.08 551.067 491.72 551.253 492.334 551.52C492.947 551.787 493.507 552.133 494.014 552.56C494.547 552.96 494.987 553.44 495.334 554H495.414V543.44H499.974V572ZM484.054 561.88C484.054 562.76 484.16 563.627 484.374 564.48C484.614 565.333 484.96 566.093 485.414 566.76C485.894 567.427 486.494 567.96 487.214 568.36C487.934 568.76 488.787 568.96 489.774 568.96C490.787 568.96 491.654 568.747 492.374 568.32C493.12 567.893 493.72 567.333 494.174 566.64C494.654 565.947 495 565.173 495.214 564.32C495.454 563.44 495.574 562.547 495.574 561.64C495.574 559.347 495.054 557.56 494.014 556.28C493 555 491.614 554.36 489.854 554.36C488.787 554.36 487.88 554.587 487.134 555.04C486.414 555.467 485.814 556.04 485.334 556.76C484.88 557.453 484.547 558.253 484.334 559.16C484.147 560.04 484.054 560.947 484.054 561.88ZM189.39 600.32H192.83V594.12H197.39V600.32H201.51V603.72H197.39V614.76C197.39 615.24 197.404 615.653 197.43 616C197.484 616.347 197.577 616.64 197.71 616.88C197.87 617.12 198.097 617.307 198.39 617.44C198.684 617.547 199.084 617.6 199.59 617.6C199.91 617.6 200.23 617.6 200.55 617.6C200.87 617.573 201.19 617.52 201.51 617.44V620.96C201.004 621.013 200.51 621.067 200.03 621.12C199.55 621.173 199.057 621.2 198.55 621.2C197.35 621.2 196.377 621.093 195.63 620.88C194.91 620.64 194.337 620.307 193.91 619.88C193.51 619.427 193.23 618.867 193.07 618.2C192.937 617.533 192.857 616.773 192.83 615.92V603.72H189.39V600.32ZM204.791 592.44H209.351V603.04H209.431C209.991 602.107 210.817 601.333 211.911 600.72C213.031 600.08 214.271 599.76 215.631 599.76C217.897 599.76 219.684 600.347 220.991 601.52C222.297 602.693 222.951 604.453 222.951 606.8V621H218.391V608C218.337 606.373 217.991 605.2 217.351 604.48C216.711 603.733 215.711 603.36 214.351 603.36C213.577 603.36 212.884 603.507 212.271 603.8C211.657 604.067 211.137 604.453 210.711 604.96C210.284 605.44 209.951 606.013 209.711 606.68C209.471 607.347 209.351 608.053 209.351 608.8V621H204.791V592.44ZM241.959 608.84C241.906 608.12 241.746 607.427 241.479 606.76C241.239 606.093 240.893 605.52 240.439 605.04C240.013 604.533 239.479 604.133 238.839 603.84C238.226 603.52 237.533 603.36 236.759 603.36C235.959 603.36 235.226 603.507 234.559 603.8C233.919 604.067 233.359 604.453 232.879 604.96C232.426 605.44 232.053 606.013 231.759 606.68C231.493 607.347 231.346 608.067 231.319 608.84H241.959ZM231.319 611.84C231.319 612.64 231.426 613.413 231.639 614.16C231.879 614.907 232.226 615.56 232.679 616.12C233.133 616.68 233.706 617.133 234.399 617.48C235.093 617.8 235.919 617.96 236.879 617.96C238.213 617.96 239.279 617.68 240.079 617.12C240.906 616.533 241.519 615.667 241.919 614.52H246.239C245.999 615.64 245.586 616.64 244.999 617.52C244.413 618.4 243.706 619.147 242.879 619.76C242.053 620.347 241.119 620.787 240.079 621.08C239.066 621.4 237.999 621.56 236.879 621.56C235.253 621.56 233.813 621.293 232.559 620.76C231.306 620.227 230.239 619.48 229.359 618.52C228.506 617.56 227.853 616.413 227.399 615.08C226.973 613.747 226.759 612.28 226.759 610.68C226.759 609.213 226.986 607.827 227.439 606.52C227.919 605.187 228.586 604.027 229.439 603.04C230.319 602.027 231.373 601.227 232.599 600.64C233.826 600.053 235.213 599.76 236.759 599.76C238.386 599.76 239.839 600.107 241.119 600.8C242.426 601.467 243.506 602.36 244.359 603.48C245.213 604.6 245.826 605.893 246.199 607.36C246.599 608.8 246.706 610.293 246.519 611.84H231.319ZM261.119 592.44H265.679V603.04H265.759C266.319 602.107 267.145 601.333 268.239 600.72C269.359 600.08 270.599 599.76 271.959 599.76C274.225 599.76 276.012 600.347 277.319 601.52C278.625 602.693 279.279 604.453 279.279 606.8V621H274.719V608C274.665 606.373 274.319 605.2 273.679 604.48C273.039 603.733 272.039 603.36 270.679 603.36C269.905 603.36 269.212 603.507 268.599 603.8C267.985 604.067 267.465 604.453 267.039 604.96C266.612 605.44 266.279 606.013 266.039 606.68C265.799 607.347 265.679 608.053 265.679 608.8V621H261.119V592.44ZM284.208 592.44H288.768V596.76H284.208V592.44ZM284.208 600.32H288.768V621H284.208V600.32ZM313.216 621H308.896V618.2H308.816C308.203 619.4 307.309 620.267 306.136 620.8C304.963 621.307 303.723 621.56 302.416 621.56C300.789 621.56 299.363 621.28 298.136 620.72C296.936 620.133 295.936 619.347 295.136 618.36C294.336 617.373 293.736 616.213 293.336 614.88C292.936 613.52 292.736 612.067 292.736 610.52C292.736 608.653 292.989 607.04 293.496 605.68C294.003 604.32 294.669 603.2 295.496 602.32C296.349 601.44 297.309 600.8 298.376 600.4C299.469 599.973 300.576 599.76 301.696 599.76C302.336 599.76 302.989 599.827 303.656 599.96C304.323 600.067 304.963 600.253 305.576 600.52C306.189 600.787 306.749 601.133 307.256 601.56C307.789 601.96 308.229 602.44 308.576 603H308.656V592.44H313.216V621ZM297.296 610.88C297.296 611.76 297.403 612.627 297.616 613.48C297.856 614.333 298.203 615.093 298.656 615.76C299.136 616.427 299.736 616.96 300.456 617.36C301.176 617.76 302.029 617.96 303.016 617.96C304.029 617.96 304.896 617.747 305.616 617.32C306.363 616.893 306.963 616.333 307.416 615.64C307.896 614.947 308.243 614.173 308.456 613.32C308.696 612.44 308.816 611.547 308.816 610.64C308.816 608.347 308.296 606.56 307.256 605.28C306.243 604 304.856 603.36 303.096 603.36C302.029 603.36 301.123 603.587 300.376 604.04C299.656 604.467 299.056 605.04 298.576 605.76C298.123 606.453 297.789 607.253 297.576 608.16C297.389 609.04 297.296 609.947 297.296 610.88ZM337.669 621H333.349V618.2H333.269C332.656 619.4 331.762 620.267 330.589 620.8C329.416 621.307 328.176 621.56 326.869 621.56C325.242 621.56 323.816 621.28 322.589 620.72C321.389 620.133 320.389 619.347 319.589 618.36C318.789 617.373 318.189 616.213 317.789 614.88C317.389 613.52 317.189 612.067 317.189 610.52C317.189 608.653 317.442 607.04 317.949 605.68C318.456 604.32 319.122 603.2 319.949 602.32C320.802 601.44 321.762 600.8 322.829 600.4C323.922 599.973 325.029 599.76 326.149 599.76C326.789 599.76 327.442 599.827 328.109 599.96C328.776 600.067 329.416 600.253 330.029 600.52C330.642 600.787 331.202 601.133 331.709 601.56C332.242 601.96 332.682 602.44 333.029 603H333.109V592.44H337.669V621ZM321.749 610.88C321.749 611.76 321.856 612.627 322.069 613.48C322.309 614.333 322.656 615.093 323.109 615.76C323.589 616.427 324.189 616.96 324.909 617.36C325.629 617.76 326.482 617.96 327.469 617.96C328.482 617.96 329.349 617.747 330.069 617.32C330.816 616.893 331.416 616.333 331.869 615.64C332.349 614.947 332.696 614.173 332.909 613.32C333.149 612.44 333.269 611.547 333.269 610.64C333.269 608.347 332.749 606.56 331.709 605.28C330.696 604 329.309 603.36 327.549 603.36C326.482 603.36 325.576 603.587 324.829 604.04C324.109 604.467 323.509 605.04 323.029 605.76C322.576 606.453 322.242 607.253 322.029 608.16C321.842 609.04 321.749 609.947 321.749 610.88ZM356.842 608.84C356.789 608.12 356.629 607.427 356.362 606.76C356.122 606.093 355.776 605.52 355.322 605.04C354.896 604.533 354.362 604.133 353.722 603.84C353.109 603.52 352.416 603.36 351.642 603.36C350.842 603.36 350.109 603.507 349.442 603.8C348.802 604.067 348.242 604.453 347.762 604.96C347.309 605.44 346.936 606.013 346.642 606.68C346.376 607.347 346.229 608.067 346.202 608.84H356.842ZM346.202 611.84C346.202 612.64 346.309 613.413 346.522 614.16C346.762 614.907 347.109 615.56 347.562 616.12C348.016 616.68 348.589 617.133 349.282 617.48C349.976 617.8 350.802 617.96 351.762 617.96C353.096 617.96 354.162 617.68 354.962 617.12C355.789 616.533 356.402 615.667 356.802 614.52H361.122C360.882 615.64 360.469 616.64 359.882 617.52C359.296 618.4 358.589 619.147 357.762 619.76C356.936 620.347 356.002 620.787 354.962 621.08C353.949 621.4 352.882 621.56 351.762 621.56C350.136 621.56 348.696 621.293 347.442 620.76C346.189 620.227 345.122 619.48 344.242 618.52C343.389 617.56 342.736 616.413 342.282 615.08C341.856 613.747 341.642 612.28 341.642 610.68C341.642 609.213 341.869 607.827 342.322 606.52C342.802 605.187 343.469 604.027 344.322 603.04C345.202 602.027 346.256 601.227 347.482 600.64C348.709 600.053 350.096 599.76 351.642 599.76C353.269 599.76 354.722 600.107 356.002 600.8C357.309 601.467 358.389 602.36 359.242 603.48C360.096 604.6 360.709 605.893 361.082 607.36C361.482 608.8 361.589 610.293 361.402 611.84H346.202ZM364.869 600.32H369.189V603.36L369.269 603.44C369.962 602.293 370.869 601.4 371.989 600.76C373.109 600.093 374.349 599.76 375.709 599.76C377.975 599.76 379.762 600.347 381.069 601.52C382.375 602.693 383.029 604.453 383.029 606.8V621H378.469V608C378.415 606.373 378.069 605.2 377.429 604.48C376.789 603.733 375.789 603.36 374.429 603.36C373.655 603.36 372.962 603.507 372.349 603.8C371.735 604.067 371.215 604.453 370.789 604.96C370.362 605.44 370.029 606.013 369.789 606.68C369.549 607.347 369.429 608.053 369.429 608.8V621H364.869V600.32ZM399.09 592.44H403.65V596.76H399.09V592.44ZM399.09 600.32H403.65V621H399.09V600.32ZM408.619 600.32H412.939V603.2H413.059C413.405 602.693 413.779 602.227 414.179 601.8C414.579 601.373 415.019 601.013 415.499 600.72C416.005 600.427 416.579 600.2 417.219 600.04C417.859 599.853 418.592 599.76 419.419 599.76C420.672 599.76 421.832 600.04 422.899 600.6C423.992 601.16 424.765 602.027 425.219 603.2C425.992 602.133 426.885 601.293 427.899 600.68C428.912 600.067 430.179 599.76 431.699 599.76C433.885 599.76 435.579 600.293 436.779 601.36C438.005 602.427 438.619 604.213 438.619 606.72V621H434.059V608.92C434.059 608.093 434.032 607.347 433.979 606.68C433.925 605.987 433.765 605.4 433.499 604.92C433.259 604.413 432.885 604.027 432.379 603.76C431.872 603.493 431.179 603.36 430.299 603.36C428.752 603.36 427.632 603.84 426.939 604.8C426.245 605.76 425.899 607.12 425.899 608.88V621H421.339V607.72C421.339 606.28 421.072 605.2 420.539 604.48C420.032 603.733 419.085 603.36 417.699 603.36C417.112 603.36 416.539 603.48 415.979 603.72C415.445 603.96 414.965 604.307 414.539 604.76C414.139 605.213 413.805 605.773 413.539 606.44C413.299 607.107 413.179 607.867 413.179 608.72V621H408.619V600.32ZM460.743 616.4C460.743 616.96 460.81 617.36 460.943 617.6C461.103 617.84 461.397 617.96 461.823 617.96C461.957 617.96 462.117 617.96 462.303 617.96C462.49 617.96 462.703 617.933 462.943 617.88V621.04C462.783 621.093 462.57 621.147 462.303 621.2C462.063 621.28 461.81 621.347 461.543 621.4C461.277 621.453 461.01 621.493 460.743 621.52C460.477 621.547 460.25 621.56 460.063 621.56C459.13 621.56 458.357 621.373 457.743 621C457.13 620.627 456.73 619.973 456.543 619.04C455.637 619.92 454.517 620.56 453.183 620.96C451.877 621.36 450.61 621.56 449.383 621.56C448.45 621.56 447.557 621.427 446.703 621.16C445.85 620.92 445.09 620.56 444.423 620.08C443.783 619.573 443.263 618.947 442.863 618.2C442.49 617.427 442.303 616.533 442.303 615.52C442.303 614.24 442.53 613.2 442.983 612.4C443.463 611.6 444.077 610.973 444.823 610.52C445.597 610.067 446.45 609.747 447.383 609.56C448.343 609.347 449.303 609.187 450.263 609.08C451.09 608.92 451.877 608.813 452.623 608.76C453.37 608.68 454.023 608.56 454.583 608.4C455.17 608.24 455.623 608 455.943 607.68C456.29 607.333 456.463 606.827 456.463 606.16C456.463 605.573 456.317 605.093 456.023 604.72C455.757 604.347 455.41 604.067 454.983 603.88C454.583 603.667 454.13 603.533 453.623 603.48C453.117 603.4 452.637 603.36 452.183 603.36C450.903 603.36 449.85 603.627 449.023 604.16C448.197 604.693 447.73 605.52 447.623 606.64H443.063C443.143 605.307 443.463 604.2 444.023 603.32C444.583 602.44 445.29 601.733 446.143 601.2C447.023 600.667 448.01 600.293 449.103 600.08C450.197 599.867 451.317 599.76 452.463 599.76C453.477 599.76 454.477 599.867 455.463 600.08C456.45 600.293 457.33 600.64 458.103 601.12C458.903 601.6 459.543 602.227 460.023 603C460.503 603.747 460.743 604.667 460.743 605.76V616.4ZM456.183 610.64C455.49 611.093 454.637 611.373 453.623 611.48C452.61 611.56 451.597 611.693 450.583 611.88C450.103 611.96 449.637 612.08 449.183 612.24C448.73 612.373 448.33 612.573 447.983 612.84C447.637 613.08 447.357 613.413 447.143 613.84C446.957 614.24 446.863 614.733 446.863 615.32C446.863 615.827 447.01 616.253 447.303 616.6C447.597 616.947 447.943 617.227 448.343 617.44C448.77 617.627 449.223 617.76 449.703 617.84C450.21 617.92 450.663 617.96 451.063 617.96C451.57 617.96 452.117 617.893 452.703 617.76C453.29 617.627 453.837 617.4 454.343 617.08C454.877 616.76 455.317 616.36 455.663 615.88C456.01 615.373 456.183 614.76 456.183 614.04V610.64ZM484.77 619.92C484.77 623.04 483.89 625.36 482.13 626.88C480.397 628.427 477.89 629.2 474.61 629.2C473.57 629.2 472.517 629.093 471.45 628.88C470.41 628.667 469.45 628.307 468.57 627.8C467.717 627.293 466.997 626.627 466.41 625.8C465.823 624.973 465.477 623.96 465.37 622.76H469.93C470.063 623.4 470.29 623.92 470.61 624.32C470.93 624.72 471.303 625.027 471.73 625.24C472.183 625.48 472.677 625.627 473.21 625.68C473.743 625.76 474.303 625.8 474.89 625.8C476.73 625.8 478.077 625.347 478.93 624.44C479.783 623.533 480.21 622.227 480.21 620.52V617.36H480.13C479.49 618.507 478.61 619.4 477.49 620.04C476.397 620.68 475.21 621 473.93 621C472.277 621 470.863 620.72 469.69 620.16C468.543 619.573 467.583 618.787 466.81 617.8C466.063 616.787 465.517 615.627 465.17 614.32C464.823 613.013 464.65 611.613 464.65 610.12C464.65 608.733 464.863 607.413 465.29 606.16C465.717 604.907 466.33 603.813 467.13 602.88C467.93 601.92 468.903 601.16 470.05 600.6C471.223 600.04 472.543 599.76 474.01 599.76C475.317 599.76 476.517 600.04 477.61 600.6C478.703 601.133 479.543 601.987 480.13 603.16H480.21V600.32H484.77V619.92ZM474.65 617.4C475.663 617.4 476.517 617.2 477.21 616.8C477.93 616.373 478.503 615.827 478.93 615.16C479.383 614.467 479.703 613.693 479.89 612.84C480.103 611.96 480.21 611.08 480.21 610.2C480.21 609.32 480.103 608.467 479.89 607.64C479.677 606.813 479.343 606.08 478.89 605.44C478.463 604.8 477.89 604.293 477.17 603.92C476.477 603.547 475.637 603.36 474.65 603.36C473.637 603.36 472.783 603.573 472.09 604C471.397 604.427 470.837 604.987 470.41 605.68C469.983 606.347 469.677 607.12 469.49 608C469.303 608.853 469.21 609.707 469.21 610.56C469.21 611.413 469.317 612.253 469.53 613.08C469.743 613.88 470.063 614.6 470.49 615.24C470.943 615.88 471.503 616.4 472.17 616.8C472.863 617.2 473.69 617.4 474.65 617.4ZM503.561 608.84C503.508 608.12 503.348 607.427 503.081 606.76C502.841 606.093 502.494 605.52 502.041 605.04C501.614 604.533 501.081 604.133 500.441 603.84C499.828 603.52 499.134 603.36 498.361 603.36C497.561 603.36 496.828 603.507 496.161 603.8C495.521 604.067 494.961 604.453 494.481 604.96C494.028 605.44 493.654 606.013 493.361 606.68C493.094 607.347 492.948 608.067 492.921 608.84H503.561ZM492.921 611.84C492.921 612.64 493.028 613.413 493.241 614.16C493.481 614.907 493.828 615.56 494.281 616.12C494.734 616.68 495.308 617.133 496.001 617.48C496.694 617.8 497.521 617.96 498.481 617.96C499.814 617.96 500.881 617.68 501.681 617.12C502.508 616.533 503.121 615.667 503.521 614.52H507.841C507.601 615.64 507.188 616.64 506.601 617.52C506.014 618.4 505.308 619.147 504.481 619.76C503.654 620.347 502.721 620.787 501.681 621.08C500.668 621.4 499.601 621.56 498.481 621.56C496.854 621.56 495.414 621.293 494.161 620.76C492.908 620.227 491.841 619.48 490.961 618.52C490.108 617.56 489.454 616.413 489.001 615.08C488.574 613.747 488.361 612.28 488.361 610.68C488.361 609.213 488.588 607.827 489.041 606.52C489.521 605.187 490.188 604.027 491.041 603.04C491.921 602.027 492.974 601.227 494.201 600.64C495.428 600.053 496.814 599.76 498.361 599.76C499.988 599.76 501.441 600.107 502.721 600.8C504.028 601.467 505.108 602.36 505.961 603.48C506.814 604.6 507.428 605.893 507.801 607.36C508.201 608.8 508.308 610.293 508.121 611.84H492.921ZM515.028 614.36C515.161 615.693 515.668 616.627 516.548 617.16C517.428 617.693 518.481 617.96 519.708 617.96C520.134 617.96 520.614 617.933 521.148 617.88C521.708 617.8 522.228 617.667 522.708 617.48C523.188 617.293 523.574 617.027 523.868 616.68C524.188 616.307 524.334 615.827 524.308 615.24C524.281 614.653 524.068 614.173 523.668 613.8C523.268 613.427 522.748 613.133 522.108 612.92C521.494 612.68 520.788 612.48 519.988 612.32C519.188 612.16 518.374 611.987 517.548 611.8C516.694 611.613 515.868 611.387 515.067 611.12C514.294 610.853 513.588 610.493 512.948 610.04C512.334 609.587 511.841 609.013 511.468 608.32C511.094 607.6 510.908 606.72 510.908 605.68C510.908 604.56 511.174 603.627 511.708 602.88C512.268 602.107 512.961 601.493 513.788 601.04C514.641 600.56 515.574 600.227 516.588 600.04C517.628 599.853 518.614 599.76 519.548 599.76C520.614 599.76 521.628 599.88 522.588 600.12C523.574 600.333 524.454 600.693 525.228 601.2C526.028 601.707 526.681 602.373 527.188 603.2C527.721 604 528.054 604.973 528.188 606.12H523.428C523.214 605.027 522.708 604.293 521.908 603.92C521.134 603.547 520.241 603.36 519.228 603.36C518.908 603.36 518.521 603.387 518.068 603.44C517.641 603.493 517.228 603.6 516.828 603.76C516.454 603.893 516.134 604.107 515.868 604.4C515.601 604.667 515.468 605.027 515.468 605.48C515.468 606.04 515.654 606.493 516.028 606.84C516.428 607.187 516.934 607.48 517.548 607.72C518.188 607.933 518.908 608.12 519.708 608.28C520.508 608.44 521.334 608.613 522.188 608.8C523.014 608.987 523.828 609.213 524.628 609.48C525.428 609.747 526.134 610.107 526.748 610.56C527.388 611.013 527.894 611.587 528.268 612.28C528.668 612.973 528.868 613.827 528.868 614.84C528.868 616.067 528.588 617.107 528.028 617.96C527.468 618.813 526.734 619.507 525.828 620.04C524.948 620.573 523.961 620.96 522.868 621.2C521.774 621.44 520.694 621.56 519.628 621.56C518.321 621.56 517.108 621.413 515.988 621.12C514.894 620.827 513.934 620.387 513.108 619.8C512.308 619.187 511.668 618.44 511.188 617.56C510.734 616.653 510.494 615.587 510.468 614.36H515.028Z" fill="url(#paint2_linear)"/>
<path d="M226.933 560.8L216.213 543.44H222.013L229.573 556.24L237.013 543.44H242.613L231.933 560.8V572H226.933V560.8ZM250.599 572.56C248.945 572.56 247.465 572.293 246.159 571.76C244.879 571.2 243.785 570.44 242.879 569.48C241.999 568.52 241.319 567.373 240.839 566.04C240.385 564.707 240.159 563.24 240.159 561.64C240.159 560.067 240.385 558.613 240.839 557.28C241.319 555.947 241.999 554.8 242.879 553.84C243.785 552.88 244.879 552.133 246.159 551.6C247.465 551.04 248.945 550.76 250.599 550.76C252.252 550.76 253.719 551.04 254.999 551.6C256.305 552.133 257.399 552.88 258.279 553.84C259.185 554.8 259.865 555.947 260.319 557.28C260.799 558.613 261.039 560.067 261.039 561.64C261.039 563.24 260.799 564.707 260.319 566.04C259.865 567.373 259.185 568.52 258.279 569.48C257.399 570.44 256.305 571.2 254.999 571.76C253.719 572.293 252.252 572.56 250.599 572.56ZM250.599 568.96C251.612 568.96 252.492 568.747 253.239 568.32C253.985 567.893 254.599 567.333 255.079 566.64C255.559 565.947 255.905 565.173 256.119 564.32C256.359 563.44 256.479 562.547 256.479 561.64C256.479 560.76 256.359 559.88 256.119 559C255.905 558.12 255.559 557.347 255.079 556.68C254.599 555.987 253.985 555.427 253.239 555C252.492 554.573 251.612 554.36 250.599 554.36C249.585 554.36 248.705 554.573 247.959 555C247.212 555.427 246.599 555.987 246.119 556.68C245.639 557.347 245.279 558.12 245.039 559C244.825 559.88 244.719 560.76 244.719 561.64C244.719 562.547 244.825 563.44 245.039 564.32C245.279 565.173 245.639 565.947 246.119 566.64C246.599 567.333 247.212 567.893 247.959 568.32C248.705 568.747 249.585 568.96 250.599 568.96ZM282.99 572H278.51V569.12H278.43C277.87 570.16 277.03 571 275.91 571.64C274.816 572.253 273.696 572.56 272.55 572.56C269.83 572.56 267.856 571.893 266.63 570.56C265.43 569.2 264.83 567.16 264.83 564.44V551.32H269.39V564C269.39 565.813 269.736 567.093 270.43 567.84C271.123 568.587 272.096 568.96 273.35 568.96C274.31 568.96 275.11 568.813 275.75 568.52C276.39 568.227 276.91 567.84 277.31 567.36C277.71 566.853 277.99 566.253 278.15 565.56C278.336 564.867 278.43 564.12 278.43 563.32V551.32H282.99V572ZM298.931 543.44H303.491V554.04H303.571C304.131 553.107 304.958 552.333 306.051 551.72C307.171 551.08 308.411 550.76 309.771 550.76C312.038 550.76 313.825 551.347 315.131 552.52C316.438 553.693 317.091 555.453 317.091 557.8V572H312.531V559C312.478 557.373 312.131 556.2 311.491 555.48C310.851 554.733 309.851 554.36 308.491 554.36C307.718 554.36 307.025 554.507 306.411 554.8C305.798 555.067 305.278 555.453 304.851 555.96C304.425 556.44 304.091 557.013 303.851 557.68C303.611 558.347 303.491 559.053 303.491 559.8V572H298.931V543.44ZM339.22 567.4C339.22 567.96 339.287 568.36 339.42 568.6C339.58 568.84 339.873 568.96 340.3 568.96C340.433 568.96 340.593 568.96 340.78 568.96C340.967 568.96 341.18 568.933 341.42 568.88V572.04C341.26 572.093 341.047 572.147 340.78 572.2C340.54 572.28 340.287 572.347 340.02 572.4C339.753 572.453 339.487 572.493 339.22 572.52C338.953 572.547 338.727 572.56 338.54 572.56C337.607 572.56 336.833 572.373 336.22 572C335.607 571.627 335.207 570.973 335.02 570.04C334.113 570.92 332.993 571.56 331.66 571.96C330.353 572.36 329.087 572.56 327.86 572.56C326.927 572.56 326.033 572.427 325.18 572.16C324.327 571.92 323.567 571.56 322.9 571.08C322.26 570.573 321.74 569.947 321.34 569.2C320.967 568.427 320.78 567.533 320.78 566.52C320.78 565.24 321.007 564.2 321.46 563.4C321.94 562.6 322.553 561.973 323.3 561.52C324.073 561.067 324.927 560.747 325.86 560.56C326.82 560.347 327.78 560.187 328.74 560.08C329.567 559.92 330.353 559.813 331.1 559.76C331.847 559.68 332.5 559.56 333.06 559.4C333.647 559.24 334.1 559 334.42 558.68C334.767 558.333 334.94 557.827 334.94 557.16C334.94 556.573 334.793 556.093 334.5 555.72C334.233 555.347 333.887 555.067 333.46 554.88C333.06 554.667 332.607 554.533 332.1 554.48C331.593 554.4 331.113 554.36 330.66 554.36C329.38 554.36 328.327 554.627 327.5 555.16C326.673 555.693 326.207 556.52 326.1 557.64H321.54C321.62 556.307 321.94 555.2 322.5 554.32C323.06 553.44 323.767 552.733 324.62 552.2C325.5 551.667 326.487 551.293 327.58 551.08C328.673 550.867 329.793 550.76 330.94 550.76C331.953 550.76 332.953 550.867 333.94 551.08C334.927 551.293 335.807 551.64 336.58 552.12C337.38 552.6 338.02 553.227 338.5 554C338.98 554.747 339.22 555.667 339.22 556.76V567.4ZM334.66 561.64C333.967 562.093 333.113 562.373 332.1 562.48C331.087 562.56 330.073 562.693 329.06 562.88C328.58 562.96 328.113 563.08 327.66 563.24C327.207 563.373 326.807 563.573 326.46 563.84C326.113 564.08 325.833 564.413 325.62 564.84C325.433 565.24 325.34 565.733 325.34 566.32C325.34 566.827 325.487 567.253 325.78 567.6C326.073 567.947 326.42 568.227 326.82 568.44C327.247 568.627 327.7 568.76 328.18 568.84C328.687 568.92 329.14 568.96 329.54 568.96C330.047 568.96 330.593 568.893 331.18 568.76C331.767 568.627 332.313 568.4 332.82 568.08C333.353 567.76 333.793 567.36 334.14 566.88C334.487 566.373 334.66 565.76 334.66 565.04V561.64ZM342.087 551.32H347.047L352.287 567.2H352.367L357.407 551.32H362.127L354.727 572H349.607L342.087 551.32ZM379.069 559.84C379.015 559.12 378.855 558.427 378.589 557.76C378.349 557.093 378.002 556.52 377.549 556.04C377.122 555.533 376.589 555.133 375.949 554.84C375.335 554.52 374.642 554.36 373.869 554.36C373.069 554.36 372.335 554.507 371.669 554.8C371.029 555.067 370.469 555.453 369.989 555.96C369.535 556.44 369.162 557.013 368.869 557.68C368.602 558.347 368.455 559.067 368.429 559.84H379.069ZM368.429 562.84C368.429 563.64 368.535 564.413 368.749 565.16C368.989 565.907 369.335 566.56 369.789 567.12C370.242 567.68 370.815 568.133 371.509 568.48C372.202 568.8 373.029 568.96 373.989 568.96C375.322 568.96 376.389 568.68 377.189 568.12C378.015 567.533 378.629 566.667 379.029 565.52H383.349C383.109 566.64 382.695 567.64 382.109 568.52C381.522 569.4 380.815 570.147 379.989 570.76C379.162 571.347 378.229 571.787 377.189 572.08C376.175 572.4 375.109 572.56 373.989 572.56C372.362 572.56 370.922 572.293 369.669 571.76C368.415 571.227 367.349 570.48 366.469 569.52C365.615 568.56 364.962 567.413 364.509 566.08C364.082 564.747 363.869 563.28 363.869 561.68C363.869 560.213 364.095 558.827 364.549 557.52C365.029 556.187 365.695 555.027 366.549 554.04C367.429 553.027 368.482 552.227 369.709 551.64C370.935 551.053 372.322 550.76 373.869 550.76C375.495 550.76 376.949 551.107 378.229 551.8C379.535 552.467 380.615 553.36 381.469 554.48C382.322 555.6 382.935 556.893 383.309 558.36C383.709 559.8 383.815 561.293 383.629 562.84H368.429ZM396.188 551.32H399.588V549.6C399.588 548.293 399.748 547.24 400.068 546.44C400.388 545.613 400.815 544.987 401.348 544.56C401.881 544.107 402.481 543.813 403.148 543.68C403.841 543.52 404.561 543.44 405.308 543.44C406.775 543.44 407.841 543.533 408.508 543.72V547.28C408.215 547.2 407.895 547.147 407.548 547.12C407.228 547.067 406.841 547.04 406.388 547.04C405.775 547.04 405.241 547.187 404.788 547.48C404.361 547.773 404.148 548.347 404.148 549.2V551.32H408.028V554.72H404.148V572H399.588V554.72H396.188V551.32ZM420.325 572.56C418.672 572.56 417.192 572.293 415.885 571.76C414.605 571.2 413.512 570.44 412.605 569.48C411.725 568.52 411.045 567.373 410.565 566.04C410.112 564.707 409.885 563.24 409.885 561.64C409.885 560.067 410.112 558.613 410.565 557.28C411.045 555.947 411.725 554.8 412.605 553.84C413.512 552.88 414.605 552.133 415.885 551.6C417.192 551.04 418.672 550.76 420.325 550.76C421.979 550.76 423.445 551.04 424.725 551.6C426.032 552.133 427.125 552.88 428.005 553.84C428.912 554.8 429.592 555.947 430.045 557.28C430.525 558.613 430.765 560.067 430.765 561.64C430.765 563.24 430.525 564.707 430.045 566.04C429.592 567.373 428.912 568.52 428.005 569.48C427.125 570.44 426.032 571.2 424.725 571.76C423.445 572.293 421.979 572.56 420.325 572.56ZM420.325 568.96C421.339 568.96 422.219 568.747 422.965 568.32C423.712 567.893 424.325 567.333 424.805 566.64C425.285 565.947 425.632 565.173 425.845 564.32C426.085 563.44 426.205 562.547 426.205 561.64C426.205 560.76 426.085 559.88 425.845 559C425.632 558.12 425.285 557.347 424.805 556.68C424.325 555.987 423.712 555.427 422.965 555C422.219 554.573 421.339 554.36 420.325 554.36C419.312 554.36 418.432 554.573 417.685 555C416.939 555.427 416.325 555.987 415.845 556.68C415.365 557.347 415.005 558.12 414.765 559C414.552 559.88 414.445 560.76 414.445 561.64C414.445 562.547 414.552 563.44 414.765 564.32C415.005 565.173 415.365 565.947 415.845 566.64C416.325 567.333 416.939 567.893 417.685 568.32C418.432 568.747 419.312 568.96 420.325 568.96ZM452.716 572H448.236V569.12H448.156C447.596 570.16 446.756 571 445.636 571.64C444.543 572.253 443.423 572.56 442.276 572.56C439.556 572.56 437.583 571.893 436.356 570.56C435.156 569.2 434.556 567.16 434.556 564.44V551.32H439.116V564C439.116 565.813 439.463 567.093 440.156 567.84C440.85 568.587 441.823 568.96 443.076 568.96C444.036 568.96 444.836 568.813 445.476 568.52C446.116 568.227 446.636 567.84 447.036 567.36C447.436 566.853 447.716 566.253 447.876 565.56C448.063 564.867 448.156 564.12 448.156 563.32V551.32H452.716V572ZM457.525 551.32H461.845V554.36L461.925 554.44C462.618 553.293 463.525 552.4 464.645 551.76C465.765 551.093 467.005 550.76 468.365 550.76C470.632 550.76 472.418 551.347 473.725 552.52C475.032 553.693 475.685 555.453 475.685 557.8V572H471.125V559C471.072 557.373 470.725 556.2 470.085 555.48C469.445 554.733 468.445 554.36 467.085 554.36C466.312 554.36 465.618 554.507 465.005 554.8C464.392 555.067 463.872 555.453 463.445 555.96C463.018 556.44 462.685 557.013 462.445 557.68C462.205 558.347 462.085 559.053 462.085 559.8V572H457.525V551.32ZM499.974 572H495.654V569.2H495.574C494.96 570.4 494.067 571.267 492.894 571.8C491.72 572.307 490.48 572.56 489.174 572.56C487.547 572.56 486.12 572.28 484.894 571.72C483.694 571.133 482.694 570.347 481.894 569.36C481.094 568.373 480.494 567.213 480.094 565.88C479.694 564.52 479.494 563.067 479.494 561.52C479.494 559.653 479.747 558.04 480.254 556.68C480.76 555.32 481.427 554.2 482.254 553.32C483.107 552.44 484.067 551.8 485.134 551.4C486.227 550.973 487.334 550.76 488.454 550.76C489.094 550.76 489.747 550.827 490.414 550.96C491.08 551.067 491.72 551.253 492.334 551.52C492.947 551.787 493.507 552.133 494.014 552.56C494.547 552.96 494.987 553.44 495.334 554H495.414V543.44H499.974V572ZM484.054 561.88C484.054 562.76 484.16 563.627 484.374 564.48C484.614 565.333 484.96 566.093 485.414 566.76C485.894 567.427 486.494 567.96 487.214 568.36C487.934 568.76 488.787 568.96 489.774 568.96C490.787 568.96 491.654 568.747 492.374 568.32C493.12 567.893 493.72 567.333 494.174 566.64C494.654 565.947 495 565.173 495.214 564.32C495.454 563.44 495.574 562.547 495.574 561.64C495.574 559.347 495.054 557.56 494.014 556.28C493 555 491.614 554.36 489.854 554.36C488.787 554.36 487.88 554.587 487.134 555.04C486.414 555.467 485.814 556.04 485.334 556.76C484.88 557.453 484.547 558.253 484.334 559.16C484.147 560.04 484.054 560.947 484.054 561.88ZM189.39 600.32H192.83V594.12H197.39V600.32H201.51V603.72H197.39V614.76C197.39 615.24 197.404 615.653 197.43 616C197.484 616.347 197.577 616.64 197.71 616.88C197.87 617.12 198.097 617.307 198.39 617.44C198.684 617.547 199.084 617.6 199.59 617.6C199.91 617.6 200.23 617.6 200.55 617.6C200.87 617.573 201.19 617.52 201.51 617.44V620.96C201.004 621.013 200.51 621.067 200.03 621.12C199.55 621.173 199.057 621.2 198.55 621.2C197.35 621.2 196.377 621.093 195.63 620.88C194.91 620.64 194.337 620.307 193.91 619.88C193.51 619.427 193.23 618.867 193.07 618.2C192.937 617.533 192.857 616.773 192.83 615.92V603.72H189.39V600.32ZM204.791 592.44H209.351V603.04H209.431C209.991 602.107 210.817 601.333 211.911 600.72C213.031 600.08 214.271 599.76 215.631 599.76C217.897 599.76 219.684 600.347 220.991 601.52C222.297 602.693 222.951 604.453 222.951 606.8V621H218.391V608C218.337 606.373 217.991 605.2 217.351 604.48C216.711 603.733 215.711 603.36 214.351 603.36C213.577 603.36 212.884 603.507 212.271 603.8C211.657 604.067 211.137 604.453 210.711 604.96C210.284 605.44 209.951 606.013 209.711 606.68C209.471 607.347 209.351 608.053 209.351 608.8V621H204.791V592.44ZM241.959 608.84C241.906 608.12 241.746 607.427 241.479 606.76C241.239 606.093 240.893 605.52 240.439 605.04C240.013 604.533 239.479 604.133 238.839 603.84C238.226 603.52 237.533 603.36 236.759 603.36C235.959 603.36 235.226 603.507 234.559 603.8C233.919 604.067 233.359 604.453 232.879 604.96C232.426 605.44 232.053 606.013 231.759 606.68C231.493 607.347 231.346 608.067 231.319 608.84H241.959ZM231.319 611.84C231.319 612.64 231.426 613.413 231.639 614.16C231.879 614.907 232.226 615.56 232.679 616.12C233.133 616.68 233.706 617.133 234.399 617.48C235.093 617.8 235.919 617.96 236.879 617.96C238.213 617.96 239.279 617.68 240.079 617.12C240.906 616.533 241.519 615.667 241.919 614.52H246.239C245.999 615.64 245.586 616.64 244.999 617.52C244.413 618.4 243.706 619.147 242.879 619.76C242.053 620.347 241.119 620.787 240.079 621.08C239.066 621.4 237.999 621.56 236.879 621.56C235.253 621.56 233.813 621.293 232.559 620.76C231.306 620.227 230.239 619.48 229.359 618.52C228.506 617.56 227.853 616.413 227.399 615.08C226.973 613.747 226.759 612.28 226.759 610.68C226.759 609.213 226.986 607.827 227.439 606.52C227.919 605.187 228.586 604.027 229.439 603.04C230.319 602.027 231.373 601.227 232.599 600.64C233.826 600.053 235.213 599.76 236.759 599.76C238.386 599.76 239.839 600.107 241.119 600.8C242.426 601.467 243.506 602.36 244.359 603.48C245.213 604.6 245.826 605.893 246.199 607.36C246.599 608.8 246.706 610.293 246.519 611.84H231.319ZM261.119 592.44H265.679V603.04H265.759C266.319 602.107 267.145 601.333 268.239 600.72C269.359 600.08 270.599 599.76 271.959 599.76C274.225 599.76 276.012 600.347 277.319 601.52C278.625 602.693 279.279 604.453 279.279 606.8V621H274.719V608C274.665 606.373 274.319 605.2 273.679 604.48C273.039 603.733 272.039 603.36 270.679 603.36C269.905 603.36 269.212 603.507 268.599 603.8C267.985 604.067 267.465 604.453 267.039 604.96C266.612 605.44 266.279 606.013 266.039 606.68C265.799 607.347 265.679 608.053 265.679 608.8V621H261.119V592.44ZM284.208 592.44H288.768V596.76H284.208V592.44ZM284.208 600.32H288.768V621H284.208V600.32ZM313.216 621H308.896V618.2H308.816C308.203 619.4 307.309 620.267 306.136 620.8C304.963 621.307 303.723 621.56 302.416 621.56C300.789 621.56 299.363 621.28 298.136 620.72C296.936 620.133 295.936 619.347 295.136 618.36C294.336 617.373 293.736 616.213 293.336 614.88C292.936 613.52 292.736 612.067 292.736 610.52C292.736 608.653 292.989 607.04 293.496 605.68C294.003 604.32 294.669 603.2 295.496 602.32C296.349 601.44 297.309 600.8 298.376 600.4C299.469 599.973 300.576 599.76 301.696 599.76C302.336 599.76 302.989 599.827 303.656 599.96C304.323 600.067 304.963 600.253 305.576 600.52C306.189 600.787 306.749 601.133 307.256 601.56C307.789 601.96 308.229 602.44 308.576 603H308.656V592.44H313.216V621ZM297.296 610.88C297.296 611.76 297.403 612.627 297.616 613.48C297.856 614.333 298.203 615.093 298.656 615.76C299.136 616.427 299.736 616.96 300.456 617.36C301.176 617.76 302.029 617.96 303.016 617.96C304.029 617.96 304.896 617.747 305.616 617.32C306.363 616.893 306.963 616.333 307.416 615.64C307.896 614.947 308.243 614.173 308.456 613.32C308.696 612.44 308.816 611.547 308.816 610.64C308.816 608.347 308.296 606.56 307.256 605.28C306.243 604 304.856 603.36 303.096 603.36C302.029 603.36 301.123 603.587 300.376 604.04C299.656 604.467 299.056 605.04 298.576 605.76C298.123 606.453 297.789 607.253 297.576 608.16C297.389 609.04 297.296 609.947 297.296 610.88ZM337.669 621H333.349V618.2H333.269C332.656 619.4 331.762 620.267 330.589 620.8C329.416 621.307 328.176 621.56 326.869 621.56C325.242 621.56 323.816 621.28 322.589 620.72C321.389 620.133 320.389 619.347 319.589 618.36C318.789 617.373 318.189 616.213 317.789 614.88C317.389 613.52 317.189 612.067 317.189 610.52C317.189 608.653 317.442 607.04 317.949 605.68C318.456 604.32 319.122 603.2 319.949 602.32C320.802 601.44 321.762 600.8 322.829 600.4C323.922 599.973 325.029 599.76 326.149 599.76C326.789 599.76 327.442 599.827 328.109 599.96C328.776 600.067 329.416 600.253 330.029 600.52C330.642 600.787 331.202 601.133 331.709 601.56C332.242 601.96 332.682 602.44 333.029 603H333.109V592.44H337.669V621ZM321.749 610.88C321.749 611.76 321.856 612.627 322.069 613.48C322.309 614.333 322.656 615.093 323.109 615.76C323.589 616.427 324.189 616.96 324.909 617.36C325.629 617.76 326.482 617.96 327.469 617.96C328.482 617.96 329.349 617.747 330.069 617.32C330.816 616.893 331.416 616.333 331.869 615.64C332.349 614.947 332.696 614.173 332.909 613.32C333.149 612.44 333.269 611.547 333.269 610.64C333.269 608.347 332.749 606.56 331.709 605.28C330.696 604 329.309 603.36 327.549 603.36C326.482 603.36 325.576 603.587 324.829 604.04C324.109 604.467 323.509 605.04 323.029 605.76C322.576 606.453 322.242 607.253 322.029 608.16C321.842 609.04 321.749 609.947 321.749 610.88ZM356.842 608.84C356.789 608.12 356.629 607.427 356.362 606.76C356.122 606.093 355.776 605.52 355.322 605.04C354.896 604.533 354.362 604.133 353.722 603.84C353.109 603.52 352.416 603.36 351.642 603.36C350.842 603.36 350.109 603.507 349.442 603.8C348.802 604.067 348.242 604.453 347.762 604.96C347.309 605.44 346.936 606.013 346.642 606.68C346.376 607.347 346.229 608.067 346.202 608.84H356.842ZM346.202 611.84C346.202 612.64 346.309 613.413 346.522 614.16C346.762 614.907 347.109 615.56 347.562 616.12C348.016 616.68 348.589 617.133 349.282 617.48C349.976 617.8 350.802 617.96 351.762 617.96C353.096 617.96 354.162 617.68 354.962 617.12C355.789 616.533 356.402 615.667 356.802 614.52H361.122C360.882 615.64 360.469 616.64 359.882 617.52C359.296 618.4 358.589 619.147 357.762 619.76C356.936 620.347 356.002 620.787 354.962 621.08C353.949 621.4 352.882 621.56 351.762 621.56C350.136 621.56 348.696 621.293 347.442 620.76C346.189 620.227 345.122 619.48 344.242 618.52C343.389 617.56 342.736 616.413 342.282 615.08C341.856 613.747 341.642 612.28 341.642 610.68C341.642 609.213 341.869 607.827 342.322 606.52C342.802 605.187 343.469 604.027 344.322 603.04C345.202 602.027 346.256 601.227 347.482 600.64C348.709 600.053 350.096 599.76 351.642 599.76C353.269 599.76 354.722 600.107 356.002 600.8C357.309 601.467 358.389 602.36 359.242 603.48C360.096 604.6 360.709 605.893 361.082 607.36C361.482 608.8 361.589 610.293 361.402 611.84H346.202ZM364.869 600.32H369.189V603.36L369.269 603.44C369.962 602.293 370.869 601.4 371.989 600.76C373.109 600.093 374.349 599.76 375.709 599.76C377.975 599.76 379.762 600.347 381.069 601.52C382.375 602.693 383.029 604.453 383.029 606.8V621H378.469V608C378.415 606.373 378.069 605.2 377.429 604.48C376.789 603.733 375.789 603.36 374.429 603.36C373.655 603.36 372.962 603.507 372.349 603.8C371.735 604.067 371.215 604.453 370.789 604.96C370.362 605.44 370.029 606.013 369.789 606.68C369.549 607.347 369.429 608.053 369.429 608.8V621H364.869V600.32ZM399.09 592.44H403.65V596.76H399.09V592.44ZM399.09 600.32H403.65V621H399.09V600.32ZM408.619 600.32H412.939V603.2H413.059C413.405 602.693 413.779 602.227 414.179 601.8C414.579 601.373 415.019 601.013 415.499 600.72C416.005 600.427 416.579 600.2 417.219 600.04C417.859 599.853 418.592 599.76 419.419 599.76C420.672 599.76 421.832 600.04 422.899 600.6C423.992 601.16 424.765 602.027 425.219 603.2C425.992 602.133 426.885 601.293 427.899 600.68C428.912 600.067 430.179 599.76 431.699 599.76C433.885 599.76 435.579 600.293 436.779 601.36C438.005 602.427 438.619 604.213 438.619 606.72V621H434.059V608.92C434.059 608.093 434.032 607.347 433.979 606.68C433.925 605.987 433.765 605.4 433.499 604.92C433.259 604.413 432.885 604.027 432.379 603.76C431.872 603.493 431.179 603.36 430.299 603.36C428.752 603.36 427.632 603.84 426.939 604.8C426.245 605.76 425.899 607.12 425.899 608.88V621H421.339V607.72C421.339 606.28 421.072 605.2 420.539 604.48C420.032 603.733 419.085 603.36 417.699 603.36C417.112 603.36 416.539 603.48 415.979 603.72C415.445 603.96 414.965 604.307 414.539 604.76C414.139 605.213 413.805 605.773 413.539 606.44C413.299 607.107 413.179 607.867 413.179 608.72V621H408.619V600.32ZM460.743 616.4C460.743 616.96 460.81 617.36 460.943 617.6C461.103 617.84 461.397 617.96 461.823 617.96C461.957 617.96 462.117 617.96 462.303 617.96C462.49 617.96 462.703 617.933 462.943 617.88V621.04C462.783 621.093 462.57 621.147 462.303 621.2C462.063 621.28 461.81 621.347 461.543 621.4C461.277 621.453 461.01 621.493 460.743 621.52C460.477 621.547 460.25 621.56 460.063 621.56C459.13 621.56 458.357 621.373 457.743 621C457.13 620.627 456.73 619.973 456.543 619.04C455.637 619.92 454.517 620.56 453.183 620.96C451.877 621.36 450.61 621.56 449.383 621.56C448.45 621.56 447.557 621.427 446.703 621.16C445.85 620.92 445.09 620.56 444.423 620.08C443.783 619.573 443.263 618.947 442.863 618.2C442.49 617.427 442.303 616.533 442.303 615.52C442.303 614.24 442.53 613.2 442.983 612.4C443.463 611.6 444.077 610.973 444.823 610.52C445.597 610.067 446.45 609.747 447.383 609.56C448.343 609.347 449.303 609.187 450.263 609.08C451.09 608.92 451.877 608.813 452.623 608.76C453.37 608.68 454.023 608.56 454.583 608.4C455.17 608.24 455.623 608 455.943 607.68C456.29 607.333 456.463 606.827 456.463 606.16C456.463 605.573 456.317 605.093 456.023 604.72C455.757 604.347 455.41 604.067 454.983 603.88C454.583 603.667 454.13 603.533 453.623 603.48C453.117 603.4 452.637 603.36 452.183 603.36C450.903 603.36 449.85 603.627 449.023 604.16C448.197 604.693 447.73 605.52 447.623 606.64H443.063C443.143 605.307 443.463 604.2 444.023 603.32C444.583 602.44 445.29 601.733 446.143 601.2C447.023 600.667 448.01 600.293 449.103 600.08C450.197 599.867 451.317 599.76 452.463 599.76C453.477 599.76 454.477 599.867 455.463 600.08C456.45 600.293 457.33 600.64 458.103 601.12C458.903 601.6 459.543 602.227 460.023 603C460.503 603.747 460.743 604.667 460.743 605.76V616.4ZM456.183 610.64C455.49 611.093 454.637 611.373 453.623 611.48C452.61 611.56 451.597 611.693 450.583 611.88C450.103 611.96 449.637 612.08 449.183 612.24C448.73 612.373 448.33 612.573 447.983 612.84C447.637 613.08 447.357 613.413 447.143 613.84C446.957 614.24 446.863 614.733 446.863 615.32C446.863 615.827 447.01 616.253 447.303 616.6C447.597 616.947 447.943 617.227 448.343 617.44C448.77 617.627 449.223 617.76 449.703 617.84C450.21 617.92 450.663 617.96 451.063 617.96C451.57 617.96 452.117 617.893 452.703 617.76C453.29 617.627 453.837 617.4 454.343 617.08C454.877 616.76 455.317 616.36 455.663 615.88C456.01 615.373 456.183 614.76 456.183 614.04V610.64ZM484.77 619.92C484.77 623.04 483.89 625.36 482.13 626.88C480.397 628.427 477.89 629.2 474.61 629.2C473.57 629.2 472.517 629.093 471.45 628.88C470.41 628.667 469.45 628.307 468.57 627.8C467.717 627.293 466.997 626.627 466.41 625.8C465.823 624.973 465.477 623.96 465.37 622.76H469.93C470.063 623.4 470.29 623.92 470.61 624.32C470.93 624.72 471.303 625.027 471.73 625.24C472.183 625.48 472.677 625.627 473.21 625.68C473.743 625.76 474.303 625.8 474.89 625.8C476.73 625.8 478.077 625.347 478.93 624.44C479.783 623.533 480.21 622.227 480.21 620.52V617.36H480.13C479.49 618.507 478.61 619.4 477.49 620.04C476.397 620.68 475.21 621 473.93 621C472.277 621 470.863 620.72 469.69 620.16C468.543 619.573 467.583 618.787 466.81 617.8C466.063 616.787 465.517 615.627 465.17 614.32C464.823 613.013 464.65 611.613 464.65 610.12C464.65 608.733 464.863 607.413 465.29 606.16C465.717 604.907 466.33 603.813 467.13 602.88C467.93 601.92 468.903 601.16 470.05 600.6C471.223 600.04 472.543 599.76 474.01 599.76C475.317 599.76 476.517 600.04 477.61 600.6C478.703 601.133 479.543 601.987 480.13 603.16H480.21V600.32H484.77V619.92ZM474.65 617.4C475.663 617.4 476.517 617.2 477.21 616.8C477.93 616.373 478.503 615.827 478.93 615.16C479.383 614.467 479.703 613.693 479.89 612.84C480.103 611.96 480.21 611.08 480.21 610.2C480.21 609.32 480.103 608.467 479.89 607.64C479.677 606.813 479.343 606.08 478.89 605.44C478.463 604.8 477.89 604.293 477.17 603.92C476.477 603.547 475.637 603.36 474.65 603.36C473.637 603.36 472.783 603.573 472.09 604C471.397 604.427 470.837 604.987 470.41 605.68C469.983 606.347 469.677 607.12 469.49 608C469.303 608.853 469.21 609.707 469.21 610.56C469.21 611.413 469.317 612.253 469.53 613.08C469.743 613.88 470.063 614.6 470.49 615.24C470.943 615.88 471.503 616.4 472.17 616.8C472.863 617.2 473.69 617.4 474.65 617.4ZM503.561 608.84C503.508 608.12 503.348 607.427 503.081 606.76C502.841 606.093 502.494 605.52 502.041 605.04C501.614 604.533 501.081 604.133 500.441 603.84C499.828 603.52 499.134 603.36 498.361 603.36C497.561 603.36 496.828 603.507 496.161 603.8C495.521 604.067 494.961 604.453 494.481 604.96C494.028 605.44 493.654 606.013 493.361 606.68C493.094 607.347 492.948 608.067 492.921 608.84H503.561ZM492.921 611.84C492.921 612.64 493.028 613.413 493.241 614.16C493.481 614.907 493.828 615.56 494.281 616.12C494.734 616.68 495.308 617.133 496.001 617.48C496.694 617.8 497.521 617.96 498.481 617.96C499.814 617.96 500.881 617.68 501.681 617.12C502.508 616.533 503.121 615.667 503.521 614.52H507.841C507.601 615.64 507.188 616.64 506.601 617.52C506.014 618.4 505.308 619.147 504.481 619.76C503.654 620.347 502.721 620.787 501.681 621.08C500.668 621.4 499.601 621.56 498.481 621.56C496.854 621.56 495.414 621.293 494.161 620.76C492.908 620.227 491.841 619.48 490.961 618.52C490.108 617.56 489.454 616.413 489.001 615.08C488.574 613.747 488.361 612.28 488.361 610.68C488.361 609.213 488.588 607.827 489.041 606.52C489.521 605.187 490.188 604.027 491.041 603.04C491.921 602.027 492.974 601.227 494.201 600.64C495.428 600.053 496.814 599.76 498.361 599.76C499.988 599.76 501.441 600.107 502.721 600.8C504.028 601.467 505.108 602.36 505.961 603.48C506.814 604.6 507.428 605.893 507.801 607.36C508.201 608.8 508.308 610.293 508.121 611.84H492.921ZM515.028 614.36C515.161 615.693 515.668 616.627 516.548 617.16C517.428 617.693 518.481 617.96 519.708 617.96C520.134 617.96 520.614 617.933 521.148 617.88C521.708 617.8 522.228 617.667 522.708 617.48C523.188 617.293 523.574 617.027 523.868 616.68C524.188 616.307 524.334 615.827 524.308 615.24C524.281 614.653 524.068 614.173 523.668 613.8C523.268 613.427 522.748 613.133 522.108 612.92C521.494 612.68 520.788 612.48 519.988 612.32C519.188 612.16 518.374 611.987 517.548 611.8C516.694 611.613 515.868 611.387 515.067 611.12C514.294 610.853 513.588 610.493 512.948 610.04C512.334 609.587 511.841 609.013 511.468 608.32C511.094 607.6 510.908 606.72 510.908 605.68C510.908 604.56 511.174 603.627 511.708 602.88C512.268 602.107 512.961 601.493 513.788 601.04C514.641 600.56 515.574 600.227 516.588 600.04C517.628 599.853 518.614 599.76 519.548 599.76C520.614 599.76 521.628 599.88 522.588 600.12C523.574 600.333 524.454 600.693 525.228 601.2C526.028 601.707 526.681 602.373 527.188 603.2C527.721 604 528.054 604.973 528.188 606.12H523.428C523.214 605.027 522.708 604.293 521.908 603.92C521.134 603.547 520.241 603.36 519.228 603.36C518.908 603.36 518.521 603.387 518.068 603.44C517.641 603.493 517.228 603.6 516.828 603.76C516.454 603.893 516.134 604.107 515.868 604.4C515.601 604.667 515.468 605.027 515.468 605.48C515.468 606.04 515.654 606.493 516.028 606.84C516.428 607.187 516.934 607.48 517.548 607.72C518.188 607.933 518.908 608.12 519.708 608.28C520.508 608.44 521.334 608.613 522.188 608.8C523.014 608.987 523.828 609.213 524.628 609.48C525.428 609.747 526.134 610.107 526.748 610.56C527.388 611.013 527.894 611.587 528.268 612.28C528.668 612.973 528.868 613.827 528.868 614.84C528.868 616.067 528.588 617.107 528.028 617.96C527.468 618.813 526.734 619.507 525.828 620.04C524.948 620.573 523.961 620.96 522.868 621.2C521.774 621.44 520.694 621.56 519.628 621.56C518.321 621.56 517.108 621.413 515.988 621.12C514.894 620.827 513.934 620.387 513.108 619.8C512.308 619.187 511.668 618.44 511.188 617.56C510.734 616.653 510.494 615.587 510.468 614.36H515.028Z" fill="white"/>
</g>
<defs>
<filter id="filter0_d" x="81.585" y="74.9258" width="552.318" height="56.035" filterUnits="userSpaceOnUse" color-interpolation-filters="sRGB">
<feFlood flood-opacity="0" result="BackgroundImageFix"/>
<feColorMatrix in="SourceAlpha" type="matrix" values="0 0 0 0 0 0 0 0 0 0 0 0 0 0 0 0 0 0 127 0"/>
<feOffset dy="4"/>
<feGaussianBlur stdDeviation="2"/>
<feColorMatrix type="matrix" values="0 0 0 0 0 0 0 0 0 0 0 0 0 0 0 0 0 0 0.25 0"/>
<feBlend mode="normal" in2="BackgroundImageFix" result="effect1_dropShadow"/>
<feBlend mode="normal" in="SourceGraphic" in2="effect1_dropShadow" result="shape"/>
</filter>
<linearGradient id="paint0_linear" x1="358.606" y1="44.2134" x2="374.448" y2="185.194" gradientUnits="userSpaceOnUse">
<stop stop-color="#F2C94C"/>
<stop offset="0.645833" stop-color="#F2BD1B"/>
<stop offset="1" stop-color="#E1AC09"/>
</linearGradient>
<linearGradient id="paint1_linear" x1="359.286" y1="58.2456" x2="367.085" y2="153.729" gradientUnits="userSpaceOnUse">
<stop stop-color="#F2C94C"/>
<stop offset="0.645833" stop-color="#F2BD1B"/>
<stop offset="1" stop-color="#E1AC09"/>
</linearGradient>
<linearGradient id="paint2_linear" x1="359.5" y1="532" x2="378.052" y2="646.749" gradientUnits="userSpaceOnUse">
<stop stop-color="#F2C94C"/>
<stop offset="0.645833" stop-color="#F2BD1B"/>
<stop offset="1" stop-color="#E1AC09"/>
</linearGradient>
<clipPath id="clip0">
<rect width="717" height="862" fill="white"/>
</clipPath>
<clipPath id="clip1">
<rect width="120" height="120" fill="white" transform="translate(127.977 686.395)"/>
</clipPath>
<clipPath id="clip2">
<rect width="120" height="120" fill="white" transform="translate(307.977 686.395)"/>
</clipPath>
<clipPath id="clip3">
<rect width="120" height="120" fill="white" transform="translate(487.977 686.395)"/>
</clipPath>
</defs>
</svg>