<svg width="126" height="60" viewBox="0 0 126 60" fill="none" xmlns="http://www.w3.org/2000/svg">
<path d="M111.902 12.3753C94.8118 4.30228 67.5329 4.61352 63.9068 4.69269C60.2807 4.61352 32.9957 4.30228 15.9118 12.3753C4.73186 17.6582 0.385476 25.319 2.98962 35.1203C3.03887 35.3441 4.20857 40.6516 12.3103 45.9699C19.8026 50.8869 34.8549 56.7049 63.8699 56.4974C64.3809 56.5001 64.8857 56.5028 65.3844 56.5028C93.4943 56.5028 108.14 50.8023 115.503 45.9699C123.605 40.6516 124.781 35.3441 124.818 35.1476C127.428 25.319 123.082 17.6582 111.902 12.3753Z" fill="#0C3D76"/>
<path d="M111.378 10.5219C94.4483 2.66999 67.3357 2.9512 63.9005 3.01945C60.4591 2.9512 33.3526 2.66726 16.4226 10.5219C5.27959 15.6901 0.939343 23.1325 3.50655 32.628C3.5558 32.8464 4.73167 38.0583 12.7842 43.2455C20.1103 47.966 34.6393 53.5355 62.3614 53.5355C62.8477 53.5355 63.3464 53.5328 63.8389 53.53C64.3376 53.5328 64.8362 53.5355 65.3226 53.5355C93.1924 53.5355 107.728 47.9387 115.017 43.2455C123.088 38.0446 124.239 32.8682 124.282 32.6717C126.862 23.1407 122.521 15.6901 111.378 10.5219Z" fill="#213664"/>
<path d="M64.553 4.9671C60.4278 4.8679 -0.62768 3.90143 7.25506 33.8111C7.25506 33.8111 11.4551 54.3225 64.553 53.937C117.651 54.3196 121.851 33.8111 121.851 33.8111C129.74 3.90143 68.6782 4.8679 64.553 4.9671Z" fill="#FBF8F0"/>
<path d="M63.9009 13.2517C67.3362 13.1998 109.421 12.7712 120.527 23.1704C114.358 3.88182 67.4778 4.60804 63.9009 4.68994C60.3241 4.60531 13.4495 3.88182 7.27466 23.1676C18.3807 12.7712 60.4657 13.1971 63.9009 13.2517Z" fill="white"/>
<path d="M63.9011 45.1896C28.9391 45.3507 14.7117 39.8603 9.01709 35.9316C12.9387 41.5776 25.4238 52.1351 63.9011 51.8648C102.378 52.1351 114.863 41.5776 118.785 35.9316C113.09 39.8603 98.8631 45.3507 63.9011 45.1896Z" fill="#F1E0AD"/>
<path d="M44.7919 31.3017L44.6301 31.508L44.7078 31.7584L47.7435 41.538L47.744 41.5397C47.8864 41.9926 47.7592 42.4842 47.4088 42.8207C47.2159 43.0039 46.9675 43.1201 46.7087 43.1545C46.5108 43.1808 46.2984 43.1614 46.1205 43.0934L46.1205 43.0933L46.1146 43.0911L36.5327 39.563L36.2856 39.472L36.0708 39.6242L27.7324 45.5334L27.7319 45.5338C27.3399 45.8123 26.8354 45.8419 26.4131 45.611L26.1733 46.0497L26.4131 45.611C25.9928 45.3812 25.7433 44.9405 25.7543 44.4567L26.1412 34.2258L26.1511 33.9635L25.9408 33.8064L17.7518 27.6879C17.7518 27.6879 17.7517 27.6878 17.7516 27.6878C17.3678 27.3997 17.1825 26.9273 17.2624 26.4513C17.3518 25.9783 17.6915 25.6052 18.1538 25.4761L18.1562 25.4755L27.9717 22.6834L28.2245 22.6115L28.3086 22.3626L31.5868 12.6621L31.5872 12.661C31.7372 12.2134 32.1283 11.8902 32.6019 11.8273C33.0755 11.7644 33.5374 11.9742 33.7991 12.3671L33.7996 12.3677L39.4867 20.8769L39.6329 21.0957L39.896 21.0991L50.1103 21.2298L50.1116 21.2298C50.5859 21.2346 51.0214 21.5088 51.2295 21.9417L51.2294 21.9417L51.2327 21.9483C51.446 22.3758 51.3877 22.8876 51.0992 23.257C51.0991 23.257 51.0991 23.257 51.0991 23.2571L44.7919 31.3017Z" fill="url(#paint0_linear)" stroke="#F2C94C"/>

<defs>
<linearGradient id="paint0_linear" x1="44.3606" y1="7.49659" x2="37.0089" y2="44.9524" gradientUnits="userSpaceOnUse">
<stop stop-color="#F2C94C"/>
<stop offset="0.755208" stop-color="#F6D264"/>
<stop offset="1" stop-color="#FBC31A"/>
</linearGradient>
</defs>
</svg>
