<svg width="310" height="140" viewBox="0 0 310 140" fill="none" xmlns="http://www.w3.org/2000/svg">
<path d="M275.677 24.5332C232.708 3.40872 164.121 4.22312 155.004 4.4303C145.887 4.22312 77.2853 3.40872 34.3317 24.5332C6.22227 38.3567 -4.70572 58.4025 1.8418 84.0491C1.96563 84.6349 4.90657 98.5227 25.2766 112.439C44.1143 125.305 81.9599 140.529 154.911 139.986C156.196 139.993 157.465 140 158.719 140C229.395 140 266.219 125.084 284.732 112.439C305.102 98.5227 308.058 84.6349 308.151 84.1205C314.714 58.4025 303.786 38.3567 275.677 24.5332Z" fill="#0C3D76"/>
<path d="M274.361 19.6823C231.794 -0.863519 163.626 -0.127696 154.989 0.0509014C146.336 -0.127696 78.183 -0.870663 35.6164 19.6823C7.59984 33.2058 -3.3127 52.68 3.14194 77.5265C3.26577 78.0981 6.22223 91.7358 26.4684 105.309C44.8882 117.661 81.4181 132.235 151.119 132.235C152.342 132.235 153.596 132.227 154.834 132.22C156.088 132.227 157.341 132.235 158.564 132.235C228.637 132.235 265.182 117.59 283.509 105.309C303.801 91.7001 306.696 78.1552 306.804 77.6408C313.29 52.7015 302.377 33.2058 274.361 19.6823Z" fill="#213664"/>
<path d="M154.988 4.42314C144.741 4.17311 -6.91941 1.73704 12.6612 77.1267C12.6612 77.1267 23.0939 128.827 154.988 127.856C286.883 128.82 297.316 77.1267 297.316 77.1267C316.912 1.73704 165.235 4.17311 154.988 4.42314Z" fill="white"/>
<path d="M154.989 26.8262C163.626 26.6905 269.439 25.5689 297.362 52.78C281.853 2.30836 163.982 4.20864 154.989 4.42296C145.996 4.2015 28.1402 2.30836 12.615 52.7729C40.5387 25.5689 146.352 26.6834 154.989 26.8262Z" fill="white"/>
<path d="M154.989 110.396C67.0846 110.817 31.3132 96.451 16.9954 86.1709C26.8553 100.945 58.2463 128.57 154.989 127.863C251.731 128.57 283.122 100.945 292.982 86.1709C278.664 96.451 242.892 110.817 154.989 110.396Z" fill="white"/>
<g filter="url(#filter0_d)">
<path d="M60.0983 85.6287L46.3784 60.1725C45.4057 58.3666 45.7482 56.1123 47.2074 54.6955L48.1547 53.7778C49.7407 52.2425 52.181 52.141 53.8812 53.5409L64.2303 62.0714C65.5626 63.1711 67.5419 62.6974 68.2693 61.1072L82.4121 30.2247C84.2181 26.283 88.8703 24.7266 92.5794 26.8244L104.134 33.3629C107.868 35.4733 109.078 40.4089 106.769 44.0969L80.4751 86.0601C79.1217 88.217 76.8041 89.5197 74.313 89.5197H66.5099C63.8455 89.5197 61.3925 88.031 60.0983 85.6287Z" fill="white"/>
<path d="M50.1467 57.5417L65.0931 84.3555H75.5733L103.914 39.1315L87.9991 30.123L68.7219 72.2132L50.1467 57.5417Z" fill="#213664"/>
</g>
<defs>
<filter id="filter0_d" x="30" y="17" width="95" height="95" filterUnits="userSpaceOnUse" color-interpolation-filters="sRGB">
<feFlood flood-opacity="0" result="BackgroundImageFix"/>
<feColorMatrix in="SourceAlpha" type="matrix" values="0 0 0 0 0 0 0 0 0 0 0 0 0 0 0 0 0 0 127 0"/>
<feOffset dy="6"/>
<feGaussianBlur stdDeviation="4"/>
<feColorMatrix type="matrix" values="0 0 0 0 0.678431 0 0 0 0 0.211765 0 0 0 0 0.211765 0 0 0 1 0"/>
<feBlend mode="normal" in2="BackgroundImageFix" result="effect1_dropShadow"/>
<feBlend mode="normal" in="SourceGraphic" in2="effect1_dropShadow" result="shape"/>
</filter>
</defs>
</svg>
