<svg xmlns="http://www.w3.org/2000/svg" width="126" height="60" viewBox="0 0 126 60" fill="none">
<path d="M111.902 12.3753C94.8118 4.30228 67.5329 4.61352 63.9068 4.69269C60.2807 4.61352 32.9957 4.30228 15.9118 12.3753C4.73186 17.6582 0.385476 25.319 2.98962 35.1203C3.03887 35.3441 4.20857 40.6516 12.3103 45.9699C19.8026 50.8869 34.8549 56.7049 63.8699 56.4974C64.3809 56.5001 64.8857 56.5028 65.3844 56.5028C93.4943 56.5028 108.14 50.8023 115.503 45.9699C123.605 40.6516 124.781 35.3441 124.818 35.1476C127.428 25.319 123.082 17.6582 111.902 12.3753Z" fill="#0C3D76"/>
<path d="M111.378 10.5219C94.4483 2.66999 67.3357 2.9512 63.9005 3.01945C60.4591 2.9512 33.3526 2.66726 16.4226 10.5219C5.27959 15.6901 0.939343 23.1325 3.50655 32.628C3.5558 32.8464 4.73167 38.0583 12.7842 43.2455C20.1103 47.966 34.6393 53.5355 62.3614 53.5355C62.8477 53.5355 63.3464 53.5328 63.8389 53.53C64.3376 53.5328 64.8362 53.5355 65.3226 53.5355C93.1924 53.5355 107.728 47.9387 115.017 43.2455C123.088 38.0446 124.239 32.8682 124.282 32.6717C126.862 23.1407 122.521 15.6901 111.378 10.5219Z" fill="#213664"/>
<path d="M64.553 4.9671C60.4278 4.8679 -0.62768 3.90143 7.25506 33.8111C7.25506 33.8111 11.4551 54.3225 64.553 53.937C117.651 54.3196 121.851 33.8111 121.851 33.8111C129.74 3.90143 68.6782 4.8679 64.553 4.9671Z" fill="#FBF8F0"/>
<path d="M63.9009 13.2517C67.3362 13.1998 109.421 12.7712 120.527 23.1704C114.358 3.88182 67.4778 4.60804 63.9009 4.68994C60.3241 4.60531 13.4495 3.88182 7.27466 23.1676C18.3807 12.7712 60.4657 13.1971 63.9009 13.2517Z" fill="white"/>
<path d="M63.9011 45.1896C28.9391 45.3507 14.7117 39.8603 9.01709 35.9316C12.9387 41.5776 25.4238 52.1351 63.9011 51.8648C102.378 52.1351 114.863 41.5776 118.785 35.9316C113.09 39.8603 98.8631 45.3507 63.9011 45.1896Z" fill="#F1E0AD"/>

</svg>