<svg width="190" height="224" viewBox="0 0 190 224" fill="none" xmlns="http://www.w3.org/2000/svg">
<g filter="url(#filter0_d)">
<path d="M33.1297 177.781V162.805H48.9217V195.973H33.1297V184.789H30.3457V195.973H14.6017V162.805H30.3457V177.781H33.1297ZM74.0478 196.405H72.1278C67.4558 196.405 63.9518 195.253 61.6158 192.949C59.3118 190.645 58.1598 186.933 58.1598 181.813C58.1598 176.693 59.3118 172.965 61.6158 170.629C63.9518 168.293 67.4558 167.125 72.1278 167.125H74.0478C78.7198 167.125 82.2238 168.293 84.5598 170.629C86.8958 172.965 88.0638 176.693 88.0638 181.813C88.0638 186.933 86.8958 190.645 84.5598 192.949C82.2558 195.253 78.7518 196.405 74.0478 196.405ZM71.7438 181.429V185.461C71.7438 185.877 71.8558 186.213 72.0798 186.469C72.3358 186.725 72.6558 186.853 73.0398 186.853C73.4558 186.853 73.7918 186.725 74.0478 186.469C74.3358 186.213 74.4798 185.877 74.4798 185.461V181.429C74.4798 181.045 74.3358 180.725 74.0478 180.469C73.7918 180.181 73.4718 180.037 73.0878 180.037C72.7038 180.037 72.3838 180.181 72.1278 180.469C71.8718 180.725 71.7438 181.045 71.7438 181.429ZM128.512 195.973V180.757C128.512 180.373 128.368 180.053 128.08 179.797C127.824 179.509 127.504 179.365 127.12 179.365C126.736 179.365 126.416 179.509 126.16 179.797C125.904 180.053 125.776 180.373 125.776 180.757V195.973H112.96V180.757C112.96 180.373 112.816 180.053 112.528 179.797C112.272 179.509 111.936 179.365 111.52 179.365C111.136 179.365 110.816 179.509 110.56 179.797C110.304 180.053 110.176 180.373 110.176 180.757V195.973H96.5917V167.605H108.688L109.168 171.109C109.296 170.757 109.584 170.325 110.032 169.813C110.48 169.301 110.96 168.869 111.472 168.517C112.88 167.589 114.736 167.125 117.04 167.125C120.784 167.125 123.392 168.373 124.864 170.869C125.12 170.389 125.456 169.925 125.872 169.477C126.288 168.997 127.104 168.485 128.32 167.941C129.568 167.397 131.008 167.125 132.64 167.125C135.776 167.125 138.128 167.989 139.696 169.717C141.296 171.445 142.096 173.957 142.096 177.253V195.973H128.512ZM150.667 181.861C150.667 176.965 151.771 173.285 153.979 170.821C156.219 168.357 159.867 167.125 164.923 167.125C169.979 167.125 173.499 168.149 175.483 170.197C177.467 172.245 178.459 175.605 178.459 180.277L178.219 183.973H164.971V185.605C165.771 185.797 166.939 185.893 168.475 185.893C171.739 185.893 174.379 185.749 176.395 185.461L177.403 185.317V194.341C177.147 194.501 176.731 194.709 176.155 194.965C175.611 195.189 174.283 195.493 172.171 195.877C170.059 196.261 167.707 196.453 165.115 196.453C159.995 196.453 156.299 195.237 154.027 192.805C151.787 190.373 150.667 186.725 150.667 181.861ZM164.251 179.701V181.573H166.987V179.701C166.987 179.285 166.843 178.949 166.555 178.693C166.299 178.437 165.963 178.309 165.547 178.309C165.163 178.309 164.843 178.437 164.587 178.693C164.363 178.949 164.251 179.285 164.251 179.701Z" fill="white"/>
<path d="M33.1297 177.781V179.781H35.1297V177.781H33.1297ZM33.1297 162.805V160.805H31.1297V162.805H33.1297ZM48.9217 162.805H50.9217V160.805H48.9217V162.805ZM48.9217 195.973V197.973H50.9217V195.973H48.9217ZM33.1297 195.973H31.1297V197.973H33.1297V195.973ZM33.1297 184.789H35.1297V182.789H33.1297V184.789ZM30.3457 184.789V182.789H28.3457V184.789H30.3457ZM30.3457 195.973V197.973H32.3457V195.973H30.3457ZM14.6017 195.973H12.6017V197.973H14.6017V195.973ZM14.6017 162.805V160.805H12.6017V162.805H14.6017ZM30.3457 162.805H32.3457V160.805H30.3457V162.805ZM30.3457 177.781H28.3457V179.781H30.3457V177.781ZM35.1297 177.781V162.805H31.1297V177.781H35.1297ZM33.1297 164.805H48.9217V160.805H33.1297V164.805ZM46.9217 162.805V195.973H50.9217V162.805H46.9217ZM48.9217 193.973H33.1297V197.973H48.9217V193.973ZM35.1297 195.973V184.789H31.1297V195.973H35.1297ZM33.1297 182.789H30.3457V186.789H33.1297V182.789ZM28.3457 184.789V195.973H32.3457V184.789H28.3457ZM30.3457 193.973H14.6017V197.973H30.3457V193.973ZM16.6017 195.973V162.805H12.6017V195.973H16.6017ZM14.6017 164.805H30.3457V160.805H14.6017V164.805ZM28.3457 162.805V177.781H32.3457V162.805H28.3457ZM30.3457 179.781H33.1297V175.781H30.3457V179.781ZM61.6158 192.949L60.2016 194.363L60.2114 194.373L61.6158 192.949ZM61.6158 170.629L60.2016 169.214L60.1919 169.224L61.6158 170.629ZM84.5598 170.629L85.974 169.214L85.974 169.214L84.5598 170.629ZM84.5598 192.949L83.1554 191.525L83.1456 191.534L84.5598 192.949ZM72.0798 186.469L70.5747 187.786L70.6185 187.836L70.6656 187.883L72.0798 186.469ZM74.0478 186.469L72.7191 184.974L72.6752 185.013L72.6336 185.054L74.0478 186.469ZM74.0478 180.469L72.553 181.797L72.6312 181.885L72.7191 181.963L74.0478 180.469ZM72.1278 180.469L73.542 181.883L73.5836 181.841L73.6226 181.797L72.1278 180.469ZM74.0478 194.405H72.1278V198.405H74.0478V194.405ZM72.1278 194.405C67.7572 194.405 64.848 193.327 63.0202 191.525L60.2114 194.373C63.0556 197.178 67.1544 198.405 72.1278 198.405V194.405ZM63.03 191.534C61.2674 189.772 60.1598 186.696 60.1598 181.813H56.1598C56.1598 187.169 57.3562 191.517 60.2016 194.363L63.03 191.534ZM60.1598 181.813C60.1598 176.932 61.2661 173.831 63.0397 172.033L60.1919 169.224C57.3575 172.098 56.1598 176.453 56.1598 181.813H60.1598ZM63.03 172.043C64.8587 170.214 67.7641 169.125 72.1278 169.125V165.125C67.1475 165.125 63.045 166.371 60.2016 169.214L63.03 172.043ZM72.1278 169.125H74.0478V165.125H72.1278V169.125ZM74.0478 169.125C78.4115 169.125 81.317 170.214 83.1456 172.043L85.974 169.214C83.1307 166.371 79.0281 165.125 74.0478 165.125V169.125ZM83.1456 172.043C84.9445 173.842 86.0638 176.939 86.0638 181.813H90.0638C90.0638 176.447 88.8471 172.088 85.974 169.214L83.1456 172.043ZM86.0638 181.813C86.0638 186.69 84.9432 189.761 83.1554 191.525L85.9642 194.373C88.8484 191.528 90.0638 187.176 90.0638 181.813H86.0638ZM83.1456 191.534C81.3559 193.324 78.4575 194.405 74.0478 194.405V198.405C79.0462 198.405 83.1558 197.181 85.974 194.363L83.1456 191.534ZM69.7438 181.429V185.461H73.7438V181.429H69.7438ZM69.7438 185.461C69.7438 186.248 69.9646 187.088 70.5747 187.786L73.585 185.152C73.6551 185.232 73.7007 185.319 73.7252 185.392C73.7478 185.46 73.7438 185.49 73.7438 185.461H69.7438ZM70.6656 187.883C71.3212 188.538 72.1611 188.853 73.0398 188.853V184.853C73.0732 184.853 73.1528 184.859 73.2546 184.9C73.3587 184.941 73.4403 185.001 73.494 185.054L70.6656 187.883ZM73.0398 188.853C73.9005 188.853 74.7744 188.571 75.462 187.883L72.6336 185.054C72.7036 184.984 72.7944 184.925 72.8918 184.888C72.9839 184.853 73.0421 184.853 73.0398 184.853V188.853ZM75.3765 187.963C76.1283 187.295 76.4798 186.397 76.4798 185.461H72.4798C72.4798 185.435 72.4851 185.35 72.5335 185.237C72.5836 185.12 72.6555 185.03 72.7191 184.974L75.3765 187.963ZM76.4798 185.461V181.429H72.4798V185.461H76.4798ZM76.4798 181.429C76.4798 180.471 76.0898 179.608 75.3765 178.974L72.7191 181.963C72.6732 181.923 72.6026 181.843 72.548 181.721C72.4933 181.6 72.4798 181.493 72.4798 181.429H76.4798ZM75.5426 179.14C74.9086 178.427 74.0454 178.037 73.0878 178.037V182.037C73.0238 182.037 72.9166 182.023 72.7951 181.968C72.6737 181.914 72.5937 181.843 72.553 181.797L75.5426 179.14ZM73.0878 178.037C72.1303 178.037 71.267 178.427 70.633 179.14L73.6226 181.797C73.5819 181.843 73.5019 181.914 73.3805 181.968C73.259 182.023 73.1518 182.037 73.0878 182.037V178.037ZM70.7136 179.054C70.058 179.71 69.7438 180.55 69.7438 181.429H73.7438C73.7438 181.462 73.7375 181.542 73.6968 181.643C73.6551 181.748 73.5957 181.829 73.542 181.883L70.7136 179.054ZM128.512 195.973H126.512V197.973H128.512V195.973ZM128.08 179.797L126.585 181.125L126.663 181.213L126.751 181.291L128.08 179.797ZM126.16 179.797L127.574 181.211L127.615 181.169L127.655 181.125L126.16 179.797ZM125.776 195.973V197.973H127.776V195.973H125.776ZM112.96 195.973H110.96V197.973H112.96V195.973ZM112.528 179.797L111.033 181.125L111.111 181.213L111.199 181.291L112.528 179.797ZM110.56 179.797L111.974 181.211L112.015 181.169L112.055 181.125L110.56 179.797ZM110.176 195.973V197.973H112.176V195.973H110.176ZM96.5917 195.973H94.5917V197.973H96.5917V195.973ZM96.5917 167.605V165.605H94.5917V167.605H96.5917ZM108.688 167.605L110.669 167.333L110.432 165.605H108.688V167.605ZM109.168 171.109L107.186 171.38L111.047 171.792L109.168 171.109ZM110.032 169.813L111.537 171.13L111.537 171.13L110.032 169.813ZM111.472 168.517L110.371 166.847L110.355 166.857L110.339 166.869L111.472 168.517ZM124.864 170.869L123.141 171.885L124.951 174.954L126.628 171.81L124.864 170.869ZM125.872 169.477L127.337 170.838L127.361 170.812L127.383 170.787L125.872 169.477ZM128.32 167.941L127.521 166.107L127.512 166.111L127.503 166.115L128.32 167.941ZM139.696 169.717L138.215 171.061L138.221 171.068L138.228 171.075L139.696 169.717ZM142.096 195.973V197.973H144.096V195.973H142.096ZM130.512 195.973V180.757H126.512V195.973H130.512ZM130.512 180.757C130.512 179.799 130.122 178.936 129.408 178.302L126.751 181.291C126.705 181.251 126.634 181.171 126.58 181.049C126.525 180.928 126.512 180.821 126.512 180.757H130.512ZM129.575 178.468C128.94 177.755 128.077 177.365 127.12 177.365V181.365C127.056 181.365 126.948 181.351 126.827 181.296C126.706 181.242 126.626 181.171 126.585 181.125L129.575 178.468ZM127.12 177.365C126.162 177.365 125.299 177.755 124.665 178.468L127.655 181.125C127.614 181.171 127.534 181.242 127.412 181.296C127.291 181.351 127.184 181.365 127.12 181.365V177.365ZM124.745 178.382C124.09 179.038 123.776 179.878 123.776 180.757H127.776C127.776 180.79 127.769 180.87 127.729 180.971C127.687 181.076 127.628 181.157 127.574 181.211L124.745 178.382ZM123.776 180.757V195.973H127.776V180.757H123.776ZM125.776 193.973H112.96V197.973H125.776V193.973ZM114.96 195.973V180.757H110.96V195.973H114.96ZM114.96 180.757C114.96 179.799 114.57 178.936 113.856 178.302L111.199 181.291C111.153 181.251 111.082 181.171 111.028 181.049C110.973 180.928 110.96 180.821 110.96 180.757H114.96ZM114.023 178.468C113.354 177.716 112.456 177.365 111.52 177.365V181.365C111.494 181.365 111.409 181.359 111.296 181.311C111.179 181.261 111.089 181.189 111.033 181.125L114.023 178.468ZM111.52 177.365C110.562 177.365 109.699 177.755 109.065 178.468L112.055 181.125C112.014 181.171 111.934 181.242 111.812 181.296C111.691 181.351 111.584 181.365 111.52 181.365V177.365ZM109.145 178.382C108.49 179.038 108.176 179.878 108.176 180.757H112.176C112.176 180.79 112.169 180.87 112.129 180.971C112.087 181.076 112.028 181.157 111.974 181.211L109.145 178.382ZM108.176 180.757V195.973H112.176V180.757H108.176ZM110.176 193.973H96.5917V197.973H110.176V193.973ZM98.5917 195.973V167.605H94.5917V195.973H98.5917ZM96.5917 169.605H108.688V165.605H96.5917V169.605ZM106.706 167.876L107.186 171.38L111.149 170.837L110.669 167.333L106.706 167.876ZM111.047 171.792C111.04 171.811 111.057 171.76 111.144 171.63C111.227 171.505 111.354 171.339 111.537 171.13L108.527 168.496C108.026 169.067 107.544 169.723 107.288 170.425L111.047 171.792ZM111.537 171.13C111.885 170.731 112.242 170.414 112.605 170.165L110.339 166.869C109.677 167.323 109.074 167.87 108.527 168.496L111.537 171.13ZM112.572 170.187C113.554 169.539 114.988 169.125 117.04 169.125V165.125C114.484 165.125 112.205 165.638 110.371 166.847L112.572 170.187ZM117.04 169.125C120.313 169.125 122.135 170.178 123.141 171.885L126.586 169.853C124.649 166.567 121.255 165.125 117.04 165.125V169.125ZM126.628 171.81C126.794 171.5 127.024 171.174 127.337 170.838L124.406 168.116C123.887 168.675 123.445 169.278 123.099 169.927L126.628 171.81ZM127.383 170.787C127.493 170.66 127.957 170.294 129.136 169.766L127.503 166.115C126.25 166.675 125.083 167.333 124.36 168.167L127.383 170.787ZM129.119 169.774C130.07 169.36 131.229 169.125 132.64 169.125V165.125C130.786 165.125 129.066 165.434 127.521 166.107L129.119 169.774ZM132.64 169.125C135.415 169.125 137.143 169.88 138.215 171.061L141.177 168.373C139.112 166.097 136.137 165.125 132.64 165.125V169.125ZM138.228 171.075C139.37 172.308 140.096 174.258 140.096 177.253H144.096C144.096 173.655 143.222 170.581 141.163 168.358L138.228 171.075ZM140.096 177.253V195.973H144.096V177.253H140.096ZM142.096 193.973H128.512V197.973H142.096V193.973ZM153.979 170.821L152.499 169.475L152.494 169.481L152.489 169.486L153.979 170.821ZM175.483 170.197L174.046 171.588L174.046 171.588L175.483 170.197ZM178.459 180.277L180.454 180.406L180.459 180.342V180.277H178.459ZM178.219 183.973V185.973H180.093L180.214 184.102L178.219 183.973ZM164.971 183.973V181.973H162.971V183.973H164.971ZM164.971 185.605H162.971V187.181L164.504 187.549L164.971 185.605ZM176.395 185.461L176.112 183.481L176.112 183.481L176.395 185.461ZM177.403 185.317H179.403V183.011L177.12 183.337L177.403 185.317ZM177.403 194.341L178.463 196.037L179.403 195.449V194.341H177.403ZM176.155 194.965L176.916 196.814L176.942 196.803L176.967 196.792L176.155 194.965ZM172.171 195.877L171.813 193.909L172.171 195.877ZM154.027 192.805L152.556 194.16L152.56 194.165L152.565 194.17L154.027 192.805ZM164.251 181.573H162.251V183.573H164.251V181.573ZM166.987 181.573V183.573H168.987V181.573H166.987ZM166.555 178.693L165.14 180.107L165.182 180.148L165.226 180.187L166.555 178.693ZM164.587 178.693L163.172 177.278L163.125 177.326L163.082 177.376L164.587 178.693ZM152.667 181.861C152.667 177.226 153.716 174.111 155.468 172.155L152.489 169.486C149.825 172.459 148.667 176.703 148.667 181.861H152.667ZM155.459 172.166C157.16 170.294 160.139 169.125 164.923 169.125V165.125C159.595 165.125 155.277 166.419 152.499 169.475L155.459 172.166ZM164.923 169.125C169.824 169.125 172.642 170.139 174.046 171.588L176.919 168.805C174.355 166.158 170.133 165.125 164.923 165.125V169.125ZM174.046 171.588C175.497 173.086 176.459 175.81 176.459 180.277H180.459C180.459 175.4 179.436 171.403 176.919 168.805L174.046 171.588ZM176.463 180.147L176.223 183.843L180.214 184.102L180.454 180.406L176.463 180.147ZM178.219 181.973H164.971V185.973H178.219V181.973ZM162.971 183.973V185.605H166.971V183.973H162.971ZM164.504 187.549C165.536 187.797 166.892 187.893 168.475 187.893V183.893C166.985 183.893 166.005 183.796 165.437 183.66L164.504 187.549ZM168.475 187.893C171.784 187.893 174.529 187.747 176.678 187.441L176.112 183.481C174.228 183.75 171.693 183.893 168.475 183.893V187.893ZM176.678 187.441L177.686 187.297L177.12 183.337L176.112 183.481L176.678 187.441ZM175.403 185.317V194.341H179.403V185.317H175.403ZM176.343 192.645C176.212 192.726 175.904 192.887 175.342 193.137L176.967 196.792C177.557 196.53 178.081 196.275 178.463 196.037L176.343 192.645ZM175.393 193.115C175.086 193.242 173.99 193.513 171.813 193.909L172.528 197.844C174.575 197.472 176.135 197.135 176.916 196.814L175.393 193.115ZM171.813 193.909C169.84 194.268 167.61 194.453 165.115 194.453V198.453C167.803 198.453 170.277 198.254 172.528 197.844L171.813 193.909ZM165.115 194.453C160.254 194.453 157.219 193.292 155.488 191.439L152.565 194.17C155.378 197.181 159.736 198.453 165.115 198.453V194.453ZM155.498 191.45C153.728 189.528 152.667 186.455 152.667 181.861H148.667C148.667 186.994 149.845 191.217 152.556 194.16L155.498 191.45ZM162.251 179.701V181.573H166.251V179.701H162.251ZM164.251 183.573H166.987V179.573H164.251V183.573ZM168.987 181.573V179.701H164.987V181.573H168.987ZM168.987 179.701C168.987 178.765 168.635 177.866 167.883 177.198L165.226 180.187C165.162 180.131 165.09 180.041 165.04 179.924C164.992 179.811 164.987 179.726 164.987 179.701H168.987ZM167.969 177.278C167.281 176.591 166.407 176.309 165.547 176.309V180.309C165.549 180.309 165.491 180.309 165.399 180.274C165.301 180.237 165.21 180.177 165.14 180.107L167.969 177.278ZM165.547 176.309C164.668 176.309 163.828 176.623 163.172 177.278L166.001 180.107C165.947 180.161 165.866 180.22 165.761 180.262C165.66 180.302 165.58 180.309 165.547 180.309V176.309ZM163.082 177.376C162.471 178.073 162.251 178.913 162.251 179.701H166.251C166.251 179.671 166.255 179.701 166.232 179.769C166.208 179.842 166.162 179.93 166.092 180.01L163.082 177.376Z" fill="#0C3D76"/>
</g>
<g clip-path="url(#clip0)">
<path d="M149.503 24.527C130.098 3.40762 99.1245 4.21467 95.0072 4.42894C90.89 4.22181 59.9092 3.40762 40.5112 24.527C27.81 38.347 22.8748 58.3879 25.8317 84.0354C25.8806 84.621 27.2158 98.5054 36.415 112.418C44.9221 125.281 62.0132 140.501 94.9583 139.958C95.5385 139.966 96.1117 139.973 96.6779 139.973C128.595 139.973 145.225 125.06 153.586 112.418C162.785 98.5054 164.12 84.621 164.162 84.1068C167.133 58.3879 162.197 38.347 149.503 24.527Z" fill="#0C3D76"/>
<path d="M148.909 19.6775C129.686 -0.863299 98.901 -0.127665 95.0005 0.0508886C91.0929 -0.127665 60.3148 -0.870442 41.0917 19.6775C28.4463 33.1976 23.5112 52.6743 26.4331 77.5147C26.482 78.0861 27.8242 91.7204 36.9674 105.291C45.2858 117.639 61.7828 132.209 93.2599 132.209C93.8121 132.209 94.3783 132.202 94.9375 132.195C95.5038 132.202 96.07 132.209 96.6222 132.209C128.274 132.209 144.771 117.568 153.047 105.291C162.212 91.6847 163.519 78.1432 163.568 77.629C166.49 52.6886 161.562 33.1976 148.909 19.6775Z" fill="#213664"/>
<path d="M95.0004 4.42899C90.3728 4.17901 21.8824 1.74355 30.725 77.1147C30.725 77.1147 35.4365 128.802 95.0004 127.831C154.564 128.795 159.276 77.1147 159.276 77.1147C168.125 1.74355 99.6279 4.17901 95.0004 4.42899Z" fill="#6F9ACD"/>
<path d="M95.0004 26.8195C98.901 26.6838 146.686 25.5624 159.297 52.7669C152.285 2.31472 99.0617 4.2074 95.0004 4.4288C90.9391 4.2074 37.7153 2.31472 30.7041 52.7669C43.3145 25.5624 91.0998 26.6838 95.0004 26.8195Z" fill="#A1C0ED"/>
<path d="M95.0002 110.368C55.3026 110.79 39.1481 96.427 32.6821 86.1494C37.1349 100.919 51.3111 128.538 95.0002 127.831C138.689 128.538 152.865 100.919 157.318 86.1494C150.852 96.427 134.705 110.79 95.0002 110.368Z" fill="#3F76B7"/>
<path d="M114.524 114.547C114.594 119.332 122.591 120.017 129.099 117.539C135.6 115.061 141.157 110.761 139.521 106.276C137.885 101.791 133.461 108.14 125.792 110.504C119.144 112.554 114.468 110.733 114.524 114.547Z" fill="#73A6F3"/>
<path d="M128.7 62.602L117.572 51.2316L121.493 29.998L121.794 28.3696H120.172H104.661H103.172L103.319 29.8838L104.059 37.433L97.5026 30.7337C96.7337 29.948 95.7201 29.5195 94.6366 29.5195C93.5531 29.5195 92.5326 29.948 91.7706 30.7337L60.5732 62.602C59.3918 63.809 59.0563 65.5374 59.6924 67.1158C60.3355 68.6942 61.7685 69.6727 63.4392 69.6727H71.2962L65.5642 98.3627C65.3545 99.4126 65.6131 100.498 66.2772 101.327C66.9413 102.162 67.9269 102.634 68.9824 102.634H79.9082C81.6208 102.634 83.1027 101.327 83.3544 99.5983L85.1788 87.0924C85.6122 84.1213 88.1567 81.8786 91.0996 81.8786H97.8871C100.83 81.8786 103.374 84.1213 103.808 87.0924L105.632 99.5983C105.884 101.334 107.366 102.634 109.078 102.634H120.298C121.346 102.634 122.332 102.155 123.003 101.327C123.667 100.491 123.926 99.4126 123.716 98.3627L117.984 69.6727H125.841C127.512 69.6727 128.952 68.6942 129.588 67.1158C130.224 65.5374 129.881 63.809 128.7 62.602Z" fill="#A1C0ED"/>
<path d="M120.291 103.355H109.072C107.016 103.355 105.234 101.784 104.933 99.7053L103.109 87.1994C102.724 84.5782 100.481 82.5927 97.8802 82.5927H91.0927C88.4923 82.5927 86.2484 84.5711 85.864 87.1994L84.0395 99.7053C83.7389 101.784 81.9564 103.355 79.9013 103.355H68.9825C67.7173 103.355 66.5359 102.784 65.7391 101.784C64.9422 100.784 64.6276 99.4839 64.8793 98.2197L70.4435 70.3868H63.4463C61.489 70.3868 59.8043 69.2369 59.0494 67.3871C58.3014 65.5372 58.6929 63.5089 60.077 62.0947L91.2674 30.2264C92.1692 29.3051 93.3575 28.8051 94.6297 28.8051C95.902 28.8051 97.0973 29.3122 97.992 30.2264L103.165 35.5116L102.389 27.6553H122.626L118.313 50.9887L129.183 62.0947C130.567 63.5089 130.965 65.5372 130.21 67.3871C129.462 69.2369 127.777 70.3868 125.813 70.3868H118.816L124.38 98.2197C124.632 99.4839 124.317 100.784 123.52 101.784C122.738 102.784 121.556 103.355 120.291 103.355ZM91.0927 81.1714H97.8802C101.166 81.1714 104.004 83.6712 104.493 86.9923L106.317 99.4982C106.52 100.884 107.708 101.927 109.079 101.927H120.298C121.137 101.927 121.927 101.548 122.458 100.877C122.989 100.212 123.199 99.3482 123.031 98.5054L117.124 68.9583H125.834C127.218 68.9583 128.407 68.1441 128.938 66.8443C129.469 65.5373 129.19 64.1088 128.211 63.1018L116.817 51.4601L120.955 29.0766H103.948L104.961 39.347L97.0134 31.2264C96.3773 30.5764 95.5385 30.2193 94.6367 30.2193C93.742 30.2193 92.8962 30.5764 92.26 31.2264L61.0696 63.1018C60.0909 64.1017 59.8113 65.5373 60.3426 66.8371C60.8738 68.1441 62.0622 68.9583 63.4463 68.9583H72.1561L66.2493 98.5054C66.0816 99.3482 66.2913 100.212 66.8225 100.877C67.3538 101.541 68.1437 101.927 68.9825 101.927H79.9013C81.2714 101.927 82.4597 100.884 82.6624 99.4982L84.4869 86.9923C84.9692 83.6712 87.8143 81.1714 91.0927 81.1714Z" fill="#A1C0ED"/>
<path d="M127.749 63.5804L116.118 51.6959L120.172 29.748H104.66L105.779 41.1326L96.5518 31.705C95.4893 30.6194 93.7767 30.6194 92.7142 31.705L61.5237 63.5733C59.8181 65.316 61.0274 68.3014 63.439 68.3014H72.9388L66.8712 98.6413C66.5986 99.9983 67.6122 101.27 68.9683 101.27H79.8941C80.9566 101.27 81.8583 100.477 82.0121 99.4055L83.8366 86.8996C84.3748 83.2285 87.4575 80.5145 91.0854 80.5145H97.873C101.501 80.5145 104.584 83.2285 105.122 86.8996L106.946 99.4055C107.1 100.477 108.002 101.27 109.064 101.27H120.284C121.64 101.27 122.653 99.9983 122.381 98.6413L116.313 68.3014H125.813C128.246 68.3157 129.455 65.3302 127.749 63.5804Z" fill="#0C3D76"/>
<path d="M118.39 39.4468L120.172 29.812H104.661L105.604 39.4468H118.39Z" fill="#213664"/>
<path d="M72.9458 68.3154L66.8783 98.7124C66.6546 99.8337 67.3117 100.876 68.3043 101.219L74.8681 70.4581L72.9458 68.3154Z" fill="#213664"/>
<path d="M114.615 59.795L122.947 68.3727H125.827C128.246 68.3727 129.455 65.3873 127.742 63.6446L116.111 51.6958L114.615 59.795Z" fill="#213664"/>
<path d="M63.4461 68.3723H66.3261L92.7212 41.4036C93.7838 40.318 95.4964 40.318 96.5589 41.4036L106.842 51.8454L105.786 41.1322L96.5589 31.7688C95.4964 30.6832 93.7838 30.6832 92.7212 31.7688L61.5307 63.6371C59.8181 65.3869 61.0274 68.3723 63.4461 68.3723Z" fill="#213664"/>
<path d="M116.327 68.3154L114.405 70.4581L120.969 101.219C121.961 100.884 122.618 99.8337 122.395 98.7124L116.327 68.3154Z" fill="#213664"/>
</g>
<defs>
<filter id="filter0_d" x="4.60156" y="158.805" width="183.857" height="53.648" filterUnits="userSpaceOnUse" color-interpolation-filters="sRGB">
<feFlood flood-opacity="0" result="BackgroundImageFix"/>
<feColorMatrix in="SourceAlpha" type="matrix" values="0 0 0 0 0 0 0 0 0 0 0 0 0 0 0 0 0 0 127 0"/>
<feOffset dy="6"/>
<feGaussianBlur stdDeviation="4"/>
<feColorMatrix type="matrix" values="0 0 0 0 0.678431 0 0 0 0 0.211765 0 0 0 0 0.211765 0 0 0 1 0"/>
<feBlend mode="normal" in2="BackgroundImageFix" result="effect1_dropShadow"/>
<feBlend mode="normal" in="SourceGraphic" in2="effect1_dropShadow" result="shape"/>
</filter>
<clipPath id="clip0">
<rect width="140" height="139.973" fill="white" transform="translate(25)"/>
</clipPath>
</defs>
</svg>
