<svg width="121" height="176" viewBox="0 0 121 176" fill="none" xmlns="http://www.w3.org/2000/svg">
<path d="M22.1992 144.115V167.395H28.4792V144.115H37.0392V138.835H13.6392V144.115H22.1992ZM54.5992 154.835H45.3592C45.3859 154.435 45.4659 153.981 45.5992 153.475C45.7592 152.968 46.0126 152.488 46.3592 152.035C46.7326 151.581 47.2126 151.208 47.7992 150.915C48.4126 150.595 49.1726 150.435 50.0792 150.435C51.4659 150.435 52.4926 150.808 53.1592 151.555C53.8526 152.301 54.3326 153.395 54.5992 154.835ZM45.3592 158.435H60.2792C60.3859 156.835 60.2526 155.301 59.8792 153.835C59.5059 152.368 58.8926 151.061 58.0392 149.915C57.2126 148.768 56.1459 147.861 54.8392 147.195C53.5326 146.501 51.9992 146.155 50.2392 146.155C48.6659 146.155 47.2259 146.435 45.9192 146.995C44.6392 147.555 43.5326 148.328 42.5992 149.315C41.6659 150.275 40.9459 151.421 40.4392 152.755C39.9326 154.088 39.6792 155.528 39.6792 157.075C39.6792 158.675 39.9192 160.141 40.3992 161.475C40.9059 162.808 41.6126 163.955 42.5192 164.915C43.4259 165.875 44.5326 166.621 45.8392 167.155C47.1459 167.661 48.6126 167.915 50.2392 167.915C52.5859 167.915 54.5859 167.381 56.2392 166.315C57.8926 165.248 59.1192 163.475 59.9192 160.995H54.9192C54.7326 161.635 54.2259 162.248 53.3992 162.835C52.5726 163.395 51.5859 163.675 50.4392 163.675C48.8392 163.675 47.6126 163.261 46.7592 162.435C45.9059 161.608 45.4392 160.275 45.3592 158.435ZM74.328 156.515L66.888 167.395H73.248L77.568 160.875L81.888 167.395H88.368L80.728 156.395L87.528 146.715H81.248L77.648 152.115L74.008 146.715H67.528L74.328 156.515ZM103.132 146.715V140.515H97.4524V146.715H94.0124V150.515H97.4524V162.715C97.4524 163.755 97.6257 164.595 97.9724 165.235C98.319 165.875 98.7857 166.368 99.3724 166.715C99.9857 167.061 100.679 167.288 101.452 167.395C102.252 167.528 103.092 167.595 103.972 167.595C104.532 167.595 105.106 167.581 105.692 167.555C106.279 167.528 106.812 167.475 107.292 167.395V162.995C107.026 163.048 106.746 163.088 106.452 163.115C106.159 163.141 105.852 163.155 105.532 163.155C104.572 163.155 103.932 162.995 103.612 162.675C103.292 162.355 103.132 161.715 103.132 160.755V150.515H107.292V146.715H103.132Z" fill="white"/>
<path d="M22.1992 144.115H24.1992V142.115H22.1992V144.115ZM22.1992 167.395H20.1992V169.395H22.1992V167.395ZM28.4792 167.395V169.395H30.4792V167.395H28.4792ZM28.4792 144.115V142.115H26.4792V144.115H28.4792ZM37.0392 144.115V146.115H39.0392V144.115H37.0392ZM37.0392 138.835H39.0392V136.835H37.0392V138.835ZM13.6392 138.835V136.835H11.6392V138.835H13.6392ZM13.6392 144.115H11.6392V146.115H13.6392V144.115ZM20.1992 144.115V167.395H24.1992V144.115H20.1992ZM22.1992 169.395H28.4792V165.395H22.1992V169.395ZM30.4792 167.395V144.115H26.4792V167.395H30.4792ZM28.4792 146.115H37.0392V142.115H28.4792V146.115ZM39.0392 144.115V138.835H35.0392V144.115H39.0392ZM37.0392 136.835H13.6392V140.835H37.0392V136.835ZM11.6392 138.835V144.115H15.6392V138.835H11.6392ZM13.6392 146.115H22.1992V142.115H13.6392V146.115ZM54.5992 154.835V156.835H57.0036L56.5658 154.47L54.5992 154.835ZM45.3592 154.835L43.3637 154.701L43.2215 156.835H45.3592V154.835ZM45.5992 153.475L43.6921 152.872L43.6775 152.919L43.6651 152.966L45.5992 153.475ZM46.3592 152.035L44.8154 150.763L44.7924 150.791L44.7705 150.82L46.3592 152.035ZM47.7992 150.915L48.6937 152.703L48.7091 152.696L48.7244 152.688L47.7992 150.915ZM53.1592 151.555L51.6674 152.887L51.6804 152.901L51.6937 152.915L53.1592 151.555ZM45.3592 158.435V156.435H43.2704L43.3611 158.521L45.3592 158.435ZM60.2792 158.435V160.435H62.1503L62.2748 158.568L60.2792 158.435ZM58.0392 149.915L56.4169 151.084L56.4257 151.096L56.4348 151.109L58.0392 149.915ZM54.8392 147.195L53.9018 148.961L53.916 148.969L53.9303 148.976L54.8392 147.195ZM45.9192 146.995L45.1314 145.156L45.1245 145.159L45.1176 145.162L45.9192 146.995ZM42.5992 149.315L44.0332 150.709L44.0428 150.699L44.0522 150.689L42.5992 149.315ZM40.4392 152.755L38.5697 152.044L40.4392 152.755ZM40.3992 161.475L38.5175 162.152L38.5234 162.169L38.5297 162.185L40.3992 161.475ZM45.8392 167.155L45.0834 169.006L45.0998 169.013L45.1162 169.019L45.8392 167.155ZM56.2392 166.315L57.3235 167.995L56.2392 166.315ZM59.9192 160.995L61.8227 161.609L62.6659 158.995H59.9192V160.995ZM54.9192 160.995V158.995H53.4192L52.9992 160.435L54.9192 160.995ZM53.3992 162.835L54.5209 164.49L54.539 164.478L54.5567 164.466L53.3992 162.835ZM46.7592 162.435L48.1508 160.998L46.7592 162.435ZM54.5992 152.835H45.3592V156.835H54.5992V152.835ZM47.3548 154.968C47.3709 154.726 47.4232 154.402 47.5334 153.984L43.6651 152.966C43.5086 153.56 43.4009 154.143 43.3637 154.701L47.3548 154.968ZM47.5064 154.077C47.5916 153.807 47.7317 153.532 47.948 153.249L44.7705 150.82C44.2935 151.443 43.9269 152.129 43.6921 152.872L47.5064 154.077ZM47.9031 153.306C48.0788 153.093 48.3279 152.886 48.6937 152.703L46.9048 149.126C46.0972 149.529 45.3863 150.07 44.8154 150.763L47.9031 153.306ZM48.7244 152.688C48.9773 152.556 49.3982 152.435 50.0792 152.435V148.435C48.947 148.435 47.8479 148.633 46.8741 149.141L48.7244 152.688ZM50.0792 152.435C51.1239 152.435 51.5092 152.709 51.6674 152.887L54.6511 150.222C53.4759 148.906 51.8079 148.435 50.0792 148.435V152.435ZM51.6937 152.915C52.0393 153.288 52.4064 153.977 52.6327 155.199L56.5658 154.47C56.2587 152.812 55.6658 151.315 54.6248 150.194L51.6937 152.915ZM45.3592 160.435H60.2792V156.435H45.3592V160.435ZM62.2748 158.568C62.3947 156.77 62.2458 155.024 61.8174 153.341L57.941 154.328C58.2593 155.578 58.3771 156.899 58.2837 158.301L62.2748 158.568ZM61.8174 153.341C61.3835 151.637 60.662 150.089 59.6437 148.721L56.4348 151.109C57.1231 152.034 57.6283 153.099 57.941 154.328L61.8174 153.341ZM59.6616 148.745C58.642 147.331 57.3268 146.218 55.7482 145.413L53.9303 148.976C54.965 149.504 55.7832 150.205 56.4169 151.084L59.6616 148.745ZM55.7767 145.428C54.1312 144.555 52.2643 144.155 50.2392 144.155V148.155C51.7342 148.155 52.9339 148.448 53.9018 148.961L55.7767 145.428ZM50.2392 144.155C48.4241 144.155 46.7124 144.479 45.1314 145.156L46.7071 148.833C47.7394 148.39 48.9077 148.155 50.2392 148.155V144.155ZM45.1176 145.162C43.5992 145.827 42.2692 146.753 41.1463 147.94L44.0522 150.689C44.796 149.903 45.6793 149.283 46.7209 148.827L45.1176 145.162ZM41.1652 147.92C40.0293 149.089 39.1669 150.472 38.5697 152.044L42.3088 153.465C42.7249 152.37 43.3025 151.46 44.0332 150.709L41.1652 147.92ZM38.5697 152.044C37.9698 153.623 37.6792 155.306 37.6792 157.075H41.6792C41.6792 155.75 41.8954 154.553 42.3088 153.465L38.5697 152.044ZM37.6792 157.075C37.6792 158.876 37.9498 160.575 38.5175 162.152L42.281 160.797C41.8886 159.707 41.6792 158.473 41.6792 157.075H37.6792ZM38.5297 162.185C39.1223 163.745 39.9637 165.121 41.0652 166.288L43.9733 163.541C43.2615 162.788 42.6895 161.871 42.2688 160.764L38.5297 162.185ZM41.0652 166.288C42.1811 167.469 43.5311 168.373 45.0834 169.006L46.595 165.303C45.5341 164.87 44.6707 164.28 43.9733 163.541L41.0652 166.288ZM45.1162 169.019C46.6873 169.628 48.4044 169.915 50.2392 169.915V165.915C48.8207 165.915 47.6045 165.694 46.5623 165.29L45.1162 169.019ZM50.2392 169.915C52.8954 169.915 55.2892 169.308 57.3235 167.995L55.155 164.634C53.8826 165.455 52.2764 165.915 50.2392 165.915V169.915ZM57.3235 167.995C59.475 166.607 60.9272 164.385 61.8227 161.609L58.0158 160.381C57.3113 162.565 56.3102 163.889 55.155 164.634L57.3235 167.995ZM59.9192 158.995H54.9192V162.995H59.9192V158.995ZM52.9992 160.435C52.9896 160.468 52.8829 160.749 52.2417 161.204L54.5567 164.466C55.5689 163.747 56.4755 162.802 56.8392 161.555L52.9992 160.435ZM52.2775 161.179C51.8292 161.482 51.2472 161.675 50.4392 161.675V165.675C51.9247 165.675 53.3159 165.307 54.5209 164.49L52.2775 161.179ZM50.4392 161.675C49.1742 161.675 48.5168 161.353 48.1508 160.998L45.3676 163.871C46.7084 165.17 48.5043 165.675 50.4392 165.675V161.675ZM48.1508 160.998C47.8222 160.68 47.427 159.949 47.3574 158.348L43.3611 158.521C43.4515 160.6 43.9896 162.536 45.3676 163.871L48.1508 160.998ZM74.328 156.515L75.9789 157.643L76.7566 156.506L75.9712 155.374L74.328 156.515ZM66.888 167.395L65.2371 166.266L63.0974 169.395H66.888V167.395ZM73.248 167.395V169.395H74.322L74.9152 168.499L73.248 167.395ZM77.568 160.875L79.2352 159.77L77.568 157.254L75.9007 159.77L77.568 160.875ZM81.888 167.395L80.2207 168.499L80.814 169.395H81.888V167.395ZM88.368 167.395V169.395H92.1922L90.0107 166.254L88.368 167.395ZM80.728 156.395L79.0914 155.245L78.2884 156.388L79.0853 157.535L80.728 156.395ZM87.528 146.715L89.1645 147.864L91.3771 144.715H87.528V146.715ZM81.248 146.715V144.715H80.1776L79.5839 145.605L81.248 146.715ZM77.648 152.115L75.9896 153.232L77.6572 155.706L79.3121 153.224L77.648 152.115ZM74.008 146.715L75.6664 145.597L75.0718 144.715H74.008V146.715ZM67.528 146.715V144.715H63.7059L65.8848 147.855L67.528 146.715ZM72.6771 155.386L65.2371 166.266L68.5389 168.523L75.9789 157.643L72.6771 155.386ZM66.888 169.395H73.248V165.395H66.888V169.395ZM74.9152 168.499L79.2352 161.979L75.9007 159.77L71.5807 166.29L74.9152 168.499ZM75.9007 161.979L80.2207 168.499L83.5552 166.29L79.2352 159.77L75.9007 161.979ZM81.888 169.395H88.368V165.395H81.888V169.395ZM90.0107 166.254L82.3707 155.254L79.0853 157.535L86.7253 168.535L90.0107 166.254ZM82.3645 157.544L89.1645 147.864L85.8914 145.565L79.0914 155.245L82.3645 157.544ZM87.528 144.715H81.248V148.715H87.528V144.715ZM79.5839 145.605L75.9839 151.005L79.3121 153.224L82.9121 147.824L79.5839 145.605ZM79.3064 150.997L75.6664 145.597L72.3496 147.832L75.9896 153.232L79.3064 150.997ZM74.008 144.715H67.528V148.715H74.008V144.715ZM65.8848 147.855L72.6848 157.655L75.9712 155.374L69.1712 145.574L65.8848 147.855ZM103.132 146.715H101.132V148.715H103.132V146.715ZM103.132 140.515H105.132V138.515H103.132V140.515ZM97.4524 140.515V138.515H95.4524V140.515H97.4524ZM97.4524 146.715V148.715H99.4524V146.715H97.4524ZM94.0124 146.715V144.715H92.0124V146.715H94.0124ZM94.0124 150.515H92.0124V152.515H94.0124V150.515ZM97.4524 150.515H99.4524V148.515H97.4524V150.515ZM97.9724 165.235L96.2138 166.187V166.187L97.9724 165.235ZM99.3724 166.715L98.3549 168.436L98.3715 168.446L98.3882 168.456L99.3724 166.715ZM101.452 167.395L101.781 165.422L101.753 165.417L101.726 165.413L101.452 167.395ZM105.692 167.555L105.602 165.557L105.692 167.555ZM107.292 167.395L107.621 169.367L109.292 169.089V167.395H107.292ZM107.292 162.995H109.292V160.555L106.9 161.033L107.292 162.995ZM106.452 163.115L106.271 161.123H106.271L106.452 163.115ZM103.612 162.675L102.198 164.089L103.612 162.675ZM103.132 150.515V148.515H101.132V150.515H103.132ZM107.292 150.515V152.515H109.292V150.515H107.292ZM107.292 146.715H109.292V144.715H107.292V146.715ZM105.132 146.715V140.515H101.132V146.715H105.132ZM103.132 138.515H97.4524V142.515H103.132V138.515ZM95.4524 140.515V146.715H99.4524V140.515H95.4524ZM97.4524 144.715H94.0124V148.715H97.4524V144.715ZM92.0124 146.715V150.515H96.0124V146.715H92.0124ZM94.0124 152.515H97.4524V148.515H94.0124V152.515ZM95.4524 150.515V162.715H99.4524V150.515H95.4524ZM95.4524 162.715C95.4524 163.953 95.6553 165.156 96.2138 166.187L99.7309 164.282C99.5961 164.033 99.4524 163.556 99.4524 162.715H95.4524ZM96.2138 166.187C96.7209 167.123 97.4346 167.893 98.3549 168.436L100.39 164.993C100.137 164.843 99.9171 164.626 99.7309 164.282L96.2138 166.187ZM98.3882 168.456C99.2438 168.939 100.183 169.238 101.179 169.376L101.726 165.413C101.175 165.337 100.728 165.183 100.356 164.973L98.3882 168.456ZM101.124 169.367C102.041 169.52 102.991 169.595 103.972 169.595V165.595C103.193 165.595 102.464 165.536 101.781 165.422L101.124 169.367ZM103.972 169.595C104.564 169.595 105.168 169.58 105.783 169.552L105.602 165.557C105.044 165.582 104.501 165.595 103.972 165.595V169.595ZM105.783 169.552C106.434 169.523 107.048 169.463 107.621 169.367L106.964 165.422C106.576 165.486 106.124 165.533 105.602 165.557L105.783 169.552ZM109.292 167.395V162.995H105.292V167.395H109.292ZM106.9 161.033C106.709 161.072 106.5 161.102 106.271 161.123L106.633 165.106C106.992 165.074 107.343 165.024 107.685 164.956L106.9 161.033ZM106.271 161.123C106.043 161.143 105.797 161.155 105.532 161.155V165.155C105.908 165.155 106.275 165.139 106.633 165.106L106.271 161.123ZM105.532 161.155C105.149 161.155 104.925 161.121 104.817 161.094C104.768 161.082 104.771 161.078 104.807 161.096C104.844 161.114 104.929 161.163 105.027 161.26L102.198 164.089C102.706 164.596 103.327 164.845 103.847 164.975C104.38 165.108 104.956 165.155 105.532 165.155V161.155ZM105.027 161.26C105.124 161.358 105.172 161.443 105.191 161.48C105.209 161.516 105.205 161.519 105.193 161.469C105.166 161.362 105.132 161.138 105.132 160.755H101.132C101.132 161.331 101.179 161.907 101.312 162.44C101.442 162.96 101.69 163.581 102.198 164.089L105.027 161.26ZM105.132 160.755V150.515H101.132V160.755H105.132ZM103.132 152.515H107.292V148.515H103.132V152.515ZM109.292 150.515V146.715H105.292V150.515H109.292ZM107.292 144.715H103.132V148.715H107.292V144.715Z" fill="#0C3D76"/>
<g clip-path="url(#clip0)">
<path d="M107.694 21.422C91.0613 3.31617 64.5123 4.00806 60.9832 4.19175C57.4542 4.01418 30.8992 3.31617 14.2724 21.422C3.38558 33.2701 -0.844516 50.4513 1.68995 72.4391C1.73189 72.9412 2.87629 84.8444 10.7613 96.772C18.0531 107.8 32.7027 120.848 60.9413 120.382C61.4386 120.389 61.9299 120.395 62.4152 120.395C89.7731 120.395 104.027 107.61 111.193 96.772C119.078 84.8444 120.223 72.9412 120.259 72.5003C122.805 50.4513 118.575 33.2701 107.694 21.422Z" fill="#0C3D76"/>
<path d="M107.185 17.2643C90.7078 -0.345583 64.3206 0.285083 60.9772 0.438159C57.6279 0.285083 31.2467 -0.351706 14.7697 17.2643C3.93081 28.8552 -0.299292 45.5527 2.20521 66.8486C2.24716 67.3384 3.39755 79.0273 11.2346 90.6611C18.3647 101.248 32.5049 113.739 59.4853 113.739C59.9587 113.739 60.444 113.733 60.9233 113.727C61.4086 113.733 61.894 113.739 62.3673 113.739C89.4974 113.739 103.638 101.187 110.732 90.6611C118.587 78.9967 119.707 67.3874 119.749 66.9466C122.254 45.5649 118.03 28.8552 107.185 17.2643Z" fill="#213664"/>
<path d="M60.9772 4.1911C57.0108 3.97679 -1.69536 1.88885 5.88407 66.5052C5.88407 66.5052 9.92244 110.818 60.9772 109.985C112.032 110.811 116.07 66.5052 116.07 66.5052C123.656 1.88885 64.9437 3.97679 60.9772 4.1911Z" fill="#F7F2E0"/>
<path d="M60.9773 23.3871C64.3207 23.2707 105.28 22.3094 116.088 45.632C110.079 2.37893 64.4585 4.00154 60.9773 4.19136C57.4962 4.00154 11.8758 2.37893 5.86621 45.632C16.6751 22.3094 57.634 23.2707 60.9773 23.3871Z" fill="#FBF8F0"/>
<path d="M60.9775 95.0142C26.951 95.3755 13.1043 83.062 7.56201 74.251C11.3787 86.9134 23.5297 110.591 60.9775 109.985C98.4252 110.591 110.576 86.9134 114.393 74.251C108.851 83.062 95.01 95.3755 60.9775 95.0142Z" fill="#F1E0AD"/>
<path d="M89.863 54.0635L80.3243 44.3156L83.6856 26.1119L83.9433 24.7158H82.5532H69.2577H67.9815L68.1073 26.0139L68.7425 32.4859L63.1223 26.7425C62.4632 26.069 61.5944 25.7016 60.6657 25.7016C59.737 25.7016 58.8622 26.069 58.2092 26.7425L31.4685 54.0635C30.4559 55.0983 30.1683 56.5801 30.7135 57.9333C31.2648 59.2865 32.493 60.1253 33.925 60.1253H40.6596L35.7465 84.7215C35.5667 85.6216 35.7884 86.5523 36.3576 87.2626C36.9269 87.979 37.7717 88.3831 38.6764 88.3831H48.0413C49.5093 88.3831 50.7795 87.2626 50.9952 85.7808L52.559 75.0594C52.9305 72.5122 55.1115 70.5896 57.634 70.5896H63.4518C65.9743 70.5896 68.1553 72.5122 68.5268 75.0594L70.0906 85.7808C70.3063 87.2687 71.5765 88.3831 73.0445 88.3831H82.661C83.5598 88.3831 84.4046 87.9729 84.9798 87.2626C85.549 86.5462 85.7707 85.6216 85.591 84.7215L80.6778 60.1253H87.4124C88.8444 60.1253 90.0787 59.2865 90.6239 57.9333C91.1692 56.5801 90.8756 55.0983 89.863 54.0635Z" fill="#A1C0ED"/>
<path d="M82.6548 89.0016H73.0382C71.2767 89.0016 69.7488 87.6545 69.4912 85.8727L67.9273 75.1513C67.5978 72.9041 65.6745 71.2019 63.4456 71.2019H57.6277C55.3988 71.2019 53.4755 72.898 53.146 75.1513L51.5821 85.8727C51.3245 87.6545 49.7966 89.0016 48.0351 89.0016H38.6762C37.5917 89.0016 36.5791 88.5117 35.896 87.6545C35.213 86.7973 34.9434 85.6829 35.1591 84.5991L39.9284 60.7376H33.9308C32.2531 60.7376 30.8091 59.7518 30.162 58.1659C29.5209 56.5801 29.8565 54.8412 31.0428 53.6288L57.7775 26.3078C58.5504 25.5179 59.569 25.0893 60.6595 25.0893C61.75 25.0893 62.7745 25.524 63.5415 26.3078L67.9753 30.8389L67.3102 24.1035H84.656L80.9592 44.1075L90.2762 53.6288C91.4625 54.8412 91.804 56.5801 91.1569 58.1659C90.5158 59.7518 89.0718 60.7376 87.3882 60.7376H81.3906L86.1599 84.5991C86.3756 85.6829 86.106 86.7973 85.4229 87.6545C84.7519 88.5117 83.7393 89.0016 82.6548 89.0016ZM57.6277 69.9834H63.4456C66.2617 69.9834 68.6943 72.1265 69.1137 74.9737L70.6775 85.6951C70.8513 86.883 71.8698 87.777 73.0442 87.777H82.6608C83.3798 87.777 84.0568 87.4524 84.5122 86.8769C84.9676 86.3074 85.1473 85.5665 85.0035 84.844L79.9406 59.513H87.4062C88.5925 59.513 89.6111 58.815 90.0665 57.7006C90.5218 56.5801 90.2822 55.3555 89.4433 54.4921L79.677 44.5116L83.224 25.322H68.6463L69.5151 34.1269L62.7026 27.165C62.1574 26.6078 61.4384 26.3017 60.6655 26.3017C59.8985 26.3017 59.1736 26.6078 58.6283 27.165L31.8936 54.4921C31.0548 55.3493 30.8151 56.5801 31.2705 57.6945C31.7258 58.815 32.7444 59.513 33.9308 59.513H41.3964L36.3334 84.844C36.1896 85.5665 36.3694 86.3074 36.8247 86.8769C37.2801 87.4463 37.9572 87.777 38.6762 87.777H48.0351C49.2095 87.777 50.228 86.883 50.4018 85.6951L51.9656 74.9737C52.379 72.1265 54.8176 69.9834 57.6277 69.9834Z" fill="#A1C0ED"/>
<path d="M89.048 54.9023L79.0779 44.7135L82.5531 25.8975H69.2576L70.2163 35.6576L62.3073 27.5752C61.3966 26.6445 59.9286 26.6445 59.0179 27.5752L32.2832 54.8961C30.8213 56.3902 31.8578 58.9496 33.9249 58.9496H42.0676L36.8668 84.9602C36.6332 86.1236 37.5019 87.2135 38.6643 87.2135H48.0292C48.94 87.2135 49.7129 86.5339 49.8447 85.6154L51.4085 74.894C51.8699 71.7467 54.5122 69.42 57.6219 69.42H63.4397C66.5494 69.42 69.1917 71.7467 69.6531 74.894L71.2169 85.6154C71.3487 86.5339 72.1216 87.2135 73.0324 87.2135H82.6489C83.8113 87.2135 84.6801 86.1236 84.4464 84.9602L79.2457 58.9496H87.3883C89.4734 58.9618 90.51 56.4024 89.048 54.9023Z" fill="#0C3D76"/>
<path d="M81.0249 34.2131L82.5528 25.9531H69.2573L70.0662 34.2131H81.0249Z" fill="#213664"/>
<path d="M42.0737 58.9619L36.873 85.0215C36.6813 85.9828 37.2445 86.8768 38.0953 87.1707L43.7214 60.7988L42.0737 58.9619Z" fill="#213664"/>
<path d="M77.7896 51.6574L84.9316 59.0112H87.4001C89.4732 59.0112 90.5098 56.4517 89.0418 54.9577L79.0718 44.7139L77.7896 51.6574Z" fill="#213664"/>
<path d="M33.9308 59.0112H36.3994L59.0238 35.8906C59.9346 34.9599 61.4025 34.9599 62.3132 35.8906L71.127 44.8425L70.2222 35.6579L62.3132 27.6306C61.4025 26.6999 59.9346 26.6999 59.0238 27.6306L32.2891 54.9516C30.8212 56.4518 31.8577 59.0112 33.9308 59.0112Z" fill="#213664"/>
<path d="M79.2576 58.9619L77.6099 60.7988L83.236 87.1707C84.0868 86.8829 84.65 85.9828 84.4583 85.0215L79.2576 58.9619Z" fill="#213664"/>
</g>
<defs>
<clipPath id="clip0">
<rect width="120" height="120" fill="white" transform="translate(0.977051 0.394531)"/>
</clipPath>
</defs>
</svg>
