<svg width="140" height="141" viewBox="0 0 140 141" fill="none" xmlns="http://www.w3.org/2000/svg">
<g clip-path="url(#clip0)">
<path d="M124.503 24.6134C105.098 3.48995 74.1245 4.29716 70.0072 4.51147C65.89 4.30431 34.9092 3.48995 15.5112 24.6134C2.80995 38.4362 -2.12516 58.4809 0.831714 84.1334C0.880645 84.7191 2.21578 98.6062 11.415 112.522C19.9221 125.387 37.0132 140.61 69.9583 140.067C70.5385 140.074 71.1117 140.082 71.6779 140.082C103.595 140.082 120.225 125.166 128.586 112.522C137.785 98.6062 139.12 84.7191 139.162 84.2048C142.133 58.4809 137.197 38.4362 124.503 24.6134Z" fill="#0C3D76"/>
<path d="M123.909 19.7629C104.686 -0.781924 73.9008 -0.046147 70.0002 0.132441C66.0927 -0.046147 35.3146 -0.789068 16.0914 19.7629C3.44605 33.2856 -1.48907 52.7661 1.43286 77.6113C1.48179 78.1828 2.82392 91.8198 11.9672 105.393C20.2856 117.744 36.7826 132.316 68.2596 132.316C68.8119 132.316 69.3781 132.309 69.9373 132.302C70.5035 132.309 71.0697 132.316 71.6219 132.316C103.274 132.316 119.771 117.672 128.047 105.393C137.211 91.7841 138.519 78.2399 138.568 77.7256C141.489 52.7803 136.561 33.2856 123.909 19.7629Z" fill="#213664"/>
<path d="M70.0001 4.51152C65.3726 4.2615 -3.11789 1.82556 5.72478 77.2113C5.72478 77.2113 10.4362 128.909 70.0001 127.938C129.564 128.902 134.275 77.2113 134.275 77.2113C143.125 1.82556 74.6277 4.2615 70.0001 4.51152Z" fill="#6F9ACD"/>
<path d="M70.0002 26.9063C73.9007 26.7706 121.686 25.6491 134.296 52.8588C127.285 2.39684 74.0615 4.28988 70.0002 4.51133C65.9388 4.28988 12.7151 2.39684 5.70386 52.8588C18.3143 25.6491 66.0996 26.7706 70.0002 26.9063Z" fill="#A1C0ED"/>
<path d="M70.0002 110.472C30.3026 110.893 14.1481 96.5276 7.68213 86.248C12.1349 101.021 26.3111 128.645 70.0002 127.938C113.689 128.645 127.865 101.021 132.318 86.248C125.852 96.5276 109.705 110.893 70.0002 110.472Z" fill="#3F76B7"/>
<path d="M89.5239 114.65C89.5938 119.437 97.5907 120.122 104.099 117.644C110.6 115.165 116.157 110.864 114.521 106.378C112.885 101.892 108.461 108.243 100.792 110.607C94.1445 112.657 89.468 110.836 89.5239 114.65Z" fill="#73A6F3"/>
<path d="M103.7 62.6955L92.5716 51.323L96.4932 30.0853L96.7938 28.4565H95.172H79.6606H78.1717L78.3185 29.971L79.0595 37.5217L72.5026 30.8211C71.7337 30.0353 70.7201 29.6066 69.6366 29.6066C68.5531 29.6066 67.5326 30.0353 66.7706 30.8211L35.5732 62.6955C34.3918 63.9028 34.0563 65.6315 34.6924 67.2102C35.3355 68.789 36.7685 69.7676 38.4392 69.7676H46.2962L40.5642 98.4632C40.3545 99.5133 40.6131 100.599 41.2772 101.428C41.9413 102.264 42.9269 102.735 43.9824 102.735H54.9082C56.6208 102.735 58.1027 101.428 58.3544 99.699L60.1788 87.1907C60.6122 84.219 63.1567 81.9759 66.0996 81.9759H72.8871C75.83 81.9759 78.3744 84.219 78.8078 87.1907L80.6323 99.699C80.8839 101.435 82.3659 102.735 84.0785 102.735H95.2978C96.3464 102.735 97.332 102.256 98.0031 101.428C98.6671 100.592 98.9258 99.5133 98.7161 98.4632L92.9841 69.7676H100.841C102.512 69.7676 103.952 68.789 104.588 67.2102C105.224 65.6315 104.881 63.9028 103.7 62.6955Z" fill="#A1C0ED"/>
<path d="M95.2909 103.457H84.0716C82.0164 103.457 80.2339 101.885 79.9334 99.8062L78.1089 87.2979C77.7244 84.6762 75.4806 82.6903 72.8802 82.6903H66.0927C63.4923 82.6903 61.2484 84.6691 60.864 87.2979L59.0395 99.8062C58.7389 101.885 56.9564 103.457 54.9013 103.457H43.9825C42.7173 103.457 41.5359 102.885 40.7391 101.885C39.9422 100.885 39.6276 99.5848 39.8793 98.3204L45.4435 70.482H38.4463C36.489 70.482 34.8043 69.3319 34.0494 67.4817C33.3014 65.6315 33.6929 63.6028 35.077 62.1883L66.2674 30.3138C67.1692 29.3923 68.3575 28.8923 69.6297 28.8923C70.902 28.8923 72.0973 29.3995 72.992 30.3138L78.1648 35.6001L77.3889 27.7422H97.6257L93.3127 51.0801L104.183 62.1883C105.567 63.6028 105.965 65.6315 105.21 67.4817C104.462 69.3319 102.777 70.482 100.813 70.482H93.816L99.3802 98.3204C99.6319 99.5848 99.3173 100.885 98.5204 101.885C97.7375 102.885 96.5562 103.457 95.2909 103.457ZM66.0927 81.2687H72.8802C76.1656 81.2687 79.0037 83.769 79.493 87.0907L81.3174 99.5991C81.5201 100.985 82.7085 102.028 84.0786 102.028H95.2979C96.1368 102.028 96.9266 101.649 97.4579 100.978C97.9892 100.313 98.1989 99.449 98.0311 98.6061L92.1243 69.0533H100.834C102.218 69.0533 103.407 68.2389 103.938 66.9388C104.469 65.6315 104.19 64.2028 103.211 63.1956L91.8168 51.5516L95.955 29.1637H78.9477L79.9613 39.4362L72.0134 31.314C71.3773 30.6639 70.5385 30.3067 69.6367 30.3067C68.742 30.3067 67.8962 30.6639 67.26 31.314L36.0696 63.1956C35.0909 64.1957 34.8113 65.6315 35.3426 66.9316C35.8738 68.2389 37.0622 69.0533 38.4463 69.0533H47.1561L41.2493 98.6061C41.0816 99.449 41.2913 100.313 41.8225 100.978C42.3538 101.642 43.1437 102.028 43.9825 102.028H54.9013C56.2714 102.028 57.4597 100.985 57.6624 99.5991L59.4869 87.0907C59.9692 83.769 62.8143 81.2687 66.0927 81.2687Z" fill="#A1C0ED"/>
<path d="M102.75 63.6744L91.1177 51.7875L95.1721 29.8354H79.6607L80.7792 41.2223L71.5521 31.7928C70.4895 30.707 68.7769 30.707 67.7144 31.7928L36.524 63.6672C34.8183 65.4103 36.0276 68.3963 38.4393 68.3963H47.939L41.8715 98.742C41.5989 100.099 42.6125 101.371 43.9686 101.371H54.8943C55.9568 101.371 56.8586 100.578 57.0124 99.5064L58.8368 86.998C59.3751 83.3263 62.4578 80.6117 66.0857 80.6117H72.8732C76.5011 80.6117 79.5838 83.3263 80.1221 86.998L81.9465 99.5064C82.1003 100.578 83.0021 101.371 84.0646 101.371H95.2839C96.64 101.371 97.6536 100.099 97.381 98.742L91.3135 68.3963H100.813C103.246 68.4105 104.455 65.4246 102.75 63.6744Z" fill="#0C3D76"/>
<path d="M93.3897 39.536L95.1723 29.8994H79.6609L80.6046 39.536H93.3897Z" fill="#213664"/>
<path d="M47.946 68.4102L41.8785 98.813C41.6548 99.9346 42.3119 100.978 43.3045 101.32L49.8684 70.5532L47.946 68.4102Z" fill="#213664"/>
<path d="M89.615 59.8879L97.9473 68.4673H100.827C103.246 68.4673 104.455 65.4813 102.743 63.7383L91.1109 51.7871L89.615 59.8879Z" fill="#213664"/>
<path d="M38.4463 68.4675H41.3263L67.7215 41.4935C68.784 40.4077 70.4966 40.4077 71.5591 41.4935L81.8418 51.9373L80.7863 41.222L71.5591 31.8568C70.4966 30.771 68.784 30.771 67.7215 31.8568L36.531 63.7313C34.8184 65.4815 36.0277 68.4675 38.4463 68.4675Z" fill="#213664"/>
<path d="M91.3276 68.4102L89.4053 70.5532L95.9691 101.32C96.9617 100.985 97.6188 99.9346 97.3951 98.813L91.3276 68.4102Z" fill="#213664"/>
</g>
<defs>
<clipPath id="clip0">
<rect width="140" height="140" fill="white" transform="translate(0 0.081543)"/>
</clipPath>
</defs>
</svg>
