<svg width="444" height="525" viewBox="0 0 444 525" fill="none" xmlns="http://www.w3.org/2000/svg">
<g filter="url(#filter0_d)">
<path d="M13.7839 58.0288C15.3195 34.1817 34.5391 15.3938 58.371 13.6378C170.03 5.41038 269.504 -6.0575 385.678 10.9082C405.623 13.8209 421.082 29.6741 423.756 49.6527C446.656 220.748 430.594 394.507 421.108 470.836C418.214 494.124 398.3 510.983 374.833 510.983H63.9921C39.6094 510.983 19.2106 492.797 17.2268 468.496C11.3208 396.144 2.12161 239.135 13.7839 58.0288Z" fill="#213664"/>
<path d="M26.8452 68.2722C28.3484 44.4209 47.5671 25.6295 71.3993 23.8488C174.222 16.1658 266.192 5.76502 373.171 21.1694C393.12 24.0419 408.563 39.9178 411.185 59.9008C432.017 218.622 417.631 379.412 408.752 452.235C405.91 475.546 385.976 492.511 362.493 492.511H76.7636C52.3688 492.511 31.9667 474.319 30.0223 450.002C24.5143 381.117 16.2872 235.797 26.8452 68.2722Z" fill="white"/>
<g filter="url(#filter1_d)">
<path d="M64.1061 67.4932C64.1771 47.7679 82.9844 35.3414 102.707 35.0245C177.385 33.8247 244.384 32.2506 322.417 34.7002C336.614 35.1459 351.232 41.6821 354.688 55.4595C357.605 67.0845 355.986 78.1377 353.105 87.0768C348.559 101.182 333.899 107.958 319.08 107.958H101.702C84.0368 107.958 67.3261 98.0711 64.9658 80.5645C64.4212 76.5252 64.0893 72.1437 64.1061 67.4932Z" fill="#213664"/>
<path d="M98.0576 61.7593H111.498V68.7433H106.314V69.7033H111.498V71.2153H106.314V72.1753H111.714V78.3433H98.0576V61.7593ZM120.161 74.8153V60.4633H127.361V72.1753H127.865V78.0793C127.017 78.4153 125.833 78.5833 124.313 78.5833C122.809 78.5833 121.737 78.2713 121.097 77.6473C120.473 77.0233 120.161 76.0793 120.161 74.8153ZM136.007 71.2873C136.007 68.8393 136.559 66.9993 137.663 65.7673C138.783 64.5353 140.607 63.9193 143.135 63.9193C145.663 63.9193 147.423 64.4313 148.415 65.4553C149.407 66.4793 149.903 68.1593 149.903 70.4953L149.783 72.3433H143.159V73.1593C143.559 73.2553 144.143 73.3033 144.911 73.3033C146.543 73.3033 147.863 73.2313 148.871 73.0873L149.375 73.0153V77.5273C149.247 77.6073 149.039 77.7113 148.751 77.8393C148.479 77.9513 147.815 78.1033 146.759 78.2953C145.703 78.4873 144.527 78.5833 143.231 78.5833C140.671 78.5833 138.823 77.9753 137.687 76.7593C136.567 75.5433 136.007 73.7193 136.007 71.2873ZM142.799 70.2073V71.1433H144.167V70.2073C144.167 69.9993 144.095 69.8313 143.951 69.7033C143.823 69.5753 143.655 69.5113 143.447 69.5113C143.255 69.5113 143.095 69.5753 142.967 69.7033C142.855 69.8313 142.799 69.9993 142.799 70.2073ZM173.944 78.3433V70.7353C173.944 70.5433 173.872 70.3833 173.728 70.2553C173.6 70.1113 173.44 70.0393 173.248 70.0393C173.056 70.0393 172.896 70.1113 172.768 70.2553C172.64 70.3833 172.576 70.5433 172.576 70.7353V78.3433H166.168V70.7353C166.168 70.5433 166.096 70.3833 165.952 70.2553C165.824 70.1113 165.656 70.0393 165.448 70.0393C165.256 70.0393 165.096 70.1113 164.968 70.2553C164.84 70.3833 164.776 70.5433 164.776 70.7353V78.3433H157.984V64.1593H164.032L164.272 65.9113C164.336 65.7353 164.48 65.5193 164.704 65.2633C164.928 65.0073 165.168 64.7913 165.424 64.6153C166.128 64.1513 167.056 63.9193 168.208 63.9193C170.08 63.9193 171.384 64.5433 172.12 65.7913C172.248 65.5513 172.416 65.3193 172.624 65.0953C172.832 64.8553 173.24 64.5993 173.848 64.3273C174.472 64.0553 175.192 63.9193 176.008 63.9193C177.576 63.9193 178.752 64.3513 179.536 65.2153C180.336 66.0793 180.736 67.3353 180.736 68.9833V78.3433H173.944ZM188.862 71.2873C188.862 68.8393 189.414 66.9993 190.518 65.7673C191.638 64.5353 193.462 63.9193 195.99 63.9193C198.518 63.9193 200.278 64.4313 201.27 65.4553C202.262 66.4793 202.758 68.1593 202.758 70.4953L202.638 72.3433H196.014V73.1593C196.414 73.2553 196.998 73.3033 197.766 73.3033C199.398 73.3033 200.718 73.2313 201.726 73.0873L202.23 73.0153V77.5273C202.102 77.6073 201.894 77.7113 201.606 77.8393C201.334 77.9513 200.67 78.1033 199.614 78.2953C198.558 78.4873 197.382 78.5833 196.086 78.5833C193.526 78.5833 191.678 77.9753 190.542 76.7593C189.422 75.5433 188.862 73.7193 188.862 71.2873ZM195.654 70.2073V71.1433H197.022V70.2073C197.022 69.9993 196.95 69.8313 196.806 69.7033C196.678 69.5753 196.51 69.5113 196.302 69.5113C196.11 69.5113 195.95 69.5753 195.822 69.7033C195.71 69.8313 195.654 69.9993 195.654 70.2073ZM217.992 70.7353V78.3433H211.2V64.1593H217.224L217.464 65.9113C217.528 65.7353 217.672 65.5193 217.896 65.2633C218.12 65.0073 218.36 64.7913 218.616 64.6153C219.32 64.1513 220.256 63.9193 221.424 63.9193C222.992 63.9193 224.168 64.3513 224.952 65.2153C225.752 66.0793 226.152 67.3353 226.152 68.9833V78.3433H219.36V70.7353C219.36 70.5433 219.288 70.3833 219.144 70.2553C219.016 70.1113 218.856 70.0393 218.664 70.0393C218.472 70.0393 218.312 70.1113 218.184 70.2553C218.056 70.3833 217.992 70.5433 217.992 70.7353ZM243.184 70.8553V71.9353H245.344V77.5993C245.264 77.6793 245.128 77.7753 244.936 77.8873C244.76 77.9833 244.288 78.1273 243.52 78.3193C242.752 78.4953 241.864 78.5833 240.856 78.5833C237.192 78.5833 235.36 76.9833 235.36 73.7833V70.8553H234.424V64.8793C235.112 64.6713 235.72 64.2873 236.248 63.7273C236.776 63.1673 237.136 62.6633 237.328 62.2153L237.616 61.5193H243.64V64.1593H245.344V70.8553H243.184ZM267.901 69.2713L267.781 72.2233L268.381 72.1993V77.6473C268.093 77.8873 267.597 78.1033 266.893 78.2953C266.189 78.4873 265.525 78.5833 264.901 78.5833C264.277 78.5833 263.781 78.5273 263.413 78.4153C263.045 78.3033 262.773 78.1833 262.597 78.0553C262.421 77.9113 262.285 77.7513 262.189 77.5753C262.045 77.3193 261.973 77.1033 261.973 76.9273C261.093 78.0313 259.693 78.5833 257.773 78.5833C255.133 78.5833 253.813 77.4633 253.813 75.2233C253.813 73.8793 254.325 72.9273 255.349 72.3673C256.373 71.7913 258.165 71.4473 260.725 71.3353C260.725 70.7753 260.109 70.4953 258.877 70.4953C258.045 70.4953 257.245 70.5993 256.477 70.8073C255.725 71.0153 255.181 71.2233 254.845 71.4313L254.317 71.7433V65.4313C254.461 65.3193 254.677 65.1833 254.965 65.0233C255.253 64.8473 255.933 64.6233 257.005 64.3513C258.077 64.0633 259.253 63.9193 260.533 63.9193C263.093 63.9193 264.957 64.3513 266.125 65.2153C267.309 66.0793 267.901 67.4313 267.901 69.2713ZM261.109 73.0873V72.1273L259.741 72.5113V73.0873C259.741 73.2953 259.805 73.4633 259.933 73.5913C260.077 73.7193 260.245 73.7833 260.437 73.7833C260.645 73.7833 260.805 73.7193 260.917 73.5913C261.045 73.4633 261.109 73.2953 261.109 73.0873ZM283.842 78.3433H276.69V64.1593H282.714L282.954 65.9113C282.986 65.8633 283.026 65.7993 283.074 65.7193C283.122 65.6393 283.258 65.5033 283.482 65.3113C283.706 65.1033 283.962 64.9193 284.25 64.7593C285.05 64.3593 286.058 64.1593 287.274 64.1593V71.7913L283.842 71.4553V78.3433ZM302.191 72.7513H302.815L303.247 64.1593H309.919L307.807 80.5753H300.223L300.751 78.1033C299.375 78.1033 298.367 77.8953 297.727 77.4793C297.103 77.0473 296.711 76.3193 296.551 75.2953L294.871 64.1593H301.711L302.191 72.7513Z" fill="white"/>
</g>
</g>
<defs>
<filter id="filter0_d" x="0" y="0" width="444" height="525" filterUnits="userSpaceOnUse" color-interpolation-filters="sRGB">
<feFlood flood-opacity="0" result="BackgroundImageFix"/>
<feColorMatrix in="SourceAlpha" type="matrix" values="0 0 0 0 0 0 0 0 0 0 0 0 0 0 0 0 0 0 127 0"/>
<feOffset dy="6"/>
<feGaussianBlur stdDeviation="4"/>
<feColorMatrix type="matrix" values="0 0 0 0 0.678431 0 0 0 0 0.211765 0 0 0 0 0.211765 0 0 0 1 0"/>
<feBlend mode="normal" in2="BackgroundImageFix" result="effect1_dropShadow"/>
<feBlend mode="normal" in="SourceGraphic" in2="effect1_dropShadow" result="shape"/>
</filter>
<filter id="filter1_d" x="56.1055" y="31.4092" width="308.124" height="90.5489" filterUnits="userSpaceOnUse" color-interpolation-filters="sRGB">
<feFlood flood-opacity="0" result="BackgroundImageFix"/>
<feColorMatrix in="SourceAlpha" type="matrix" values="0 0 0 0 0 0 0 0 0 0 0 0 0 0 0 0 0 0 127 0"/>
<feOffset dy="6"/>
<feGaussianBlur stdDeviation="4"/>
<feColorMatrix type="matrix" values="0 0 0 0 0.6 0 0 0 0 0.20625 0 0 0 0 0.0375 0 0 0 0.5 0"/>
<feBlend mode="normal" in2="BackgroundImageFix" result="effect1_dropShadow"/>
<feBlend mode="normal" in="SourceGraphic" in2="effect1_dropShadow" result="shape"/>
</filter>
</defs>
</svg>
