<svg width="444" height="294" viewBox="0 0 444 294" fill="none" xmlns="http://www.w3.org/2000/svg">
<g filter="url(#filter0_d)">
<path d="M11.9642 49.6333C14.1775 26.5535 33.649 9.3461 56.8161 8.4182C169.523 3.904 269.705 -2.4914 386.977 6.96919C406.262 8.52498 422.721 21.9132 426.659 40.8562C443.444 121.599 432.707 201.561 423.807 245.498C419.615 266.194 401.072 279.99 379.955 279.99H60.1335C37.4447 279.99 18.0029 264.099 15.1242 241.594C9.86859 200.506 4.23386 130.245 11.9642 49.6333Z" fill="#213664"/>
<path d="M25.0741 55.272C27.2038 32.1725 46.692 14.9369 69.8704 13.9954C173.714 9.77712 266.383 3.96952 374.43 12.5693C393.735 14.1058 410.208 27.5292 414.028 46.5143C428.944 120.645 419.578 193.819 411.403 235.278C407.312 256.024 388.739 269.902 367.593 269.902H72.9232C50.2133 269.902 30.7588 253.97 27.9646 231.432C23.1813 192.851 18.3007 128.736 25.0741 55.272Z" fill="white"/>
<g filter="url(#filter1_d)">
<path d="M64.1061 67.4932C64.1771 47.7679 82.9844 35.3414 102.707 35.0245C177.385 33.8247 244.384 32.2506 322.417 34.7002C336.614 35.1459 351.232 41.6821 354.688 55.4595C357.605 67.0845 355.986 78.1377 353.105 87.0768C348.559 101.182 333.899 107.958 319.08 107.958H101.702C84.0368 107.958 67.3261 98.0711 64.9658 80.5645C64.4212 76.5252 64.0893 72.1437 64.1061 67.4932Z" fill="#213664"/>
<path d="M101.504 83.3433V61.1753H115.376V65.3913H106.502V69.8453H114.05V74.0273H106.502V79.1273H115.716V83.3433H101.504ZM129.413 83.7513C128.551 83.7513 127.826 83.6153 127.237 83.3433C126.647 83.0713 126.171 82.6973 125.809 82.2213C125.469 81.7226 125.219 81.1333 125.061 80.4533C124.902 79.7506 124.823 78.9686 124.823 78.1073V59.5093H129.821V78.3113C129.821 78.8326 129.911 79.1953 130.093 79.3993C130.297 79.6033 130.501 79.7053 130.705 79.7053C130.818 79.7053 130.909 79.7053 130.977 79.7053C131.067 79.7053 131.181 79.6826 131.317 79.6373L131.929 83.3433C131.657 83.4566 131.305 83.5473 130.875 83.6153C130.467 83.7059 129.979 83.7513 129.413 83.7513ZM147.199 83.7513C145.998 83.7513 144.876 83.5586 143.833 83.1733C142.791 82.7653 141.884 82.1873 141.113 81.4393C140.343 80.6686 139.742 79.7393 139.311 78.6513C138.881 77.5633 138.665 76.3166 138.665 74.9113C138.665 73.5513 138.892 72.3273 139.345 71.2393C139.799 70.1286 140.388 69.1993 141.113 68.4513C141.861 67.6806 142.711 67.0913 143.663 66.6833C144.615 66.2753 145.601 66.0713 146.621 66.0713C147.823 66.0713 148.865 66.2753 149.749 66.6833C150.656 67.0913 151.404 67.6579 151.993 68.3833C152.605 69.1086 153.059 69.9699 153.353 70.9673C153.648 71.9419 153.795 73.0073 153.795 74.1633C153.795 74.6166 153.773 75.0473 153.727 75.4553C153.682 75.8633 153.637 76.1693 153.591 76.3733H143.493C143.72 77.5973 144.219 78.5039 144.989 79.0933C145.783 79.6599 146.746 79.9433 147.879 79.9433C149.081 79.9433 150.293 79.5693 151.517 78.8213L153.183 81.8473C152.322 82.4366 151.359 82.9013 150.293 83.2413C149.251 83.5813 148.219 83.7513 147.199 83.7513ZM143.459 73.0753H149.545C149.545 72.1233 149.33 71.3526 148.899 70.7633C148.469 70.1739 147.743 69.8793 146.723 69.8793C145.93 69.8793 145.227 70.1399 144.615 70.6613C144.026 71.1826 143.641 71.9873 143.459 73.0753ZM162.349 83.3433V66.4793H166.429L166.769 68.6553H166.905C167.608 67.9526 168.356 67.3519 169.149 66.8533C169.942 66.3319 170.894 66.0713 172.005 66.0713C173.206 66.0713 174.17 66.3206 174.895 66.8193C175.643 67.2953 176.232 67.9866 176.663 68.8933C177.411 68.1226 178.193 67.4653 179.009 66.9213C179.848 66.3546 180.834 66.0713 181.967 66.0713C183.78 66.0713 185.106 66.6833 185.945 67.9073C186.806 69.1086 187.237 70.7633 187.237 72.8713V83.3433H182.239V73.5173C182.239 72.2933 182.069 71.4546 181.729 71.0013C181.412 70.5479 180.89 70.3213 180.165 70.3213C179.326 70.3213 178.363 70.8653 177.275 71.9533V83.3433H172.277V73.5173C172.277 72.2933 172.107 71.4546 171.767 71.0013C171.45 70.5479 170.928 70.3213 170.203 70.3213C169.342 70.3213 168.39 70.8653 167.347 71.9533V83.3433H162.349ZM204.149 83.7513C202.948 83.7513 201.826 83.5586 200.783 83.1733C199.741 82.7653 198.834 82.1873 198.063 81.4393C197.293 80.6686 196.692 79.7393 196.261 78.6513C195.831 77.5633 195.615 76.3166 195.615 74.9113C195.615 73.5513 195.842 72.3273 196.295 71.2393C196.749 70.1286 197.338 69.1993 198.063 68.4513C198.811 67.6806 199.661 67.0913 200.613 66.6833C201.565 66.2753 202.551 66.0713 203.571 66.0713C204.773 66.0713 205.815 66.2753 206.699 66.6833C207.606 67.0913 208.354 67.6579 208.943 68.3833C209.555 69.1086 210.009 69.9699 210.303 70.9673C210.598 71.9419 210.745 73.0073 210.745 74.1633C210.745 74.6166 210.723 75.0473 210.677 75.4553C210.632 75.8633 210.587 76.1693 210.541 76.3733H200.443C200.67 77.5973 201.169 78.5039 201.939 79.0933C202.733 79.6599 203.696 79.9433 204.829 79.9433C206.031 79.9433 207.243 79.5693 208.467 78.8213L210.133 81.8473C209.272 82.4366 208.309 82.9013 207.243 83.2413C206.201 83.5813 205.169 83.7513 204.149 83.7513ZM200.409 73.0753H206.495C206.495 72.1233 206.28 71.3526 205.849 70.7633C205.419 70.1739 204.693 69.8793 203.673 69.8793C202.88 69.8793 202.177 70.1399 201.565 70.6613C200.976 71.1826 200.591 71.9873 200.409 73.0753ZM219.299 83.3433V66.4793H223.379L223.719 68.6213H223.855C224.58 67.9413 225.374 67.3519 226.235 66.8533C227.096 66.3319 228.105 66.0713 229.261 66.0713C231.097 66.0713 232.423 66.6719 233.239 67.8733C234.078 69.0746 234.497 70.7406 234.497 72.8713V83.3433H229.499V73.5173C229.499 72.2933 229.329 71.4546 228.989 71.0013C228.672 70.5479 228.15 70.3213 227.425 70.3213C226.79 70.3213 226.246 70.4686 225.793 70.7633C225.34 71.0353 224.841 71.4319 224.297 71.9533V83.3433H219.299ZM250.35 83.7513C249.307 83.7513 248.412 83.5926 247.664 83.2753C246.939 82.9579 246.338 82.5159 245.862 81.9493C245.409 81.3826 245.069 80.7026 244.842 79.9093C244.638 79.0933 244.536 78.1979 244.536 77.2233V70.3893H242.224V66.6833L244.808 66.4793L245.386 61.9913H249.534V66.4793H253.58V70.3893H249.534V77.1553C249.534 78.1073 249.727 78.7986 250.112 79.2293C250.52 79.6373 251.053 79.8413 251.71 79.8413C251.982 79.8413 252.254 79.8073 252.526 79.7393C252.821 79.6713 253.081 79.5919 253.308 79.5013L254.09 83.1393C253.637 83.2753 253.104 83.4113 252.492 83.5473C251.88 83.6833 251.166 83.7513 250.35 83.7513ZM265.558 83.7513C264.787 83.7513 264.084 83.6153 263.45 83.3433C262.838 83.0939 262.316 82.7426 261.886 82.2893C261.455 81.8133 261.115 81.2693 260.866 80.6573C260.639 80.0453 260.526 79.3766 260.526 78.6513C260.526 76.8833 261.274 75.5006 262.77 74.5033C264.266 73.5059 266.68 72.8373 270.012 72.4973C269.966 71.7493 269.74 71.1599 269.332 70.7293C268.946 70.2759 268.289 70.0493 267.36 70.0493C266.634 70.0493 265.909 70.1853 265.184 70.4573C264.481 70.7293 263.722 71.1033 262.906 71.5793L261.104 68.2813C262.192 67.6239 263.325 67.0913 264.504 66.6833C265.705 66.2753 266.974 66.0713 268.312 66.0713C270.488 66.0713 272.142 66.6946 273.276 67.9413C274.432 69.1653 275.01 71.0806 275.01 73.6873V83.3433H270.93L270.59 81.6093H270.454C269.728 82.2439 268.969 82.7653 268.176 83.1733C267.382 83.5586 266.51 83.7513 265.558 83.7513ZM267.258 79.8753C267.824 79.8753 268.312 79.7506 268.72 79.5013C269.128 79.2519 269.558 78.9006 270.012 78.4473V75.4893C268.244 75.7386 267.02 76.1013 266.34 76.5773C265.66 77.0533 265.32 77.6199 265.32 78.2773C265.32 78.8213 265.49 79.2293 265.83 79.5013C266.192 79.7506 266.668 79.8753 267.258 79.8753ZM284.337 83.3433V66.4793H288.417L288.757 69.4373H288.893C289.505 68.2813 290.242 67.4313 291.103 66.8873C291.965 66.3433 292.826 66.0713 293.687 66.0713C294.163 66.0713 294.549 66.1053 294.843 66.1733C295.161 66.2186 295.444 66.2979 295.693 66.4113L294.877 70.7293C294.56 70.6386 294.265 70.5706 293.993 70.5253C293.721 70.4799 293.404 70.4573 293.041 70.4573C292.407 70.4573 291.738 70.6839 291.035 71.1373C290.355 71.5906 289.789 72.3953 289.335 73.5513V83.3433H284.337ZM305.087 89.9393C304.565 89.9393 304.123 89.9053 303.761 89.8373C303.398 89.7919 303.047 89.7126 302.707 89.5993L303.591 85.7913C303.749 85.8366 303.931 85.8819 304.135 85.9273C304.339 85.9726 304.531 85.9953 304.713 85.9953C305.551 85.9953 306.197 85.7913 306.651 85.3833C307.104 84.9753 307.444 84.4426 307.671 83.7853L307.909 82.9013L301.415 66.4793H306.447L308.861 73.7213C309.11 74.4919 309.337 75.2739 309.541 76.0673C309.745 76.8606 309.96 77.6766 310.187 78.5153H310.323C310.504 77.7219 310.685 76.9286 310.867 76.1353C311.071 75.3193 311.275 74.5146 311.479 73.7213L313.519 66.4793H318.313L312.465 83.5133C312.057 84.5786 311.626 85.5079 311.173 86.3013C310.742 87.1173 310.232 87.7859 309.643 88.3073C309.076 88.8513 308.419 89.2593 307.671 89.5313C306.945 89.8033 306.084 89.9393 305.087 89.9393Z" fill="white"/>
</g>
</g>
<defs>
<filter id="filter0_d" x="0" y="0" width="444" height="294" filterUnits="userSpaceOnUse" color-interpolation-filters="sRGB">
<feFlood flood-opacity="0" result="BackgroundImageFix"/>
<feColorMatrix in="SourceAlpha" type="matrix" values="0 0 0 0 0 0 0 0 0 0 0 0 0 0 0 0 0 0 127 0"/>
<feOffset dy="6"/>
<feGaussianBlur stdDeviation="4"/>
<feColorMatrix type="matrix" values="0 0 0 0 0.678431 0 0 0 0 0.211765 0 0 0 0 0.211765 0 0 0 1 0"/>
<feBlend mode="normal" in2="BackgroundImageFix" result="effect1_dropShadow"/>
<feBlend mode="normal" in="SourceGraphic" in2="effect1_dropShadow" result="shape"/>
</filter>
<filter id="filter1_d" x="56.1055" y="31.4092" width="308.124" height="90.5489" filterUnits="userSpaceOnUse" color-interpolation-filters="sRGB">
<feFlood flood-opacity="0" result="BackgroundImageFix"/>
<feColorMatrix in="SourceAlpha" type="matrix" values="0 0 0 0 0 0 0 0 0 0 0 0 0 0 0 0 0 0 127 0"/>
<feOffset dy="6"/>
<feGaussianBlur stdDeviation="4"/>
<feColorMatrix type="matrix" values="0 0 0 0 0.6 0 0 0 0 0.20625 0 0 0 0 0.0375 0 0 0 0.5 0"/>
<feBlend mode="normal" in2="BackgroundImageFix" result="effect1_dropShadow"/>
<feBlend mode="normal" in="SourceGraphic" in2="effect1_dropShadow" result="shape"/>
</filter>
</defs>
</svg>
