<svg width="60" height="60" viewBox="0 0 60 60" fill="none" xmlns="http://www.w3.org/2000/svg">
<g clip-path="url(#clip0)">
<path d="M53.3568 10.5142C45.0402 1.46088 31.7654 1.80991 30.0008 1.8987C28.2362 1.80991 14.9584 1.46088 6.64485 10.5142C1.20431 16.4386 -0.910784 25.0296 0.356477 36.021C0.380444 36.2721 0.949658 42.224 4.89225 48.1881C8.53825 53.7022 15.8632 60.2266 29.9828 59.9939C30.2315 59.997 30.4772 60.0001 30.7198 60.0001C44.3991 60.0001 51.5263 53.6073 55.1094 48.1881C59.0519 42.224 59.6242 36.2721 59.6421 36.0517C60.9124 25.0296 58.7973 16.4386 53.3568 10.5142Z" fill="#0C3D76"/>
<path d="M53.1023 8.43529C44.8636 -0.37008 31.6697 -0.0547269 29.998 0.0218149C28.3233 -0.0547269 15.1324 -0.373141 6.8937 8.43529C1.47114 14.231 -0.640963 22.5772 0.608323 33.2257C0.63229 33.4706 1.20451 39.3153 5.12313 45.1325C8.68824 50.4261 15.7585 56.672 29.249 56.672C29.4857 56.672 29.7284 56.6689 29.968 56.6658C30.2107 56.6689 30.4534 56.672 30.69 56.672C44.2524 56.672 51.3257 50.3955 54.8729 45.1325C58.8005 39.3 59.3607 33.4951 59.3817 33.2746C60.6369 22.5863 58.5248 14.231 53.1023 8.43529Z" fill="#213664"/>
<path d="M29.9978 1.89535C28.0145 1.7882 -1.33921 0.744166 2.45059 33.054C2.45059 33.054 4.46982 55.2113 29.9978 54.795C55.5257 55.2083 57.545 33.054 57.545 33.054C61.3378 0.744166 31.9811 1.7882 29.9978 1.89535Z" fill="#F7F2E0"/>
<path d="M29.9981 11.4969C31.6698 11.4387 52.1497 10.958 57.5543 22.6199C54.5524 0.989227 31.7387 1.80363 29.9981 1.89548C28.2575 1.80057 5.44677 0.989229 2.44189 22.6169C7.84648 10.958 28.3264 11.4357 29.9981 11.4969Z" fill="#FBF8F0"/>
<path d="M29.9979 47.3123C12.9842 47.493 6.06075 41.3359 3.28955 36.9302C5.19793 43.2617 11.2736 55.1012 29.9979 54.7981C48.7222 55.1012 54.7979 43.2617 56.7063 36.9302C53.9351 41.3359 47.0116 47.493 29.9979 47.3123Z" fill="#F1E0AD"/>
<path d="M30.7536 13C28.3035 13 26.311 14.9924 26.311 17.4426C26.311 19.8928 28.3035 21.8852 30.7536 21.8852C33.2038 21.8852 35.1962 19.8928 35.1962 17.4426C35.1693 14.9924 33.2038 13 30.7536 13Z" fill="#A1C0ED"/>
<path d="M30.7535 13.8076C28.7341 13.8076 27.1187 15.45 27.1187 17.4425C27.1187 19.4349 28.7341 21.0773 30.7535 21.0773C32.746 21.0773 34.3884 19.4618 34.3884 17.4425C34.3614 15.45 32.746 13.8076 30.7535 13.8076Z" fill="#0C3D76"/>
<path d="M30.7535 15.1539C32.5306 15.1539 34.0114 16.4193 34.3076 18.1156C34.3614 17.9002 34.3614 17.6848 34.3614 17.4425C34.3614 15.45 32.746 13.8076 30.7266 13.8076C28.7341 13.8076 27.1187 15.45 27.1187 17.4425C27.1187 17.6848 27.1456 17.9002 27.1725 18.1156C27.4956 16.4193 28.9765 15.1539 30.7535 15.1539Z" fill="#213664"/>
<path d="M25.9999 45.8762L25.9999 26.9612C25.9999 25.4612 27.2214 24.2398 28.7213 24.2398L33.0571 24.2398C33.7832 24.238 34.4665 24.5216 34.9808 25.0359C35.495 25.5501 35.7786 26.2334 35.7786 26.9612L35.7803 45.8745C35.7803 46.6023 35.4967 47.2856 34.9825 47.7998C34.4682 48.314 33.7849 48.5976 33.0571 48.5976L28.7213 48.5976C27.2197 48.5959 25.9999 47.3761 25.9999 45.8762Z" fill="#A1C0ED"/>
<path d="M26.8745 45.9031L26.8745 26.9881C26.8745 25.9528 27.715 25.1123 28.7503 25.1123L33.0861 25.1123C34.1214 25.1123 34.9619 25.9528 34.9619 26.9881L34.9619 45.9031C34.9619 46.9384 34.1214 47.7789 33.0861 47.7789L28.7503 47.7789C27.715 47.7789 26.8745 46.9384 26.8745 45.9031Z" fill="#0C3D76"/>
<path d="M33.4465 25.1489C34.311 25.3163 34.9619 26.0766 34.9619 26.9888L34.9619 45.9038C34.9619 46.9391 34.1214 47.7796 33.0861 47.7796L28.7486 47.7779C27.8363 47.7779 27.0778 47.1253 26.9087 46.2626C27.0266 46.2848 27.1461 46.2984 27.2691 46.2984L31.6084 46.2984C32.6437 46.2984 33.4842 45.4579 33.4842 44.4226L33.4824 25.5094C33.4824 25.3864 33.4705 25.2651 33.4465 25.1489Z" fill="#213664"/>
</g>
<defs>
<clipPath id="clip0">
<rect width="60" height="60" fill="white"/>
</clipPath>
</defs>
</svg>
