<svg width="121" height="176" viewBox="0 0 121 176" fill="none" xmlns="http://www.w3.org/2000/svg">
<path d="M11.055 138.835V167.395H16.935V148.275H17.015L28.895 167.395H35.175V138.835H29.295V157.995H29.215L17.295 138.835H11.055ZM59.4235 154.835H50.1835C50.2101 154.435 50.2901 153.981 50.4235 153.475C50.5835 152.968 50.8368 152.488 51.1835 152.035C51.5568 151.581 52.0368 151.208 52.6235 150.915C53.2368 150.595 53.9968 150.435 54.9035 150.435C56.2901 150.435 57.3168 150.808 57.9835 151.555C58.6768 152.301 59.1568 153.395 59.4235 154.835ZM50.1835 158.435H65.1035C65.2101 156.835 65.0768 155.301 64.7035 153.835C64.3301 152.368 63.7168 151.061 62.8635 149.915C62.0368 148.768 60.9701 147.861 59.6635 147.195C58.3568 146.501 56.8235 146.155 55.0635 146.155C53.4901 146.155 52.0501 146.435 50.7435 146.995C49.4635 147.555 48.3568 148.328 47.4235 149.315C46.4901 150.275 45.7701 151.421 45.2635 152.755C44.7568 154.088 44.5035 155.528 44.5035 157.075C44.5035 158.675 44.7435 160.141 45.2235 161.475C45.7301 162.808 46.4368 163.955 47.3435 164.915C48.2501 165.875 49.3568 166.621 50.6635 167.155C51.9701 167.661 53.4368 167.915 55.0635 167.915C57.4101 167.915 59.4101 167.381 61.0635 166.315C62.7168 165.248 63.9435 163.475 64.7435 160.995H59.7435C59.5568 161.635 59.0501 162.248 58.2235 162.835C57.3968 163.395 56.4101 163.675 55.2635 163.675C53.6635 163.675 52.4368 163.261 51.5835 162.435C50.7301 161.608 50.2635 160.275 50.1835 158.435ZM79.1522 156.515L71.7122 167.395H78.0722L82.3922 160.875L86.7122 167.395H93.1922L85.5522 156.395L92.3522 146.715H86.0722L82.4722 152.115L78.8322 146.715H72.3522L79.1522 156.515ZM107.957 146.715V140.515H102.277V146.715H98.8366V150.515H102.277V162.715C102.277 163.755 102.45 164.595 102.797 165.235C103.143 165.875 103.61 166.368 104.197 166.715C104.81 167.061 105.503 167.288 106.277 167.395C107.077 167.528 107.917 167.595 108.797 167.595C109.357 167.595 109.93 167.581 110.517 167.555C111.103 167.528 111.637 167.475 112.117 167.395V162.995C111.85 163.048 111.57 163.088 111.277 163.115C110.983 163.141 110.677 163.155 110.357 163.155C109.397 163.155 108.757 162.995 108.437 162.675C108.117 162.355 107.957 161.715 107.957 160.755V150.515H112.117V146.715H107.957Z" fill="white"/>
<path d="M11.055 138.835V136.835H9.05502V138.835H11.055ZM11.055 167.395H9.05502V169.395H11.055V167.395ZM16.935 167.395V169.395H18.935V167.395H16.935ZM16.935 148.275V146.275H14.935V148.275H16.935ZM17.015 148.275L18.7138 147.219L18.127 146.275H17.015V148.275ZM28.895 167.395L27.1962 168.45L27.7831 169.395H28.895V167.395ZM35.175 167.395V169.395H37.175V167.395H35.175ZM35.175 138.835H37.175V136.835H35.175V138.835ZM29.295 138.835V136.835H27.295V138.835H29.295ZM29.295 157.995V159.995H31.295V157.995H29.295ZM29.215 157.995L27.5168 159.051L28.1038 159.995H29.215V157.995ZM17.295 138.835L18.9932 137.778L18.4062 136.835H17.295V138.835ZM9.05502 138.835V167.395H13.055V138.835H9.05502ZM11.055 169.395H16.935V165.395H11.055V169.395ZM18.935 167.395V148.275H14.935V167.395H18.935ZM16.935 150.275H17.015V146.275H16.935V150.275ZM15.3162 149.33L27.1962 168.45L30.5938 166.339L18.7138 147.219L15.3162 149.33ZM28.895 169.395H35.175V165.395H28.895V169.395ZM37.175 167.395V138.835H33.175V167.395H37.175ZM35.175 136.835H29.295V140.835H35.175V136.835ZM27.295 138.835V157.995H31.295V138.835H27.295ZM29.295 155.995H29.215V159.995H29.295V155.995ZM30.9132 156.938L18.9932 137.778L15.5968 139.891L27.5168 159.051L30.9132 156.938ZM17.295 136.835H11.055V140.835H17.295V136.835ZM59.4235 154.835V156.835H61.8278L61.39 154.47L59.4235 154.835ZM50.1835 154.835L48.1879 154.701L48.0457 156.835H50.1835V154.835ZM50.4235 153.475L48.5163 152.872L48.5017 152.919L48.4893 152.966L50.4235 153.475ZM51.1835 152.035L49.6396 150.763L49.6167 150.791L49.5947 150.82L51.1835 152.035ZM52.6235 150.915L53.5179 152.703L53.5333 152.696L53.5486 152.688L52.6235 150.915ZM57.9835 151.555L56.4916 152.887L56.5046 152.901L56.5179 152.915L57.9835 151.555ZM50.1835 158.435V156.435H48.0946L48.1853 158.521L50.1835 158.435ZM65.1035 158.435V160.435H66.9746L67.099 158.568L65.1035 158.435ZM62.8635 149.915L61.2411 151.084L61.25 151.096L61.259 151.109L62.8635 149.915ZM59.6635 147.195L58.726 148.961L58.7402 148.969L58.7545 148.976L59.6635 147.195ZM50.7435 146.995L49.9556 145.156L49.9487 145.159L49.9418 145.162L50.7435 146.995ZM47.4235 149.315L48.8574 150.709L48.867 150.699L48.8764 150.689L47.4235 149.315ZM45.2635 152.755L43.3939 152.044L45.2635 152.755ZM45.2235 161.475L43.3417 162.152L43.3476 162.169L43.3539 162.185L45.2235 161.475ZM50.6635 167.155L49.9077 169.006L49.924 169.013L49.9404 169.019L50.6635 167.155ZM61.0635 166.315L62.1477 167.995H62.1477L61.0635 166.315ZM64.7435 160.995L66.6469 161.609L67.4901 158.995H64.7435V160.995ZM59.7435 160.995V158.995H58.2435L57.8235 160.435L59.7435 160.995ZM58.2235 162.835L59.3452 164.49L59.3632 164.478L59.381 164.466L58.2235 162.835ZM51.5835 162.435L52.9751 160.998L51.5835 162.435ZM59.4235 152.835H50.1835V156.835H59.4235V152.835ZM52.179 154.968C52.1951 154.726 52.2474 154.402 52.3576 153.984L48.4893 152.966C48.3328 153.56 48.2251 154.143 48.1879 154.701L52.179 154.968ZM52.3306 154.077C52.4158 153.807 52.5559 153.532 52.7722 153.249L49.5947 150.82C49.1177 151.443 48.7511 152.129 48.5163 152.872L52.3306 154.077ZM52.7273 153.306C52.903 153.093 53.1522 152.886 53.5179 152.703L51.729 149.126C50.9214 149.529 50.2106 150.07 49.6396 150.763L52.7273 153.306ZM53.5486 152.688C53.8015 152.556 54.2224 152.435 54.9035 152.435V148.435C53.7712 148.435 52.6721 148.633 51.6983 149.141L53.5486 152.688ZM54.9035 152.435C55.9482 152.435 56.3334 152.709 56.4916 152.887L59.4753 150.222C58.3002 148.906 56.6321 148.435 54.9035 148.435V152.435ZM56.5179 152.915C56.8636 153.288 57.2306 153.977 57.4569 155.199L61.39 154.47C61.0829 152.812 60.49 151.315 59.449 150.194L56.5179 152.915ZM50.1835 160.435H65.1035V156.435H50.1835V160.435ZM67.099 158.568C67.2189 156.77 67.0701 155.024 66.6417 153.341L62.7653 154.328C63.0835 155.578 63.2014 156.899 63.1079 158.301L67.099 158.568ZM66.6417 153.341C66.2077 151.637 65.4862 150.089 64.4679 148.721L61.259 151.109C61.9474 152.034 62.4525 153.099 62.7653 154.328L66.6417 153.341ZM64.4858 148.745C63.4662 147.331 62.1511 146.218 60.5724 145.413L58.7545 148.976C59.7892 149.504 60.6074 150.205 61.2411 151.084L64.4858 148.745ZM60.6009 145.428C58.9554 144.555 57.0885 144.155 55.0635 144.155V148.155C56.5585 148.155 57.7582 148.448 58.726 148.961L60.6009 145.428ZM55.0635 144.155C53.2483 144.155 51.5366 144.479 49.9556 145.156L51.5313 148.833C52.5637 148.39 53.732 148.155 55.0635 148.155V144.155ZM49.9418 145.162C48.4234 145.827 47.0934 146.753 45.9705 147.94L48.8764 150.689C49.6202 149.903 50.5035 149.283 51.5451 148.827L49.9418 145.162ZM45.9895 147.92C44.8536 149.089 43.9911 150.472 43.3939 152.044L47.133 153.465C47.5491 152.37 48.1267 151.46 48.8574 150.709L45.9895 147.92ZM43.3939 152.044C42.794 153.623 42.5035 155.306 42.5035 157.075H46.5035C46.5035 155.75 46.7196 154.553 47.133 153.465L43.3939 152.044ZM42.5035 157.075C42.5035 158.876 42.7741 160.575 43.3417 162.152L47.1052 160.797C46.7129 159.707 46.5035 158.473 46.5035 157.075H42.5035ZM43.3539 162.185C43.9465 163.745 44.7879 165.121 45.8894 166.288L48.7975 163.541C48.0857 162.788 47.5137 161.871 47.093 160.764L43.3539 162.185ZM45.8894 166.288C47.0053 167.469 48.3553 168.373 49.9077 169.006L51.4193 165.303C50.3583 164.87 49.4949 164.28 48.7975 163.541L45.8894 166.288ZM49.9404 169.019C51.5115 169.628 53.2286 169.915 55.0635 169.915V165.915C53.645 165.915 52.4287 165.694 51.3865 165.29L49.9404 169.019ZM55.0635 169.915C57.7196 169.915 60.1134 169.308 62.1477 167.995L59.9792 164.634C58.7069 165.455 57.1006 165.915 55.0635 165.915V169.915ZM62.1477 167.995C64.2992 166.607 65.7514 164.385 66.6469 161.609L62.84 160.381C62.1355 162.565 61.1344 163.889 59.9792 164.634L62.1477 167.995ZM64.7435 158.995H59.7435V162.995H64.7435V158.995ZM57.8235 160.435C57.8138 160.468 57.7071 160.749 57.066 161.204L59.381 164.466C60.3931 163.747 61.2998 162.802 61.6635 161.555L57.8235 160.435ZM57.1018 161.179C56.6534 161.482 56.0714 161.675 55.2635 161.675V165.675C56.7489 165.675 58.1402 165.307 59.3452 164.49L57.1018 161.179ZM55.2635 161.675C53.9984 161.675 53.341 161.353 52.9751 160.998L50.1919 163.871C51.5326 165.17 53.3285 165.675 55.2635 165.675V161.675ZM52.9751 160.998C52.6464 160.68 52.2512 159.949 52.1816 158.348L48.1853 158.521C48.2757 160.6 48.8138 162.536 50.1919 163.871L52.9751 160.998ZM79.1522 156.515L80.8031 157.643L81.5808 156.506L80.7954 155.374L79.1522 156.515ZM71.7122 167.395L70.0613 166.266L67.9217 169.395H71.7122V167.395ZM78.0722 167.395V169.395H79.1462L79.7394 168.499L78.0722 167.395ZM82.3922 160.875L84.0594 159.77L82.3922 157.254L80.725 159.77L82.3922 160.875ZM86.7122 167.395L85.045 168.499L85.6382 169.395H86.7122V167.395ZM93.1922 167.395V169.395H97.0164L94.8349 166.254L93.1922 167.395ZM85.5522 156.395L83.9156 155.245L83.1126 156.388L83.9095 157.535L85.5522 156.395ZM92.3522 146.715L93.9888 147.864L96.2013 144.715H92.3522V146.715ZM86.0722 146.715V144.715H85.0018L84.4081 145.605L86.0722 146.715ZM82.4722 152.115L80.8138 153.232L82.4814 155.706L84.1363 153.224L82.4722 152.115ZM78.8322 146.715L80.4906 145.597L79.896 144.715H78.8322V146.715ZM72.3522 146.715V144.715H68.5301L70.709 147.855L72.3522 146.715ZM77.5013 155.386L70.0613 166.266L73.3631 168.523L80.8031 157.643L77.5013 155.386ZM71.7122 169.395H78.0722V165.395H71.7122V169.395ZM79.7394 168.499L84.0594 161.979L80.725 159.77L76.405 166.29L79.7394 168.499ZM80.725 161.979L85.045 168.499L88.3794 166.29L84.0594 159.77L80.725 161.979ZM86.7122 169.395H93.1922V165.395H86.7122V169.395ZM94.8349 166.254L87.1949 155.254L83.9095 157.535L91.5495 168.535L94.8349 166.254ZM87.1888 157.544L93.9888 147.864L90.7157 145.565L83.9156 155.245L87.1888 157.544ZM92.3522 144.715H86.0722V148.715H92.3522V144.715ZM84.4081 145.605L80.8081 151.005L84.1363 153.224L87.7363 147.824L84.4081 145.605ZM84.1306 150.997L80.4906 145.597L77.1738 147.832L80.8138 153.232L84.1306 150.997ZM78.8322 144.715H72.3522V148.715H78.8322V144.715ZM70.709 147.855L77.509 157.655L80.7954 155.374L73.9954 145.574L70.709 147.855ZM107.957 146.715H105.957V148.715H107.957V146.715ZM107.957 140.515H109.957V138.515H107.957V140.515ZM102.277 140.515V138.515H100.277V140.515H102.277ZM102.277 146.715V148.715H104.277V146.715H102.277ZM98.8366 146.715V144.715H96.8366V146.715H98.8366ZM98.8366 150.515H96.8366V152.515H98.8366V150.515ZM102.277 150.515H104.277V148.515H102.277V150.515ZM102.797 165.235L101.038 166.187V166.187L102.797 165.235ZM104.197 166.715L103.179 168.436L103.196 168.446L103.212 168.456L104.197 166.715ZM106.277 167.395L106.605 165.422L106.578 165.417L106.55 165.413L106.277 167.395ZM110.517 167.555L110.426 165.557L110.517 167.555ZM112.117 167.395L112.445 169.367L114.117 169.089V167.395H112.117ZM112.117 162.995H114.117V160.555L111.724 161.033L112.117 162.995ZM111.277 163.115L111.096 161.123H111.096L111.277 163.115ZM108.437 162.675L107.022 164.089L108.437 162.675ZM107.957 150.515V148.515H105.957V150.515H107.957ZM112.117 150.515V152.515H114.117V150.515H112.117ZM112.117 146.715H114.117V144.715H112.117V146.715ZM109.957 146.715V140.515H105.957V146.715H109.957ZM107.957 138.515H102.277V142.515H107.957V138.515ZM100.277 140.515V146.715H104.277V140.515H100.277ZM102.277 144.715H98.8366V148.715H102.277V144.715ZM96.8366 146.715V150.515H100.837V146.715H96.8366ZM98.8366 152.515H102.277V148.515H98.8366V152.515ZM100.277 150.515V162.715H104.277V150.515H100.277ZM100.277 162.715C100.277 163.953 100.479 165.156 101.038 166.187L104.555 164.282C104.42 164.033 104.277 163.556 104.277 162.715H100.277ZM101.038 166.187C101.545 167.123 102.259 167.893 103.179 168.436L105.214 164.993C104.961 164.843 104.741 164.626 104.555 164.282L101.038 166.187ZM103.212 168.456C104.068 168.939 105.007 169.238 106.003 169.376L106.55 165.413C105.999 165.337 105.552 165.183 105.181 164.973L103.212 168.456ZM105.948 169.367C106.865 169.52 107.816 169.595 108.797 169.595V165.595C108.018 165.595 107.288 165.536 106.605 165.422L105.948 169.367ZM108.797 169.595C109.388 169.595 109.992 169.58 110.607 169.552L110.426 165.557C109.868 165.582 109.325 165.595 108.797 165.595V169.595ZM110.607 169.552C111.258 169.523 111.873 169.463 112.445 169.367L111.788 165.422C111.401 165.486 110.948 165.533 110.426 165.557L110.607 169.552ZM114.117 167.395V162.995H110.117V167.395H114.117ZM111.724 161.033C111.533 161.072 111.324 161.102 111.096 161.123L111.458 165.106C111.816 165.074 112.167 165.024 112.509 164.956L111.724 161.033ZM111.096 161.123C110.867 161.143 110.621 161.155 110.357 161.155V165.155C110.732 165.155 111.099 165.139 111.458 165.106L111.096 161.123ZM110.357 161.155C109.973 161.155 109.749 161.121 109.642 161.094C109.592 161.082 109.595 161.078 109.631 161.096C109.669 161.114 109.754 161.163 109.851 161.26L107.022 164.089C107.53 164.596 108.151 164.845 108.672 164.975C109.204 165.108 109.78 165.155 110.357 165.155V161.155ZM109.851 161.26C109.948 161.358 109.997 161.443 110.015 161.48C110.034 161.516 110.029 161.519 110.017 161.469C109.99 161.362 109.957 161.138 109.957 160.755H105.957C105.957 161.331 106.003 161.907 106.136 162.44C106.266 162.96 106.515 163.581 107.022 164.089L109.851 161.26ZM109.957 160.755V150.515H105.957V160.755H109.957ZM107.957 152.515H112.117V148.515H107.957V152.515ZM114.117 150.515V146.715H110.117V150.515H114.117ZM112.117 144.715H107.957V148.715H112.117V144.715Z" fill="#0C3D76"/>
<g clip-path="url(#clip0)">
<path d="M107.691 21.423C91.0574 3.3163 64.5078 4.01435 60.9787 4.19193C57.4495 4.01435 30.8939 3.3163 14.2667 21.423C3.38567 33.2717 -0.844518 50.4538 1.69 72.4366C1.73195 72.9388 2.87639 84.8425 10.7616 96.7708C18.0536 107.799 32.7035 120.848 60.9427 120.382C61.44 120.389 61.9314 120.395 62.4167 120.395C89.7752 120.395 104.03 107.609 111.196 96.7708C119.081 84.8425 120.225 72.9388 120.261 72.4979C122.802 50.4538 118.572 33.2717 107.691 21.423Z" fill="#0C3D76"/>
<path d="M107.181 17.2651C90.7038 -0.345621 64.316 0.285077 60.9726 0.438161C57.6231 0.285077 31.2413 -0.351745 14.764 17.2651C3.91883 28.8566 -0.305362 45.5489 2.19321 66.8459C2.23515 67.3357 3.38558 79.0252 11.2228 90.6596C18.353 101.247 32.4936 113.738 59.4746 113.738C59.948 113.738 60.4333 113.732 60.9126 113.726C61.398 113.732 61.8833 113.738 62.3567 113.738C89.4874 113.738 103.628 101.186 110.722 90.6596C118.578 78.9946 119.698 67.3847 119.74 66.9438C122.25 45.5672 118.02 28.8566 107.181 17.2651Z" fill="#213664"/>
<path d="M60.9726 4.19208C57.0061 3.97776 -1.70137 1.88971 5.87823 66.5094C5.87823 66.5094 9.9167 110.824 60.9726 109.991C112.029 110.818 116.067 66.5094 116.067 66.5094C123.647 1.88971 64.9392 3.97776 60.9726 4.19208Z" fill="#F7F2E0"/>
<path d="M60.9727 23.388C64.3161 23.2717 105.276 22.3103 116.085 45.6341C110.075 2.37885 64.4539 4.00153 60.9727 4.19136C57.4915 4.00153 11.8701 2.37885 5.86035 45.6341C16.6635 22.3103 57.6293 23.2717 60.9727 23.388Z" fill="#FBF8F0"/>
<path d="M60.9729 95.0192C26.9456 95.3804 13.0985 83.0664 7.55615 74.2549C11.3729 86.918 23.5243 110.597 60.9729 109.991C98.4215 110.597 110.573 86.918 114.39 74.2549C108.847 83.0664 95.0002 95.3804 60.9729 95.0192Z" fill="#F1E0AD"/>
<path d="M92.843 55.4195C92.849 55.1868 92.843 53.0743 91.3331 50.5637C89.6853 47.8204 83.1004 38.268 67.4019 30.4118L67.0724 30.2464L66.7129 30.1974C66.4313 30.1546 63.8848 29.8606 61.9674 31.514C61.1645 32.2059 60.1878 33.504 60.1159 35.7329C60.08 36.78 60.062 38.7028 60.056 41.4583H36.2747C31.2116 41.4583 28.6411 44.0852 28.6411 49.2594V62.3389C28.6411 67.5131 31.2116 70.14 36.2747 70.14H60.056C60.062 72.4363 60.08 74.0773 60.1099 75.0081C60.1878 77.237 61.1585 78.5351 61.9614 79.2271C63.3335 80.415 65.0412 80.5926 65.934 80.5926C66.3294 80.5926 66.605 80.5619 66.7069 80.5436L67.0664 80.4946L67.396 80.3293C83.0944 72.473 89.6794 62.9206 91.3271 60.1773C92.885 57.6055 92.843 55.4807 92.843 55.4195Z" fill="#A1C0ED"/>
<path d="M36.2804 43.9071H49.4084H62.2967C62.2907 40.5699 62.3027 37.4409 62.3566 35.9774C62.4885 32.0891 66.4191 32.6279 66.4191 32.6279C79.7748 39.3085 86.7012 47.3791 89.4275 51.9226C90.6378 53.9372 90.6079 55.5415 90.6079 55.5415C90.6079 55.5415 90.6378 57.1458 89.4275 59.1604C86.7012 63.7039 79.7748 71.7683 66.4191 78.455C66.4191 78.455 62.4825 78.9939 62.3566 75.1055C62.3087 73.7707 62.2967 71.0396 62.2967 68.027H49.4084H36.2804C32.4277 68.027 30.8818 66.4472 30.8818 62.5098V49.4304C30.8878 45.4869 32.4337 43.9071 36.2804 43.9071Z" fill="#0C3D76"/>
<path d="M62.2967 43.9077H36.2804C32.4277 43.9077 30.8818 45.4875 30.8818 49.4249V52.9458C30.8818 49.0085 32.4277 47.4286 36.2804 47.4286H62.2967C62.2967 46.1244 62.2967 43.8403 62.2967 43.9077Z" fill="#213664"/>
<path d="M89.4275 51.9167C86.7012 47.3732 79.7748 39.3087 66.4191 32.6221C66.4191 32.6221 62.4825 32.0832 62.3566 35.9715C62.3267 36.9145 62.3087 38.5495 62.3027 40.4844C62.3027 40.4844 62.3506 39.768 62.3566 39.4924C62.4885 35.6041 66.4191 36.143 66.4191 36.143C79.7748 42.8235 86.7012 50.8941 89.4275 55.4376C89.8349 56.1173 90.1046 56.7542 90.2783 57.293C90.6199 56.2337 90.6079 55.5356 90.6079 55.5356C90.6079 55.5356 90.6318 53.9313 89.4275 51.9167Z" fill="#213664"/>
</g>
<defs>
<clipPath id="clip0">
<rect width="120" height="120" fill="white" transform="translate(0.977051 0.394531)"/>
</clipPath>
</defs>
</svg>
