<svg width="190" height="224" viewBox="0 0 190 224" fill="none" xmlns="http://www.w3.org/2000/svg">
<g filter="url(#filter0_d)">
<path d="M26.7579 162.805H41.4459L44.4699 172.693V162.805H59.2539V195.973H44.4699L41.9259 186.277V195.973H26.7579V162.805ZM68.5348 181.861C68.5348 176.965 69.6388 173.285 71.8468 170.821C74.0868 168.357 77.7348 167.125 82.7908 167.125C87.8468 167.125 91.3668 168.149 93.3508 170.197C95.3348 172.245 96.3268 175.605 96.3268 180.277L96.0868 183.973H82.8388V185.605C83.6388 185.797 84.8068 185.893 86.3428 185.893C89.6068 185.893 92.2468 185.749 94.2628 185.461L95.2708 185.317V194.341C95.0148 194.501 94.5988 194.709 94.0228 194.965C93.4788 195.189 92.1508 195.493 90.0388 195.877C87.9268 196.261 85.5748 196.453 82.9828 196.453C77.8628 196.453 74.1668 195.237 71.8948 192.805C69.6548 190.373 68.5348 186.725 68.5348 181.861ZM82.1188 179.701V181.573H84.8548V179.701C84.8548 179.285 84.7108 178.949 84.4228 178.693C84.1668 178.437 83.8308 178.309 83.4148 178.309C83.0308 178.309 82.7108 178.437 82.4548 178.693C82.2308 178.949 82.1188 179.285 82.1188 179.701ZM120.675 195.973L119.091 185.557L117.459 195.973H103.539L107.283 182.389L103.587 167.605H118.323L120.051 179.845L121.779 167.605H135.507L131.235 182.389L135.507 195.973H120.675ZM160.928 180.997V183.157H165.248V194.485C165.088 194.645 164.816 194.837 164.432 195.061C164.08 195.253 163.136 195.541 161.6 195.925C160.064 196.277 158.288 196.453 156.272 196.453C148.944 196.453 145.28 193.253 145.28 186.853V180.997H143.408V169.045C144.784 168.629 146 167.861 147.056 166.741C148.112 165.621 148.832 164.613 149.216 163.717L149.792 162.325H161.84V167.605H165.248V180.997H160.928Z" fill="white"/>
<path d="M26.7579 162.805V160.805H24.7579V162.805H26.7579ZM41.4459 162.805L43.3585 162.22L42.9257 160.805H41.4459V162.805ZM44.4699 172.693L42.5574 173.278L46.4699 172.693H44.4699ZM44.4699 162.805V160.805H42.4699V162.805H44.4699ZM59.2539 162.805H61.2539V160.805H59.2539V162.805ZM59.2539 195.973V197.973H61.2539V195.973H59.2539ZM44.4699 195.973L42.5354 196.48L42.927 197.973H44.4699V195.973ZM41.9259 186.277L43.8605 185.769L39.9259 186.277H41.9259ZM41.9259 195.973V197.973H43.9259V195.973H41.9259ZM26.7579 195.973H24.7579V197.973H26.7579V195.973ZM26.7579 164.805H41.4459V160.805H26.7579V164.805ZM39.5334 163.39L42.5574 173.278L46.3825 172.108L43.3585 162.22L39.5334 163.39ZM46.4699 172.693V162.805H42.4699V172.693H46.4699ZM44.4699 164.805H59.2539V160.805H44.4699V164.805ZM57.2539 162.805V195.973H61.2539V162.805H57.2539ZM59.2539 193.973H44.4699V197.973H59.2539V193.973ZM46.4045 195.465L43.8605 185.769L39.9914 186.784L42.5354 196.48L46.4045 195.465ZM39.9259 186.277V195.973H43.9259V186.277H39.9259ZM41.9259 193.973H26.7579V197.973H41.9259V193.973ZM28.7579 195.973V162.805H24.7579V195.973H28.7579ZM71.8468 170.821L70.3669 169.475L70.3621 169.481L70.3573 169.486L71.8468 170.821ZM93.3508 170.197L91.9143 171.588L91.9143 171.588L93.3508 170.197ZM96.3268 180.277L98.3226 180.406L98.3268 180.342V180.277H96.3268ZM96.0868 183.973V185.973H97.9612L98.0826 184.102L96.0868 183.973ZM82.8388 183.973V181.973H80.8388V183.973H82.8388ZM82.8388 185.605H80.8388V187.181L82.3721 187.549L82.8388 185.605ZM94.2628 185.461L93.98 183.481L93.98 183.481L94.2628 185.461ZM95.2708 185.317H97.2708V183.011L94.988 183.337L95.2708 185.317ZM95.2708 194.341L96.3308 196.037L97.2708 195.449V194.341H95.2708ZM94.0228 194.965L94.7843 196.814L94.8098 196.803L94.8351 196.792L94.0228 194.965ZM90.0388 195.877L89.681 193.909L90.0388 195.877ZM71.8948 192.805L70.4237 194.16L70.4285 194.165L70.4333 194.17L71.8948 192.805ZM82.1188 181.573H80.1188V183.573H82.1188V181.573ZM84.8548 181.573V183.573H86.8548V181.573H84.8548ZM84.4228 178.693L83.0086 180.107L83.0502 180.148L83.0941 180.187L84.4228 178.693ZM82.4548 178.693L81.0406 177.278L80.9935 177.326L80.9497 177.376L82.4548 178.693ZM70.5348 181.861C70.5348 177.226 71.5841 174.111 73.3363 172.155L70.3573 169.486C67.6936 172.459 66.5348 176.703 66.5348 181.861H70.5348ZM73.3267 172.166C75.0281 170.294 78.0068 169.125 82.7908 169.125V165.125C77.4629 165.125 73.1456 166.419 70.3669 169.475L73.3267 172.166ZM82.7908 169.125C87.6922 169.125 90.5105 170.139 91.9143 171.588L94.7873 168.805C92.2231 166.158 88.0015 165.125 82.7908 165.125V169.125ZM91.9143 171.588C93.3652 173.086 94.3268 175.81 94.3268 180.277H98.3268C98.3268 175.4 97.3044 171.403 94.7873 168.805L91.9143 171.588ZM94.331 180.147L94.091 183.843L98.0826 184.102L98.3226 180.406L94.331 180.147ZM96.0868 181.973H82.8388V185.973H96.0868V181.973ZM80.8388 183.973V185.605H84.8388V183.973H80.8388ZM82.3721 187.549C83.4042 187.797 84.7601 187.893 86.3428 187.893V183.893C84.8535 183.893 83.8734 183.796 83.3056 183.66L82.3721 187.549ZM86.3428 187.893C89.6524 187.893 92.3975 187.747 94.5457 187.441L93.98 183.481C92.0962 183.75 89.5613 183.893 86.3428 183.893V187.893ZM94.5457 187.441L95.5537 187.297L94.988 183.337L93.98 183.481L94.5457 187.441ZM93.2708 185.317V194.341H97.2708V185.317H93.2708ZM94.2108 192.645C94.0805 192.726 93.7721 192.887 93.2105 193.137L94.8351 196.792C95.4255 196.53 95.9492 196.275 96.3308 196.037L94.2108 192.645ZM93.2613 193.115C92.9541 193.242 91.8586 193.513 89.681 193.909L90.3966 197.844C92.4431 197.472 94.0036 197.135 94.7843 196.814L93.2613 193.115ZM89.681 193.909C87.7084 194.268 85.4786 194.453 82.9828 194.453V198.453C85.671 198.453 88.1453 198.254 90.3966 197.844L89.681 193.909ZM82.9828 194.453C78.122 194.453 75.0873 193.292 73.3563 191.439L70.4333 194.17C73.2463 197.181 77.6037 198.453 82.9828 198.453V194.453ZM73.3659 191.45C71.5962 189.528 70.5348 186.455 70.5348 181.861H66.5348C66.5348 186.994 67.7134 191.217 70.4237 194.16L73.3659 191.45ZM80.1188 179.701V181.573H84.1188V179.701H80.1188ZM82.1188 183.573H84.8548V179.573H82.1188V183.573ZM86.8548 181.573V179.701H82.8548V181.573H86.8548ZM86.8548 179.701C86.8548 178.765 86.5033 177.866 85.7515 177.198L83.0941 180.187C83.0305 180.131 82.9586 180.041 82.9085 179.924C82.8601 179.811 82.8548 179.726 82.8548 179.701H86.8548ZM85.837 177.278C85.1494 176.591 84.2755 176.309 83.4148 176.309V180.309C83.4171 180.309 83.3589 180.309 83.2668 180.274C83.1694 180.237 83.0786 180.177 83.0086 180.107L85.837 177.278ZM83.4148 176.309C82.5361 176.309 81.6962 176.623 81.0406 177.278L83.869 180.107C83.8153 180.161 83.7337 180.22 83.6296 180.262C83.5278 180.302 83.4482 180.309 83.4148 180.309V176.309ZM80.9497 177.376C80.3396 178.073 80.1188 178.913 80.1188 179.701H84.1188C84.1188 179.671 84.1228 179.701 84.1002 179.769C84.0757 179.842 84.0301 179.93 83.96 180.01L80.9497 177.376ZM120.675 195.973L118.698 196.273L118.956 197.973H120.675V195.973ZM119.091 185.557L121.068 185.256L117.115 185.247L119.091 185.557ZM117.459 195.973V197.973H119.17L119.435 196.282L117.459 195.973ZM103.539 195.973L101.611 195.441L100.913 197.973H103.539V195.973ZM107.283 182.389L109.211 182.92L109.351 182.413L109.223 181.904L107.283 182.389ZM103.587 167.605V165.605H101.026L101.647 168.09L103.587 167.605ZM118.323 167.605L120.304 167.325L120.061 165.605H118.323V167.605ZM120.051 179.845L118.071 180.124H122.032L120.051 179.845ZM121.779 167.605V165.605H120.042L119.799 167.325L121.779 167.605ZM135.507 167.605L137.429 168.16L138.167 165.605H135.507V167.605ZM131.235 182.389L129.314 181.833L129.146 182.413L129.327 182.989L131.235 182.389ZM135.507 195.973V197.973H138.233L137.415 195.373L135.507 195.973ZM122.652 195.672L121.068 185.256L117.114 185.857L118.698 196.273L122.652 195.672ZM117.115 185.247L115.483 195.663L119.435 196.282L121.067 185.866L117.115 185.247ZM117.459 193.973H103.539V197.973H117.459V193.973ZM105.467 196.504L109.211 182.92L105.355 181.857L101.611 195.441L105.467 196.504ZM109.223 181.904L105.527 167.12L101.647 168.09L105.343 182.874L109.223 181.904ZM103.587 169.605H118.323V165.605H103.587V169.605ZM116.343 167.884L118.071 180.124L122.032 179.565L120.304 167.325L116.343 167.884ZM122.032 180.124L123.76 167.884L119.799 167.325L118.071 179.565L122.032 180.124ZM121.779 169.605H135.507V165.605H121.779V169.605ZM133.586 167.049L129.314 181.833L133.157 182.944L137.429 168.16L133.586 167.049ZM129.327 182.989L133.599 196.573L137.415 195.373L133.143 181.789L129.327 182.989ZM135.507 193.973H120.675V197.973H135.507V193.973ZM160.928 180.997V178.997H158.928V180.997H160.928ZM160.928 183.157H158.928V185.157H160.928V183.157ZM165.248 183.157H167.248V181.157H165.248V183.157ZM165.248 194.485L166.662 195.899L167.248 195.313V194.485H165.248ZM164.432 195.061L165.389 196.816L165.415 196.803L165.439 196.788L164.432 195.061ZM161.6 195.925L162.046 197.874L162.066 197.87L162.085 197.865L161.6 195.925ZM145.28 180.997H147.28V178.997H145.28V180.997ZM143.408 180.997H141.408V182.997H143.408V180.997ZM143.408 169.045L142.829 167.13L141.408 167.56V169.045H143.408ZM147.056 166.741L145.601 165.369L145.601 165.369L147.056 166.741ZM149.216 163.717L151.054 164.504L151.059 164.493L151.064 164.481L149.216 163.717ZM149.792 162.325V160.325H148.455L147.944 161.56L149.792 162.325ZM161.84 162.325H163.84V160.325H161.84V162.325ZM161.84 167.605H159.84V169.605H161.84V167.605ZM165.248 167.605H167.248V165.605H165.248V167.605ZM165.248 180.997V182.997H167.248V180.997H165.248ZM158.928 180.997V183.157H162.928V180.997H158.928ZM160.928 185.157H165.248V181.157H160.928V185.157ZM163.248 183.157V194.485H167.248V183.157H163.248ZM163.833 193.07C163.862 193.042 163.852 193.057 163.77 193.115C163.694 193.169 163.581 193.241 163.424 193.333L165.439 196.788C165.858 196.544 166.313 196.247 166.662 195.899L163.833 193.07ZM163.474 193.305C163.497 193.292 163.352 193.363 162.876 193.508C162.45 193.638 161.867 193.796 161.115 193.984L162.085 197.865C162.869 197.669 163.525 197.492 164.043 197.334C164.511 197.191 165.014 197.021 165.389 196.816L163.474 193.305ZM161.153 193.975C159.798 194.286 158.177 194.453 156.272 194.453V198.453C158.399 198.453 160.33 198.268 162.046 197.874L161.153 193.975ZM156.272 194.453C152.854 194.453 150.665 193.701 149.343 192.546C148.073 191.437 147.28 189.669 147.28 186.853H143.28C143.28 190.437 144.318 193.468 146.712 195.559C149.054 197.605 152.361 198.453 156.272 198.453V194.453ZM147.28 186.853V180.997H143.28V186.853H147.28ZM145.28 178.997H143.408V182.997H145.28V178.997ZM145.408 180.997V169.045H141.408V180.997H145.408ZM143.986 170.959C145.721 170.435 147.233 169.468 148.511 168.113L145.601 165.369C144.767 166.253 143.847 166.823 142.829 167.13L143.986 170.959ZM148.511 168.113C149.646 166.909 150.54 165.704 151.054 164.504L147.377 162.929C147.124 163.521 146.578 164.332 145.601 165.369L148.511 168.113ZM151.064 164.481L151.64 163.089L147.944 161.56L147.368 162.952L151.064 164.481ZM149.792 164.325H161.84V160.325H149.792V164.325ZM159.84 162.325V167.605H163.84V162.325H159.84ZM161.84 169.605H165.248V165.605H161.84V169.605ZM163.248 167.605V180.997H167.248V167.605H163.248ZM165.248 178.997H160.928V182.997H165.248V178.997Z" fill="#0C3D76"/>
</g>
<g clip-path="url(#clip0)">
<path d="M149.499 24.5284C130.094 3.40794 99.1192 4.22218 95.0019 4.42931C90.8845 4.22218 59.903 3.40794 40.5046 24.5284C27.8101 38.3491 22.8748 58.3911 25.8318 84.0327C25.8807 84.6184 27.2159 98.5034 36.4153 112.417C44.9226 125.281 62.0141 140.501 94.9599 139.959C95.5401 139.966 96.1134 139.973 96.6796 139.973C128.598 139.973 145.228 125.059 153.588 112.417C162.788 98.5034 164.123 84.6184 164.165 84.1041C167.129 58.3911 162.194 38.3491 149.499 24.5284Z" fill="#0C3D76"/>
<path d="M148.905 19.6785C129.682 -0.863344 98.8958 -0.127672 94.9952 0.0508912C91.0875 -0.127672 60.3087 -0.870486 41.0851 19.6785C28.4325 33.1993 23.5043 52.6698 26.4193 77.5115C26.4682 78.0829 27.8104 91.718 36.9538 105.289C45.2724 117.638 61.7697 132.209 93.2475 132.209C93.7998 132.209 94.366 132.202 94.9253 132.195C95.4915 132.202 96.0577 132.209 96.6099 132.209C128.263 132.209 144.76 117.567 153.037 105.289C162.201 91.6823 163.508 78.1401 163.557 77.6258C166.486 52.6913 161.551 33.1993 148.905 19.6785Z" fill="#213664"/>
<path d="M94.995 4.42948C90.3674 4.17949 21.8753 1.74391 30.7182 77.1189C30.7182 77.1189 35.4298 128.809 94.995 127.838C154.56 128.802 159.272 77.1189 159.272 77.1189C168.115 1.74391 99.6227 4.17949 94.995 4.42948Z" fill="#6F9ACD"/>
<path d="M94.995 26.8211C98.8957 26.6854 146.682 25.564 159.293 52.7698C152.281 2.31511 99.0565 4.20788 94.995 4.42929C90.9336 4.20788 37.7086 2.31511 30.6973 52.7698C43.301 25.564 91.0944 26.6854 94.995 26.8211Z" fill="#A1C0ED"/>
<path d="M94.9948 110.374C55.2963 110.796 39.1414 96.4319 32.6753 86.1538C37.1282 100.925 51.3048 128.545 94.9948 127.838C138.685 128.545 152.861 100.925 157.314 86.1538C150.848 96.4319 134.693 110.796 94.9948 110.374Z" fill="#3F76B7"/>
<path d="M114.512 114.552C114.582 119.338 122.579 120.024 129.087 117.545C135.588 115.067 141.146 110.767 139.51 106.281C137.874 101.796 133.449 108.146 125.781 110.51C119.133 112.56 114.463 110.738 114.512 114.552Z" fill="#73A6F3"/>
<path d="M132.177 64.1834C132.184 63.912 132.177 61.4478 130.415 58.5194C128.493 55.3195 120.81 44.1772 102.495 35.0134L102.111 34.8205L101.691 34.7634C101.363 34.7134 98.392 34.3705 96.1551 36.299C95.2184 37.1061 94.0789 38.6203 93.995 41.2202C93.9531 42.4416 93.9322 44.6843 93.9252 47.8985H66.1802C60.2733 47.8985 57.2744 50.9626 57.2744 56.998V72.2544C57.2744 78.2899 60.2733 81.354 66.1802 81.354H93.9252C93.9322 84.0325 93.9531 85.9466 93.9881 87.0323C94.0789 89.6322 95.2114 91.1464 96.1481 91.9535C97.7489 93.3391 99.7412 93.5463 100.783 93.5463C101.244 93.5463 101.566 93.5106 101.684 93.4891L102.104 93.432L102.488 93.2391C120.803 84.0753 128.486 72.933 130.408 69.7331C132.226 66.7333 132.177 64.2548 132.177 64.1834Z" fill="#A1C0ED"/>
<path d="M66.187 50.7555H81.503H96.5394C96.5324 46.8628 96.5464 43.213 96.6093 41.5059C96.7631 36.9704 101.349 37.5989 101.349 37.5989C116.93 45.3914 125.011 54.8053 128.192 60.105C129.604 62.4549 129.569 64.3262 129.569 64.3262C129.569 64.3262 129.604 66.1976 128.192 68.5475C125.011 73.8472 116.93 83.2539 101.349 91.0535C101.349 91.0535 96.7561 91.6821 96.6093 87.1466C96.5534 85.5895 96.5394 82.4039 96.5394 78.8898H81.503H66.187C61.6922 78.8898 59.8887 77.0471 59.8887 72.4544V57.198C59.8957 52.5982 61.6992 50.7555 66.187 50.7555Z" fill="#0C3D76"/>
<path d="M96.5394 50.7556H66.187C61.6922 50.7556 59.8887 52.5984 59.8887 57.191V61.298C59.8887 56.7053 61.6922 54.8626 66.187 54.8626H96.5394C96.5394 53.3412 96.5394 50.677 96.5394 50.7556Z" fill="#213664"/>
<path d="M128.192 60.0977C125.011 54.7979 116.93 45.3912 101.349 37.5916C101.349 37.5916 96.7561 36.9631 96.6093 41.4986C96.5743 42.5985 96.5534 44.5056 96.5464 46.7626C96.5464 46.7626 96.6023 45.9269 96.6093 45.6055C96.7631 41.07 101.349 41.6986 101.349 41.6986C116.93 49.491 125.011 58.9049 128.192 64.2046C128.667 64.9974 128.982 65.7403 129.185 66.3688C129.583 65.1332 129.569 64.3189 129.569 64.3189C129.569 64.3189 129.597 62.4476 128.192 60.0977Z" fill="#213664"/>
</g>
<defs>
<filter id="filter0_d" x="16.7578" y="158.325" width="158.49" height="54.128" filterUnits="userSpaceOnUse" color-interpolation-filters="sRGB">
<feFlood flood-opacity="0" result="BackgroundImageFix"/>
<feColorMatrix in="SourceAlpha" type="matrix" values="0 0 0 0 0 0 0 0 0 0 0 0 0 0 0 0 0 0 127 0"/>
<feOffset dy="6"/>
<feGaussianBlur stdDeviation="4"/>
<feColorMatrix type="matrix" values="0 0 0 0 0.678431 0 0 0 0 0.211765 0 0 0 0 0.211765 0 0 0 1 0"/>
<feBlend mode="normal" in2="BackgroundImageFix" result="effect1_dropShadow"/>
<feBlend mode="normal" in="SourceGraphic" in2="effect1_dropShadow" result="shape"/>
</filter>
<clipPath id="clip0">
<rect width="140" height="139.973" fill="white" transform="translate(25)"/>
</clipPath>
</defs>
</svg>
