<svg width="140" height="141" viewBox="0 0 140 141" fill="none" xmlns="http://www.w3.org/2000/svg">
<g clip-path="url(#clip0)">
<path d="M124.499 24.6148C105.094 3.49027 74.1192 4.30467 70.0019 4.51184C65.8845 4.30467 34.903 3.49027 15.5046 24.6148C2.81006 38.4383 -2.12516 58.4841 0.831779 84.1307C0.880712 84.7165 2.21589 98.6042 11.4153 112.521C19.9226 125.387 37.0141 140.61 69.9599 140.067C70.5401 140.075 71.1134 140.082 71.6796 140.082C103.598 140.082 120.228 125.165 128.588 112.521C137.788 98.6042 139.123 84.7165 139.165 84.2021C142.129 58.4841 137.194 38.4383 124.499 24.6148Z" fill="#0C3D76"/>
<path d="M123.905 19.7639C104.681 -0.781968 73.8956 -0.0461536 69.9949 0.132444C66.0873 -0.0461536 35.3085 -0.789112 16.0849 19.7639C3.43224 33.2873 -1.49599 52.7616 1.41902 77.6081C1.46795 78.1796 2.81011 91.8173 11.9536 105.391C20.2722 117.743 36.7695 132.316 68.2473 132.316C68.7995 132.316 69.3658 132.309 69.925 132.302C70.4912 132.309 71.0574 132.316 71.6097 132.316C103.262 132.316 119.76 117.671 128.036 105.391C137.201 91.7816 138.508 78.2368 138.557 77.7224C141.486 52.783 136.551 33.2873 123.905 19.7639Z" fill="#213664"/>
<path d="M69.9948 4.51152C65.3671 4.26149 -3.1249 1.82543 5.71796 77.215C5.71796 77.215 10.4295 128.915 69.9948 127.944C129.56 128.908 134.272 77.215 134.272 77.215C143.114 1.82543 74.6224 4.26149 69.9948 4.51152Z" fill="#6F9ACD"/>
<path d="M69.9948 26.908C73.8954 26.7722 121.682 25.6506 134.293 52.8617C127.281 2.39723 74.0562 4.29036 69.9948 4.51183C65.9334 4.29036 12.7084 2.39723 5.69702 52.8617C18.3007 25.6506 66.0941 26.7722 69.9948 26.908Z" fill="#A1C0ED"/>
<path d="M69.9948 110.477C30.2963 110.898 14.1414 96.532 7.67529 86.252C12.1282 101.026 26.3048 128.651 69.9948 127.944C113.685 128.651 127.861 101.026 132.314 86.252C125.848 96.532 109.693 110.898 69.9948 110.477Z" fill="#3F76B7"/>
<path d="M89.5121 114.656C89.582 119.443 97.5791 120.129 104.087 117.65C110.588 115.171 116.146 110.87 114.51 106.384C112.874 101.897 108.449 108.248 100.781 110.613C94.1328 112.663 89.4632 110.842 89.5121 114.656Z" fill="#73A6F3"/>
<path d="M107.177 64.2775C107.184 64.006 107.177 61.5414 105.415 58.6124C103.493 55.4119 95.8105 44.2674 77.4956 35.1018L77.1111 34.9089L76.6917 34.8518C76.3632 34.8018 73.3923 34.4588 71.1553 36.3877C70.2186 37.195 69.0792 38.7095 68.9953 41.3099C68.9534 42.5315 68.9324 44.7747 68.9254 47.9894H41.1805C35.2736 47.9894 32.2747 51.0541 32.2747 57.0907V72.3501C32.2747 78.3867 35.2736 81.4514 41.1805 81.4514H68.9254C68.9324 84.1304 68.9533 86.045 68.9883 87.1308C69.0792 89.7312 70.2116 91.2457 71.1483 92.053C72.7492 93.4389 74.7414 93.6461 75.783 93.6461C76.2444 93.6461 76.5659 93.6104 76.6847 93.5889L77.1041 93.5318L77.4887 93.3389C95.8035 84.1733 103.486 73.0288 105.408 69.8283C107.226 66.8279 107.177 64.3489 107.177 64.2775Z" fill="#A1C0ED"/>
<path d="M41.1875 50.8469H56.5035H71.5399C71.5329 46.9535 71.5469 43.3029 71.6098 41.5955C71.7636 37.0591 76.3493 37.6878 76.3493 37.6878C91.9309 45.4818 100.012 54.8975 103.192 60.1983C104.605 62.5486 104.57 64.4203 104.57 64.4203C104.57 64.4203 104.605 66.292 103.192 68.6424C100.012 73.9431 91.9309 83.3516 76.3493 91.1528C76.3493 91.1528 71.7566 91.7814 71.6098 87.2451C71.5538 85.6877 71.5399 82.5015 71.5399 78.9867H56.5035H41.1875C36.6927 78.9867 34.8892 77.1436 34.8892 72.5501V57.2907C34.8962 52.69 36.6996 50.8469 41.1875 50.8469Z" fill="#0C3D76"/>
<path d="M71.5399 50.8469H41.1875C36.6927 50.8469 34.8892 52.69 34.8892 57.2836V61.3913C34.8892 56.7978 36.6927 54.9547 41.1875 54.9547H71.5399C71.5399 53.433 71.5399 50.7683 71.5399 50.8469Z" fill="#213664"/>
<path d="M103.192 60.1914C100.012 54.8906 91.9309 45.4821 76.3493 37.681C76.3493 37.681 71.7566 37.0523 71.6098 41.5887C71.5748 42.6888 71.5539 44.5963 71.5469 46.8538C71.5469 46.8538 71.6028 46.0179 71.6098 45.6964C71.7636 41.1601 76.3493 41.7887 76.3493 41.7887C91.9309 49.5827 100.012 58.9984 103.192 64.2992C103.668 65.0921 103.982 65.8351 104.185 66.4638C104.584 65.2279 104.57 64.4135 104.57 64.4135C104.57 64.4135 104.597 62.5418 103.192 60.1914Z" fill="#213664"/>
</g>
<defs>
<clipPath id="clip0">
<rect width="140" height="140" fill="white" transform="translate(0 0.081543)"/>
</clipPath>
</defs>
</svg>
