<svg width="140" height="141" viewBox="0 0 140 141" fill="none" xmlns="http://www.w3.org/2000/svg">
<g clip-path="url(#clip0)">
<path d="M124.499 25.3443C105.094 4.21975 74.1192 5.03416 70.0019 5.24133C65.8845 5.03416 34.903 4.21975 15.5046 25.3443C2.81006 39.1677 -2.12516 59.2135 0.83178 84.8601C0.887703 85.4459 2.21587 99.3337 11.4152 113.25C19.9226 126.116 37.0141 141.34 69.9599 140.797C70.5401 140.804 71.1134 140.811 71.6796 140.811C103.598 140.811 120.228 125.895 128.588 113.25C137.788 99.3337 139.123 85.4459 139.165 84.9316C142.129 59.2135 137.194 39.1677 124.499 25.3443Z" fill="#0C3D76"/>
<path d="M123.905 20.4934C104.681 -0.0524841 73.8953 0.683339 69.9947 0.861937C66.087 0.683339 35.3083 -0.0596281 16.0847 20.4934C3.43201 34.0168 -1.49623 53.4911 1.41877 78.3376C1.47469 78.9091 2.80987 92.5468 11.9533 106.12C20.2719 118.472 36.7693 133.046 68.2471 133.046C68.7993 133.046 69.3655 133.038 69.9248 133.031C70.491 133.038 71.0572 133.046 71.6095 133.046C103.255 133.046 119.759 118.401 128.036 106.12C137.2 92.5111 138.508 78.9662 138.557 78.4519C141.486 53.5125 136.557 34.0168 123.905 20.4934Z" fill="#213664"/>
<path d="M69.995 5.23418C65.3674 4.98414 -3.12466 2.54807 5.71821 77.9377C5.71821 77.9377 10.4298 129.638 69.995 128.667C129.56 129.631 134.272 77.9377 134.272 77.9377C143.122 2.54807 74.6227 4.98414 69.995 5.23418Z" fill="#6F9ACD"/>
<path d="M69.9951 27.6373C73.8957 27.5015 121.682 26.3799 134.293 53.5911C127.288 3.11939 74.0565 5.01968 69.9951 5.23399C65.9336 5.01253 12.7086 3.1194 5.69727 53.5839C18.308 26.38 66.0944 27.4944 69.9951 27.6373Z" fill="#A1C0ED"/>
<path d="M69.9948 111.206C30.2963 111.628 14.1414 97.2615 7.67529 86.9814C12.1282 101.755 26.3047 129.381 69.9948 128.673C113.685 129.381 127.861 101.755 132.314 86.9814C125.848 97.2615 109.693 111.628 69.9948 111.206Z" fill="#3F76B7"/>
<path d="M89.5191 115.386C89.589 120.172 97.586 120.858 104.094 118.379C110.595 115.9 116.153 111.6 114.517 107.113C112.881 102.627 108.456 108.978 100.788 111.342C94.1397 113.386 89.4631 111.571 89.5191 115.386Z" fill="#73A6F3"/>
<g clip-path="url(#clip1)">
<path d="M106.363 64.1141C103.383 60.1574 91.4427 46.366 62.9229 34.9863L62.7048 34.899L62.2819 34.8385C59.4471 34.6168 53.7313 35.7253 52.4361 41.5293C52.2974 42.1541 49.0727 56.98 49 70.8184C49.0727 84.7239 52.2974 99.4692 52.4361 100.101C53.5396 105.052 58.0529 106.812 61.5749 106.812C61.826 106.812 62.0573 106.805 62.2819 106.785L62.5132 106.765L62.9229 106.63C91.4493 95.2505 103.383 81.4659 106.363 77.5092C108.894 74.1503 109 71.3356 109 70.8116C109 70.2877 108.894 67.473 106.363 64.1141Z" fill="#A1C0ED"/>
<path d="M54.6035 99.0323C55.8127 104.453 62.1101 103.963 62.1101 103.963C86.7709 94.1284 99.5638 82.2582 104.592 75.5674C106.826 72.6049 106.773 70.2403 106.773 70.2403C106.773 70.2403 106.826 67.8757 104.592 64.9132C99.5638 58.2358 86.7709 46.3657 62.1101 36.531C62.1101 36.531 55.8127 36.0407 54.6035 41.4618C54.5837 41.5559 51.2929 56.4086 51.2202 70.247C51.2929 84.0854 54.5837 98.9382 54.6035 99.0323Z" fill="#0C3D76"/>
<path d="M104.592 64.9199C99.5638 58.2358 86.7709 46.3657 62.1101 36.531C62.1101 36.531 55.8127 36.0407 54.6035 41.4618C54.5837 41.5559 51.2929 56.4086 51.2202 70.247C51.2268 71.3958 51.2533 72.5512 51.2995 73.7066C51.8149 60.9632 54.577 48.4683 54.5969 48.381C55.8061 42.9599 62.1035 43.4502 62.1035 43.4502C86.7709 53.2849 99.5638 65.155 104.592 71.8458C105.088 72.5042 105.465 73.1289 105.762 73.7066C106.8 71.6779 106.766 70.247 106.766 70.247C106.766 70.247 106.826 67.8824 104.592 64.9199Z" fill="#213664"/>
</g>
</g>
<defs>
<clipPath id="clip0">
<rect width="140" height="140" fill="white" transform="translate(0 0.811035)"/>
</clipPath>
<clipPath id="clip1">
<rect width="60" height="72" fill="white" transform="translate(49 34.811)"/>
</clipPath>
</defs>
</svg>
