<svg xmlns="http://www.w3.org/2000/svg" width="640" height="907" viewBox="0 0 640 907" fill="none">
<path d="M9.49949 249.832C11.4488 226.138 30.815 207.729 54.5494 206.363C235.576 195.939 393.544 179.07 581.843 203.833C601.793 206.457 617.76 221.688 621.133 241.524C658.781 462.935 630.795 689.683 616.801 778.036C613.229 800.587 593.675 816.548 570.842 816.548H61.5529C37.6216 816.548 17.4653 799.052 14.9759 775.251C6.14406 690.808 -9.95326 486.284 9.49949 249.832Z" fill="#213664"/>
<path d="M28.9586 273.606C30.9091 249.929 50.2954 231.561 74.014 230.21C241.79 220.655 388.613 205.504 563.134 227.765C583.08 230.309 599.084 245.479 602.465 265.299C636.616 465.484 611.648 669.865 598.453 752.822C594.877 775.306 575.338 791.314 552.572 791.314H80.5213C56.6369 791.314 36.5079 773.869 34.0186 750.115C25.7275 670.998 11.41 486.632 28.9586 273.606Z" fill="#73A6F3"/>
<path d="M85.9769 868.835V897.395H92.2569V885.075H103.817V897.395H110.097V868.835H103.817V879.795H92.2569V868.835H85.9769ZM125.465 887.075C125.465 886.248 125.545 885.435 125.705 884.635C125.865 883.835 126.132 883.128 126.505 882.515C126.905 881.901 127.425 881.408 128.065 881.035C128.705 880.635 129.505 880.435 130.465 880.435C131.425 880.435 132.225 880.635 132.865 881.035C133.532 881.408 134.052 881.901 134.425 882.515C134.825 883.128 135.105 883.835 135.265 884.635C135.425 885.435 135.505 886.248 135.505 887.075C135.505 887.901 135.425 888.715 135.265 889.515C135.105 890.288 134.825 890.995 134.425 891.635C134.052 892.248 133.532 892.741 132.865 893.115C132.225 893.488 131.425 893.675 130.465 893.675C129.505 893.675 128.705 893.488 128.065 893.115C127.425 892.741 126.905 892.248 126.505 891.635C126.132 890.995 125.865 890.288 125.705 889.515C125.545 888.715 125.465 887.901 125.465 887.075ZM119.785 887.075C119.785 888.728 120.039 890.221 120.545 891.555C121.052 892.888 121.772 894.035 122.705 894.995C123.639 895.928 124.759 896.648 126.065 897.155C127.372 897.661 128.839 897.915 130.465 897.915C132.092 897.915 133.559 897.661 134.865 897.155C136.199 896.648 137.332 895.928 138.265 894.995C139.199 894.035 139.919 892.888 140.425 891.555C140.932 890.221 141.185 888.728 141.185 887.075C141.185 885.421 140.932 883.928 140.425 882.595C139.919 881.235 139.199 880.088 138.265 879.155C137.332 878.195 136.199 877.461 134.865 876.955C133.559 876.421 132.092 876.155 130.465 876.155C128.839 876.155 127.372 876.421 126.065 876.955C124.759 877.461 123.639 878.195 122.705 879.155C121.772 880.088 121.052 881.235 120.545 882.595C120.039 883.928 119.785 885.421 119.785 887.075ZM150.438 876.715V897.395H156.118V885.395C156.118 884.381 156.265 883.568 156.558 882.955C156.852 882.315 157.198 881.835 157.598 881.515C158.025 881.168 158.452 880.941 158.878 880.835C159.332 880.701 159.692 880.635 159.958 880.635C160.865 880.635 161.545 880.795 161.998 881.115C162.478 881.408 162.812 881.808 162.998 882.315C163.212 882.821 163.332 883.381 163.358 883.995C163.385 884.581 163.398 885.181 163.398 885.795V897.395H169.078V885.875C169.078 885.235 169.118 884.608 169.198 883.995C169.305 883.355 169.492 882.795 169.758 882.315C170.052 881.808 170.438 881.408 170.918 881.115C171.425 880.795 172.078 880.635 172.878 880.635C173.678 880.635 174.305 880.768 174.758 881.035C175.238 881.301 175.598 881.661 175.838 882.115C176.078 882.568 176.225 883.101 176.278 883.715C176.332 884.328 176.358 884.981 176.358 885.675V897.395H182.038V883.555C182.038 882.221 181.852 881.088 181.478 880.155C181.105 879.195 180.585 878.421 179.918 877.835C179.252 877.248 178.452 876.821 177.518 876.555C176.585 876.288 175.572 876.155 174.478 876.155C173.038 876.155 171.785 876.501 170.718 877.195C169.678 877.888 168.852 878.688 168.238 879.595C167.678 878.315 166.852 877.421 165.758 876.915C164.692 876.408 163.505 876.155 162.198 876.155C160.838 876.155 159.625 876.448 158.558 877.035C157.518 877.621 156.625 878.448 155.878 879.515H155.798V876.715H150.438ZM205.848 884.835H196.608C196.635 884.435 196.715 883.981 196.848 883.475C197.008 882.968 197.262 882.488 197.608 882.035C197.982 881.581 198.462 881.208 199.048 880.915C199.662 880.595 200.422 880.435 201.328 880.435C202.715 880.435 203.742 880.808 204.408 881.555C205.102 882.301 205.582 883.395 205.848 884.835ZM196.608 888.435H211.528C211.635 886.835 211.502 885.301 211.128 883.835C210.755 882.368 210.142 881.061 209.288 879.915C208.462 878.768 207.395 877.861 206.088 877.195C204.782 876.501 203.248 876.155 201.488 876.155C199.915 876.155 198.475 876.435 197.168 876.995C195.888 877.555 194.782 878.328 193.848 879.315C192.915 880.275 192.195 881.421 191.688 882.755C191.182 884.088 190.928 885.528 190.928 887.075C190.928 888.675 191.168 890.141 191.648 891.475C192.155 892.808 192.862 893.955 193.768 894.915C194.675 895.875 195.782 896.621 197.088 897.155C198.395 897.661 199.862 897.915 201.488 897.915C203.835 897.915 205.835 897.381 207.488 896.315C209.142 895.248 210.368 893.475 211.168 890.995H206.168C205.982 891.635 205.475 892.248 204.648 892.835C203.822 893.395 202.835 893.675 201.688 893.675C200.088 893.675 198.862 893.261 198.008 892.435C197.155 891.608 196.688 890.275 196.608 888.435Z" fill="white"/>

<path d="M285.996 868.835V897.395H292.276V868.835H285.996ZM302.593 876.715V897.395H308.273V886.555C308.273 884.448 308.62 882.941 309.313 882.035C310.007 881.101 311.127 880.635 312.673 880.635C314.033 880.635 314.98 881.061 315.513 881.915C316.047 882.741 316.313 884.008 316.313 885.715V897.395H321.993V884.675C321.993 883.395 321.873 882.235 321.633 881.195C321.42 880.128 321.033 879.235 320.473 878.515C319.913 877.768 319.14 877.195 318.153 876.795C317.193 876.368 315.953 876.155 314.433 876.155C313.233 876.155 312.06 876.435 310.913 876.995C309.767 877.528 308.833 878.395 308.113 879.595H307.993V876.715H302.593ZM332.944 880.515V897.395H338.624V880.515H342.544V876.715H338.624V875.475C338.624 874.621 338.784 874.021 339.104 873.675C339.451 873.301 340.011 873.115 340.784 873.115C341.504 873.115 342.198 873.155 342.864 873.235V868.995C342.384 868.968 341.891 868.941 341.384 868.915C340.878 868.861 340.371 868.835 339.864 868.835C337.544 868.835 335.811 869.421 334.664 870.595C333.518 871.768 332.944 873.275 332.944 875.115V876.715H329.544V880.515H332.944ZM355.465 887.075C355.465 886.248 355.545 885.435 355.705 884.635C355.865 883.835 356.131 883.128 356.505 882.515C356.905 881.901 357.425 881.408 358.065 881.035C358.705 880.635 359.505 880.435 360.465 880.435C361.425 880.435 362.225 880.635 362.865 881.035C363.531 881.408 364.051 881.901 364.425 882.515C364.825 883.128 365.105 883.835 365.265 884.635C365.425 885.435 365.505 886.248 365.505 887.075C365.505 887.901 365.425 888.715 365.265 889.515C365.105 890.288 364.825 890.995 364.425 891.635C364.051 892.248 363.531 892.741 362.865 893.115C362.225 893.488 361.425 893.675 360.465 893.675C359.505 893.675 358.705 893.488 358.065 893.115C357.425 892.741 356.905 892.248 356.505 891.635C356.131 890.995 355.865 890.288 355.705 889.515C355.545 888.715 355.465 887.901 355.465 887.075ZM349.785 887.075C349.785 888.728 350.038 890.221 350.545 891.555C351.051 892.888 351.771 894.035 352.705 894.995C353.638 895.928 354.758 896.648 356.065 897.155C357.371 897.661 358.838 897.915 360.465 897.915C362.091 897.915 363.558 897.661 364.865 897.155C366.198 896.648 367.331 895.928 368.265 894.995C369.198 894.035 369.918 892.888 370.425 891.555C370.931 890.221 371.185 888.728 371.185 887.075C371.185 885.421 370.931 883.928 370.425 882.595C369.918 881.235 369.198 880.088 368.265 879.155C367.331 878.195 366.198 877.461 364.865 876.955C363.558 876.421 362.091 876.155 360.465 876.155C358.838 876.155 357.371 876.421 356.065 876.955C354.758 877.461 353.638 878.195 352.705 879.155C351.771 880.088 351.051 881.235 350.545 882.595C350.038 883.928 349.785 885.421 349.785 887.075Z" fill="white"/>

<path d="M459.055 868.835V897.395H464.935V878.275H465.015L476.895 897.395H483.175V868.835H477.295V887.995H477.215L465.295 868.835H459.055ZM507.423 884.835H498.183C498.21 884.435 498.29 883.981 498.423 883.475C498.583 882.968 498.837 882.488 499.183 882.035C499.557 881.581 500.037 881.208 500.623 880.915C501.237 880.595 501.997 880.435 502.903 880.435C504.29 880.435 505.317 880.808 505.983 881.555C506.677 882.301 507.157 883.395 507.423 884.835ZM498.183 888.435H513.103C513.21 886.835 513.077 885.301 512.703 883.835C512.33 882.368 511.717 881.061 510.863 879.915C510.037 878.768 508.97 877.861 507.663 877.195C506.357 876.501 504.823 876.155 503.063 876.155C501.49 876.155 500.05 876.435 498.743 876.995C497.463 877.555 496.357 878.328 495.423 879.315C494.49 880.275 493.77 881.421 493.263 882.755C492.757 884.088 492.503 885.528 492.503 887.075C492.503 888.675 492.743 890.141 493.223 891.475C493.73 892.808 494.437 893.955 495.343 894.915C496.25 895.875 497.357 896.621 498.663 897.155C499.97 897.661 501.437 897.915 503.063 897.915C505.41 897.915 507.41 897.381 509.063 896.315C510.717 895.248 511.943 893.475 512.743 890.995H507.743C507.557 891.635 507.05 892.248 506.223 892.835C505.397 893.395 504.41 893.675 503.263 893.675C501.663 893.675 500.437 893.261 499.583 892.435C498.73 891.608 498.263 890.275 498.183 888.435ZM527.152 886.515L519.712 897.395H526.072L530.392 890.875L534.712 897.395H541.192L533.552 886.395L540.352 876.715H534.072L530.472 882.115L526.832 876.715H520.352L527.152 886.515ZM555.957 876.715V870.515H550.277V876.715H546.837V880.515H550.277V892.715C550.277 893.755 550.45 894.595 550.797 895.235C551.143 895.875 551.61 896.368 552.197 896.715C552.81 897.061 553.503 897.288 554.277 897.395C555.077 897.528 555.917 897.595 556.797 897.595C557.357 897.595 557.93 897.581 558.517 897.555C559.103 897.528 559.637 897.475 560.117 897.395V892.995C559.85 893.048 559.57 893.088 559.277 893.115C558.983 893.141 558.677 893.155 558.357 893.155C557.397 893.155 556.757 892.995 556.437 892.675C556.117 892.355 555.957 891.715 555.957 890.755V880.515H560.117V876.715H555.957Z" fill="white"/>

<path opacity="0.1" d="M360.979 185.458C360.979 190.028 340.73 193.738 315.758 193.738C290.813 193.738 270.563 190.028 270.563 185.458C270.563 180.888 290.813 177.179 315.785 177.179C340.756 177.179 360.979 180.888 360.979 185.458Z" fill="black"/>
<path d="M314.087 22.5938C328.986 22.5938 349.543 75.2423 351.827 76.694C354.111 78.1102 409.316 84.8373 413.884 95.6716C418.452 106.506 375.968 145.629 374.914 148.285C373.86 150.94 384.472 206.598 375.757 213.892C367.007 221.186 317.109 192.684 314.052 192.684C310.994 192.684 263.099 221.327 252.381 213.892C241.628 206.457 253.998 151.294 253.224 148.285C252.451 145.275 209.405 109.976 214.254 95.6716C219.104 81.3322 274.344 78.181 276.311 76.694C278.314 75.2069 299.152 22.5938 314.087 22.5938Z" fill="#0C3D76"/>
<path d="M314.087 29.144C328.002 29.144 346.205 80.1286 348.348 81.4386C350.457 82.784 402.885 87.1744 407.137 97.2297C411.424 107.32 370.873 142.868 369.889 145.346C368.905 147.825 379.728 200.65 371.611 207.448C363.459 214.246 316.933 186.736 314.122 186.736C311.276 186.7 266.648 214.388 256.633 207.448C246.619 200.509 260.007 149.099 259.269 146.302C258.531 143.505 216.574 110.613 221.107 97.2651C225.64 83.917 278.982 82.8548 280.81 81.474C282.602 80.0578 300.172 29.144 314.087 29.144Z" fill="url(#paint0_linear)"/>
<path d="M233.195 99.7069C232.211 90.2181 263.134 84.6239 264.504 95.7414C265.875 106.823 234.53 112.63 233.195 99.7069Z" fill="white"/>
<path d="M272.448 92.5894C272.202 86.4642 281.443 86.1101 281.935 91.1378C282.463 96.7319 272.659 98.3252 272.448 92.5894Z" fill="white"/>
<g opacity="0.6">
<g opacity="0.6">
<g opacity="0.6">
<g opacity="0.6">
<path opacity="0.6" d="M285.174 138.915C285.174 144.91 280.327 149.802 274.339 149.802C268.351 149.802 263.504 144.945 263.504 138.915C263.504 132.921 268.351 128.028 274.339 128.028C280.327 128.028 285.174 132.921 285.174 138.915Z" fill="#FF5F82"/>
</g>
<g opacity="0.6">
<path opacity="0.6" d="M363.186 138.915C363.186 144.91 358.339 149.802 352.351 149.802C346.363 149.802 341.516 144.944 341.516 138.915C341.516 132.921 346.363 128.028 352.351 128.028C358.339 128.028 363.186 132.921 363.186 138.915Z" fill="#FF5F82"/>
</g>
</g>
</g>
</g>
<path d="M353.533 95.6409C352.118 92.361 326.585 104.979 327.082 111.654C327.579 118.33 350.895 124.89 353.877 121.378C356.82 117.867 338.434 114.741 338.281 110.998C338.09 107.256 355.52 100.271 353.533 95.6409Z" fill="#541300"/>
<path d="M273.496 98.1184C274.91 94.8389 300.443 107.455 299.946 114.13C299.45 120.843 276.133 127.363 273.152 123.853C270.208 120.342 288.594 117.216 288.785 113.474C288.938 109.732 271.508 102.748 273.496 98.1184Z" fill="#541300"/>
<path d="M331.758 142.29C334.986 137.885 330.308 134.49 327.245 138.571C322.601 144.781 304.089 144.276 299.346 138.571C296.085 134.671 291.902 137.632 294.834 142.29C300.631 151.534 323.82 153.05 331.758 142.29Z" fill="#872A2A"/>
<g clip-path="url(#clip3)">
<path d="M288.032 133.594C290.408 131.834 339.05 131.834 341.46 133.594C343.87 135.355 335.486 155.449 314.746 155.449C294.04 155.449 285.622 135.355 288.032 133.594Z" fill="#872A2A"/>
<path d="M303.139 145.187C300.287 147.08 300.83 159.669 303.105 167.275C305.854 176.608 324.557 176.973 326.458 167.275C328.359 157.576 329.377 146.914 326.492 145.187C323.573 143.46 306.092 143.194 303.139 145.187Z" fill="#F982B3"/>
</g>
<path d="M182.464 157.403C169.462 153.386 169.06 142.711 174.438 140.016C164.165 137.94 161.329 127.643 169.034 127.858C161.65 126.079 148.406 104.191 165.261 98.0714C187.895 89.8497 230.916 129.341 228.588 151.203C228.053 156.324 208.603 165.463 182.464 157.403Z" fill="#213664"/>
<path d="M166.303 99.3392C186.395 91.5218 223.45 127.94 222.433 142.173C222.032 147.672 178.69 130.501 169.701 123.034C161.166 115.944 157.394 102.817 166.303 99.3392Z" fill="#0C3D76"/>
<path d="M168.791 102.573C172.617 92.4643 209.725 121.766 207.103 127.077C204.508 132.414 161.113 122.79 168.791 102.573Z" fill="#3F76B7"/>
<path d="M215.559 153.739C216.281 149.157 172.753 134.735 173.555 145.302C174.626 159.67 214.971 157.54 215.559 153.739Z" fill="#0C3D76"/>
<path d="M191.694 139.638C192.283 137.104 170.077 124.542 168.285 131.524C166.118 139.908 190.892 143.116 191.694 139.638Z" fill="#0C3D76"/>
<path d="M450.614 159C465.725 154.322 466.223 141.859 459.93 138.751C471.894 136.334 475.196 124.342 466.192 124.593C474.76 122.521 490.183 96.999 470.554 89.9042C444.195 80.3608 394.157 126.414 396.868 151.874C397.522 157.776 420.173 168.418 450.614 159Z" fill="#213664"/>
<path d="M469.34 91.3517C445.941 82.2791 402.82 124.754 404.035 141.329C404.503 147.733 454.946 127.673 465.415 118.946C475.354 110.658 479.716 95.3699 469.34 91.3517Z" fill="#0C3D76"/>
<path d="M463.45 94.8321C458.964 83.0597 415.812 117.215 418.865 123.431C421.918 129.647 472.424 118.377 463.45 94.8321Z" fill="#3F76B7"/>
<path d="M412.042 154.761C411.201 149.424 461.862 132.566 460.958 144.872C459.743 161.604 412.759 159.187 412.042 154.761Z" fill="#0C3D76"/>
<path d="M439.802 138.314C439.117 135.363 464.977 120.702 467.065 128.833C469.589 138.565 440.768 142.332 439.802 138.314Z" fill="#0C3D76"/>
<path d="M415.859 170.284C413.298 171.736 411.35 168.188 414.045 166.44C416.713 164.72 419.648 168.188 415.859 170.284Z" fill="#3F76B7"/>
<path d="M367.166 34.165C362.764 35.3747 361.51 29.0307 365.993 27.9823C370.448 26.9608 371.568 32.9823 367.166 34.165Z" fill="#3F76B7"/>
<path d="M216.22 43.3403C213.792 45.3833 208.83 42.507 212.138 39.5232C215.473 36.5125 218.408 41.5124 216.22 43.3403Z" fill="#3F76B7"/>
<path d="M400.657 201.099C398.043 203.841 390.226 197.739 395.081 194.352C399.937 190.965 404.686 196.906 400.657 201.099Z" fill="#3F76B7"/>
<path d="M223.502 184.264C218.886 185.366 216.378 180.366 220.7 178.404C225.023 176.415 227.904 181.925 222.595 184.882" fill="#3F76B7"/>
<path d="M261.787 27.2785C258.612 29.1602 254.877 24.3753 257.972 21.1227C261.413 17.4668 267.976 23.5958 261.787 27.2785Z" fill="#3F76B7"/>
<path d="M261.601 51.9526C261.254 51.2806 255.331 53.3773 255.331 53.3773C255.331 53.3773 251.382 48.7269 250.502 49.1032C249.622 49.4795 249.888 55.5278 249.888 55.5278C249.888 55.5278 244.339 58.0009 244.366 58.8342C244.392 59.6675 250.262 61.3879 250.262 61.3879C250.262 61.3879 251.009 67.5168 251.676 67.705C252.343 67.8932 255.918 62.8395 255.918 62.8395C255.918 62.8395 261.841 64.0492 262.294 63.4309C262.774 62.8126 259.039 57.8665 259.039 57.8665C259.039 57.8665 261.947 52.6246 261.601 51.9526Z" fill="#3F76B7"/>
<path d="M400.412 56.7385C399.932 56.3353 396.117 59.9374 396.117 59.9374C396.117 59.9374 391.581 57.7331 391.021 58.2976C390.461 58.889 392.702 63.4051 392.702 63.4051C392.702 63.4051 389.287 67.1416 389.58 67.7867C389.874 68.4319 394.916 67.7598 394.916 67.7598C394.916 67.7598 397.531 72.1952 398.091 72.0877C398.651 72.0071 399.718 66.9534 399.718 66.9534C399.718 66.9534 404.627 65.8781 404.788 65.2599C404.948 64.6416 400.439 62.1148 400.439 62.1148C400.439 62.1148 400.892 57.1149 400.412 56.7385Z" fill="#3F76B7"/>
<path d="M420.636 37.8682C420.396 38.4596 424.851 41.1478 424.851 41.1478C424.851 41.1478 423.997 46.1477 424.691 46.524C425.385 46.9003 429.093 43.4864 429.093 43.4864C429.093 43.4864 433.602 45.7713 434.136 45.2875C434.642 44.8305 432.641 40.1263 432.641 40.1263C432.641 40.1263 436.136 36.3898 435.896 35.8522C435.656 35.3145 430.56 35.6909 430.56 35.6909C430.56 35.6909 428.213 31.2555 427.572 31.2823C426.932 31.3092 425.785 36.3629 425.785 36.3629C425.785 36.3629 420.876 37.2769 420.636 37.8682Z" fill="#3F76B7"/>
<path opacity="0.1" d="M133.79 188.873C151.009 184.068 164.283 177.685 163.437 174.618C162.592 171.55 147.947 172.959 130.728 177.764C113.509 182.57 100.236 188.952 101.082 192.02C101.927 195.087 116.571 193.678 133.79 188.873Z" fill="#0C3D76"/>
<path d="M111.567 108.208C117.448 106.563 131.198 124.794 132.255 125.107C133.308 125.406 155.817 121.929 158.78 125.643C161.743 129.358 149.163 149.284 149.032 150.434C148.9 151.585 159.047 172.086 156.388 175.888C153.729 179.691 130.97 174.107 129.763 174.444C128.556 174.782 112.719 191.225 107.679 189.517C102.639 187.809 101.615 164.963 100.988 163.877C100.36 162.79 79.5913 153.798 79.9739 147.693C80.3527 141.574 101.818 134.246 102.436 133.45C103.095 132.642 105.687 109.853 111.567 108.208Z" fill="#213664"/>
<path d="M112.268 110.759C117.761 109.222 130.403 127.065 131.39 127.338C132.366 127.629 153.515 123.553 156.284 126.995C159.042 130.455 146.857 148.771 146.734 149.845C146.611 150.919 156.538 170.293 154.062 173.837C151.572 177.384 130.263 171.81 129.154 172.12C128.03 172.435 113.376 188.131 108.681 186.534C103.985 184.938 103.765 163.441 103.175 162.433C102.58 161.412 82.4849 153.241 82.8451 147.543C83.2052 141.845 104.145 135.54 104.733 134.797C105.306 134.057 106.79 112.291 112.268 110.759Z" fill="url(#paint1_linear)"/>
<path d="M88.5044 147.325C87.1526 143.713 98.8258 138.281 100.501 142.471C102.165 146.679 90.3345 152.244 88.5044 147.325Z" fill="white"/>
<path d="M103.299 140.447C102.588 138.078 106.209 136.961 106.914 138.872C107.679 141.004 103.965 142.651 103.299 140.447Z" fill="white"/>
<path d="M101.241 148.186C99.8076 147.533 100.342 142.695 104.985 141.397C109.628 140.099 112.446 143.941 111.774 145.241C111.193 146.383 109.147 142.963 105.793 143.901C102.435 144.825 102.452 148.738 101.241 148.186Z" fill="#0C3D76"/>
<path d="M129.784 140.231C128.351 139.579 128.885 134.74 133.528 133.442C138.171 132.144 140.989 135.986 140.317 137.287C139.736 138.429 137.69 135.009 134.336 135.946C130.978 136.87 130.995 140.783 129.784 140.231Z" fill="#0C3D76"/>
<g opacity="0.6">
<g opacity="0.6">
<g opacity="0.6">
<path opacity="0.6" d="M111.748 153.285C112.408 155.684 110.824 158.236 108.203 158.969C105.581 159.702 102.925 158.352 102.262 155.94C101.602 153.541 103.186 150.989 105.807 150.256C108.432 149.536 111.089 150.886 111.748 153.285Z" fill="#FF5F82"/>
</g>
<g opacity="0.6">
<path opacity="0.6" d="M143.171 144.527C143.831 146.926 142.247 149.478 139.626 150.211C137.005 150.945 134.348 149.594 133.685 147.182C133.026 144.783 134.609 142.231 137.23 141.498C139.855 140.778 142.512 142.129 143.171 144.527Z" fill="#FF5F82"/>
</g>
</g>
</g>
<path d="M117.667 150.405C118.316 149.511 127.536 146.932 128.564 147.358C129.578 147.787 130.371 156.207 125.63 157.533C120.878 158.876 117.017 151.299 117.667 150.405Z" fill="#213664"/>
<path d="M124.53 153.478C124.14 153.631 121.991 152.495 121.108 153.573C120.222 154.638 123.191 157.4 125.477 156.701C127.763 156.003 128.413 152.288 127.263 151.853C126.099 151.421 125.288 153.192 124.53 153.478Z" fill="#F982B3"/>
<path opacity="0.1" d="M506.79 195.128C489.571 190.323 476.298 183.941 477.143 180.873C477.989 177.806 492.633 179.214 509.852 184.02C527.071 188.825 540.344 195.207 539.499 198.275C538.653 201.343 524.009 199.934 506.79 195.128Z" fill="#0C3D76"/>
<path d="M529.013 114.463C523.133 112.818 509.383 131.049 508.326 131.362C507.272 131.661 484.763 128.184 481.8 131.899C478.837 135.613 491.417 155.539 491.549 156.69C491.681 157.84 481.534 178.341 484.192 182.144C486.851 185.946 509.611 180.362 510.818 180.7C512.024 181.037 527.862 197.48 532.902 195.772C537.942 194.065 538.965 171.219 539.593 170.132C540.22 169.046 560.989 160.054 560.607 153.948C560.228 147.829 538.762 140.502 538.145 139.705C537.486 138.897 534.894 116.109 529.013 114.463Z" fill="#213664"/>
<path d="M528.312 117.014C522.82 115.477 510.177 133.32 509.191 133.594C508.215 133.885 487.065 129.808 484.297 133.25C481.538 136.71 493.724 155.026 493.847 156.1C493.97 157.174 484.043 176.549 486.519 180.092C489.009 183.64 510.317 178.065 511.427 178.376C512.55 178.69 527.204 194.386 531.9 192.79C536.596 191.194 536.815 169.696 537.406 168.689C538 167.667 558.096 159.497 557.736 153.798C557.375 148.1 536.435 141.796 535.848 141.052C535.275 140.313 533.791 118.547 528.312 117.014Z" fill="url(#paint2_linear)"/>
<path d="M552.076 153.581C553.428 149.968 541.755 144.537 540.08 148.727C538.415 152.934 550.246 158.499 552.076 153.581Z" fill="white"/>
<path d="M537.281 146.703C537.992 144.333 534.371 143.216 533.667 145.127C532.902 147.259 536.615 148.907 537.281 146.703Z" fill="white"/>
<path d="M539.34 154.441C540.773 153.788 540.239 148.95 535.596 147.652C530.953 146.354 528.135 150.196 528.807 151.497C529.388 152.638 531.433 149.219 534.787 150.156C538.145 151.08 538.128 154.993 539.34 154.441Z" fill="#0C3D76"/>
<path d="M510.797 146.487C512.23 145.834 511.696 140.996 507.053 139.698C502.41 138.4 499.592 142.241 500.264 143.542C500.845 144.684 502.89 141.264 506.244 142.202C509.602 143.126 509.585 147.038 510.797 146.487Z" fill="#0C3D76"/>
<g opacity="0.6">
<g opacity="0.6">
<g opacity="0.6">
<path opacity="0.6" d="M528.832 159.541C528.173 161.94 529.757 164.491 532.378 165.225C534.999 165.958 537.656 164.608 538.319 162.195C538.978 159.797 537.395 157.245 534.773 156.512C532.148 155.792 529.492 157.142 528.832 159.541Z" fill="#FF5F82"/>
</g>
<g opacity="0.6">
<path opacity="0.6" d="M497.409 150.783C496.75 153.182 498.333 155.734 500.955 156.467C503.576 157.2 506.232 155.85 506.895 153.438C507.555 151.039 505.971 148.487 503.35 147.754C500.725 147.034 498.069 148.385 497.409 150.783Z" fill="#FF5F82"/>
</g>
</g>
</g>
<path d="M522.914 156.66C522.264 155.766 513.044 153.188 512.016 153.613C511.002 154.042 510.209 162.462 514.951 163.788C519.703 165.132 523.564 157.555 522.914 156.66Z" fill="#213664"/>
<path d="M516.05 159.733C516.441 159.887 518.589 158.751 519.472 159.829C520.359 160.893 517.389 163.655 515.104 162.956C512.818 162.258 512.168 158.543 513.317 158.108C514.481 157.676 515.293 159.447 516.05 159.733Z" fill="#F982B3"/>










<path d="M99.4206 202.976C101.262 180.077 122.988 165.892 145.958 165.547C266.514 163.734 372.985 161.063 498.87 165.15C515.27 165.682 531.814 173.036 537.496 188.431C545.927 211.275 541.104 233.18 534.585 248.879C528.025 264.675 511.334 272.352 494.23 272.352H145.709C125.221 272.352 105.97 261.101 101.835 241.035C99.6217 230.294 98.2672 217.322 99.4206 202.976Z" fill="#213664"/>
<path d="M113.269 206.935C114.595 184.126 136.357 170.06 159.202 169.72C270.783 168.061 369.638 165.673 486.188 169.345C502.425 169.856 518.949 177.018 524.281 192.363C531.114 212.026 527.256 230.822 521.651 244.751C515.332 260.452 498.714 267.94 481.789 267.94H158.62C138.292 267.94 119.083 256.859 115.271 236.891C113.611 228.196 112.622 218.047 113.269 206.935Z" fill="#F2C94C"/>
<path d="M113.269 206.935C114.595 184.126 136.357 170.06 159.202 169.72C270.783 168.061 369.638 165.673 486.188 169.345C502.425 169.856 518.949 177.018 524.281 192.363C531.114 212.026 527.256 230.822 521.651 244.751C515.332 260.452 498.714 267.94 481.789 267.94H158.62C138.292 267.94 119.083 256.859 115.271 236.891C113.611 228.196 112.622 218.047 113.269 206.935Z" fill="url(#paint3_linear)"/>
<g filter="url(#filter0_d)">
<path d="M196.417 199.725V202.725H209.917V199.35C209.917 196.75 209.592 194.425 208.942 192.375C208.342 190.275 207.342 188.5 205.942 187.05C204.592 185.55 202.817 184.4 200.617 183.6C198.417 182.8 195.742 182.4 192.592 182.4C188.992 182.4 185.967 182.9 183.517 183.9C181.067 184.85 179.092 186.425 177.592 188.625C176.092 190.825 175.017 193.7 174.367 197.25C173.767 200.8 173.467 205.125 173.467 210.225C173.467 215.225 173.717 219.5 174.217 223.05C174.767 226.55 175.742 229.425 177.142 231.675C178.542 233.875 180.492 235.45 182.992 236.4C185.492 237.35 188.692 237.825 192.592 237.825C194.842 237.825 197.017 237.575 199.117 237.075C201.267 236.625 203.167 235.725 204.817 234.375C206.467 232.975 207.792 231.075 208.792 228.675C209.792 226.275 210.292 223.2 210.292 219.45V215.475H196.792C196.792 218.025 196.717 220.15 196.567 221.85C196.467 223.5 196.267 224.825 195.967 225.825C195.667 226.825 195.242 227.55 194.692 228C194.142 228.4 193.442 228.6 192.592 228.6C191.542 228.6 190.692 228.325 190.042 227.775C189.442 227.225 188.967 226.25 188.617 224.85C188.317 223.45 188.117 221.575 188.017 219.225C187.917 216.825 187.867 213.825 187.867 210.225C187.867 206.625 187.917 203.65 188.017 201.3C188.117 198.9 188.317 197 188.617 195.6C188.967 194.2 189.442 193.225 190.042 192.675C190.692 192.125 191.542 191.85 192.592 191.85C193.942 191.85 194.917 192.4 195.517 193.5C196.117 194.6 196.417 196.675 196.417 199.725ZM230.4 210.225C230.4 206.625 230.45 203.65 230.55 201.3C230.65 198.9 230.85 197 231.15 195.6C231.5 194.2 231.975 193.225 232.575 192.675C233.225 192.125 234.075 191.85 235.125 191.85C236.175 191.85 237 192.125 237.6 192.675C238.25 193.225 238.725 194.2 239.025 195.6C239.375 197 239.6 198.9 239.7 201.3C239.8 203.65 239.85 206.625 239.85 210.225C239.85 213.825 239.8 216.825 239.7 219.225C239.6 221.575 239.375 223.45 239.025 224.85C238.725 226.25 238.25 227.225 237.6 227.775C237 228.325 236.175 228.6 235.125 228.6C234.075 228.6 233.225 228.325 232.575 227.775C231.975 227.225 231.5 226.25 231.15 224.85C230.85 223.45 230.65 221.575 230.55 219.225C230.45 216.825 230.4 213.825 230.4 210.225ZM216 210.225C216 215.225 216.325 219.5 216.975 223.05C217.625 226.55 218.7 229.425 220.2 231.675C221.7 233.875 223.675 235.45 226.125 236.4C228.575 237.35 231.575 237.825 235.125 237.825C238.675 237.825 241.675 237.35 244.125 236.4C246.575 235.45 248.55 233.875 250.05 231.675C251.55 229.425 252.625 226.55 253.275 223.05C253.925 219.5 254.25 215.225 254.25 210.225C254.25 205.225 253.925 200.975 253.275 197.475C252.625 193.925 251.55 191.05 250.05 188.85C248.55 186.6 246.575 184.975 244.125 183.975C241.675 182.925 238.675 182.4 235.125 182.4C231.575 182.4 228.575 182.925 226.125 183.975C223.675 184.975 221.7 186.6 220.2 188.85C218.7 191.05 217.625 193.925 216.975 197.475C216.325 200.975 216 205.225 216 210.225ZM260.975 183.45V237H274.025V197.1H274.175L281.6 237H291.65L299.075 197.1H299.225V237H312.275V183.45H292.325L286.7 215.175H286.55L280.925 183.45H260.975ZM334.011 206.55V193.5H336.636C340.236 193.5 342.036 195.675 342.036 200.025C342.036 202.275 341.561 203.925 340.611 204.975C339.711 206.025 338.386 206.55 336.636 206.55H334.011ZM320.061 183.45V237H334.011V216.6H338.886C344.636 216.6 348.986 215.225 351.936 212.475C354.936 209.675 356.436 205.5 356.436 199.95C356.436 197.6 356.136 195.425 355.536 193.425C354.936 191.425 353.986 189.7 352.686 188.25C351.436 186.75 349.836 185.575 347.886 184.725C345.936 183.875 343.636 183.45 340.986 183.45H320.061ZM363.119 183.45V237H395.519V225.6H377.069V214.95H393.719V204H377.069V194.85H394.844V183.45H363.119ZM409.919 195.3V237H423.869V195.3H434.369V183.45H399.569V195.3H409.919ZM439.763 183.45V237H472.163V225.6H453.713V214.95H470.363V204H453.713V194.85H471.488V183.45H439.763Z" fill="url(#paint4_linear)"/>
<path d="M196.417 199.725V202.725H209.917V199.35C209.917 196.75 209.592 194.425 208.942 192.375C208.342 190.275 207.342 188.5 205.942 187.05C204.592 185.55 202.817 184.4 200.617 183.6C198.417 182.8 195.742 182.4 192.592 182.4C188.992 182.4 185.967 182.9 183.517 183.9C181.067 184.85 179.092 186.425 177.592 188.625C176.092 190.825 175.017 193.7 174.367 197.25C173.767 200.8 173.467 205.125 173.467 210.225C173.467 215.225 173.717 219.5 174.217 223.05C174.767 226.55 175.742 229.425 177.142 231.675C178.542 233.875 180.492 235.45 182.992 236.4C185.492 237.35 188.692 237.825 192.592 237.825C194.842 237.825 197.017 237.575 199.117 237.075C201.267 236.625 203.167 235.725 204.817 234.375C206.467 232.975 207.792 231.075 208.792 228.675C209.792 226.275 210.292 223.2 210.292 219.45V215.475H196.792C196.792 218.025 196.717 220.15 196.567 221.85C196.467 223.5 196.267 224.825 195.967 225.825C195.667 226.825 195.242 227.55 194.692 228C194.142 228.4 193.442 228.6 192.592 228.6C191.542 228.6 190.692 228.325 190.042 227.775C189.442 227.225 188.967 226.25 188.617 224.85C188.317 223.45 188.117 221.575 188.017 219.225C187.917 216.825 187.867 213.825 187.867 210.225C187.867 206.625 187.917 203.65 188.017 201.3C188.117 198.9 188.317 197 188.617 195.6C188.967 194.2 189.442 193.225 190.042 192.675C190.692 192.125 191.542 191.85 192.592 191.85C193.942 191.85 194.917 192.4 195.517 193.5C196.117 194.6 196.417 196.675 196.417 199.725ZM230.4 210.225C230.4 206.625 230.45 203.65 230.55 201.3C230.65 198.9 230.85 197 231.15 195.6C231.5 194.2 231.975 193.225 232.575 192.675C233.225 192.125 234.075 191.85 235.125 191.85C236.175 191.85 237 192.125 237.6 192.675C238.25 193.225 238.725 194.2 239.025 195.6C239.375 197 239.6 198.9 239.7 201.3C239.8 203.65 239.85 206.625 239.85 210.225C239.85 213.825 239.8 216.825 239.7 219.225C239.6 221.575 239.375 223.45 239.025 224.85C238.725 226.25 238.25 227.225 237.6 227.775C237 228.325 236.175 228.6 235.125 228.6C234.075 228.6 233.225 228.325 232.575 227.775C231.975 227.225 231.5 226.25 231.15 224.85C230.85 223.45 230.65 221.575 230.55 219.225C230.45 216.825 230.4 213.825 230.4 210.225ZM216 210.225C216 215.225 216.325 219.5 216.975 223.05C217.625 226.55 218.7 229.425 220.2 231.675C221.7 233.875 223.675 235.45 226.125 236.4C228.575 237.35 231.575 237.825 235.125 237.825C238.675 237.825 241.675 237.35 244.125 236.4C246.575 235.45 248.55 233.875 250.05 231.675C251.55 229.425 252.625 226.55 253.275 223.05C253.925 219.5 254.25 215.225 254.25 210.225C254.25 205.225 253.925 200.975 253.275 197.475C252.625 193.925 251.55 191.05 250.05 188.85C248.55 186.6 246.575 184.975 244.125 183.975C241.675 182.925 238.675 182.4 235.125 182.4C231.575 182.4 228.575 182.925 226.125 183.975C223.675 184.975 221.7 186.6 220.2 188.85C218.7 191.05 217.625 193.925 216.975 197.475C216.325 200.975 216 205.225 216 210.225ZM260.975 183.45V237H274.025V197.1H274.175L281.6 237H291.65L299.075 197.1H299.225V237H312.275V183.45H292.325L286.7 215.175H286.55L280.925 183.45H260.975ZM334.011 206.55V193.5H336.636C340.236 193.5 342.036 195.675 342.036 200.025C342.036 202.275 341.561 203.925 340.611 204.975C339.711 206.025 338.386 206.55 336.636 206.55H334.011ZM320.061 183.45V237H334.011V216.6H338.886C344.636 216.6 348.986 215.225 351.936 212.475C354.936 209.675 356.436 205.5 356.436 199.95C356.436 197.6 356.136 195.425 355.536 193.425C354.936 191.425 353.986 189.7 352.686 188.25C351.436 186.75 349.836 185.575 347.886 184.725C345.936 183.875 343.636 183.45 340.986 183.45H320.061ZM363.119 183.45V237H395.519V225.6H377.069V214.95H393.719V204H377.069V194.85H394.844V183.45H363.119ZM409.919 195.3V237H423.869V195.3H434.369V183.45H399.569V195.3H409.919ZM439.763 183.45V237H472.163V225.6H453.713V214.95H470.363V204H453.713V194.85H471.488V183.45H439.763Z" fill="white"/>
</g>
<path d="M187.933 604.8L177.213 587.44H183.013L190.573 600.24L198.013 587.44H203.613L192.933 604.8V616H187.933V604.8ZM211.599 616.56C209.945 616.56 208.465 616.293 207.159 615.76C205.879 615.2 204.785 614.44 203.879 613.48C202.999 612.52 202.319 611.373 201.839 610.04C201.385 608.707 201.159 607.24 201.159 605.64C201.159 604.067 201.385 602.613 201.839 601.28C202.319 599.947 202.999 598.8 203.879 597.84C204.785 596.88 205.879 596.133 207.159 595.6C208.465 595.04 209.945 594.76 211.599 594.76C213.252 594.76 214.719 595.04 215.999 595.6C217.305 596.133 218.399 596.88 219.279 597.84C220.185 598.8 220.865 599.947 221.319 601.28C221.799 602.613 222.039 604.067 222.039 605.64C222.039 607.24 221.799 608.707 221.319 610.04C220.865 611.373 220.185 612.52 219.279 613.48C218.399 614.44 217.305 615.2 215.999 615.76C214.719 616.293 213.252 616.56 211.599 616.56ZM211.599 612.96C212.612 612.96 213.492 612.747 214.239 612.32C214.985 611.893 215.599 611.333 216.079 610.64C216.559 609.947 216.905 609.173 217.119 608.32C217.359 607.44 217.479 606.547 217.479 605.64C217.479 604.76 217.359 603.88 217.119 603C216.905 602.12 216.559 601.347 216.079 600.68C215.599 599.987 214.985 599.427 214.239 599C213.492 598.573 212.612 598.36 211.599 598.36C210.585 598.36 209.705 598.573 208.959 599C208.212 599.427 207.599 599.987 207.119 600.68C206.639 601.347 206.279 602.12 206.039 603C205.825 603.88 205.719 604.76 205.719 605.64C205.719 606.547 205.825 607.44 206.039 608.32C206.279 609.173 206.639 609.947 207.119 610.64C207.599 611.333 208.212 611.893 208.959 612.32C209.705 612.747 210.585 612.96 211.599 612.96ZM243.99 616H239.51V613.12H239.43C238.87 614.16 238.03 615 236.91 615.64C235.816 616.253 234.696 616.56 233.55 616.56C230.83 616.56 228.856 615.893 227.63 614.56C226.43 613.2 225.83 611.16 225.83 608.44V595.32H230.39V608C230.39 609.813 230.736 611.093 231.43 611.84C232.123 612.587 233.096 612.96 234.35 612.96C235.31 612.96 236.11 612.813 236.75 612.52C237.39 612.227 237.91 611.84 238.31 611.36C238.71 610.853 238.99 610.253 239.15 609.56C239.336 608.867 239.43 608.12 239.43 607.32V595.32H243.99V616ZM259.931 587.44H264.491V598.04H264.571C265.131 597.107 265.958 596.333 267.051 595.72C268.171 595.08 269.411 594.76 270.771 594.76C273.038 594.76 274.825 595.347 276.131 596.52C277.438 597.693 278.091 599.453 278.091 601.8V616H273.531V603C273.478 601.373 273.131 600.2 272.491 599.48C271.851 598.733 270.851 598.36 269.491 598.36C268.718 598.36 268.025 598.507 267.411 598.8C266.798 599.067 266.278 599.453 265.851 599.96C265.425 600.44 265.091 601.013 264.851 601.68C264.611 602.347 264.491 603.053 264.491 603.8V616H259.931V587.44ZM300.22 611.4C300.22 611.96 300.287 612.36 300.42 612.6C300.58 612.84 300.873 612.96 301.3 612.96C301.433 612.96 301.593 612.96 301.78 612.96C301.967 612.96 302.18 612.933 302.42 612.88V616.04C302.26 616.093 302.047 616.147 301.78 616.2C301.54 616.28 301.287 616.347 301.02 616.4C300.753 616.453 300.487 616.493 300.22 616.52C299.953 616.547 299.727 616.56 299.54 616.56C298.607 616.56 297.833 616.373 297.22 616C296.607 615.627 296.207 614.973 296.02 614.04C295.113 614.92 293.993 615.56 292.66 615.96C291.353 616.36 290.087 616.56 288.86 616.56C287.927 616.56 287.033 616.427 286.18 616.16C285.327 615.92 284.567 615.56 283.9 615.08C283.26 614.573 282.74 613.947 282.34 613.2C281.967 612.427 281.78 611.533 281.78 610.52C281.78 609.24 282.007 608.2 282.46 607.4C282.94 606.6 283.553 605.973 284.3 605.52C285.073 605.067 285.927 604.747 286.86 604.56C287.82 604.347 288.78 604.187 289.74 604.08C290.567 603.92 291.353 603.813 292.1 603.76C292.847 603.68 293.5 603.56 294.06 603.4C294.647 603.24 295.1 603 295.42 602.68C295.767 602.333 295.94 601.827 295.94 601.16C295.94 600.573 295.793 600.093 295.5 599.72C295.233 599.347 294.887 599.067 294.46 598.88C294.06 598.667 293.607 598.533 293.1 598.48C292.593 598.4 292.113 598.36 291.66 598.36C290.38 598.36 289.327 598.627 288.5 599.16C287.673 599.693 287.207 600.52 287.1 601.64H282.54C282.62 600.307 282.94 599.2 283.5 598.32C284.06 597.44 284.767 596.733 285.62 596.2C286.5 595.667 287.487 595.293 288.58 595.08C289.673 594.867 290.793 594.76 291.94 594.76C292.953 594.76 293.953 594.867 294.94 595.08C295.927 595.293 296.807 595.64 297.58 596.12C298.38 596.6 299.02 597.227 299.5 598C299.98 598.747 300.22 599.667 300.22 600.76V611.4ZM295.66 605.64C294.967 606.093 294.113 606.373 293.1 606.48C292.087 606.56 291.073 606.693 290.06 606.88C289.58 606.96 289.113 607.08 288.66 607.24C288.207 607.373 287.807 607.573 287.46 607.84C287.113 608.08 286.833 608.413 286.62 608.84C286.433 609.24 286.34 609.733 286.34 610.32C286.34 610.827 286.487 611.253 286.78 611.6C287.073 611.947 287.42 612.227 287.82 612.44C288.247 612.627 288.7 612.76 289.18 612.84C289.687 612.92 290.14 612.96 290.54 612.96C291.047 612.96 291.593 612.893 292.18 612.76C292.767 612.627 293.313 612.4 293.82 612.08C294.353 611.76 294.793 611.36 295.14 610.88C295.487 610.373 295.66 609.76 295.66 609.04V605.64ZM303.087 595.32H308.047L313.287 611.2H313.367L318.407 595.32H323.127L315.727 616H310.607L303.087 595.32ZM340.069 603.84C340.015 603.12 339.855 602.427 339.589 601.76C339.349 601.093 339.002 600.52 338.549 600.04C338.122 599.533 337.589 599.133 336.949 598.84C336.335 598.52 335.642 598.36 334.869 598.36C334.069 598.36 333.335 598.507 332.669 598.8C332.029 599.067 331.469 599.453 330.989 599.96C330.535 600.44 330.162 601.013 329.869 601.68C329.602 602.347 329.455 603.067 329.429 603.84H340.069ZM329.429 606.84C329.429 607.64 329.535 608.413 329.749 609.16C329.989 609.907 330.335 610.56 330.789 611.12C331.242 611.68 331.815 612.133 332.509 612.48C333.202 612.8 334.029 612.96 334.989 612.96C336.322 612.96 337.389 612.68 338.189 612.12C339.015 611.533 339.629 610.667 340.029 609.52H344.349C344.109 610.64 343.695 611.64 343.109 612.52C342.522 613.4 341.815 614.147 340.989 614.76C340.162 615.347 339.229 615.787 338.189 616.08C337.175 616.4 336.109 616.56 334.989 616.56C333.362 616.56 331.922 616.293 330.669 615.76C329.415 615.227 328.349 614.48 327.469 613.52C326.615 612.56 325.962 611.413 325.509 610.08C325.082 608.747 324.869 607.28 324.869 605.68C324.869 604.213 325.095 602.827 325.549 601.52C326.029 600.187 326.695 599.027 327.549 598.04C328.429 597.027 329.482 596.227 330.709 595.64C331.935 595.053 333.322 594.76 334.869 594.76C336.495 594.76 337.949 595.107 339.229 595.8C340.535 596.467 341.615 597.36 342.469 598.48C343.322 599.6 343.935 600.893 344.309 602.36C344.709 603.8 344.815 605.293 344.629 606.84H329.429ZM357.188 595.32H360.588V593.6C360.588 592.293 360.748 591.24 361.068 590.44C361.388 589.613 361.815 588.987 362.348 588.56C362.881 588.107 363.481 587.813 364.148 587.68C364.841 587.52 365.561 587.44 366.308 587.44C367.775 587.44 368.841 587.533 369.508 587.72V591.28C369.215 591.2 368.895 591.147 368.548 591.12C368.228 591.067 367.841 591.04 367.388 591.04C366.775 591.04 366.241 591.187 365.788 591.48C365.361 591.773 365.148 592.347 365.148 593.2V595.32H369.028V598.72H365.148V616H360.588V598.72H357.188V595.32ZM381.325 616.56C379.672 616.56 378.192 616.293 376.885 615.76C375.605 615.2 374.512 614.44 373.605 613.48C372.725 612.52 372.045 611.373 371.565 610.04C371.112 608.707 370.885 607.24 370.885 605.64C370.885 604.067 371.112 602.613 371.565 601.28C372.045 599.947 372.725 598.8 373.605 597.84C374.512 596.88 375.605 596.133 376.885 595.6C378.192 595.04 379.672 594.76 381.325 594.76C382.979 594.76 384.445 595.04 385.725 595.6C387.032 596.133 388.125 596.88 389.005 597.84C389.912 598.8 390.592 599.947 391.045 601.28C391.525 602.613 391.765 604.067 391.765 605.64C391.765 607.24 391.525 608.707 391.045 610.04C390.592 611.373 389.912 612.52 389.005 613.48C388.125 614.44 387.032 615.2 385.725 615.76C384.445 616.293 382.979 616.56 381.325 616.56ZM381.325 612.96C382.339 612.96 383.219 612.747 383.965 612.32C384.712 611.893 385.325 611.333 385.805 610.64C386.285 609.947 386.632 609.173 386.845 608.32C387.085 607.44 387.205 606.547 387.205 605.64C387.205 604.76 387.085 603.88 386.845 603C386.632 602.12 386.285 601.347 385.805 600.68C385.325 599.987 384.712 599.427 383.965 599C383.219 598.573 382.339 598.36 381.325 598.36C380.312 598.36 379.432 598.573 378.685 599C377.939 599.427 377.325 599.987 376.845 600.68C376.365 601.347 376.005 602.12 375.765 603C375.552 603.88 375.445 604.76 375.445 605.64C375.445 606.547 375.552 607.44 375.765 608.32C376.005 609.173 376.365 609.947 376.845 610.64C377.325 611.333 377.939 611.893 378.685 612.32C379.432 612.747 380.312 612.96 381.325 612.96ZM413.716 616H409.236V613.12H409.156C408.596 614.16 407.756 615 406.636 615.64C405.543 616.253 404.423 616.56 403.276 616.56C400.556 616.56 398.583 615.893 397.356 614.56C396.156 613.2 395.556 611.16 395.556 608.44V595.32H400.116V608C400.116 609.813 400.463 611.093 401.156 611.84C401.85 612.587 402.823 612.96 404.076 612.96C405.036 612.96 405.836 612.813 406.476 612.52C407.116 612.227 407.636 611.84 408.036 611.36C408.436 610.853 408.716 610.253 408.876 609.56C409.063 608.867 409.156 608.12 409.156 607.32V595.32H413.716V616ZM418.525 595.32H422.845V598.36L422.925 598.44C423.618 597.293 424.525 596.4 425.645 595.76C426.765 595.093 428.005 594.76 429.365 594.76C431.632 594.76 433.418 595.347 434.725 596.52C436.032 597.693 436.685 599.453 436.685 601.8V616H432.125V603C432.072 601.373 431.725 600.2 431.085 599.48C430.445 598.733 429.445 598.36 428.085 598.36C427.312 598.36 426.618 598.507 426.005 598.8C425.392 599.067 424.872 599.453 424.445 599.96C424.018 600.44 423.685 601.013 423.445 601.68C423.205 602.347 423.085 603.053 423.085 603.8V616H418.525V595.32ZM460.974 616H456.654V613.2H456.574C455.96 614.4 455.067 615.267 453.894 615.8C452.72 616.307 451.48 616.56 450.174 616.56C448.547 616.56 447.12 616.28 445.894 615.72C444.694 615.133 443.694 614.347 442.894 613.36C442.094 612.373 441.494 611.213 441.094 609.88C440.694 608.52 440.494 607.067 440.494 605.52C440.494 603.653 440.747 602.04 441.254 600.68C441.76 599.32 442.427 598.2 443.254 597.32C444.107 596.44 445.067 595.8 446.134 595.4C447.227 594.973 448.334 594.76 449.454 594.76C450.094 594.76 450.747 594.827 451.414 594.96C452.08 595.067 452.72 595.253 453.334 595.52C453.947 595.787 454.507 596.133 455.014 596.56C455.547 596.96 455.987 597.44 456.334 598H456.414V587.44H460.974V616ZM445.054 605.88C445.054 606.76 445.16 607.627 445.374 608.48C445.614 609.333 445.96 610.093 446.414 610.76C446.894 611.427 447.494 611.96 448.214 612.36C448.934 612.76 449.787 612.96 450.774 612.96C451.787 612.96 452.654 612.747 453.374 612.32C454.12 611.893 454.72 611.333 455.174 610.64C455.654 609.947 456 609.173 456.214 608.32C456.454 607.44 456.574 606.547 456.574 605.64C456.574 603.347 456.054 601.56 455.014 600.28C454 599 452.614 598.36 450.854 598.36C449.787 598.36 448.88 598.587 448.134 599.04C447.414 599.467 446.814 600.04 446.334 600.76C445.88 601.453 445.547 602.253 445.334 603.16C445.147 604.04 445.054 604.947 445.054 605.88ZM256.47 660.4C256.47 660.96 256.537 661.36 256.67 661.6C256.83 661.84 257.123 661.96 257.55 661.96C257.683 661.96 257.843 661.96 258.03 661.96C258.217 661.96 258.43 661.933 258.67 661.88V665.04C258.51 665.093 258.297 665.147 258.03 665.2C257.79 665.28 257.537 665.347 257.27 665.4C257.003 665.453 256.737 665.493 256.47 665.52C256.203 665.547 255.977 665.56 255.79 665.56C254.857 665.56 254.083 665.373 253.47 665C252.857 664.627 252.457 663.973 252.27 663.04C251.363 663.92 250.243 664.56 248.91 664.96C247.603 665.36 246.337 665.56 245.11 665.56C244.177 665.56 243.283 665.427 242.43 665.16C241.577 664.92 240.817 664.56 240.15 664.08C239.51 663.573 238.99 662.947 238.59 662.2C238.217 661.427 238.03 660.533 238.03 659.52C238.03 658.24 238.257 657.2 238.71 656.4C239.19 655.6 239.803 654.973 240.55 654.52C241.323 654.067 242.177 653.747 243.11 653.56C244.07 653.347 245.03 653.187 245.99 653.08C246.817 652.92 247.603 652.813 248.35 652.76C249.097 652.68 249.75 652.56 250.31 652.4C250.897 652.24 251.35 652 251.67 651.68C252.017 651.333 252.19 650.827 252.19 650.16C252.19 649.573 252.043 649.093 251.75 648.72C251.483 648.347 251.137 648.067 250.71 647.88C250.31 647.667 249.857 647.533 249.35 647.48C248.843 647.4 248.363 647.36 247.91 647.36C246.63 647.36 245.577 647.627 244.75 648.16C243.923 648.693 243.457 649.52 243.35 650.64H238.79C238.87 649.307 239.19 648.2 239.75 647.32C240.31 646.44 241.017 645.733 241.87 645.2C242.75 644.667 243.737 644.293 244.83 644.08C245.923 643.867 247.043 643.76 248.19 643.76C249.203 643.76 250.203 643.867 251.19 644.08C252.177 644.293 253.057 644.64 253.83 645.12C254.63 645.6 255.27 646.227 255.75 647C256.23 647.747 256.47 648.667 256.47 649.76V660.4ZM251.91 654.64C251.217 655.093 250.363 655.373 249.35 655.48C248.337 655.56 247.323 655.693 246.31 655.88C245.83 655.96 245.363 656.08 244.91 656.24C244.457 656.373 244.057 656.573 243.71 656.84C243.363 657.08 243.083 657.413 242.87 657.84C242.683 658.24 242.59 658.733 242.59 659.32C242.59 659.827 242.737 660.253 243.03 660.6C243.323 660.947 243.67 661.227 244.07 661.44C244.497 661.627 244.95 661.76 245.43 661.84C245.937 661.92 246.39 661.96 246.79 661.96C247.297 661.96 247.843 661.893 248.43 661.76C249.017 661.627 249.563 661.4 250.07 661.08C250.603 660.76 251.043 660.36 251.39 659.88C251.737 659.373 251.91 658.76 251.91 658.04V654.64ZM261.497 636.44H266.057V665H261.497V636.44ZM271.145 636.44H275.705V665H271.145V636.44ZM291.926 636.44H296.486V647H296.566C296.886 646.493 297.273 646.04 297.726 645.64C298.18 645.24 298.673 644.907 299.206 644.64C299.766 644.347 300.34 644.133 300.926 644C301.54 643.84 302.14 643.76 302.726 643.76C304.353 643.76 305.766 644.053 306.966 644.64C308.193 645.2 309.206 645.987 310.006 647C310.806 647.987 311.406 649.147 311.806 650.48C312.206 651.813 312.406 653.24 312.406 654.76C312.406 656.147 312.22 657.493 311.846 658.8C311.5 660.107 310.953 661.267 310.206 662.28C309.486 663.267 308.566 664.067 307.446 664.68C306.326 665.267 305.006 665.56 303.486 665.56C302.793 665.56 302.086 665.507 301.366 665.4C300.673 665.32 300.006 665.147 299.366 664.88C298.726 664.613 298.14 664.267 297.606 663.84C297.1 663.413 296.673 662.853 296.326 662.16H296.246V665H291.926V636.44ZM307.846 654.68C307.846 653.747 307.726 652.84 307.486 651.96C307.246 651.08 306.886 650.307 306.406 649.64C305.926 648.947 305.326 648.4 304.606 648C303.886 647.573 303.06 647.36 302.126 647.36C300.206 647.36 298.753 648.027 297.766 649.36C296.806 650.693 296.326 652.467 296.326 654.68C296.326 655.72 296.446 656.693 296.686 657.6C296.953 658.48 297.34 659.24 297.846 659.88C298.353 660.52 298.953 661.027 299.646 661.4C300.366 661.773 301.193 661.96 302.126 661.96C303.166 661.96 304.046 661.747 304.766 661.32C305.486 660.893 306.073 660.347 306.526 659.68C307.006 658.987 307.34 658.213 307.526 657.36C307.74 656.48 307.846 655.587 307.846 654.68ZM325.739 665.56C324.086 665.56 322.606 665.293 321.299 664.76C320.019 664.2 318.926 663.44 318.019 662.48C317.139 661.52 316.459 660.373 315.979 659.04C315.526 657.707 315.299 656.24 315.299 654.64C315.299 653.067 315.526 651.613 315.979 650.28C316.459 648.947 317.139 647.8 318.019 646.84C318.926 645.88 320.019 645.133 321.299 644.6C322.606 644.04 324.086 643.76 325.739 643.76C327.393 643.76 328.859 644.04 330.139 644.6C331.446 645.133 332.539 645.88 333.419 646.84C334.326 647.8 335.006 648.947 335.459 650.28C335.939 651.613 336.179 653.067 336.179 654.64C336.179 656.24 335.939 657.707 335.459 659.04C335.006 660.373 334.326 661.52 333.419 662.48C332.539 663.44 331.446 664.2 330.139 664.76C328.859 665.293 327.393 665.56 325.739 665.56ZM325.739 661.96C326.753 661.96 327.633 661.747 328.379 661.32C329.126 660.893 329.739 660.333 330.219 659.64C330.699 658.947 331.046 658.173 331.259 657.32C331.499 656.44 331.619 655.547 331.619 654.64C331.619 653.76 331.499 652.88 331.259 652C331.046 651.12 330.699 650.347 330.219 649.68C329.739 648.987 329.126 648.427 328.379 648C327.633 647.573 326.753 647.36 325.739 647.36C324.726 647.36 323.846 647.573 323.099 648C322.353 648.427 321.739 648.987 321.259 649.68C320.779 650.347 320.419 651.12 320.179 652C319.966 652.88 319.859 653.76 319.859 654.64C319.859 655.547 319.966 656.44 320.179 657.32C320.419 658.173 320.779 658.947 321.259 659.64C321.739 660.333 322.353 660.893 323.099 661.32C323.846 661.747 324.726 661.96 325.739 661.96ZM339.97 644.32H344.29V647.36L344.37 647.44C345.064 646.293 345.97 645.4 347.09 644.76C348.21 644.093 349.45 643.76 350.81 643.76C353.077 643.76 354.864 644.347 356.17 645.52C357.477 646.693 358.13 648.453 358.13 650.8V665H353.57V652C353.517 650.373 353.17 649.2 352.53 648.48C351.89 647.733 350.89 647.36 349.53 647.36C348.757 647.36 348.064 647.507 347.45 647.8C346.837 648.067 346.317 648.453 345.89 648.96C345.464 649.44 345.13 650.013 344.89 650.68C344.65 651.347 344.53 652.053 344.53 652.8V665H339.97V644.32ZM381.099 665H376.619V662.12H376.539C375.979 663.16 375.139 664 374.019 664.64C372.926 665.253 371.806 665.56 370.659 665.56C367.939 665.56 365.966 664.893 364.739 663.56C363.539 662.2 362.939 660.16 362.939 657.44V644.32H367.499V657C367.499 658.813 367.846 660.093 368.539 660.84C369.232 661.587 370.206 661.96 371.459 661.96C372.419 661.96 373.219 661.813 373.859 661.52C374.499 661.227 375.019 660.84 375.419 660.36C375.819 659.853 376.099 659.253 376.259 658.56C376.446 657.867 376.539 657.12 376.539 656.32V644.32H381.099V665ZM389.348 658.36C389.481 659.693 389.988 660.627 390.868 661.16C391.748 661.693 392.801 661.96 394.028 661.96C394.454 661.96 394.934 661.933 395.468 661.88C396.028 661.8 396.548 661.667 397.028 661.48C397.508 661.293 397.894 661.027 398.188 660.68C398.508 660.307 398.654 659.827 398.628 659.24C398.601 658.653 398.388 658.173 397.988 657.8C397.588 657.427 397.068 657.133 396.428 656.92C395.814 656.68 395.108 656.48 394.308 656.32C393.508 656.16 392.694 655.987 391.868 655.8C391.014 655.613 390.188 655.387 389.388 655.12C388.614 654.853 387.908 654.493 387.268 654.04C386.654 653.587 386.161 653.013 385.788 652.32C385.414 651.6 385.228 650.72 385.228 649.68C385.228 648.56 385.494 647.627 386.028 646.88C386.588 646.107 387.281 645.493 388.108 645.04C388.961 644.56 389.894 644.227 390.908 644.04C391.948 643.853 392.934 643.76 393.868 643.76C394.934 643.76 395.948 643.88 396.908 644.12C397.894 644.333 398.774 644.693 399.548 645.2C400.348 645.707 401.001 646.373 401.508 647.2C402.041 648 402.374 648.973 402.508 650.12H397.748C397.534 649.027 397.028 648.293 396.228 647.92C395.454 647.547 394.561 647.36 393.548 647.36C393.228 647.36 392.841 647.387 392.388 647.44C391.961 647.493 391.548 647.6 391.148 647.76C390.774 647.893 390.454 648.107 390.188 648.4C389.921 648.667 389.788 649.027 389.788 649.48C389.788 650.04 389.974 650.493 390.348 650.84C390.748 651.187 391.254 651.48 391.868 651.72C392.508 651.933 393.228 652.12 394.028 652.28C394.828 652.44 395.654 652.613 396.508 652.8C397.334 652.987 398.148 653.213 398.948 653.48C399.748 653.747 400.454 654.107 401.068 654.56C401.708 655.013 402.214 655.587 402.588 656.28C402.988 656.973 403.188 657.827 403.188 658.84C403.188 660.067 402.908 661.107 402.348 661.96C401.788 662.813 401.054 663.507 400.148 664.04C399.268 664.573 398.281 664.96 397.188 665.2C396.094 665.44 395.014 665.56 393.948 665.56C392.641 665.56 391.428 665.413 390.308 665.12C389.214 664.827 388.254 664.387 387.428 663.8C386.628 663.187 385.988 662.44 385.508 661.56C385.054 660.653 384.814 659.587 384.788 658.36H389.348Z" fill="url(#paint5_linear)"/>
<path d="M187.933 604.8L177.213 587.44H183.013L190.573 600.24L198.013 587.44H203.613L192.933 604.8V616H187.933V604.8ZM211.599 616.56C209.945 616.56 208.465 616.293 207.159 615.76C205.879 615.2 204.785 614.44 203.879 613.48C202.999 612.52 202.319 611.373 201.839 610.04C201.385 608.707 201.159 607.24 201.159 605.64C201.159 604.067 201.385 602.613 201.839 601.28C202.319 599.947 202.999 598.8 203.879 597.84C204.785 596.88 205.879 596.133 207.159 595.6C208.465 595.04 209.945 594.76 211.599 594.76C213.252 594.76 214.719 595.04 215.999 595.6C217.305 596.133 218.399 596.88 219.279 597.84C220.185 598.8 220.865 599.947 221.319 601.28C221.799 602.613 222.039 604.067 222.039 605.64C222.039 607.24 221.799 608.707 221.319 610.04C220.865 611.373 220.185 612.52 219.279 613.48C218.399 614.44 217.305 615.2 215.999 615.76C214.719 616.293 213.252 616.56 211.599 616.56ZM211.599 612.96C212.612 612.96 213.492 612.747 214.239 612.32C214.985 611.893 215.599 611.333 216.079 610.64C216.559 609.947 216.905 609.173 217.119 608.32C217.359 607.44 217.479 606.547 217.479 605.64C217.479 604.76 217.359 603.88 217.119 603C216.905 602.12 216.559 601.347 216.079 600.68C215.599 599.987 214.985 599.427 214.239 599C213.492 598.573 212.612 598.36 211.599 598.36C210.585 598.36 209.705 598.573 208.959 599C208.212 599.427 207.599 599.987 207.119 600.68C206.639 601.347 206.279 602.12 206.039 603C205.825 603.88 205.719 604.76 205.719 605.64C205.719 606.547 205.825 607.44 206.039 608.32C206.279 609.173 206.639 609.947 207.119 610.64C207.599 611.333 208.212 611.893 208.959 612.32C209.705 612.747 210.585 612.96 211.599 612.96ZM243.99 616H239.51V613.12H239.43C238.87 614.16 238.03 615 236.91 615.64C235.816 616.253 234.696 616.56 233.55 616.56C230.83 616.56 228.856 615.893 227.63 614.56C226.43 613.2 225.83 611.16 225.83 608.44V595.32H230.39V608C230.39 609.813 230.736 611.093 231.43 611.84C232.123 612.587 233.096 612.96 234.35 612.96C235.31 612.96 236.11 612.813 236.75 612.52C237.39 612.227 237.91 611.84 238.31 611.36C238.71 610.853 238.99 610.253 239.15 609.56C239.336 608.867 239.43 608.12 239.43 607.32V595.32H243.99V616ZM259.931 587.44H264.491V598.04H264.571C265.131 597.107 265.958 596.333 267.051 595.72C268.171 595.08 269.411 594.76 270.771 594.76C273.038 594.76 274.825 595.347 276.131 596.52C277.438 597.693 278.091 599.453 278.091 601.8V616H273.531V603C273.478 601.373 273.131 600.2 272.491 599.48C271.851 598.733 270.851 598.36 269.491 598.36C268.718 598.36 268.025 598.507 267.411 598.8C266.798 599.067 266.278 599.453 265.851 599.96C265.425 600.44 265.091 601.013 264.851 601.68C264.611 602.347 264.491 603.053 264.491 603.8V616H259.931V587.44ZM300.22 611.4C300.22 611.96 300.287 612.36 300.42 612.6C300.58 612.84 300.873 612.96 301.3 612.96C301.433 612.96 301.593 612.96 301.78 612.96C301.967 612.96 302.18 612.933 302.42 612.88V616.04C302.26 616.093 302.047 616.147 301.78 616.2C301.54 616.28 301.287 616.347 301.02 616.4C300.753 616.453 300.487 616.493 300.22 616.52C299.953 616.547 299.727 616.56 299.54 616.56C298.607 616.56 297.833 616.373 297.22 616C296.607 615.627 296.207 614.973 296.02 614.04C295.113 614.92 293.993 615.56 292.66 615.96C291.353 616.36 290.087 616.56 288.86 616.56C287.927 616.56 287.033 616.427 286.18 616.16C285.327 615.92 284.567 615.56 283.9 615.08C283.26 614.573 282.74 613.947 282.34 613.2C281.967 612.427 281.78 611.533 281.78 610.52C281.78 609.24 282.007 608.2 282.46 607.4C282.94 606.6 283.553 605.973 284.3 605.52C285.073 605.067 285.927 604.747 286.86 604.56C287.82 604.347 288.78 604.187 289.74 604.08C290.567 603.92 291.353 603.813 292.1 603.76C292.847 603.68 293.5 603.56 294.06 603.4C294.647 603.24 295.1 603 295.42 602.68C295.767 602.333 295.94 601.827 295.94 601.16C295.94 600.573 295.793 600.093 295.5 599.72C295.233 599.347 294.887 599.067 294.46 598.88C294.06 598.667 293.607 598.533 293.1 598.48C292.593 598.4 292.113 598.36 291.66 598.36C290.38 598.36 289.327 598.627 288.5 599.16C287.673 599.693 287.207 600.52 287.1 601.64H282.54C282.62 600.307 282.94 599.2 283.5 598.32C284.06 597.44 284.767 596.733 285.62 596.2C286.5 595.667 287.487 595.293 288.58 595.08C289.673 594.867 290.793 594.76 291.94 594.76C292.953 594.76 293.953 594.867 294.94 595.08C295.927 595.293 296.807 595.64 297.58 596.12C298.38 596.6 299.02 597.227 299.5 598C299.98 598.747 300.22 599.667 300.22 600.76V611.4ZM295.66 605.64C294.967 606.093 294.113 606.373 293.1 606.48C292.087 606.56 291.073 606.693 290.06 606.88C289.58 606.96 289.113 607.08 288.66 607.24C288.207 607.373 287.807 607.573 287.46 607.84C287.113 608.08 286.833 608.413 286.62 608.84C286.433 609.24 286.34 609.733 286.34 610.32C286.34 610.827 286.487 611.253 286.78 611.6C287.073 611.947 287.42 612.227 287.82 612.44C288.247 612.627 288.7 612.76 289.18 612.84C289.687 612.92 290.14 612.96 290.54 612.96C291.047 612.96 291.593 612.893 292.18 612.76C292.767 612.627 293.313 612.4 293.82 612.08C294.353 611.76 294.793 611.36 295.14 610.88C295.487 610.373 295.66 609.76 295.66 609.04V605.64ZM303.087 595.32H308.047L313.287 611.2H313.367L318.407 595.32H323.127L315.727 616H310.607L303.087 595.32ZM340.069 603.84C340.015 603.12 339.855 602.427 339.589 601.76C339.349 601.093 339.002 600.52 338.549 600.04C338.122 599.533 337.589 599.133 336.949 598.84C336.335 598.52 335.642 598.36 334.869 598.36C334.069 598.36 333.335 598.507 332.669 598.8C332.029 599.067 331.469 599.453 330.989 599.96C330.535 600.44 330.162 601.013 329.869 601.68C329.602 602.347 329.455 603.067 329.429 603.84H340.069ZM329.429 606.84C329.429 607.64 329.535 608.413 329.749 609.16C329.989 609.907 330.335 610.56 330.789 611.12C331.242 611.68 331.815 612.133 332.509 612.48C333.202 612.8 334.029 612.96 334.989 612.96C336.322 612.96 337.389 612.68 338.189 612.12C339.015 611.533 339.629 610.667 340.029 609.52H344.349C344.109 610.64 343.695 611.64 343.109 612.52C342.522 613.4 341.815 614.147 340.989 614.76C340.162 615.347 339.229 615.787 338.189 616.08C337.175 616.4 336.109 616.56 334.989 616.56C333.362 616.56 331.922 616.293 330.669 615.76C329.415 615.227 328.349 614.48 327.469 613.52C326.615 612.56 325.962 611.413 325.509 610.08C325.082 608.747 324.869 607.28 324.869 605.68C324.869 604.213 325.095 602.827 325.549 601.52C326.029 600.187 326.695 599.027 327.549 598.04C328.429 597.027 329.482 596.227 330.709 595.64C331.935 595.053 333.322 594.76 334.869 594.76C336.495 594.76 337.949 595.107 339.229 595.8C340.535 596.467 341.615 597.36 342.469 598.48C343.322 599.6 343.935 600.893 344.309 602.36C344.709 603.8 344.815 605.293 344.629 606.84H329.429ZM357.188 595.32H360.588V593.6C360.588 592.293 360.748 591.24 361.068 590.44C361.388 589.613 361.815 588.987 362.348 588.56C362.881 588.107 363.481 587.813 364.148 587.68C364.841 587.52 365.561 587.44 366.308 587.44C367.775 587.44 368.841 587.533 369.508 587.72V591.28C369.215 591.2 368.895 591.147 368.548 591.12C368.228 591.067 367.841 591.04 367.388 591.04C366.775 591.04 366.241 591.187 365.788 591.48C365.361 591.773 365.148 592.347 365.148 593.2V595.32H369.028V598.72H365.148V616H360.588V598.72H357.188V595.32ZM381.325 616.56C379.672 616.56 378.192 616.293 376.885 615.76C375.605 615.2 374.512 614.44 373.605 613.48C372.725 612.52 372.045 611.373 371.565 610.04C371.112 608.707 370.885 607.24 370.885 605.64C370.885 604.067 371.112 602.613 371.565 601.28C372.045 599.947 372.725 598.8 373.605 597.84C374.512 596.88 375.605 596.133 376.885 595.6C378.192 595.04 379.672 594.76 381.325 594.76C382.979 594.76 384.445 595.04 385.725 595.6C387.032 596.133 388.125 596.88 389.005 597.84C389.912 598.8 390.592 599.947 391.045 601.28C391.525 602.613 391.765 604.067 391.765 605.64C391.765 607.24 391.525 608.707 391.045 610.04C390.592 611.373 389.912 612.52 389.005 613.48C388.125 614.44 387.032 615.2 385.725 615.76C384.445 616.293 382.979 616.56 381.325 616.56ZM381.325 612.96C382.339 612.96 383.219 612.747 383.965 612.32C384.712 611.893 385.325 611.333 385.805 610.64C386.285 609.947 386.632 609.173 386.845 608.32C387.085 607.44 387.205 606.547 387.205 605.64C387.205 604.76 387.085 603.88 386.845 603C386.632 602.12 386.285 601.347 385.805 600.68C385.325 599.987 384.712 599.427 383.965 599C383.219 598.573 382.339 598.36 381.325 598.36C380.312 598.36 379.432 598.573 378.685 599C377.939 599.427 377.325 599.987 376.845 600.68C376.365 601.347 376.005 602.12 375.765 603C375.552 603.88 375.445 604.76 375.445 605.64C375.445 606.547 375.552 607.44 375.765 608.32C376.005 609.173 376.365 609.947 376.845 610.64C377.325 611.333 377.939 611.893 378.685 612.32C379.432 612.747 380.312 612.96 381.325 612.96ZM413.716 616H409.236V613.12H409.156C408.596 614.16 407.756 615 406.636 615.64C405.543 616.253 404.423 616.56 403.276 616.56C400.556 616.56 398.583 615.893 397.356 614.56C396.156 613.2 395.556 611.16 395.556 608.44V595.32H400.116V608C400.116 609.813 400.463 611.093 401.156 611.84C401.85 612.587 402.823 612.96 404.076 612.96C405.036 612.96 405.836 612.813 406.476 612.52C407.116 612.227 407.636 611.84 408.036 611.36C408.436 610.853 408.716 610.253 408.876 609.56C409.063 608.867 409.156 608.12 409.156 607.32V595.32H413.716V616ZM418.525 595.32H422.845V598.36L422.925 598.44C423.618 597.293 424.525 596.4 425.645 595.76C426.765 595.093 428.005 594.76 429.365 594.76C431.632 594.76 433.418 595.347 434.725 596.52C436.032 597.693 436.685 599.453 436.685 601.8V616H432.125V603C432.072 601.373 431.725 600.2 431.085 599.48C430.445 598.733 429.445 598.36 428.085 598.36C427.312 598.36 426.618 598.507 426.005 598.8C425.392 599.067 424.872 599.453 424.445 599.96C424.018 600.44 423.685 601.013 423.445 601.68C423.205 602.347 423.085 603.053 423.085 603.8V616H418.525V595.32ZM460.974 616H456.654V613.2H456.574C455.96 614.4 455.067 615.267 453.894 615.8C452.72 616.307 451.48 616.56 450.174 616.56C448.547 616.56 447.12 616.28 445.894 615.72C444.694 615.133 443.694 614.347 442.894 613.36C442.094 612.373 441.494 611.213 441.094 609.88C440.694 608.52 440.494 607.067 440.494 605.52C440.494 603.653 440.747 602.04 441.254 600.68C441.76 599.32 442.427 598.2 443.254 597.32C444.107 596.44 445.067 595.8 446.134 595.4C447.227 594.973 448.334 594.76 449.454 594.76C450.094 594.76 450.747 594.827 451.414 594.96C452.08 595.067 452.72 595.253 453.334 595.52C453.947 595.787 454.507 596.133 455.014 596.56C455.547 596.96 455.987 597.44 456.334 598H456.414V587.44H460.974V616ZM445.054 605.88C445.054 606.76 445.16 607.627 445.374 608.48C445.614 609.333 445.96 610.093 446.414 610.76C446.894 611.427 447.494 611.96 448.214 612.36C448.934 612.76 449.787 612.96 450.774 612.96C451.787 612.96 452.654 612.747 453.374 612.32C454.12 611.893 454.72 611.333 455.174 610.64C455.654 609.947 456 609.173 456.214 608.32C456.454 607.44 456.574 606.547 456.574 605.64C456.574 603.347 456.054 601.56 455.014 600.28C454 599 452.614 598.36 450.854 598.36C449.787 598.36 448.88 598.587 448.134 599.04C447.414 599.467 446.814 600.04 446.334 600.76C445.88 601.453 445.547 602.253 445.334 603.16C445.147 604.04 445.054 604.947 445.054 605.88ZM256.47 660.4C256.47 660.96 256.537 661.36 256.67 661.6C256.83 661.84 257.123 661.96 257.55 661.96C257.683 661.96 257.843 661.96 258.03 661.96C258.217 661.96 258.43 661.933 258.67 661.88V665.04C258.51 665.093 258.297 665.147 258.03 665.2C257.79 665.28 257.537 665.347 257.27 665.4C257.003 665.453 256.737 665.493 256.47 665.52C256.203 665.547 255.977 665.56 255.79 665.56C254.857 665.56 254.083 665.373 253.47 665C252.857 664.627 252.457 663.973 252.27 663.04C251.363 663.92 250.243 664.56 248.91 664.96C247.603 665.36 246.337 665.56 245.11 665.56C244.177 665.56 243.283 665.427 242.43 665.16C241.577 664.92 240.817 664.56 240.15 664.08C239.51 663.573 238.99 662.947 238.59 662.2C238.217 661.427 238.03 660.533 238.03 659.52C238.03 658.24 238.257 657.2 238.71 656.4C239.19 655.6 239.803 654.973 240.55 654.52C241.323 654.067 242.177 653.747 243.11 653.56C244.07 653.347 245.03 653.187 245.99 653.08C246.817 652.92 247.603 652.813 248.35 652.76C249.097 652.68 249.75 652.56 250.31 652.4C250.897 652.24 251.35 652 251.67 651.68C252.017 651.333 252.19 650.827 252.19 650.16C252.19 649.573 252.043 649.093 251.75 648.72C251.483 648.347 251.137 648.067 250.71 647.88C250.31 647.667 249.857 647.533 249.35 647.48C248.843 647.4 248.363 647.36 247.91 647.36C246.63 647.36 245.577 647.627 244.75 648.16C243.923 648.693 243.457 649.52 243.35 650.64H238.79C238.87 649.307 239.19 648.2 239.75 647.32C240.31 646.44 241.017 645.733 241.87 645.2C242.75 644.667 243.737 644.293 244.83 644.08C245.923 643.867 247.043 643.76 248.19 643.76C249.203 643.76 250.203 643.867 251.19 644.08C252.177 644.293 253.057 644.64 253.83 645.12C254.63 645.6 255.27 646.227 255.75 647C256.23 647.747 256.47 648.667 256.47 649.76V660.4ZM251.91 654.64C251.217 655.093 250.363 655.373 249.35 655.48C248.337 655.56 247.323 655.693 246.31 655.88C245.83 655.96 245.363 656.08 244.91 656.24C244.457 656.373 244.057 656.573 243.71 656.84C243.363 657.08 243.083 657.413 242.87 657.84C242.683 658.24 242.59 658.733 242.59 659.32C242.59 659.827 242.737 660.253 243.03 660.6C243.323 660.947 243.67 661.227 244.07 661.44C244.497 661.627 244.95 661.76 245.43 661.84C245.937 661.92 246.39 661.96 246.79 661.96C247.297 661.96 247.843 661.893 248.43 661.76C249.017 661.627 249.563 661.4 250.07 661.08C250.603 660.76 251.043 660.36 251.39 659.88C251.737 659.373 251.91 658.76 251.91 658.04V654.64ZM261.497 636.44H266.057V665H261.497V636.44ZM271.145 636.44H275.705V665H271.145V636.44ZM291.926 636.44H296.486V647H296.566C296.886 646.493 297.273 646.04 297.726 645.64C298.18 645.24 298.673 644.907 299.206 644.64C299.766 644.347 300.34 644.133 300.926 644C301.54 643.84 302.14 643.76 302.726 643.76C304.353 643.76 305.766 644.053 306.966 644.64C308.193 645.2 309.206 645.987 310.006 647C310.806 647.987 311.406 649.147 311.806 650.48C312.206 651.813 312.406 653.24 312.406 654.76C312.406 656.147 312.22 657.493 311.846 658.8C311.5 660.107 310.953 661.267 310.206 662.28C309.486 663.267 308.566 664.067 307.446 664.68C306.326 665.267 305.006 665.56 303.486 665.56C302.793 665.56 302.086 665.507 301.366 665.4C300.673 665.32 300.006 665.147 299.366 664.88C298.726 664.613 298.14 664.267 297.606 663.84C297.1 663.413 296.673 662.853 296.326 662.16H296.246V665H291.926V636.44ZM307.846 654.68C307.846 653.747 307.726 652.84 307.486 651.96C307.246 651.08 306.886 650.307 306.406 649.64C305.926 648.947 305.326 648.4 304.606 648C303.886 647.573 303.06 647.36 302.126 647.36C300.206 647.36 298.753 648.027 297.766 649.36C296.806 650.693 296.326 652.467 296.326 654.68C296.326 655.72 296.446 656.693 296.686 657.6C296.953 658.48 297.34 659.24 297.846 659.88C298.353 660.52 298.953 661.027 299.646 661.4C300.366 661.773 301.193 661.96 302.126 661.96C303.166 661.96 304.046 661.747 304.766 661.32C305.486 660.893 306.073 660.347 306.526 659.68C307.006 658.987 307.34 658.213 307.526 657.36C307.74 656.48 307.846 655.587 307.846 654.68ZM325.739 665.56C324.086 665.56 322.606 665.293 321.299 664.76C320.019 664.2 318.926 663.44 318.019 662.48C317.139 661.52 316.459 660.373 315.979 659.04C315.526 657.707 315.299 656.24 315.299 654.64C315.299 653.067 315.526 651.613 315.979 650.28C316.459 648.947 317.139 647.8 318.019 646.84C318.926 645.88 320.019 645.133 321.299 644.6C322.606 644.04 324.086 643.76 325.739 643.76C327.393 643.76 328.859 644.04 330.139 644.6C331.446 645.133 332.539 645.88 333.419 646.84C334.326 647.8 335.006 648.947 335.459 650.28C335.939 651.613 336.179 653.067 336.179 654.64C336.179 656.24 335.939 657.707 335.459 659.04C335.006 660.373 334.326 661.52 333.419 662.48C332.539 663.44 331.446 664.2 330.139 664.76C328.859 665.293 327.393 665.56 325.739 665.56ZM325.739 661.96C326.753 661.96 327.633 661.747 328.379 661.32C329.126 660.893 329.739 660.333 330.219 659.64C330.699 658.947 331.046 658.173 331.259 657.32C331.499 656.44 331.619 655.547 331.619 654.64C331.619 653.76 331.499 652.88 331.259 652C331.046 651.12 330.699 650.347 330.219 649.68C329.739 648.987 329.126 648.427 328.379 648C327.633 647.573 326.753 647.36 325.739 647.36C324.726 647.36 323.846 647.573 323.099 648C322.353 648.427 321.739 648.987 321.259 649.68C320.779 650.347 320.419 651.12 320.179 652C319.966 652.88 319.859 653.76 319.859 654.64C319.859 655.547 319.966 656.44 320.179 657.32C320.419 658.173 320.779 658.947 321.259 659.64C321.739 660.333 322.353 660.893 323.099 661.32C323.846 661.747 324.726 661.96 325.739 661.96ZM339.97 644.32H344.29V647.36L344.37 647.44C345.064 646.293 345.97 645.4 347.09 644.76C348.21 644.093 349.45 643.76 350.81 643.76C353.077 643.76 354.864 644.347 356.17 645.52C357.477 646.693 358.13 648.453 358.13 650.8V665H353.57V652C353.517 650.373 353.17 649.2 352.53 648.48C351.89 647.733 350.89 647.36 349.53 647.36C348.757 647.36 348.064 647.507 347.45 647.8C346.837 648.067 346.317 648.453 345.89 648.96C345.464 649.44 345.13 650.013 344.89 650.68C344.65 651.347 344.53 652.053 344.53 652.8V665H339.97V644.32ZM381.099 665H376.619V662.12H376.539C375.979 663.16 375.139 664 374.019 664.64C372.926 665.253 371.806 665.56 370.659 665.56C367.939 665.56 365.966 664.893 364.739 663.56C363.539 662.2 362.939 660.16 362.939 657.44V644.32H367.499V657C367.499 658.813 367.846 660.093 368.539 660.84C369.232 661.587 370.206 661.96 371.459 661.96C372.419 661.96 373.219 661.813 373.859 661.52C374.499 661.227 375.019 660.84 375.419 660.36C375.819 659.853 376.099 659.253 376.259 658.56C376.446 657.867 376.539 657.12 376.539 656.32V644.32H381.099V665ZM389.348 658.36C389.481 659.693 389.988 660.627 390.868 661.16C391.748 661.693 392.801 661.96 394.028 661.96C394.454 661.96 394.934 661.933 395.468 661.88C396.028 661.8 396.548 661.667 397.028 661.48C397.508 661.293 397.894 661.027 398.188 660.68C398.508 660.307 398.654 659.827 398.628 659.24C398.601 658.653 398.388 658.173 397.988 657.8C397.588 657.427 397.068 657.133 396.428 656.92C395.814 656.68 395.108 656.48 394.308 656.32C393.508 656.16 392.694 655.987 391.868 655.8C391.014 655.613 390.188 655.387 389.388 655.12C388.614 654.853 387.908 654.493 387.268 654.04C386.654 653.587 386.161 653.013 385.788 652.32C385.414 651.6 385.228 650.72 385.228 649.68C385.228 648.56 385.494 647.627 386.028 646.88C386.588 646.107 387.281 645.493 388.108 645.04C388.961 644.56 389.894 644.227 390.908 644.04C391.948 643.853 392.934 643.76 393.868 643.76C394.934 643.76 395.948 643.88 396.908 644.12C397.894 644.333 398.774 644.693 399.548 645.2C400.348 645.707 401.001 646.373 401.508 647.2C402.041 648 402.374 648.973 402.508 650.12H397.748C397.534 649.027 397.028 648.293 396.228 647.92C395.454 647.547 394.561 647.36 393.548 647.36C393.228 647.36 392.841 647.387 392.388 647.44C391.961 647.493 391.548 647.6 391.148 647.76C390.774 647.893 390.454 648.107 390.188 648.4C389.921 648.667 389.788 649.027 389.788 649.48C389.788 650.04 389.974 650.493 390.348 650.84C390.748 651.187 391.254 651.48 391.868 651.72C392.508 651.933 393.228 652.12 394.028 652.28C394.828 652.44 395.654 652.613 396.508 652.8C397.334 652.987 398.148 653.213 398.948 653.48C399.748 653.747 400.454 654.107 401.068 654.56C401.708 655.013 402.214 655.587 402.588 656.28C402.988 656.973 403.188 657.827 403.188 658.84C403.188 660.067 402.908 661.107 402.348 661.96C401.788 662.813 401.054 663.507 400.148 664.04C399.268 664.573 398.281 664.96 397.188 665.2C396.094 665.44 395.014 665.56 393.948 665.56C392.641 665.56 391.428 665.413 390.308 665.12C389.214 664.827 388.254 664.387 387.428 663.8C386.628 663.187 385.988 662.44 385.508 661.56C385.054 660.653 384.814 659.587 384.788 658.36H389.348Z" fill="white"/>
<defs>
<filter id="filter0_d" x="167.741" y="182.4" width="310.149" height="66.8782" filterUnits="userSpaceOnUse" color-interpolation-filters="sRGB">
<feFlood flood-opacity="0" result="BackgroundImageFix"/>
<feColorMatrix in="SourceAlpha" type="matrix" values="0 0 0 0 0 0 0 0 0 0 0 0 0 0 0 0 0 0 127 0"/>
<feOffset dy="5.72662"/>
<feGaussianBlur stdDeviation="2.86331"/>
<feColorMatrix type="matrix" values="0 0 0 0 0 0 0 0 0 0 0 0 0 0 0 0 0 0 0.25 0"/>
<feBlend mode="normal" in2="BackgroundImageFix" result="effect1_dropShadow"/>
<feBlend mode="normal" in="SourceGraphic" in2="effect1_dropShadow" result="shape"/>
</filter>
<linearGradient id="paint0_linear" x1="267.593" y1="74.5645" x2="378.278" y2="206.524" gradientUnits="userSpaceOnUse">
<stop offset="0.0430108" stop-color="#FFF466"/>
<stop offset="0.0752688" stop-color="#FFF466"/>
<stop offset="0.3152" stop-color="#FFEC5F"/>
<stop offset="0.6922" stop-color="#FFD54D"/>
<stop offset="0.8602" stop-color="#FFC943"/>
</linearGradient>
<linearGradient id="paint1_linear" x1="98.79" y1="133.579" x2="156.055" y2="173.528" gradientUnits="userSpaceOnUse">
<stop offset="0.0483871" stop-color="#FFF466"/>
<stop offset="0.2848" stop-color="#FFED60"/>
<stop offset="0.6222" stop-color="#FFDA51"/>
<stop offset="0.8602" stop-color="#FFC943"/>
</linearGradient>
<linearGradient id="paint2_linear" x1="541.791" y1="139.835" x2="484.526" y2="179.784" gradientUnits="userSpaceOnUse">
<stop offset="0.0483871" stop-color="#FFF466"/>
<stop offset="0.2848" stop-color="#FFED60"/>
<stop offset="0.6222" stop-color="#FFDA51"/>
<stop offset="0.8602" stop-color="#FFC943"/>
</linearGradient>
<linearGradient id="paint3_linear" x1="320.5" y1="167.411" x2="336.665" y2="285.994" gradientUnits="userSpaceOnUse">
<stop stop-color="#F2C94C"/>
<stop offset="0.645833" stop-color="#F2BD1B"/>
<stop offset="1" stop-color="#E1AC09"/>
</linearGradient>
<linearGradient id="paint4_linear" x1="322.853" y1="163" x2="346.415" y2="301.772" gradientUnits="userSpaceOnUse">
<stop stop-color="#F2C94C"/>
<stop offset="0.645833" stop-color="#F2BD1B"/>
<stop offset="1" stop-color="#E1AC09"/>
</linearGradient>
<linearGradient id="paint5_linear" x1="320.5" y1="576" x2="342.314" y2="689.558" gradientUnits="userSpaceOnUse">
<stop stop-color="#F2C94C"/>
<stop offset="0.645833" stop-color="#F2BD1B"/>
<stop offset="1" stop-color="#E1AC09"/>
</linearGradient>
<clipPath id="clip0">
<rect width="120" height="120" fill="white" transform="translate(88.9771 730.395)"/>
</clipPath>
<clipPath id="clip1">
<rect width="120" height="120" fill="white" transform="translate(268.977 730.395)"/>
</clipPath>
<clipPath id="clip2">
<rect width="120" height="120" fill="white" transform="translate(448.977 730.395)"/>
</clipPath>
<clipPath id="clip3">
<rect width="54.2422" height="42.1154" fill="white" transform="translate(287.626 132.267)"/>
</clipPath>
</defs>
</svg>