<svg width="140" height="140" viewBox="0 0 140 140" fill="none" xmlns="http://www.w3.org/2000/svg">
<path d="M124.499 24.5332C105.094 3.40872 74.1192 4.22312 70.0019 4.4303C65.8845 4.22312 34.903 3.40872 15.5046 24.5332C2.81006 38.3567 -2.12516 58.4025 0.83178 84.0491C0.887703 84.6349 2.21587 98.5227 11.4152 112.439C19.9226 125.305 37.0141 140.529 69.9599 139.986C70.5401 139.993 71.1134 140 71.6796 140C103.598 140 120.228 125.084 128.588 112.439C137.788 98.5227 139.123 84.6349 139.165 84.1205C142.129 58.4025 137.194 38.3567 124.499 24.5332Z" fill="#0C3D76"/>
<path d="M123.905 19.6823C104.681 -0.863519 73.8956 -0.127696 69.9949 0.0509014C66.0873 -0.127696 35.3085 -0.870663 16.0849 19.6823C3.43226 33.2058 -1.49599 52.68 1.41901 77.5265C1.47494 78.0981 2.81011 91.7358 11.9536 105.309C20.2722 117.661 36.7695 132.235 68.2473 132.235C68.7996 132.235 69.3658 132.227 69.925 132.22C70.4912 132.227 71.0575 132.235 71.6097 132.235C103.255 132.235 119.76 117.59 128.036 105.309C137.201 91.7001 138.508 78.1552 138.557 77.6408C141.486 52.7015 136.558 33.2058 123.905 19.6823Z" fill="#213664"/>
<path d="M69.9948 4.42314C65.3671 4.17311 -3.1249 1.73704 5.71796 77.1267C5.71796 77.1267 10.4295 128.827 69.9948 127.856C129.56 128.82 134.272 77.1267 134.272 77.1267C143.121 1.73704 74.6224 4.17311 69.9948 4.42314Z" fill="#6F9ACD"/>
<path d="M69.9948 26.8262C73.8955 26.6905 121.682 25.5689 134.293 52.78C127.288 2.30836 74.0562 4.20864 69.9948 4.42296C65.9334 4.2015 12.7084 2.30836 5.69702 52.7729C18.3077 25.5689 66.0942 26.6834 69.9948 26.8262Z" fill="#A1C0ED"/>
<path d="M69.9948 110.396C30.2963 110.817 14.1414 96.451 7.67529 86.1709C12.1282 100.945 26.3047 128.57 69.9948 127.863C113.685 128.57 127.861 100.945 132.314 86.1709C125.848 96.451 109.693 110.817 69.9948 110.396Z" fill="#3F76B7"/>
<path d="M89.5191 114.575C89.589 119.361 97.586 120.047 104.094 117.568C110.595 115.089 116.153 110.789 114.517 106.302C112.881 101.816 108.456 108.167 100.788 110.531C94.1397 112.575 89.4631 110.76 89.5191 114.575Z" fill="#73A6F3"/>
<g clip-path="url(#clip0)">
<path d="M77.0063 60.3442L76.9577 60.3258V51.0103C76.9577 48.7763 75.7915 46.8299 73.9874 46.0526C72.4325 45.3794 70.7378 45.7038 69.4683 46.9156L59.9015 55.8211H53.1531C50.8207 55.8211 46.8057 58.8385 46.8057 61.9294V79.9912C46.8057 83.0821 50.8207 86.0934 53.1531 86.0934H59.9015L69.4561 94.9928C70.2761 95.7762 71.3087 96.2107 72.3656 96.2107C72.9184 96.2107 73.4651 96.0945 73.9935 95.868C75.7975 95.0907 76.9638 93.1443 76.9638 90.9103V81.5581L77.0124 81.5397C81.3918 79.826 84.2224 75.664 84.2224 70.9389C84.2163 66.2138 81.3857 62.0579 77.0063 60.3442Z" fill="#A1C0ED"/>
<path d="M70.7135 48.3661L60.6183 57.7673H53.1532C51.6346 57.7673 48.6279 60.1482 48.6279 62.0395V71.0673V80.1013C48.6279 81.9926 51.6346 84.3735 53.1532 84.3735H60.6122L70.7074 93.7747C72.5054 95.5007 75.1355 93.891 75.1355 91.0204V71.0673V51.1143C75.1416 48.2498 72.5114 46.6462 70.7135 48.3661Z" fill="#0C3D76"/>
<path d="M76.3503 62.168V79.936C79.8855 78.5528 82.4002 75.1007 82.4002 71.0489C82.3941 67.0032 79.8855 63.5512 76.3503 62.168Z" fill="#0C3D76"/>
<path d="M70.7135 48.403L60.6183 57.8103H53.1532C51.6346 57.8103 48.6279 60.1851 48.6279 62.0824V67.6032C48.6279 65.7119 51.6346 63.331 53.1532 63.331H60.6122L70.7074 53.9298C72.5054 52.21 75.1355 53.8135 75.1355 56.6841V51.1633C75.1416 48.2867 72.5114 46.6831 70.7135 48.403Z" fill="#213664"/>
<path d="M81.9871 73.8523C82.2483 72.977 82.3941 72.0528 82.3941 71.0919C82.3941 67.0401 79.8855 63.5942 76.3442 62.2109V67.7317C79.0472 68.7783 81.1428 71.0429 81.9871 73.8523Z" fill="#213664"/>
</g>
<defs>
<clipPath id="clip0">
<rect width="68" height="60" fill="white" transform="translate(46.8057 40.189)"/>
</clipPath>
</defs>
</svg>
