<svg width="60" height="60" viewBox="0 0 60 60" fill="none" xmlns="http://www.w3.org/2000/svg">
<path d="M53.3568 10.5142C45.0402 1.46088 31.7654 1.80991 30.0008 1.8987C28.2362 1.80991 14.9584 1.46088 6.64485 10.5142C1.20431 16.4386 -0.910784 25.0296 0.356477 36.021C0.380444 36.2721 0.949658 42.224 4.89225 48.1881C8.53825 53.7022 15.8632 60.2266 29.9828 59.9939C30.2315 59.997 30.4772 60.0001 30.7198 60.0001C44.3991 60.0001 51.5263 53.6073 55.1094 48.1881C59.0519 42.224 59.6242 36.2721 59.6421 36.0517C60.9124 25.0296 58.7973 16.4386 53.3568 10.5142Z" fill="#0C3D76"/>
<path d="M53.102 8.43529C44.8633 -0.37008 31.6695 -0.0547269 29.9978 0.0218149C28.323 -0.0547269 15.1322 -0.373141 6.89346 8.43529C1.4709 14.231 -0.641207 22.5772 0.608079 33.2257C0.632046 33.4706 1.20426 39.3153 5.12289 45.1325C8.68799 50.4261 15.7583 56.672 29.2488 56.672C29.4855 56.672 29.7281 56.6689 29.9678 56.6658C30.2105 56.6689 30.4531 56.672 30.6898 56.672C44.2522 56.672 51.3255 50.3955 54.8726 45.1325C58.8002 39.3 59.3605 33.4951 59.3814 33.2746C60.6367 22.5863 58.5246 14.231 53.102 8.43529Z" fill="#213664"/>
<path d="M29.9978 1.89535C28.0145 1.7882 -1.33921 0.744166 2.45059 33.054C2.45059 33.054 4.46982 55.2113 29.9978 54.795C55.5257 55.2083 57.545 33.054 57.545 33.054C61.3378 0.744166 31.9811 1.7882 29.9978 1.89535Z" fill="#F7F2E0"/>
<path d="M29.9978 11.4969C31.6696 11.4387 52.1495 10.958 57.554 22.6199C54.5522 0.989227 31.7385 1.80363 29.9978 1.89548C28.2572 1.80057 5.44653 0.989229 2.44165 22.6169C7.84624 10.958 28.3261 11.4357 29.9978 11.4969Z" fill="#FBF8F0"/>
<path d="M29.9979 47.3123C12.9842 47.493 6.06075 41.3359 3.28955 36.9302C5.19793 43.2617 11.2736 55.1012 29.9979 54.7981C48.7222 55.1012 54.7979 43.2617 56.7063 36.9302C53.9351 41.3359 47.0116 47.493 29.9979 47.3123Z" fill="#F1E0AD"/>
<g clip-path="url(#clip0)">
<path d="M28.3716 25.6723L28.3508 25.6644V21.672C28.3508 20.7146 27.851 19.8805 27.0778 19.5473C26.4114 19.2588 25.6851 19.3978 25.141 19.9172L21.041 23.7338H18.1488C17.1492 23.7338 15.4285 25.027 15.4285 26.3517V34.0924C15.4285 35.4171 17.1492 36.7077 18.1488 36.7077H21.041L25.1358 40.5217C25.4872 40.8574 25.9298 41.0437 26.3827 41.0437C26.6196 41.0437 26.8539 40.9938 27.0804 40.8968C27.8536 40.5636 28.3534 39.7295 28.3534 38.772V34.7639L28.3742 34.7561C30.2511 34.0216 31.4642 32.2379 31.4642 30.2129C31.4616 28.1878 30.2485 26.4067 28.3716 25.6723Z" fill="#A1C0ED"/>
<path d="M25.6747 20.539L21.3482 24.568H18.1489C17.4981 24.568 16.2095 25.5884 16.2095 26.399V30.268V34.1398C16.2095 34.9503 17.4981 35.9707 18.1489 35.9707H21.3456L25.6721 39.9998C26.4427 40.7395 27.5699 40.0496 27.5699 38.8194V30.268V21.7167C27.5725 20.4891 26.4453 19.8019 25.6747 20.539Z" fill="#0C3D76"/>
<path d="M28.0906 26.4541V34.069C29.6056 33.4762 30.6834 31.9967 30.6834 30.2602C30.6808 28.5264 29.6056 27.0469 28.0906 26.4541Z" fill="#0C3D76"/>
<path d="M25.6747 20.5545L21.3482 24.5862H18.1489C17.4981 24.5862 16.2095 25.6039 16.2095 26.4171V28.7831C16.2095 27.9726 17.4981 26.9522 18.1489 26.9522H21.3456L25.6721 22.9231C26.4427 22.186 27.5699 22.8733 27.5699 24.1035V21.7375C27.5725 20.5046 26.4453 19.8174 25.6747 20.5545Z" fill="#213664"/>
<path d="M30.5063 31.4613C30.6182 31.0862 30.6807 30.6901 30.6807 30.2783C30.6807 28.5418 29.6056 27.065 28.0879 26.4722V28.8382C29.2463 29.2868 30.1444 30.2573 30.5063 31.4613Z" fill="#213664"/>
</g>
<path d="M45.3616 33.2788L42.5856 30.4952L45.3616 27.7212C46.2128 26.8706 46.2128 25.4885 45.3616 24.6379C44.5104 23.7874 43.1272 23.7874 42.276 24.6379L39.5 27.4216L36.724 24.6379C35.8728 23.7874 34.4896 23.7874 33.6384 24.6379C32.7872 25.4885 32.7872 26.8706 33.6384 27.7212L36.4144 30.4952L33.6384 33.2788C32.7872 34.1294 32.7872 35.5115 33.6384 36.3621C34.4896 37.2126 35.8728 37.2126 36.724 36.3621L39.5 33.5881L42.276 36.3621C43.1272 37.2126 44.5104 37.2126 45.3616 36.3621C46.2128 35.5019 46.2128 34.1294 45.3616 33.2788Z" fill="#0C3D76"/>
<path fill-rule="evenodd" clip-rule="evenodd" d="M44.6548 33.9862L44.6535 33.985L41.1721 30.4939L44.6548 27.0138C45.1151 26.5538 45.1151 25.8053 44.6548 25.3453C44.1942 24.8851 43.4442 24.8849 42.9834 25.3447C42.9833 25.3449 42.9836 25.3445 42.9834 25.3447L39.5 28.8377L36.0171 25.3453C36.0169 25.3451 36.0173 25.3455 36.0171 25.3453C35.5563 24.8854 34.8058 24.8851 34.3452 25.3453C33.8849 25.8053 33.8849 26.5538 34.3452 27.0138L37.8279 30.4939L34.3452 33.9862C33.8849 34.4462 33.8849 35.1947 34.3452 35.6547C34.806 36.1151 35.5564 36.1151 36.0171 35.6547L39.5 32.1744L42.9829 35.6547C43.4429 36.1144 44.1919 36.1151 44.6527 35.6567C45.1186 35.1838 45.1122 34.4433 44.6548 33.9862ZM45.3616 36.3621C44.5104 37.2126 43.1272 37.2126 42.276 36.3621L39.5 33.5881L36.724 36.3621C35.8728 37.2126 34.4896 37.2126 33.6384 36.3621C32.7872 35.5115 32.7872 34.1294 33.6384 33.2788L36.4144 30.4952L33.6384 27.7212C32.7872 26.8706 32.7872 25.4885 33.6384 24.6379C34.4896 23.7874 35.8728 23.7874 36.724 24.6379L39.5 27.4216L42.276 24.6379C43.1272 23.7874 44.5104 23.7874 45.3616 24.6379C46.2128 25.4885 46.2128 26.8706 45.3616 27.7212L42.5858 30.4949L45.3616 33.2788C46.2128 34.1294 46.2128 35.5019 45.3616 36.3621Z" fill="#A1C0ED"/>
<defs>
<clipPath id="clip0">
<rect width="29.1429" height="25.7143" fill="white" transform="translate(15.4285 17.0347)"/>
</clipPath>
</defs>
</svg>
