<svg width="140" height="141" viewBox="0 0 140 141" fill="none" xmlns="http://www.w3.org/2000/svg">
<g clip-path="url(#clip0)">
<path d="M124.499 25.3443C105.094 4.21975 74.1192 5.03416 70.0019 5.24133C65.8845 5.03416 34.903 4.21975 15.5046 25.3443C2.81006 39.1677 -2.12516 59.2135 0.83178 84.8601C0.887703 85.4459 2.21587 99.3337 11.4152 113.25C19.9226 126.116 37.0141 141.34 69.9599 140.797C70.5401 140.804 71.1134 140.811 71.6796 140.811C103.598 140.811 120.228 125.895 128.588 113.25C137.788 99.3337 139.123 85.4459 139.165 84.9316C142.129 59.2135 137.194 39.1677 124.499 25.3443Z" fill="#0C3D76"/>
<path d="M123.905 20.4934C104.681 -0.0524841 73.8956 0.683339 69.9949 0.861937C66.0873 0.683339 35.3085 -0.0596281 16.0849 20.4934C3.43226 34.0168 -1.49599 53.4911 1.41901 78.3376C1.47494 78.9091 2.81011 92.5468 11.9536 106.12C20.2722 118.472 36.7695 133.046 68.2473 133.046C68.7996 133.046 69.3658 133.038 69.925 133.031C70.4912 133.038 71.0575 133.046 71.6097 133.046C103.255 133.046 119.76 118.401 128.036 106.12C137.201 92.5111 138.508 78.9662 138.557 78.4519C141.486 53.5125 136.558 34.0168 123.905 20.4934Z" fill="#213664"/>
<path d="M69.9948 5.23418C65.3671 4.98414 -3.1249 2.54807 5.71796 77.9377C5.71796 77.9377 10.4295 129.638 69.9948 128.667C129.56 129.631 134.272 77.9377 134.272 77.9377C143.121 2.54807 74.6224 4.98414 69.9948 5.23418Z" fill="#6F9ACD"/>
<path d="M69.9948 27.6373C73.8955 27.5015 121.682 26.3799 134.293 53.5911C127.288 3.11939 74.0562 5.01968 69.9948 5.23399C65.9334 5.01253 12.7084 3.1194 5.69702 53.5839C18.3077 26.38 66.0942 27.4944 69.9948 27.6373Z" fill="#A1C0ED"/>
<path d="M69.9948 111.206C30.2963 111.628 14.1414 97.2615 7.67529 86.9814C12.1282 101.755 26.3047 129.381 69.9948 128.673C113.685 129.381 127.861 101.755 132.314 86.9814C125.848 97.2615 109.693 111.628 69.9948 111.206Z" fill="#3F76B7"/>
<path d="M89.5191 115.386C89.589 120.172 97.586 120.858 104.094 118.379C110.595 115.9 116.153 111.6 114.517 107.113C112.881 102.627 108.456 108.978 100.788 111.342C94.1397 113.386 89.4631 111.571 89.5191 115.386Z" fill="#73A6F3"/>
<g clip-path="url(#clip1)">
<path d="M81.0398 51.2708C79.9768 50.1997 78.5616 49.606 77.0552 49.606C75.5488 49.606 74.1335 50.1997 73.0705 51.2708C70.8778 53.4864 70.8778 57.0914 73.0705 59.3071C76.1562 62.4163 77.8509 66.5477 77.8509 70.9484C77.8509 75.3491 76.1501 79.4805 73.0645 82.5897C70.8717 84.8054 70.8717 88.4104 73.0705 90.6322C74.1153 91.6849 75.5245 92.2664 77.0309 92.2664C78.5373 92.2664 80.0194 91.6298 80.9791 90.5832C86.2089 85.3991 89.1063 78.4645 89.1366 71.0525C89.1609 63.5854 86.2879 56.5589 81.0398 51.2708Z" fill="#A1C0ED"/>
<path d="M92.368 42.7264C91.3657 41.6553 90.0112 41.0432 88.5534 41.0065C87.0227 40.9514 85.571 41.5329 84.423 42.6468C83.3661 43.7118 82.783 45.1379 82.783 46.668C82.783 48.1921 83.3661 49.6243 84.423 50.6893C89.8107 56.1182 92.7749 63.3221 92.7749 70.979C92.7749 78.6419 89.8107 85.8459 84.423 91.2748C83.3661 92.3398 82.783 93.7659 82.783 95.2899C82.783 96.8139 83.3661 98.2461 84.423 99.305C85.492 100.382 86.9316 101 88.3833 101C89.8654 101 91.3111 100.401 92.3497 99.3601C99.8634 91.7828 104 81.7267 104 71.0279C104 60.3475 99.8695 50.2975 92.368 42.7264Z" fill="#A1C0ED"/>
<path d="M66.2006 61.1552L66.152 61.1369V51.8213C66.152 49.5873 64.9858 47.641 63.1818 46.8637C61.6268 46.1904 59.9321 46.5148 58.6626 47.7267L49.0958 56.6321H42.3475C40.015 56.6321 36 59.6496 36 62.7404V80.8023C36 83.8932 40.015 86.9045 42.3475 86.9045H49.0958L58.6505 95.8038C59.4705 96.5872 60.5031 97.0218 61.56 97.0218C62.1127 97.0218 62.6594 96.9055 63.1878 96.679C64.9919 95.9017 66.1581 93.9554 66.1581 91.7214V82.3691L66.2067 82.3508C70.5862 80.637 73.4167 76.475 73.4167 71.7499C73.4106 67.0248 70.5801 62.869 66.2006 61.1552Z" fill="#A1C0ED"/>
<path d="M59.9078 49.1777L49.8126 58.5789H42.3475C40.829 58.5789 37.8223 60.9598 37.8223 62.851V71.8789V80.9128C37.8223 82.8041 40.829 85.185 42.3475 85.185H49.8065L59.9018 94.5862C61.6997 96.3122 64.3298 94.7025 64.3298 91.8319V71.8789V51.9258C64.3359 49.0614 61.7058 47.4578 59.9078 49.1777Z" fill="#0C3D76"/>
<path d="M79.7521 52.6783C78.2822 51.1971 75.8222 51.1971 74.3522 52.6783C72.8823 54.1656 72.8823 56.6322 74.3522 58.1195C81.4407 65.2622 81.4407 76.8545 74.3522 83.9973C72.8823 85.4846 72.8823 87.9573 74.3522 89.4446C75.1115 90.2096 76.0955 90.5401 77.0248 90.5401C77.9481 90.5401 78.9868 90.1546 79.6975 89.3834C89.8413 79.3273 89.8413 62.8445 79.7521 52.6783Z" fill="#0C3D76"/>
<path d="M91.0561 44.1096C89.6348 42.5672 87.2355 42.5672 85.7109 44.0545C84.2409 45.5357 84.2409 48.0084 85.7109 49.4957C91.4327 55.2613 94.5973 62.8997 94.5973 71.0891C94.5973 79.2784 91.4327 86.9169 85.7109 92.6825C84.2409 94.1636 84.2409 96.6364 85.7109 98.1236C86.4762 98.8948 87.4602 99.2804 88.3835 99.2804C89.3675 99.2804 90.3454 98.8948 91.0622 98.1787C98.1993 90.9809 102.178 81.3655 102.178 71.1442C102.178 60.9228 98.254 51.3625 91.0561 44.1096Z" fill="#0C3D76"/>
<path d="M65.5447 62.9795V80.7475C69.0798 79.3643 71.5945 75.9123 71.5945 71.8604C71.5884 67.8147 69.0798 64.3627 65.5447 62.9795Z" fill="#0C3D76"/>
<path d="M59.9078 49.214L49.8126 58.6213H42.3475C40.829 58.6213 37.8223 60.9961 37.8223 62.8935V68.4142C37.8223 66.523 40.829 64.1421 42.3475 64.1421H49.8065L59.9018 54.7409C61.6997 53.021 64.3298 54.6246 64.3298 57.4951V51.9744C64.3359 49.0977 61.7058 47.4941 59.9078 49.214Z" fill="#213664"/>
<path d="M74.3947 58.2053C75.8707 56.7608 78.2883 56.7731 79.7521 58.242C84.0891 62.6121 86.5612 68.1573 87.1626 73.8495C87.9583 66.3273 85.4922 58.4991 79.7521 52.7212C78.2822 51.2401 75.8222 51.2401 74.3522 52.7212C72.8823 54.2085 72.8823 56.6751 74.3522 58.1624C74.3704 58.1747 74.3826 58.1869 74.3947 58.2053Z" fill="#213664"/>
<path d="M74.3887 89.5119C78.6041 85.2397 80.2927 79.3946 79.4606 73.8555C78.9017 77.5829 77.201 81.1696 74.3522 84.034C72.8823 85.5213 72.8823 87.994 74.3522 89.4813C74.3644 89.4935 74.3765 89.4997 74.3887 89.5119Z" fill="#213664"/>
<path d="M85.7544 49.5754C87.2851 48.1309 89.6479 48.1432 91.0571 49.6672C97.599 56.259 101.426 64.7605 102.07 73.9291C102.136 73.0172 102.179 72.0991 102.179 71.181C102.179 60.9596 98.255 51.3993 91.0632 44.1525C89.6418 42.6102 87.2425 42.6102 85.7179 44.0975C84.248 45.5786 84.248 48.0513 85.7179 49.5386C85.724 49.5448 85.7422 49.5631 85.7544 49.5754Z" fill="#213664"/>
<path d="M85.7534 98.1972C91.4509 92.4316 94.5973 84.8176 94.5973 76.6466C94.5973 75.7163 94.5487 74.7982 94.4698 73.8862C93.8441 81.0167 90.7888 87.6024 85.7109 92.7192C84.2409 94.2004 84.2409 96.6731 85.7109 98.1604C85.723 98.1727 85.7412 98.1849 85.7534 98.1972Z" fill="#213664"/>
<path d="M71.1814 74.6638C71.4426 73.7886 71.5884 72.8643 71.5884 71.9034C71.5884 67.8516 69.0798 64.4057 65.5386 63.0225V68.5432C68.2416 69.5898 70.3371 71.8545 71.1814 74.6638Z" fill="#213664"/>
</g>
</g>
<defs>
<clipPath id="clip0">
<rect width="140" height="140" fill="white" transform="translate(0 0.811035)"/>
</clipPath>
<clipPath id="clip1">
<rect width="68" height="60" fill="white" transform="translate(36 41)"/>
</clipPath>
</defs>
</svg>
