<svg width="60" height="60" viewBox="0 0 60 60" fill="none" xmlns="http://www.w3.org/2000/svg">
<path d="M53.3568 10.5142C45.0402 1.46088 31.7654 1.80991 30.0008 1.8987C28.2362 1.80991 14.9584 1.46088 6.64485 10.5142C1.20431 16.4386 -0.910784 25.0296 0.356477 36.021C0.380444 36.2721 0.949658 42.224 4.89225 48.1881C8.53825 53.7022 15.8632 60.2266 29.9828 59.9939C30.2315 59.997 30.4772 60.0001 30.7198 60.0001C44.3991 60.0001 51.5263 53.6073 55.1094 48.1881C59.0519 42.224 59.6242 36.2721 59.6421 36.0517C60.9124 25.0296 58.7973 16.4386 53.3568 10.5142Z" fill="#0C3D76"/>
<path d="M53.1023 8.43529C44.8636 -0.37008 31.6697 -0.0547269 29.998 0.0218149C28.3233 -0.0547269 15.1324 -0.373141 6.8937 8.43529C1.47114 14.231 -0.640963 22.5772 0.608323 33.2257C0.63229 33.4706 1.20451 39.3153 5.12313 45.1325C8.68824 50.4261 15.7585 56.672 29.249 56.672C29.4857 56.672 29.7284 56.6689 29.968 56.6658C30.2107 56.6689 30.4534 56.672 30.69 56.672C44.2524 56.672 51.3257 50.3955 54.8729 45.1325C58.8005 39.3 59.3607 33.4951 59.3817 33.2747C60.6369 22.5863 58.5248 14.231 53.1023 8.43529Z" fill="#213664"/>
<path d="M29.9978 1.89584C28.0145 1.78868 -1.33921 0.744654 2.45059 33.0545C2.45059 33.0545 4.46982 55.2118 29.9978 54.7955C55.5257 55.2088 57.545 33.0545 57.545 33.0545C61.3378 0.744654 31.9811 1.78868 29.9978 1.89584Z" fill="#F7F2E0"/>
<path d="M29.9981 11.4974C31.6698 11.4392 52.1497 10.9585 57.5543 22.6204C54.5524 0.989715 31.7387 1.80412 29.9981 1.89597C28.2575 1.80106 5.44677 0.989718 2.44189 22.6174C7.84648 10.9585 28.3264 11.4361 29.9981 11.4974Z" fill="#FBF8F0"/>
<path d="M29.9979 47.3128C12.9842 47.4934 6.06075 41.3364 3.28955 36.9307C5.19793 43.2622 11.2736 55.1017 29.9979 54.7986C48.7222 55.1017 54.7979 43.2622 56.7063 36.9307C53.9351 41.3364 47.0116 47.4934 29.9979 47.3128Z" fill="#F1E0AD"/>
<g clip-path="url(#clip0)">
<path d="M34.7314 21.6256C34.2758 21.1666 33.6693 20.9121 33.0237 20.9121C32.3781 20.9121 31.7715 21.1666 31.316 21.6256C30.3762 22.5752 30.3762 24.1202 31.316 25.0697C32.6384 26.4023 33.3647 28.1729 33.3647 30.0589C33.3647 31.9449 32.6358 33.7155 31.3134 35.048C30.3736 35.9976 30.3736 37.5426 31.316 38.4948C31.7637 38.9459 32.3677 39.1951 33.0133 39.1951C33.6589 39.1951 34.294 38.9223 34.7054 38.4738C36.9467 36.252 38.1884 33.28 38.2015 30.1035C38.2119 26.9033 36.9806 23.892 34.7314 21.6256Z" fill="#A1C0ED"/>
<path d="M39.5864 17.9632C39.1568 17.5042 38.5763 17.2419 37.9516 17.2261C37.2956 17.2025 36.6734 17.4517 36.1814 17.9291C35.7284 18.3856 35.4785 18.9967 35.4785 19.6525C35.4785 20.3057 35.7284 20.9195 36.1814 21.3759C38.4904 23.7026 39.7608 26.79 39.7608 30.0715C39.7608 33.3556 38.4904 36.443 36.1814 38.7697C35.7284 39.2261 35.4785 39.8373 35.4785 40.4905C35.4785 41.1436 35.7284 41.7574 36.1814 42.2112C36.6395 42.6729 37.2565 42.9378 37.8787 42.9378C38.5139 42.9378 39.1334 42.6807 39.5786 42.2348C42.7987 38.9874 44.5715 34.6777 44.5715 30.0925C44.5715 25.5152 42.8013 21.208 39.5864 17.9632Z" fill="#A1C0ED"/>
<path d="M28.3718 25.8617L28.351 25.8539V21.8615C28.351 20.9041 27.8512 20.0699 27.078 19.7368C26.4116 19.4482 25.6853 19.5873 25.1413 20.1066L21.0412 23.9232H18.1491C17.1494 23.9232 15.4287 25.2164 15.4287 26.5411V34.2819C15.4287 35.6066 17.1494 36.8971 18.1491 36.8971H21.0412L25.1361 40.7111C25.4875 41.0469 25.93 41.2331 26.383 41.2331C26.6199 41.2331 26.8542 41.1833 27.0806 41.0862C27.8538 40.7531 28.3536 39.9189 28.3536 38.9615V34.9534L28.3744 34.9455C30.2514 34.2111 31.4644 32.4274 31.4644 30.4023C31.4618 28.3773 30.2487 26.5962 28.3718 25.8617Z" fill="#A1C0ED"/>
<path d="M25.6747 20.7284L21.3482 24.7575H18.1489C17.4981 24.7575 16.2095 25.7779 16.2095 26.5884V30.4575V34.3292C16.2095 35.1397 17.4981 36.1601 18.1489 36.1601H21.3456L25.6721 40.1892C26.4427 40.9289 27.5699 40.2391 27.5699 39.0088V30.4575V21.9062C27.5725 20.6786 26.4453 19.9913 25.6747 20.7284Z" fill="#0C3D76"/>
<path d="M34.1793 22.229C33.5493 21.5942 32.495 21.5942 31.8651 22.229C31.2351 22.8664 31.2351 23.9235 31.8651 24.561C34.903 27.6221 34.903 32.5903 31.8651 35.6514C31.2351 36.2889 31.2351 37.3486 31.8651 37.986C32.1905 38.3139 32.6122 38.4555 33.0105 38.4555C33.4062 38.4555 33.8513 38.2903 34.1559 37.9598C38.5032 33.65 38.5032 26.586 34.1793 22.229Z" fill="#0C3D76"/>
<path d="M39.024 18.5564C38.4149 17.8954 37.3866 17.8954 36.7332 18.5328C36.1032 19.1676 36.1032 20.2273 36.7332 20.8647C39.1854 23.3357 40.5417 26.6093 40.5417 30.119C40.5417 33.6287 39.1854 36.9024 36.7332 39.3733C36.1032 40.0081 36.1032 41.0679 36.7332 41.7053C37.0612 42.0358 37.4829 42.201 37.8786 42.201C38.3004 42.201 38.7195 42.0358 39.0266 41.7289C42.0854 38.6441 43.7905 34.5232 43.7905 30.1426C43.7905 25.762 42.1088 21.6648 39.024 18.5564Z" fill="#0C3D76"/>
<path d="M28.0903 26.6436V34.2584C29.6054 33.6656 30.6831 32.1862 30.6831 30.4497C30.6805 28.7158 29.6054 27.2364 28.0903 26.6436Z" fill="#0C3D76"/>
<path d="M25.6747 20.7429L21.3482 24.7747H18.1489C17.4981 24.7747 16.2095 25.7924 16.2095 26.6056V28.9716C16.2095 28.1611 17.4981 27.1407 18.1489 27.1407H21.3456L25.6721 23.1116C26.4427 22.3745 27.5699 23.0618 27.5699 24.292V21.926C27.5725 20.6931 26.4453 20.0058 25.6747 20.7429Z" fill="#213664"/>
<path d="M31.8833 24.5969C32.5159 23.9778 33.5519 23.9831 34.1793 24.6126C36.038 26.4855 37.0975 28.8621 37.3552 31.3016C37.6962 28.0778 36.6393 24.7228 34.1793 22.2466C33.5493 21.6118 32.495 21.6118 31.8651 22.2466C31.2351 22.884 31.2351 23.9411 31.8651 24.5785C31.8729 24.5838 31.8781 24.589 31.8833 24.5969Z" fill="#213664"/>
<path d="M31.8807 38.0136C33.6873 36.1827 34.411 33.6776 34.0544 31.3037C33.8149 32.9012 33.086 34.4383 31.8651 35.6659C31.2351 36.3033 31.2351 37.3631 31.8651 38.0005C31.8703 38.0057 31.8755 38.0084 31.8807 38.0136Z" fill="#213664"/>
<path d="M36.7528 20.898C37.4088 20.279 38.4214 20.2842 39.0253 20.9374C41.829 23.7625 43.469 27.4059 43.745 31.3354C43.7736 30.9445 43.7918 30.551 43.7918 30.1576C43.7918 25.777 42.1101 21.6797 39.0279 18.574C38.4188 17.9129 37.3905 17.9129 36.7371 18.5503C36.1072 19.1851 36.1072 20.2449 36.7371 20.8823C36.7397 20.8849 36.7475 20.8928 36.7528 20.898Z" fill="#213664"/>
<path d="M36.7514 41.7363C39.1933 39.2654 40.5417 36.0022 40.5417 32.5004C40.5417 32.1017 40.5209 31.7082 40.487 31.3174C40.2189 34.3733 38.9095 37.1958 36.7332 39.3887C36.1032 40.0235 36.1032 41.0832 36.7332 41.7206C36.7384 41.7259 36.7462 41.7311 36.7514 41.7363Z" fill="#213664"/>
<path d="M30.5063 31.6503C30.6182 31.2752 30.6807 30.8791 30.6807 30.4673C30.6807 28.7308 29.6056 27.254 28.0879 26.6611V29.0272C29.2463 29.4757 30.1444 30.4463 30.5063 31.6503Z" fill="#213664"/>
</g>
<defs>
<clipPath id="clip0">
<rect width="29.1429" height="25.7143" fill="white" transform="translate(15.4287 17.2236)"/>
</clipPath>
</defs>
</svg>
