<svg width="60" height="60" viewBox="0 0 60 60" fill="none" xmlns="http://www.w3.org/2000/svg">
<path d="M53.3568 10.5142C45.0402 1.46088 31.7654 1.80991 30.0008 1.8987C28.2362 1.80991 14.9584 1.46088 6.64485 10.5142C1.20431 16.4386 -0.910784 25.0296 0.356477 36.021C0.380444 36.2721 0.949658 42.224 4.89225 48.1881C8.53825 53.7022 15.8632 60.2266 29.9828 59.9939C30.2315 59.997 30.4772 60.0001 30.7198 60.0001C44.3991 60.0001 51.5263 53.6073 55.1094 48.1881C59.0519 42.224 59.6242 36.2721 59.6421 36.0517C60.9124 25.0296 58.7973 16.4386 53.3568 10.5142Z" fill="#0C3D76"/>
<path d="M53.1023 8.43529C44.8636 -0.37008 31.6697 -0.0547269 29.998 0.0218149C28.3233 -0.0547269 15.1324 -0.373141 6.8937 8.43529C1.47114 14.231 -0.640963 22.5772 0.608323 33.2257C0.63229 33.4706 1.20451 39.3153 5.12313 45.1325C8.68824 50.4261 15.7585 56.672 29.249 56.672C29.4857 56.672 29.7284 56.6689 29.968 56.6658C30.2107 56.6689 30.4534 56.672 30.69 56.672C44.2524 56.672 51.3257 50.3955 54.8729 45.1325C58.8005 39.3 59.3607 33.4951 59.3817 33.2746C60.6369 22.5863 58.5248 14.231 53.1023 8.43529Z" fill="#213664"/>
<path d="M29.9978 1.89535C28.0145 1.7882 -1.33921 0.744166 2.45059 33.054C2.45059 33.054 4.46982 55.2113 29.9978 54.795C55.5257 55.2083 57.545 33.054 57.545 33.054C61.3378 0.744166 31.9811 1.7882 29.9978 1.89535Z" fill="#F7F2E0"/>
<path d="M29.9981 11.4969C31.6698 11.4387 52.1497 10.958 57.5543 22.6199C54.5524 0.989227 31.7387 1.80363 29.9981 1.89548C28.2575 1.80057 5.44677 0.989229 2.44189 22.6169C7.84648 10.958 28.3264 11.4357 29.9981 11.4969Z" fill="#FBF8F0"/>
<path d="M29.9979 47.3123C12.9842 47.493 6.06075 41.3359 3.28955 36.9302C5.19793 43.2617 11.2736 55.1012 29.9979 54.7981C48.7222 55.1012 54.7979 43.2617 56.7063 36.9302C53.9351 41.3359 47.0116 47.493 29.9979 47.3123Z" fill="#F1E0AD"/>
<path d="M36.8212 42.9941V36.8212L42.9941 36.8212C45.0209 36.8212 46.6692 35.173 46.6715 33.1438L46.6715 27.2849C46.6715 26.3015 46.2883 25.3781 45.5934 24.6833C44.8986 23.9884 43.9752 23.6052 42.9918 23.6052L36.8212 23.6075L36.8235 17.4323C36.8212 15.4032 35.1706 13.7572 33.1438 13.7572H27.2849C26.3015 13.7572 25.3804 14.1381 24.6856 14.833C23.9907 15.5278 23.6075 16.4512 23.6098 17.4323L23.6098 23.6052L17.4346 23.6075C16.4512 23.6075 15.5278 23.9907 14.833 24.6856C14.1381 25.3804 13.7549 26.3038 13.7572 27.2849L13.7572 33.1438C13.7572 35.1707 15.4078 36.8212 17.4346 36.8212L23.6075 36.8212V42.9941C23.6075 43.9775 23.9884 44.8986 24.6833 45.5934C25.3781 46.2883 26.3015 46.6715 27.2826 46.6692L33.1438 46.6715C34.1272 46.6715 35.0506 46.2883 35.7432 45.5957C36.438 44.9009 36.8212 43.9775 36.8212 42.9941Z" fill="#A1C0ED"/>
<path d="M35.7151 42.9551L35.7174 35.6396L43.0307 35.6396C44.4296 35.6396 45.5654 34.5038 45.5654 33.1049L45.5654 27.2459C45.5654 25.847 44.4296 24.7112 43.0307 24.7112L35.7174 24.7112L35.7174 17.398C35.7174 15.9991 34.5817 14.8633 33.1804 14.8656L27.3215 14.861C25.9226 14.861 24.7891 15.9944 24.7891 17.3934L24.7891 24.7112L17.4713 24.7112C16.0723 24.7112 14.9366 25.847 14.9366 27.2459L14.9366 33.1049C14.9366 34.5038 16.0723 35.6396 17.4713 35.6396L24.7868 35.6372V42.9551C24.7868 44.354 25.9226 45.4898 27.3192 45.4875L33.1804 45.4898C34.5794 45.4898 35.7174 44.3564 35.7151 42.9551Z" fill="#0C3D76"/>
<path d="M35.7155 42.9547L35.7178 35.6392L33.7163 37.6406L33.714 44.9562C33.714 45.1224 33.6979 45.2863 33.6678 45.4409C34.8359 45.2147 35.7178 44.1898 35.7155 42.9547Z" fill="#213664"/>
<path d="M17.4715 24.7109C16.2387 24.7109 15.2115 25.5905 14.9852 26.7586C15.1422 26.7262 15.3061 26.7101 15.4723 26.7101L22.7902 26.7101L24.7916 24.7086L17.4715 24.7109Z" fill="#213664"/>
<path d="M43.5641 35.106C43.5641 35.2722 43.5457 35.4338 43.5157 35.5931C44.6814 35.3645 45.5633 34.3396 45.5633 33.1069L45.5656 27.2456C45.5656 25.8467 44.4298 24.7109 43.0309 24.7109L35.7176 24.7109L35.7176 17.3977C35.7176 15.9988 34.5819 14.863 33.1806 14.8653L27.3217 14.8607C26.089 14.8607 25.0617 15.7402 24.8355 16.9083C24.9925 16.876 25.1541 16.8621 25.3203 16.8621L31.1792 16.8621C32.5781 16.8621 33.7162 17.9956 33.7162 19.3945L33.7139 26.7101L41.0294 26.7078C42.4284 26.7078 43.5641 27.8435 43.5641 29.2425L43.5641 35.106Z" fill="#213664"/>
</svg>
