<svg width="61" height="61" viewBox="0 0 61 61" fill="none" xmlns="http://www.w3.org/2000/svg">
<g clip-path="url(#clip0)">
<path d="M53.9666 11.3252C45.65 2.27182 32.3752 2.6178 30.6107 2.70965C28.8461 2.62086 15.5683 2.27182 7.25472 11.3252C1.81418 17.2495 -0.300922 25.8406 0.966339 36.832C0.990306 37.0831 1.55953 43.035 5.50212 48.9991C9.14812 54.5132 16.4731 61.0376 30.5927 60.8049C30.8414 60.808 31.087 60.811 31.3297 60.811C45.0089 60.811 52.1361 54.4183 55.7192 48.9991C59.6618 43.035 60.234 37.0831 60.252 36.8626C61.5223 25.8406 59.4072 17.2495 53.9666 11.3252Z" fill="#0C3D76"/>
<path d="M53.7119 9.24633C45.4732 0.440959 32.2793 0.756308 30.6076 0.83285C28.9329 0.756308 15.742 0.437897 7.50331 9.24633C2.08075 15.0421 -0.031343 23.3882 1.21794 34.0367C1.23891 34.2816 1.81412 40.1264 5.73274 45.9435C9.29785 51.2372 16.3681 57.483 29.8586 57.483C30.0953 57.483 30.338 57.4799 30.5777 57.4769C30.8203 57.4799 31.063 57.483 31.2997 57.483C44.865 57.483 51.9353 51.2066 55.4825 45.9435C59.4101 40.1111 59.9703 34.3061 59.9913 34.0857C61.2466 23.3974 59.1345 15.039 53.7119 9.24633Z" fill="#213664"/>
<path d="M30.6076 2.70639C28.6244 2.59923 -0.729346 1.55521 3.06045 33.865C3.06045 33.865 5.07968 56.0224 30.6076 55.606C56.1356 56.0193 58.1548 33.865 58.1548 33.865C61.9476 1.55521 32.5909 2.59923 30.6076 2.70639Z" fill="#F7F2E0"/>
<path d="M30.6077 12.3078C32.2794 12.2496 52.7593 11.7689 58.1639 23.4309C55.159 1.80319 32.3483 2.61454 30.6077 2.70945C28.8671 2.61454 6.05639 1.80319 3.05151 23.4309C8.4561 11.7689 28.936 12.2466 30.6077 12.3078Z" fill="#FBF8F0"/>
<path d="M30.6078 48.1233C13.5941 48.304 6.67061 42.147 3.89941 37.7412C5.8078 44.0728 11.8835 55.9122 30.6078 55.6091C49.3321 55.9122 55.4077 44.0728 57.3161 37.7412C54.5449 42.147 47.6244 48.304 30.6078 48.1233Z" fill="#F1E0AD"/>
<path d="M42.8368 19.9163C42.8188 19.3989 42.7829 18.8508 42.726 18.2477L42.6481 17.418H19.8433L19.7655 18.2477C19.7085 18.8355 19.6726 19.3805 19.6546 19.9071C16.461 21.4349 14.9091 25.2712 16.0386 28.9207C17.2219 32.7294 20.829 35.0624 24.472 34.4072C25.5745 35.5645 26.7818 36.4187 28.0731 36.9484V40.3376H27.7195C26.9526 40.3376 26.2456 40.7908 25.904 41.4858H24.499C23.3785 41.4858 22.4648 42.4196 22.4648 43.5647L22.4707 45.6895H39.79V43.5616C39.79 42.4165 38.8762 41.4827 37.7558 41.4827H36.3507C36.0092 40.7877 35.3021 40.3346 34.5352 40.3346H34.2746V37.0065C35.6137 36.483 36.872 35.6074 38.0134 34.4041C41.6504 35.0471 45.2515 32.7141 46.4319 28.9145C47.5583 25.2834 46.0124 21.4502 42.8368 19.9163ZM19.37 27.8858C18.9775 26.6213 19.1932 25.2742 19.9123 24.2914C20.2538 26.5907 20.9039 28.7094 21.8506 30.6046C20.7002 30.1576 19.7625 29.1472 19.37 27.8858ZM43.1004 27.8889C42.714 29.138 41.7822 30.1453 40.6438 30.6015C41.5845 28.7125 42.2346 26.603 42.5762 24.3129C43.2772 25.2926 43.4899 26.6336 43.1004 27.8889Z" fill="#A1C0ED"/>
<path d="M41.9471 20.5316C41.9441 19.7877 41.8992 19.0559 41.8303 18.3364H20.6583C20.5894 19.0529 20.5445 19.7815 20.5385 20.5255C17.4527 21.6614 15.826 25.1946 16.8925 28.642C17.986 32.166 21.4912 34.2602 24.7807 33.3999C26.003 34.7899 27.42 35.8002 28.9719 36.3023V41.2561H27.7196C27.0965 41.2561 26.5932 41.7705 26.5872 42.4042H24.499C23.8699 42.4042 23.3636 42.9217 23.3636 43.5646H23.3696V44.774H38.8913V43.5646C38.8913 42.9217 38.385 42.4042 37.7558 42.4042H35.6677C35.6617 41.7674 35.1584 41.2561 34.5353 41.2561H33.3759V36.3513C34.9787 35.8645 36.4466 34.8297 37.7049 33.4029C40.9884 34.251 44.4846 32.1629 45.5781 28.642C46.6416 25.2007 45.0239 21.6767 41.9471 20.5316ZM18.5133 28.1644C17.8002 25.8681 18.732 23.5168 20.6134 22.4881C20.889 26.0763 21.9555 29.2972 23.5464 31.7619C21.3743 31.9456 19.2353 30.4821 18.5133 28.1644ZM36.165 25.9079L34.0649 27.9991L34.5592 30.9536C34.5922 31.1465 34.5143 31.3393 34.3585 31.4557C34.2716 31.52 34.1668 31.5537 34.0619 31.5537C33.984 31.5537 33.9001 31.5353 33.8282 31.4955L31.2338 30.1024L28.6364 31.4955C28.4656 31.5873 28.2619 31.572 28.1061 31.4557C27.9503 31.3393 27.8754 31.1465 27.9054 30.9536L28.4027 27.9991L26.3026 25.9079C26.1648 25.7702 26.1168 25.5681 26.1737 25.3813C26.2337 25.1946 26.3894 25.0599 26.5812 25.0323L29.4812 24.6006L30.7814 21.9125C30.8653 21.7379 31.0391 21.6277 31.2308 21.6277C31.4225 21.6277 31.5963 21.7379 31.6802 21.9125L32.9774 24.6006L35.8804 25.0323C36.0692 25.0599 36.2279 25.1946 36.2879 25.3813C36.3508 25.5681 36.2998 25.7732 36.165 25.9079ZM43.9573 28.1644C43.2413 30.476 41.1052 31.9394 38.9422 31.768C40.53 29.3033 41.5966 26.0825 41.8752 22.4972C43.7476 23.529 44.6674 25.8743 43.9573 28.1644Z" fill="#0C3D76"/>
<path d="M20.2417 22.7207C20.3376 22.6534 20.4394 22.5921 20.5413 22.534C20.5473 21.8114 20.5922 21.1011 20.6581 20.4031H41.8301C41.896 21.1042 41.9409 21.8145 41.9469 22.5401C42.0488 22.5983 42.1476 22.6595 42.2405 22.7238C44.1878 23.5719 45.5 25.3966 45.8236 27.5214C46.267 24.4628 44.6911 21.5512 41.9469 20.5316C41.9439 19.7877 41.899 19.0559 41.8301 18.3364H20.6581C20.5892 19.0529 20.5443 19.7815 20.5383 20.5255C17.7881 21.5389 16.2032 24.4567 16.6466 27.5214C16.9732 25.3936 18.2884 23.5658 20.2417 22.7207Z" fill="#213664"/>
</g>
<defs>
<clipPath id="clip0">
<rect width="60" height="60" fill="white" transform="translate(0.609863 0.811035)"/>
</clipPath>
</defs>
</svg>
