<svg width="60" height="60" viewBox="0 0 60 60" fill="none" xmlns="http://www.w3.org/2000/svg">
<path d="M53.3568 10.5142C45.0402 1.46088 31.7654 1.80991 30.0008 1.8987C28.2362 1.80991 14.9584 1.46088 6.64485 10.5142C1.20431 16.4386 -0.910784 25.0296 0.356477 36.021C0.380444 36.2721 0.949658 42.224 4.89225 48.1881C8.53825 53.7022 15.8632 60.2266 29.9828 59.9939C30.2315 59.997 30.4772 60.0001 30.7198 60.0001C44.3991 60.0001 51.5263 53.6073 55.1094 48.1881C59.0519 42.224 59.6242 36.2721 59.6421 36.0517C60.9124 25.0296 58.7973 16.4386 53.3568 10.5142Z" fill="#0C3D76"/>
<path d="M53.102 8.43529C44.8633 -0.37008 31.6695 -0.0547269 29.9978 0.0218149C28.323 -0.0547269 15.1322 -0.373141 6.89346 8.43529C1.4709 14.231 -0.641207 22.5772 0.608079 33.2257C0.632046 33.4706 1.20426 39.3153 5.12289 45.1325C8.68799 50.4261 15.7583 56.672 29.2488 56.672C29.4855 56.672 29.7281 56.6689 29.9678 56.6658C30.2105 56.6689 30.4531 56.672 30.6898 56.672C44.2522 56.672 51.3255 50.3955 54.8726 45.1325C58.8002 39.3 59.3605 33.4951 59.3814 33.2746C60.6367 22.5863 58.5246 14.231 53.102 8.43529Z" fill="#213664"/>
<path d="M29.9978 1.89535C28.0145 1.7882 -1.33921 0.744166 2.45059 33.054C2.45059 33.054 4.46982 55.2113 29.9978 54.795C55.5257 55.2083 57.545 33.054 57.545 33.054C61.3378 0.744166 31.9811 1.7882 29.9978 1.89535Z" fill="#F7F2E0"/>
<path d="M29.9978 11.4969C31.6696 11.4387 52.1495 10.958 57.554 22.6199C54.5522 0.989227 31.7385 1.80363 29.9978 1.89548C28.2572 1.80057 5.44653 0.989229 2.44165 22.6169C7.84624 10.958 28.3261 11.4357 29.9978 11.4969Z" fill="#FBF8F0"/>
<path d="M29.9979 47.3123C12.9842 47.493 6.06075 41.3359 3.28955 36.9302C5.19793 43.2617 11.2736 55.1012 29.9979 54.7981C48.7222 55.1012 54.7979 43.2617 56.7063 36.9302C53.9351 41.3359 47.0116 47.493 29.9979 47.3123Z" fill="#F1E0AD"/>
<path d="M43.9226 34.5793L39.5577 30.2144L43.9226 25.8496C45.3557 24.4164 45.3557 22.0854 43.9226 20.6489L39.7797 16.5061C39.0843 15.8107 38.1604 15.4287 37.1777 15.4287C36.1951 15.4287 35.2712 15.8107 34.5758 16.5061L30.2142 20.8709L25.8493 16.5028C24.4129 15.0696 22.0819 15.0729 20.6487 16.5061L16.5058 20.6489C15.8104 21.3443 15.4285 22.2649 15.4285 23.2476C15.4285 24.2303 15.8104 25.1542 16.5058 25.8463L20.8707 30.2112L16.5058 34.5793C15.8104 35.2747 15.4285 36.1986 15.4285 37.1812C15.4285 38.1639 15.8104 39.0878 16.5058 39.7799L20.6487 43.9228C22.0819 45.356 24.4161 45.356 25.8493 43.9228L30.2142 39.5579L34.5791 43.9228C35.2744 44.6182 36.1951 45.0001 37.1777 45.0001C38.1604 45.0001 39.0843 44.6182 39.7764 43.9228L43.9226 39.7799C44.6179 39.0845 44.9999 38.1606 44.9999 37.1812C44.9999 36.1986 44.6179 35.2747 43.9226 34.5793Z" fill="#A1C0ED"/>
<path d="M43.1129 35.3337L37.9417 30.1592L43.1129 24.9879C44.1021 23.9987 44.1021 22.3925 43.1129 21.4033L38.9701 17.2605C37.9809 16.2713 36.3747 16.2713 35.3855 17.2605L30.2142 22.4317L25.043 17.2605C24.0538 16.2713 22.4475 16.2713 21.4583 17.2637L17.3122 21.4033C16.323 22.3925 16.323 23.9955 17.3122 24.9847L22.4867 30.1592L17.3122 35.3337C16.323 36.3229 16.323 37.9291 17.3122 38.9183L21.4551 43.0612C22.4443 44.0504 24.0505 44.0504 25.0397 43.0612L30.2109 37.8867L35.3855 43.0612C36.3747 44.0504 37.9809 44.0504 38.9668 43.0612L43.1129 38.9183C44.1021 37.9291 44.1054 36.3229 43.1129 35.3337Z" fill="#0C3D76"/>
<path d="M43.1131 35.3337L37.9419 30.1592V32.9897L43.1131 38.1642C43.2307 38.2817 43.3351 38.409 43.4233 38.5396C44.0893 37.5537 43.9881 36.2054 43.1131 35.3337Z" fill="#213664"/>
<path d="M17.3122 35.334C16.4406 36.2057 16.3361 37.554 17.0021 38.5399C17.0902 38.4061 17.1947 38.2788 17.3122 38.1612L22.4868 32.9867V30.1562L17.3122 35.334Z" fill="#213664"/>
<path d="M43.113 24.2338C43.2305 24.3513 43.3317 24.4786 43.4231 24.6125C44.0858 23.6266 43.9846 22.2783 43.113 21.4066L38.9701 17.2605C37.9809 16.2713 36.3747 16.2713 35.3855 17.2605L30.2142 22.4317L25.043 17.2605C24.0538 16.2713 22.4476 16.2713 21.4584 17.2637L17.3122 21.4033C16.4406 22.275 16.3361 23.6233 17.0021 24.6092C17.0902 24.4754 17.1947 24.3513 17.3122 24.2338L21.4551 20.0909C22.4443 19.1017 24.0505 19.0985 25.0397 20.0877L30.211 25.2622L35.3822 20.0877C36.3714 19.0985 37.9776 19.0985 38.9668 20.0877L43.113 24.2338Z" fill="#213664"/>
</svg>
