<svg width="100" height="100" viewBox="0 0 100 100" fill="none" xmlns="http://www.w3.org/2000/svg">
<g clip-path="url(#clip0)">
<path opacity="0.1" d="M67.7514 89.9914C67.7514 91.836 59.5385 93.3334 49.4102 93.3334C39.2928 93.3334 31.0798 91.836 31.0798 89.9914C31.0798 88.1468 39.2928 86.6494 49.421 86.6494C59.5493 86.6494 67.7514 88.1468 67.7514 89.9914Z" fill="black"/>
<path d="M48.732 13.73C54.7749 13.73 63.1125 34.9817 64.0389 35.5677C64.9653 36.1394 87.3557 38.8548 89.2085 43.228C91.0613 47.6013 73.8303 63.3936 73.4027 64.4655C72.9751 65.5374 77.2793 88.0039 73.7448 90.948C70.1959 93.8921 49.9576 82.3873 48.7177 82.3873C47.4777 82.3873 28.0519 93.9493 23.7049 90.948C19.3437 87.9468 24.3605 65.6803 24.047 64.4655C23.7334 63.2507 6.27432 49.0019 8.24114 43.228C10.208 37.4399 32.6126 36.1679 33.4107 35.5677C34.2231 34.9674 42.6747 13.73 48.732 13.73Z" fill="#0C3D76"/>
<path d="M48.7323 16.374C54.3762 16.374 61.7589 36.9541 62.6283 37.4829C63.4835 38.026 84.7479 39.7981 86.4724 43.857C88.2112 47.9301 71.7641 62.279 71.365 63.2794C70.9659 64.2798 75.3556 85.603 72.0634 88.347C68.7568 91.091 49.8868 79.9864 48.7466 79.9864C47.5921 79.9721 29.4917 91.1482 25.4298 88.347C21.3679 85.5459 26.798 64.7943 26.4987 63.6653C26.1994 62.5362 9.18218 49.2592 11.0207 43.8713C12.8593 38.4833 34.4943 38.0545 35.2354 37.4972C35.9623 36.9255 43.0884 16.374 48.7323 16.374Z" fill="url(#paint0_linear)"/>
<path d="M15.9231 44.8569C15.5241 41.0267 28.0661 38.7686 28.6219 43.2562C29.1778 47.7295 16.4647 50.0733 15.9231 44.8569Z" fill="white"/>
<path d="M31.8435 41.984C31.7437 39.5115 35.4921 39.3686 35.6916 41.398C35.9054 43.6561 31.929 44.2992 31.8435 41.984Z" fill="white"/>
<g opacity="0.6">
<g opacity="0.6">
<g opacity="0.6">
<g opacity="0.6">
<path opacity="0.6" d="M37.0057 60.6836C37.0057 63.1034 35.0397 65.0782 32.6111 65.0782C30.1825 65.0782 28.2166 63.1173 28.2166 60.6836C28.2166 58.2638 30.1825 56.2891 32.6111 56.2891C35.0397 56.2891 37.0057 58.2638 37.0057 60.6836Z" fill="#FF5F82"/>
</g>
<g opacity="0.6">
<path opacity="0.6" d="M68.6463 60.6836C68.6463 63.1034 66.6803 65.0782 64.2518 65.0782C61.8232 65.0782 59.8572 63.1173 59.8572 60.6836C59.8572 58.2638 61.8232 56.2891 64.2518 56.2891C66.6803 56.2891 68.6463 58.2638 68.6463 60.6836Z" fill="#FF5F82"/>
</g>
</g>
</g>
</g>
<path d="M64.7311 43.2157C64.1575 41.8918 53.8014 46.9851 54.0029 49.6796C54.2044 52.3742 63.6614 55.0221 64.8706 53.6047C66.0643 52.1873 58.6073 50.9257 58.5453 49.4149C58.4678 47.904 65.5372 45.0848 64.7311 43.2157Z" fill="#541300"/>
<path d="M32.2689 44.2157C32.8425 42.8919 43.1986 47.9845 42.9971 50.6788C42.7956 53.3886 33.3386 56.0206 32.1294 54.6034C30.9357 53.1862 38.3927 51.9247 38.4702 50.414C38.5322 48.9034 31.4628 46.0846 32.2689 44.2157Z" fill="#541300"/>
<path d="M55.8997 62.0458C57.2089 60.2676 55.3119 58.8975 54.0695 60.5446C52.1858 63.0515 44.6778 62.8475 42.754 60.5446C41.4314 58.9704 39.7348 60.1656 40.9238 62.0458C43.275 65.7771 52.6801 66.3893 55.8997 62.0458Z" fill="#872A2A"/>
<g clip-path="url(#clip1)">
<path d="M38.1648 58.5359C39.1285 57.8253 58.8569 57.8253 59.8344 58.5359C60.8119 59.2464 57.4114 67.3576 48.9996 67.3576C40.6016 67.3576 37.1873 59.2464 38.1648 58.5359Z" fill="#872A2A"/>
<path d="M44.2915 63.2152C43.1351 63.9794 43.3554 69.0606 44.2778 72.1308C45.3929 75.8981 52.9786 76.0456 53.7496 72.1308C54.5206 68.216 54.9336 63.9123 53.7634 63.2152C52.5794 62.518 45.4893 62.4108 44.2915 63.2152Z" fill="#F982B3"/>
</g>
<path d="M7.68128 71.536C3.7465 70.3263 3.62506 67.1113 5.2524 66.2994C2.14344 65.6743 1.28524 62.573 3.61696 62.638C1.3824 62.1021 -2.62525 55.5098 2.47539 53.6669C9.32481 51.1907 22.3436 63.0845 21.6392 69.6687C21.4773 71.2112 15.5913 73.9634 7.68128 71.536Z" fill="#213664"/>
<path d="M2.79099 54.0486C8.87127 51.6942 20.0846 62.6625 19.7769 66.9491C19.6555 68.6053 6.53955 63.4338 3.81921 61.1849C1.23651 59.0497 0.0949348 55.0959 2.79099 54.0486Z" fill="#0C3D76"/>
<path d="M3.544 55.0226C4.70176 51.9781 15.9313 60.803 15.1378 62.4024C14.3525 64.0099 1.22038 61.1115 3.544 55.0226Z" fill="#3F76B7"/>
<path d="M17.6966 70.4326C17.9152 69.0525 4.74261 64.709 4.9855 67.8915C5.30935 72.2187 17.5185 71.5774 17.6966 70.4326Z" fill="#0C3D76"/>
<path d="M10.4745 66.1856C10.6526 65.4224 3.93268 61.6391 3.39024 63.7419C2.73444 66.2668 10.2316 67.2329 10.4745 66.1856Z" fill="#0C3D76"/>
<path d="M91.4364 70.8766C95.5809 69.5998 95.7177 66.1979 93.9915 65.3496C97.2729 64.6898 98.1787 61.4165 95.7091 61.485C98.0591 60.9195 102.289 53.9529 96.9054 52.0163C89.6761 49.4114 75.9523 61.982 76.6958 68.9314C76.8752 70.5424 83.0877 73.4473 91.4364 70.8766Z" fill="#213664"/>
<path d="M96.5724 52.4113C90.1549 49.9349 78.3282 61.5287 78.6614 66.0531C78.7896 67.8011 92.6245 62.3256 95.4957 59.9434C98.2217 57.6812 99.418 53.5081 96.5724 52.4113Z" fill="#0C3D76"/>
<path d="M94.9573 53.3614C93.7267 50.1481 81.8915 59.4711 82.7289 61.1677C83.5663 62.8644 97.4183 59.7881 94.9573 53.3614Z" fill="#3F76B7"/>
<path d="M80.8576 69.7195C80.6269 68.2628 94.5216 63.6613 94.2737 67.0203C93.9405 71.5875 81.0541 70.9277 80.8576 69.7195Z" fill="#0C3D76"/>
<path d="M88.4712 65.2302C88.2832 64.4248 95.3758 60.4231 95.9484 62.6424C96.6406 65.2988 88.7361 66.3271 88.4712 65.2302Z" fill="#0C3D76"/>
<path d="M90.0099 73.3458C88.9711 73.9317 88.1812 72.4994 89.2741 71.7941C90.3562 71.0997 91.5464 72.4994 90.0099 73.3458Z" fill="#3F76B7"/>
<path d="M70.2604 18.4009C68.475 18.8892 67.9664 16.3284 69.7843 15.9053C71.5914 15.4929 72.0458 17.9235 70.2604 18.4009Z" fill="#3F76B7"/>
<path d="M54.0634 12.6041C53.0787 13.4288 51.066 12.2677 52.4078 11.0633C53.7604 9.84802 54.9506 11.8663 54.0634 12.6041Z" fill="#3F76B7"/>
<path d="M83.8441 85.7844C82.7837 86.8912 79.6132 84.4281 81.5826 83.0609C83.552 81.6937 85.4781 84.0917 83.8441 85.7844Z" fill="#3F76B7"/>
<path d="M11.9917 78.9884C10.1197 79.4332 9.10254 77.415 10.8555 76.6229C12.6085 75.8199 13.7771 78.0443 11.6238 79.2379" fill="#3F76B7"/>
<path d="M27.5199 15.6211C26.2322 16.3806 24.7173 14.4492 25.9725 13.1363C27.3684 11.6606 30.0303 14.1345 27.5199 15.6211Z" fill="#3F76B7"/>
<path d="M27.4444 25.5808C27.3037 25.3095 24.9015 26.1559 24.9015 26.1559C24.9015 26.1559 23.3 24.2787 22.9429 24.4306C22.5858 24.5825 22.694 27.0239 22.694 27.0239C22.694 27.0239 20.4433 28.0222 20.4541 28.3586C20.465 28.6949 22.8455 29.3894 22.8455 29.3894C22.8455 29.3894 23.1485 31.8633 23.419 31.9393C23.6895 32.0152 25.1395 29.9753 25.1395 29.9753C25.1395 29.9753 27.5417 30.4636 27.7257 30.214C27.9205 29.9645 26.4056 27.9679 26.4056 27.9679C26.4056 27.9679 27.585 25.8521 27.4444 25.5808Z" fill="#3F76B7"/>
<path d="M83.7445 27.5127C83.5497 27.35 82.0023 28.8039 82.0023 28.8039C82.0023 28.8039 80.1628 27.9142 79.9356 28.1421C79.7083 28.3808 80.6173 30.2037 80.6173 30.2037C80.6173 30.2037 79.2322 31.7119 79.3512 31.9723C79.4703 32.2328 81.5154 31.9615 81.5154 31.9615C81.5154 31.9615 82.5758 33.7519 82.8031 33.7085C83.0303 33.6759 83.4631 31.636 83.4631 31.636C83.4631 31.636 85.4542 31.2019 85.5191 30.9524C85.584 30.7028 83.7553 29.6829 83.7553 29.6829C83.7553 29.6829 83.9393 27.6646 83.7445 27.5127Z" fill="#3F76B7"/>
<path d="M31.3722 4.32497C31.2748 4.56369 33.0819 5.64875 33.0819 5.64875C33.0819 5.64875 32.7356 7.66698 33.017 7.81889C33.2983 7.9708 34.8024 6.59276 34.8024 6.59276C34.8024 6.59276 36.6311 7.51507 36.8475 7.31976C37.0531 7.1353 36.2416 5.23643 36.2416 5.23643C36.2416 5.23643 37.6591 3.72818 37.5617 3.51117C37.4643 3.29416 35.3975 3.44607 35.3975 3.44607C35.3975 3.44607 34.4453 1.6557 34.1856 1.66655C33.9259 1.6774 33.4606 3.71733 33.4606 3.71733C33.4606 3.71733 31.4696 4.08626 31.3722 4.32497Z" fill="#3F76B7"/>
</g>
<defs>
<linearGradient id="paint0_linear" x1="29.8748" y1="34.7081" x2="74.5154" y2="88.184" gradientUnits="userSpaceOnUse">
<stop offset="0.0430108" stop-color="#FFF466"/>
<stop offset="0.0752688" stop-color="#FFF466"/>
<stop offset="0.3152" stop-color="#FFEC5F"/>
<stop offset="0.6922" stop-color="#FFD54D"/>
<stop offset="0.8602" stop-color="#FFC943"/>
</linearGradient>
<clipPath id="clip0">
<rect width="100" height="100" fill="white"/>
</clipPath>
<clipPath id="clip1">
<rect width="22" height="17" fill="white" transform="translate(38 58)"/>
</clipPath>
</defs>
</svg>
