<svg width="126" height="60" viewBox="0 0 126 60" fill="none" xmlns="http://www.w3.org/2000/svg">
<path d="M111.902 12.3753C94.8118 4.30228 67.5329 4.61352 63.9068 4.69269C60.2807 4.61352 32.9957 4.30228 15.9118 12.3753C4.73186 17.6582 0.385476 25.319 2.98962 35.1203C3.03887 35.3441 4.20857 40.6516 12.3103 45.9699C19.8026 50.8869 34.8549 56.7049 63.8699 56.4974C64.3809 56.5001 64.8857 56.5028 65.3844 56.5028C93.4943 56.5028 108.14 50.8023 115.503 45.9699C123.605 40.6516 124.781 35.3441 124.818 35.1476C127.428 25.319 123.082 17.6582 111.902 12.3753Z" fill="#0C3D76"/>
<path d="M111.378 10.5219C94.4483 2.66999 67.3357 2.9512 63.9005 3.01945C60.4591 2.9512 33.3526 2.66726 16.4226 10.5219C5.27959 15.6901 0.939343 23.1325 3.50655 32.628C3.5558 32.8464 4.73167 38.0583 12.7842 43.2455C20.1103 47.966 34.6393 53.5355 62.3614 53.5355C62.8477 53.5355 63.3464 53.5328 63.8389 53.53C64.3376 53.5328 64.8362 53.5355 65.3226 53.5355C93.1924 53.5355 107.728 47.9387 115.017 43.2455C123.088 38.0446 124.239 32.8682 124.282 32.6717C126.862 23.1407 122.521 15.6901 111.378 10.5219Z" fill="#213664"/>
<path d="M64.553 4.9671C60.4278 4.8679 -0.62768 3.90143 7.25506 33.8111C7.25506 33.8111 11.4551 54.3225 64.553 53.937C117.651 54.3196 121.851 33.8111 121.851 33.8111C129.74 3.90143 68.6782 4.8679 64.553 4.9671Z" fill="#FBF8F0"/>
<path d="M63.9009 13.2517C67.3362 13.1998 109.421 12.7712 120.527 23.1704C114.358 3.88182 67.4778 4.60804 63.9009 4.68994C60.3241 4.60531 13.4495 3.88182 7.27466 23.1676C18.3807 12.7712 60.4657 13.1971 63.9009 13.2517Z" fill="white"/>
<path d="M63.9011 45.1896C28.9391 45.3507 14.7117 39.8603 9.01709 35.9316C12.9387 41.5776 25.4238 52.1351 63.9011 51.8648C102.378 52.1351 114.863 41.5776 118.785 35.9316C113.09 39.8603 98.8631 45.3507 63.9011 45.1896Z" fill="#F1E0AD"/>
<path d="M60.608 29.352C60.608 29.16 60.608 28.9307 60.608 28.664C60.6187 28.3867 60.64 28.104 60.672 27.816C60.704 27.528 60.7573 27.2453 60.832 26.968C60.9067 26.68 61.008 26.424 61.136 26.2C61.2747 25.976 61.4453 25.7947 61.648 25.656C61.8613 25.5173 62.1227 25.448 62.432 25.448C62.7413 25.448 63.0027 25.5173 63.216 25.656C63.4293 25.7947 63.6053 25.976 63.744 26.2C63.8827 26.424 63.984 26.68 64.048 26.968C64.1227 27.2453 64.176 27.528 64.208 27.816C64.2507 28.104 64.272 28.3867 64.272 28.664C64.2827 28.9307 64.288 29.16 64.288 29.352C64.288 29.672 64.2773 30.0613 64.256 30.52C64.2347 30.968 64.1653 31.4053 64.048 31.832C63.9413 32.248 63.76 32.6053 63.504 32.904C63.2587 33.2027 62.9013 33.352 62.432 33.352C61.9733 33.352 61.6213 33.2027 61.376 32.904C61.1307 32.6053 60.9493 32.248 60.832 31.832C60.7253 31.4053 60.6613 30.968 60.64 30.52C60.6187 30.0613 60.608 29.672 60.608 29.352ZM58.336 29.352C58.336 30.472 58.4427 31.4107 58.656 32.168C58.88 32.9147 59.1787 33.512 59.552 33.96C59.9253 34.408 60.3573 34.728 60.848 34.92C61.3493 35.112 61.8773 35.208 62.432 35.208C62.9973 35.208 63.5253 35.112 64.016 34.92C64.5173 34.728 64.9547 34.408 65.328 33.96C65.712 33.512 66.0107 32.9147 66.224 32.168C66.448 31.4107 66.56 30.472 66.56 29.352C66.56 28.264 66.448 27.352 66.224 26.616C66.0107 25.8693 65.712 25.272 65.328 24.824C64.9547 24.376 64.5173 24.056 64.016 23.864C63.5253 23.672 62.9973 23.576 62.432 23.576C61.8773 23.576 61.3493 23.672 60.848 23.864C60.3573 24.056 59.9253 24.376 59.552 24.824C59.1787 25.272 58.88 25.8693 58.656 26.616C58.4427 27.352 58.336 28.264 58.336 29.352ZM73.1626 35V23.8H71.3546C71.2906 24.2267 71.1573 24.584 70.9546 24.872C70.752 25.16 70.5013 25.3947 70.2026 25.576C69.9146 25.7467 69.584 25.8693 69.2106 25.944C68.848 26.008 68.4693 26.0347 68.0746 26.024V27.736H70.8906V35H73.1626ZM80.0693 23.304L75.6212 35.256H77.4293L81.8933 23.304H80.0693ZM87.9908 35V23.8H86.1828C86.1188 24.2267 85.9854 24.584 85.7828 24.872C85.5801 25.16 85.3294 25.3947 85.0308 25.576C84.7428 25.7467 84.4121 25.8693 84.0388 25.944C83.6761 26.008 83.2974 26.0347 82.9028 26.024V27.736H85.7188V35H87.9908ZM91.2014 28.104H93.3774C93.3774 27.8053 93.404 27.5067 93.4574 27.208C93.5214 26.8987 93.6227 26.6213 93.7614 26.376C93.9 26.12 94.0814 25.9173 94.3054 25.768C94.54 25.608 94.8227 25.528 95.1534 25.528C95.644 25.528 96.044 25.6827 96.3534 25.992C96.6734 26.2907 96.8334 26.712 96.8334 27.256C96.8334 27.5973 96.7534 27.9013 96.5934 28.168C96.444 28.4347 96.252 28.6747 96.0174 28.888C95.7934 29.1013 95.5427 29.2987 95.2654 29.48C94.988 29.6507 94.7267 29.8213 94.4814 29.992C94.0014 30.3227 93.5427 30.648 93.1054 30.968C92.6787 31.288 92.3054 31.64 91.9854 32.024C91.6654 32.3973 91.4094 32.824 91.2174 33.304C91.036 33.784 90.9454 34.3493 90.9454 35H99.1694V33.048H93.8734C94.1507 32.664 94.4707 32.328 94.8334 32.04C95.196 31.752 95.5694 31.4853 95.9534 31.24C96.3374 30.984 96.716 30.728 97.0894 30.472C97.4734 30.216 97.8147 29.9333 98.1134 29.624C98.412 29.304 98.652 28.9413 98.8334 28.536C99.0147 28.1307 99.1054 27.6453 99.1054 27.08C99.1054 26.536 98.9987 26.0453 98.7854 25.608C98.5827 25.1707 98.3054 24.8027 97.9534 24.504C97.6014 24.2053 97.1907 23.976 96.7214 23.816C96.2627 23.656 95.7774 23.576 95.2654 23.576C94.5934 23.576 93.996 23.6933 93.4734 23.928C92.9614 24.152 92.5347 24.472 92.1934 24.888C91.852 25.2933 91.596 25.7733 91.4254 26.328C91.2547 26.872 91.18 27.464 91.2014 28.104Z" fill="#0C3D76"/>
</svg>
