<svg width="60" height="61" viewBox="0 0 60 61" fill="none" xmlns="http://www.w3.org/2000/svg">
<g clip-path="url(#clip0)">
<path d="M53.3585 10.5953C45.0421 1.54236 31.7676 1.88831 30.0031 1.98015C28.2386 1.89137 14.9611 1.54236 6.64767 10.5953C1.20427 16.5193 -0.910784 25.1099 0.356449 36.1038C0.377419 36.3549 0.949621 42.3065 4.89212 48.2703C8.53804 53.7841 15.8628 60.3082 29.9821 60.0755C30.2308 60.0786 30.4764 60.0816 30.7191 60.0816C44.398 60.0816 51.5251 53.6892 55.1081 48.2703C59.0506 42.3065 59.6228 36.3549 59.6407 36.1344C60.914 25.1099 58.7989 16.5193 53.3585 10.5953Z" fill="#0C3D76"/>
<path d="M53.1039 8.51641C44.8654 -0.288514 31.6718 0.0268187 30.0001 0.103357C28.3254 0.0268187 15.1348 -0.291576 6.89632 8.51641C1.47688 14.3119 -0.638172 22.6606 0.614081 33.3086C0.635052 33.5535 1.21025 39.3979 5.12878 45.2148C8.69381 50.5082 15.7639 56.7537 29.2541 56.7537C29.4908 56.7537 29.7335 56.7506 29.9731 56.7475C30.2158 56.7506 30.4585 56.7537 30.6951 56.7537C44.2602 56.7537 51.3303 50.4776 54.8774 45.2148C58.8049 39.3826 59.3651 33.578 59.3861 33.3576C60.6383 22.6667 58.5263 14.3119 53.1039 8.51641Z" fill="#213664"/>
<path d="M30.0001 1.97983C28.0169 1.87267 -1.3362 0.828701 2.45351 33.1369C2.45351 33.1369 4.4727 55.2931 30.0001 54.8767C55.5275 55.29 57.5467 33.1369 57.5467 33.1369C61.3394 0.828701 31.9833 1.87267 30.0001 1.97983Z" fill="#F7F2E0"/>
<path d="M30.0001 11.5778C31.6718 11.5196 52.1512 11.039 57.5557 22.7003C54.5509 1.07374 31.7407 1.88505 30.0001 1.97996C28.2596 1.88505 5.44939 1.07374 2.44458 22.7003C7.84904 11.039 28.3285 11.5196 30.0001 11.5778Z" fill="#FBF8F0"/>
<path d="M30.0002 47.3914C12.987 47.572 6.06361 41.4153 3.29248 37.0098C5.20082 43.341 11.2763 55.1799 30.0002 54.8768C48.7241 55.1799 54.7996 43.341 56.708 37.0098C53.9368 41.4153 47.0165 47.572 30.0002 47.3914Z" fill="#F1E0AD"/>
<path d="M44.443 26.916L39.6736 22.0421L41.3543 12.9402L41.4831 12.2422H40.7881H34.1403H33.5022L33.5651 12.8912L33.8827 16.1272L31.0726 13.2555C30.7431 12.9188 30.3087 12.7351 29.8443 12.7351C29.38 12.7351 28.9426 12.9188 28.6161 13.2555L15.2457 26.916C14.7394 27.4334 14.5956 28.1743 14.8682 28.8509C15.1438 29.5275 15.758 29.9469 16.474 29.9469H19.8413L17.3847 42.245C17.2948 42.6951 17.4057 43.1604 17.6903 43.5156C17.9749 43.8738 18.3973 44.0758 18.8497 44.0758H23.5321C24.2661 44.0758 24.9012 43.5156 25.0091 42.7747L25.791 37.414C25.9767 36.1404 27.0672 35.1791 28.3285 35.1791H31.2374C32.4986 35.1791 33.5891 36.1404 33.7749 37.414L34.5568 42.7747C34.6646 43.5186 35.2997 44.0758 36.0337 44.0758H40.842C41.2914 44.0758 41.7138 43.8707 42.0014 43.5156C42.286 43.1574 42.3968 42.6951 42.307 42.245L39.8504 29.9469H43.2177C43.9337 29.9469 44.5508 29.5275 44.8234 28.8509C45.0961 28.1743 44.9493 27.4334 44.443 26.916Z" fill="#A1C0ED"/>
<path d="M40.8389 44.3851H36.0306C35.1498 44.3851 34.3859 43.7115 34.2571 42.8206L33.4751 37.4599C33.3104 36.3363 32.3487 35.4852 31.2343 35.4852H28.3253C27.2109 35.4852 26.2492 36.3333 26.0845 37.4599L25.3025 42.8206C25.1737 43.7115 24.4098 44.3851 23.529 44.3851H18.8496C18.3073 44.3851 17.801 44.1401 17.4595 43.7115C17.118 43.2829 16.9832 42.7257 17.091 42.1838L19.4757 30.2531H16.4769C15.638 30.2531 14.916 29.7602 14.5925 28.9672C14.2719 28.1743 14.4397 27.3049 15.0329 26.6987L28.4002 13.0382C28.7867 12.6432 29.296 12.4289 29.8412 12.4289C30.3865 12.4289 30.8987 12.6463 31.2822 13.0382L33.4991 15.3037L33.1666 11.936H41.8395L39.9911 21.938L44.6496 26.6987C45.2427 27.3049 45.4135 28.1743 45.0899 28.9672C44.7694 29.7602 44.0474 30.2531 43.2056 30.2531H40.2068L42.5914 42.1838C42.6993 42.7257 42.5645 43.2829 42.2229 43.7115C41.8874 44.1401 41.3811 44.3851 40.8389 44.3851ZM28.3253 34.876H31.2343C32.6423 34.876 33.8586 35.9475 34.0683 37.3711L34.8502 42.7318C34.9371 43.3258 35.4464 43.7728 36.0336 43.7728H40.8419C41.2014 43.7728 41.5399 43.6105 41.7676 43.3227C41.9953 43.038 42.0851 42.6675 42.0132 42.3063L39.4818 29.6408H43.2146C43.8077 29.6408 44.317 29.2918 44.5447 28.7346C44.7724 28.1743 44.6526 27.562 44.2331 27.1303L39.35 22.1401L41.1235 12.5453H33.8346L34.269 16.9477L30.8628 13.4668C30.5902 13.1882 30.2307 13.0351 29.8442 13.0351C29.4607 13.0351 29.0983 13.1882 28.8256 13.4668L15.4583 27.1303C15.0389 27.559 14.919 28.1743 15.1467 28.7315C15.3744 29.2918 15.8837 29.6408 16.4769 29.6408H20.2097L17.6782 42.3063C17.6063 42.6675 17.6962 43.038 17.9238 43.3227C18.1515 43.6074 18.4901 43.7728 18.8496 43.7728H23.529C24.1162 43.7728 24.6255 43.3258 24.7124 42.7318L25.4943 37.3711C25.701 35.9475 26.9203 34.876 28.3253 34.876Z" fill="#A1C0ED"/>
<path d="M44.0355 27.3354L39.0504 22.241L40.788 12.833H34.1403L34.6196 17.7131L30.6651 13.6719C30.2098 13.2065 29.4758 13.2065 29.0204 13.6719L15.6531 27.3323C14.9221 28.0794 15.4404 29.3591 16.4739 29.3591H20.5453L17.9449 42.3644C17.8281 42.9461 18.2624 43.491 18.8436 43.491H23.5261C23.9815 43.491 24.3679 43.1512 24.4338 42.692L25.2157 37.3313C25.4464 35.7576 26.7676 34.5943 28.3224 34.5943H31.2313C32.7862 34.5943 34.1073 35.7576 34.338 37.3313L35.1199 42.692C35.1858 43.1512 35.5723 43.491 36.0276 43.491H40.8359C41.4171 43.491 41.8515 42.9461 41.7347 42.3644L39.1343 29.3591H43.2056C44.2482 29.3652 44.7665 28.0855 44.0355 27.3354Z" fill="#0C3D76"/>
<path d="M40.0239 16.9908L40.7879 12.8608H34.1401L34.5446 16.9908H40.0239Z" fill="#213664"/>
<path d="M20.5483 29.3652L17.948 42.395C17.8521 42.8757 18.1337 43.3227 18.5591 43.4696L21.3722 30.2837L20.5483 29.3652Z" fill="#213664"/>
<path d="M38.4062 25.713L41.9773 29.3899H43.2115C44.2481 29.3899 44.7664 28.1101 44.0324 27.3631L39.0474 22.2412L38.4062 25.713Z" fill="#213664"/>
<path d="M16.4769 29.3899H17.7112L29.0234 17.8296C29.4788 17.3642 30.2127 17.3642 30.6681 17.8296L35.075 22.3055L34.6226 17.7133L30.6681 13.6996C30.2127 13.2342 29.4788 13.2342 29.0234 13.6996L15.656 27.3601C14.9221 28.1102 15.4403 29.3899 16.4769 29.3899Z" fill="#213664"/>
<path d="M39.1403 29.3652L38.3164 30.2837L41.1295 43.4696C41.5549 43.3257 41.8365 42.8757 41.7406 42.395L39.1403 29.3652Z" fill="#213664"/>
</g>
<defs>
<clipPath id="clip0">
<rect width="60" height="60" fill="white" transform="translate(0 0.081543)"/>
</clipPath>
</defs>
</svg>
