<svg width="60" height="61" viewBox="0 0 60 61" fill="none" xmlns="http://www.w3.org/2000/svg">
<g clip-path="url(#clip0)">
<path d="M53.3568 10.5958C45.0402 1.54243 31.7654 1.89145 30.0008 1.98024C28.2362 1.89145 14.9584 1.54243 6.64485 10.5958C1.20431 16.5201 -0.910784 25.1112 0.356477 36.1026C0.377448 36.3537 0.949667 42.3055 4.89226 48.2697C8.53825 53.7838 15.8632 60.3082 29.9828 60.0755C30.2315 60.0786 30.4772 60.0816 30.7198 60.0816C44.3991 60.0816 51.5263 53.6889 55.1093 48.2697C59.0519 42.3055 59.6242 36.3537 59.6421 36.1332C60.9124 25.1112 58.7973 16.5201 53.3568 10.5958Z" fill="#0C3D76"/>
<path d="M53.1021 8.51684C44.8634 -0.288533 31.6695 0.0268159 29.9978 0.103358C28.323 0.0268159 15.1321 -0.291595 6.89345 8.51684C1.47089 14.3126 -0.641206 22.6587 0.60808 33.3072C0.629051 33.5521 1.20426 39.3969 5.12289 45.2141C8.688 50.5077 15.7583 56.7535 29.2488 56.7535C29.4855 56.7535 29.7281 56.7504 29.9678 56.7474C30.2105 56.7504 30.4531 56.7535 30.6898 56.7535C44.2552 56.7535 51.3255 50.4771 54.8726 45.2141C58.8002 39.3816 59.3605 33.5766 59.3814 33.3562C60.6367 22.6679 58.5216 14.3126 53.1021 8.51684Z" fill="#213664"/>
<path d="M29.9978 1.98032C28.0145 1.87316 -1.33921 0.829132 2.45059 33.139C2.45059 33.139 4.46982 55.2963 29.9978 54.8799C55.5258 55.2932 57.545 33.139 57.545 33.139C61.3348 0.829132 31.9811 1.87316 29.9978 1.98032Z" fill="#F7F2E0"/>
<path d="M29.9978 11.5783C31.6695 11.5201 52.1494 11.0394 57.554 22.7014C54.5491 1.0737 31.7384 1.88504 29.9978 1.97996C28.2572 1.88504 5.44653 1.0737 2.44165 22.7014C7.84324 11.0394 28.3261 11.5201 29.9978 11.5783Z" fill="#FBF8F0"/>
<path d="M29.9979 47.3939C12.9843 47.5745 6.06075 41.4175 3.28955 37.0117C5.19793 43.3433 11.2736 55.1827 29.9979 54.8796C48.7222 55.1827 54.7979 43.3433 56.7063 37.0117C53.9351 41.4175 47.0116 47.5745 29.9979 47.3939Z" fill="#F1E0AD"/>
<path d="M45.933 27.594C45.936 27.4777 45.933 26.4214 45.178 25.1661C44.3541 23.7945 41.0617 19.0183 33.2124 15.0902L33.0477 15.0075L32.8679 14.983C32.7271 14.9616 31.4539 14.8146 30.4952 15.6413C30.0937 15.9872 29.6054 16.6363 29.5694 17.7508C29.5515 18.2743 29.5425 19.2357 29.5395 20.6134H17.6488C15.1173 20.6134 13.832 21.9269 13.832 24.514V31.0537C13.832 33.6408 15.1173 34.9543 17.6488 34.9543H29.5395C29.5425 36.1024 29.5515 36.9229 29.5664 37.3883C29.6054 38.5028 30.0907 39.1518 30.4922 39.4978C31.1782 40.0918 32.0321 40.1806 32.4785 40.1806C32.6762 40.1806 32.814 40.1653 32.8649 40.1561L33.0447 40.1316L33.2095 40.0489C41.0587 36.1208 44.3512 31.3446 45.175 29.9729C45.954 28.687 45.933 27.6246 45.933 27.594Z" fill="#A1C0ED"/>
<path d="M17.6517 21.8378H24.2157H30.6598C30.6568 20.1692 30.6628 18.6047 30.6898 17.873C30.7557 15.9288 32.721 16.1982 32.721 16.1982C39.3989 19.5385 42.8621 23.5738 44.2252 25.8456C44.8304 26.8529 44.8154 27.655 44.8154 27.655C44.8154 27.655 44.8304 28.4572 44.2252 29.4645C42.8621 31.7362 39.3989 35.7684 32.721 39.1118C32.721 39.1118 30.7527 39.3812 30.6898 37.437C30.6658 36.7696 30.6598 35.4041 30.6598 33.8978H24.2157H17.6517C15.7253 33.8978 14.9524 33.1079 14.9524 31.1392V24.5995C14.9554 22.6277 15.7283 21.8378 17.6517 21.8378Z" fill="#0C3D76"/>
<path d="M30.6598 21.8381H17.6517C15.7253 21.8381 14.9524 22.628 14.9524 24.5967V26.3572C14.9524 24.3885 15.7253 23.5986 17.6517 23.5986H30.6598C30.6598 22.9465 30.6598 21.8045 30.6598 21.8381Z" fill="#213664"/>
<path d="M44.2252 25.8426C42.8621 23.5709 39.3989 19.5387 32.721 16.1953C32.721 16.1953 30.7527 15.9259 30.6898 17.87C30.6748 18.3415 30.6658 19.159 30.6628 20.1265C30.6628 20.1265 30.6868 19.7683 30.6898 19.6305C30.7557 17.6863 32.721 17.9558 32.721 17.9558C39.3989 21.2961 42.8621 25.3313 44.2252 27.6031C44.4289 27.9429 44.5638 28.2614 44.6506 28.5308C44.8214 28.0011 44.8154 27.6521 44.8154 27.6521C44.8154 27.6521 44.8274 26.8499 44.2252 25.8426Z" fill="#213664"/>
</g>
<defs>
<clipPath id="clip0">
<rect width="60" height="60" fill="white" transform="translate(0 0.081543)"/>
</clipPath>
</defs>
</svg>
