<svg width="60" height="61" viewBox="0 0 60 61" fill="none" xmlns="http://www.w3.org/2000/svg">
<g clip-path="url(#clip0)">
<path d="M53.3568 11.3253C45.0402 2.27192 31.7654 2.62095 30.0008 2.70973C28.2362 2.62095 14.9584 2.27192 6.64485 11.3253C1.20431 17.2496 -0.910784 25.8407 0.356477 36.8321C0.380444 37.0831 0.949658 43.035 4.89225 48.9992C8.53825 54.5132 15.8632 61.0377 29.9828 60.805C30.2315 60.808 30.4772 60.8111 30.7198 60.8111C44.3991 60.8111 51.5263 54.4183 55.1094 48.9992C59.0519 43.035 59.6242 37.0831 59.6421 36.8627C60.9124 25.8407 58.7973 17.2496 53.3568 11.3253Z" fill="#0C3D76"/>
<path d="M53.1023 9.24633C44.8636 0.440955 31.6697 0.756308 29.998 0.83285C28.3233 0.756308 15.1324 0.437894 6.8937 9.24633C1.47114 15.0421 -0.640963 23.3882 0.608323 34.0367C0.63229 34.2816 1.20451 40.1264 5.12313 45.9435C8.68824 51.2372 15.7585 57.483 29.249 57.483C29.4857 57.483 29.7284 57.4799 29.968 57.4769C30.2107 57.4799 30.4534 57.483 30.69 57.483C44.2524 57.483 51.3257 51.2066 54.8729 45.9435C58.8005 40.1111 59.3607 34.3061 59.3817 34.0857C60.637 23.3974 58.5249 15.0421 53.1023 9.24633Z" fill="#213664"/>
<path d="M29.9978 2.70639C28.0145 2.59923 -1.33921 1.5552 2.45059 33.865C2.45059 33.865 4.46982 56.0224 29.9978 55.606C55.5257 56.0193 57.545 33.865 57.545 33.865C61.3378 1.5552 31.9811 2.59923 29.9978 2.70639Z" fill="#F7F2E0"/>
<path d="M29.9976 12.3079C31.6693 12.2498 52.1492 11.7691 57.5538 23.431C54.5519 1.80026 31.7382 2.61467 29.9976 2.70652C28.257 2.61161 5.44628 1.80026 2.44141 23.4279C7.84599 11.7691 28.3259 12.2467 29.9976 12.3079Z" fill="#FBF8F0"/>
<path d="M29.9979 48.1233C12.9842 48.304 6.06075 42.147 3.28955 37.7412C5.19793 44.0728 11.2736 55.9122 29.9979 55.6091C48.7222 55.9122 54.7979 44.0728 56.7063 37.7412C53.9351 42.147 47.0116 48.304 29.9979 48.1233Z" fill="#F1E0AD"/>
<path d="M44.5843 27.9416C43.3071 26.2459 38.1897 20.3353 25.967 15.4583L25.8735 15.4209L25.6923 15.3949C24.4773 15.2999 22.0277 15.775 21.4726 18.2624C21.4132 18.5302 20.0312 24.8841 20 30.8149C20.0312 36.7744 21.4132 43.0938 21.4726 43.3644C21.9456 45.4863 23.8798 46.2406 25.3892 46.2406C25.4969 46.2406 25.596 46.2377 25.6923 46.229L25.7914 46.2204L25.967 46.1628C38.1926 41.2858 43.3071 35.3781 44.5843 33.6824C45.669 32.2429 45.7143 31.0366 45.7143 30.812C45.7143 30.5874 45.669 29.3811 44.5843 27.9416Z" fill="#A1C0ED"/>
<path d="M22.4016 42.9054C22.9199 45.2288 25.6187 45.0186 25.6187 45.0186C36.1877 40.8037 41.6704 35.7166 43.8255 32.8491C44.7827 31.5794 44.76 30.566 44.76 30.566C44.76 30.566 44.7827 29.5526 43.8255 28.283C41.6704 25.4212 36.1877 20.334 25.6187 16.1192C25.6187 16.1192 22.9199 15.909 22.4016 18.2324C22.3931 18.2727 20.9828 24.6382 20.9517 30.5689C20.9828 36.4996 22.3931 42.8651 22.4016 42.9054Z" fill="#0C3D76"/>
<path d="M43.8255 28.2859C41.6704 25.4212 36.1877 20.334 25.6187 16.1192C25.6187 16.1192 22.9199 15.909 22.4016 18.2324C22.3931 18.2727 20.9828 24.6382 20.9517 30.5689C20.9545 31.0612 20.9658 31.5564 20.9856 32.0516C21.2065 26.5901 22.3903 21.2352 22.3988 21.1977C22.917 18.8744 25.6159 19.0846 25.6159 19.0846C36.1877 23.2994 41.6704 28.3866 43.8255 31.2541C44.0379 31.5362 44.1993 31.804 44.3267 32.0516C44.7714 31.1821 44.7572 30.5689 44.7572 30.5689C44.7572 30.5689 44.7827 29.5555 43.8255 28.2859Z" fill="#213664"/>
</g>
<defs>
<clipPath id="clip0">
<rect width="60" height="60" fill="white" transform="translate(0 0.811035)"/>
</clipPath>
</defs>
</svg>
