<svg width="60" height="60" viewBox="0 0 60 60" fill="none" xmlns="http://www.w3.org/2000/svg">
<path d="M53.3568 10.5142C45.0402 1.46088 31.7654 1.80991 30.0008 1.8987C28.2362 1.80991 14.9584 1.46088 6.64485 10.5142C1.20431 16.4386 -0.910784 25.0296 0.356477 36.021C0.380444 36.2721 0.949658 42.224 4.89225 48.1881C8.53825 53.7022 15.8632 60.2266 29.9828 59.9939C30.2315 59.997 30.4772 60.0001 30.7198 60.0001C44.3991 60.0001 51.5263 53.6073 55.1094 48.1881C59.0519 42.224 59.6242 36.2721 59.6421 36.0517C60.9124 25.0296 58.7973 16.4386 53.3568 10.5142Z" fill="#0C3D76"/>
<path d="M53.1023 8.43529C44.8636 -0.37008 31.6697 -0.0547269 29.998 0.0218149C28.3233 -0.0547269 15.1324 -0.373141 6.8937 8.43529C1.47114 14.231 -0.640963 22.5772 0.608323 33.2257C0.63229 33.4706 1.20451 39.3153 5.12313 45.1325C8.68824 50.4261 15.7585 56.672 29.249 56.672C29.4857 56.672 29.7284 56.6689 29.968 56.6658C30.2107 56.6689 30.4534 56.672 30.69 56.672C44.2524 56.672 51.3257 50.3955 54.8729 45.1325C58.8005 39.3 59.3607 33.4951 59.3817 33.2746C60.6369 22.5863 58.5248 14.231 53.1023 8.43529Z" fill="#213664"/>
<path d="M29.9978 1.89535C28.0145 1.7882 -1.33921 0.744166 2.45059 33.054C2.45059 33.054 4.46982 55.2113 29.9978 54.795C55.5257 55.2083 57.545 33.054 57.545 33.054C61.3378 0.744166 31.9811 1.7882 29.9978 1.89535Z" fill="#F7F2E0"/>
<path d="M29.9981 11.4969C31.6698 11.4387 52.1497 10.958 57.5543 22.6199C54.5524 0.989227 31.7387 1.80363 29.9981 1.89548C28.2575 1.80057 5.44677 0.989229 2.44189 22.6169C7.84648 10.958 28.3264 11.4357 29.9981 11.4969Z" fill="#FBF8F0"/>
<path d="M29.9979 47.3123C12.9842 47.493 6.06075 41.3359 3.28955 36.9302C5.19793 43.2617 11.2736 55.1012 29.9979 54.7981C48.7222 55.1012 54.7979 43.2617 56.7063 36.9302C53.9351 41.3359 47.0116 47.493 29.9979 47.3123Z" fill="#F1E0AD"/>
<path d="M42.9942 36.821H17.4347C15.4079 36.821 13.7573 35.1704 13.7573 33.1436L13.7573 27.2847C13.755 26.3036 14.1382 25.3802 14.8331 24.6853C15.5279 23.9905 16.4513 23.6073 17.4347 23.6073L42.9918 23.605C43.9753 23.605 44.8986 23.9882 45.5935 24.683C46.2884 25.3779 46.6716 26.3013 46.6716 27.2847V33.1436C46.6692 35.1727 45.021 36.821 42.9942 36.821Z" fill="#A1C0ED"/>
<path d="M43.0307 35.6393L17.4712 35.6393C16.0723 35.6393 14.9365 34.5035 14.9365 33.1045L14.9365 27.2456C14.9365 25.8467 16.0723 24.7109 17.4712 24.7109L43.0307 24.7109C44.4296 24.7109 45.5654 25.8467 45.5654 27.2456L45.5654 33.1046C45.5654 34.5035 44.4296 35.6393 43.0307 35.6393Z" fill="#0C3D76"/>
<path d="M14.9849 26.7586C15.2111 25.5905 16.2384 24.711 17.4711 24.711L43.0304 24.7109C44.4294 24.7109 45.5651 25.8467 45.5651 27.2456L45.5628 33.1069C45.5628 34.3396 44.681 35.3645 43.5152 35.5931C43.5452 35.4338 43.5637 35.2722 43.5637 35.106L43.5637 29.2425C43.5637 27.8435 42.4279 26.7078 41.029 26.7078L15.472 26.7101C15.3057 26.7101 15.1418 26.7263 14.9849 26.7586Z" fill="#213664"/>
</svg>
